<svg xmlns="http://www.w3.org/2000/svg" data-name="Layer 1" viewBox="0 0 512 512"><path fill="#e53950" d="M255.99978,131.5h.00043A215.99978,215.99978,0,0,1,472,347.49978V413.5a0,0,0,0,1,0,0H40a0,0,0,0,1,0,0V347.49978A215.99978,215.99978,0,0,1,255.99978,131.5Z"/><path fill="#ca2e43" d="M346.21881,151.2002a215.54937,215.54937,0,0,1,78.15881,166.29956v.00006A66.00018,66.00018,0,0,1,358.37745,383.5H40v30H472V347.49976A216.02379,216.02379,0,0,0,346.21881,151.2002Z"/><path fill="#f1f6f9" d="M319.87618,86.37618c0,5.361-8.5689,9.52459-9.89047,14.46895-1.36738,5.11575,3.9313,12.99771,1.33982,17.47673-2.62875,4.54343-12.12805,3.87774-15.81537,7.565s-3.02171,13.18654-7.56515,15.81522c-4.479,2.59138-12.36079-2.70742-17.47646-1.3401-4.94423,1.3215-9.10768,9.89037-14.46855,9.89037-5.361,0-9.52459-8.5689-14.469-9.89047-5.11575-1.36738-12.99771,3.93129-17.47673,1.33981-4.54343-2.62874-3.87774-12.128-7.565-15.81536s-13.18654-3.02171-15.81522-7.56515c-2.59138-4.479,2.70742-12.36079,1.3401-17.47646-1.3215-4.94423-9.89037-9.10768-9.89037-14.46855,0-5.361,8.5689-9.52459,9.89047-14.469,1.36738-5.11575-3.93129-12.99771-1.33981-17.47673,2.62874-4.54343,12.128-3.87774,15.81536-7.565S219.51155,33.679,224.055,31.05027c4.479-2.59138,12.36079,2.70742,17.47646,1.34009C246.47568,31.06887,250.63913,22.5,256,22.5c5.361,0,9.52459,8.5689,14.469,9.89047,5.11575,1.36738,12.99771-3.9313,17.47673-1.33982,4.54343,2.62875,3.87774,12.128,7.565,15.81537s13.18654,3.02171,15.81522,7.56515c2.59138,4.479-2.70742,12.36079-1.3401,17.47646C311.30731,76.85186,319.87618,81.01531,319.87618,86.37618Z"/><path fill="#f1f6f9" d="M311.33,118.32007C308.7,122.87,299.2,122.2,295.51,125.89c-3.57,3.56995-3.06,12.59-7.15,15.53992a3.59566,3.59566,0,0,1-.41.27,2.78556,2.78556,0,0,1-.34.18,9.08993,9.08993,0,0,1-5.65.2c-3.72-.74-7.85-2.42005-11.03-1.82a3.80176,3.80176,0,0,0-.46.1c-4.95,1.31994-9.11,9.89-14.47,9.89s-9.52-8.57007-14.47-9.89c-5.11-1.37-13,3.93-17.48,1.34a5.978,5.978,0,0,1-2.03-2.05994c-2.41-3.85-2.52-10.74011-5.53-13.75-1.38995-1.39-3.59-2.16-5.94-2.81994-3.92-1.11011-8.24-1.91016-9.88-4.75-2.59-4.4801,2.71-12.36011,1.34-17.4801-1.32-4.94007-9.89-9.1-9.89-14.46s8.57-9.53,9.89-14.47009c1.37-5.11987-3.93-13-1.34-17.48C203.3,49.89,212.8,50.55005,216.49,46.87c3.69-3.69007,3.02-13.19007,7.56-15.81995,4.48-2.59009,12.37,2.71,17.48,1.34,4.95-1.31994,9.11-9.89,14.47-9.89s9.52,8.57007,14.47,9.89a8.24851,8.24851,0,0,0,2.79.19c4.88-.38,10.96-3.68006,14.69-1.52991a5.32668,5.32668,0,0,1,1.44,1.24c3,3.60986,2.88,11.34,6.12,14.58a3.79564,3.79564,0,0,0,.37.33v.01c3.92,3.3,12.9,2.83008,15.45,7.22,2.59,4.48-2.71,12.36011-1.34,17.48C311.31,76.85,319.88,81.02,319.88,86.38s-8.57,9.5199-9.89,14.47C308.62,105.96,313.92,113.84,311.33,118.32007Z"/><path fill="#dde8ef" d="M311.33,118.32007C308.7,122.87,299.2,122.2,295.51,125.89c-3.57,3.56995-3.06,12.59-7.15,15.53992a3.59566,3.59566,0,0,1-.41.27,2.78556,2.78556,0,0,1-.34.18,6.93615,6.93615,0,0,1-5.65.2c-3.08-.96-6.37-2.9-11.03-1.82a3.80176,3.80176,0,0,0-.46.1c-4.95,1.31994-9.11,9.89-14.47,9.89s-9.52-8.57007-14.47-9.89c-5.11-1.37-13,3.93-17.48,1.34a5.978,5.978,0,0,1-2.03-2.05994c32.12-6.34,56.62-29.34,61.81-57.51,4.46-24.20007-6.9-43.75-10.57-49.55,4.88-.38,10.96-3.68006,14.69-1.52991a5.32668,5.32668,0,0,1,1.44,1.24c3,3.60986,2.88,11.34,6.12,14.58a3.79564,3.79564,0,0,0,.37.33v.01c3.92,3.3,12.9,2.83008,15.45,7.22,2.59,4.48-2.71,12.36011-1.34,17.48C311.31,76.85,319.88,81.02,319.88,86.38s-8.57,9.5199-9.89,14.47C308.62,105.96,313.92,113.84,311.33,118.32007Z"/><path fill="#f1f6f9" d="M504.5,443.5v16a29.99808,29.99808,0,0,1-30,30H37.5a29.99808,29.99808,0,0,1-30-30v-16a30.01443,30.01443,0,0,1,30-30h437a30.01419,30.01419,0,0,1,30,30Z"/><path fill="#dde8ef" d="M503.27,435.01A29.98077,29.98077,0,0,0,474.5,413.5H459.26886a29.73118,29.73118,0,0,1,3.228,13.5v16a29.99809,29.99809,0,0,1-30,30H10.71057A29.99044,29.99044,0,0,0,37.5,489.5h437a29.99808,29.99808,0,0,0,30-30v-16A29.74172,29.74172,0,0,0,503.27,435.01Z"/><path fill="#282828" d="M174.39455,283.52148a7.5,7.5,0,0,0-3.82617,14.50391l18.12048,4.78027-16.25622,9.24024a7.50012,7.50012,0,1,0,7.41211,13.041l16.5578-9.41162-4.88153,17.936a7.50009,7.50009,0,1,0,14.47363,3.93945l8.79846-32.3291,32.51306-18.48047v38.10693l-24.03808,23.66553a7.50012,7.50012,0,1,0,10.52343,10.68945l13.51465-13.30566v18.73926a7.5,7.5,0,0,0,15,0V345.89746l13.51465,13.30566a7.50012,7.50012,0,1,0,10.52344-10.68945l-24.03809-23.66553V285.38623L297.203,305.22168l8.79847,32.3291a7.50009,7.50009,0,0,0,14.47363-3.93945l-4.88153-17.936,16.5578,9.41162a7.50012,7.50012,0,0,0,7.41211-13.041l-16.25623-9.24024,18.12049-4.78027a7.50005,7.50005,0,0,0-3.82618-14.50391L304.666,292.21,271.1755,273.17383l33.491-19.03662,32.93506,8.688a7.50005,7.50005,0,0,0,3.82618-14.50391L323.30782,243.541l18.63947-10.59473a7.50013,7.50013,0,0,0-7.41211-13.041L315.5934,230.67188l4.88172-17.93653a7.50009,7.50009,0,0,0-14.47363-3.93945l-8.79865,32.32959-34.89667,19.83545V222.854l24.03809-23.6665a7.50012,7.50012,0,0,0-10.52344-10.68945l-13.51465,13.30566V180.35547a7.5,7.5,0,0,0-15,0v21.44824l-13.51465-13.30566a7.50012,7.50012,0,0,0-10.52343,10.68945l24.03808,23.6665v36.752l-32.51288-18.48047-8.79864-32.32959a7.50009,7.50009,0,0,0-14.47363,3.93945l4.88171,17.93653L177.461,219.90527a7.50013,7.50013,0,0,0-7.41211,13.041L188.68831,243.541l-18.11993,4.78027a7.50005,7.50005,0,1,0,3.82617,14.50391l32.93506-8.688,33.491,19.03662L207.33016,292.21ZM511.99807,442.49609a7.55593,7.55593,0,0,0-.04608-.81494,37.55462,37.55462,0,0,0-32.45392-35.34179V347.49609A223.56114,223.56114,0,0,0,305.93838,129.61426c4.05352-1.11377,9.12939-2.79151,11.87707-7.541,2.95361-5.10449,1.50537-10.5664.34131-14.95508a25.228,25.228,0,0,1-.90674-4.29687,26.24414,26.24414,0,0,1,2.79932-3.07422c3.09131-3.0918,7.3247-7.32617,7.3247-13.375s-4.23339-10.2832-7.3247-13.375A26.41053,26.41053,0,0,1,317.25,69.92383a25.22772,25.22772,0,0,1,.90674-4.2959c1.16406-4.38965,2.61279-9.85156-.34131-14.957-2.98242-5.1543-8.71094-6.69336-12.894-7.81641a25.68437,25.68437,0,0,1-4.08789-1.31738,25.68892,25.68892,0,0,1-1.3169-4.08789c-1.12353-4.18262-2.66211-9.91113-7.8164-12.89356-5.105-2.9541-10.56788-1.50683-14.957-.34179a25.23223,25.23223,0,0,1-4.29589.90625,26.32249,26.32249,0,0,1-3.07422-2.79883c-3.0918-3.0918-7.32666-7.3252-13.375-7.3252s-10.28321,4.2334-13.375,7.3252a26.3233,26.3233,0,0,1-3.07422,2.79883,25.23231,25.23231,0,0,1-4.2959-.90625c-4.38769-1.16309-9.84863-2.61328-14.95605.34082-5.1543,2.98242-6.69288,8.71-7.81641,12.89258a25.6839,25.6839,0,0,1-1.31738,4.08886,25.66014,25.66014,0,0,1-4.08838,1.31739c-4.18311,1.124-9.91162,2.6621-12.894,7.81738-2.95361,5.10449-1.50537,10.5664-.3413,14.95508a25.22785,25.22785,0,0,1,.90673,4.29687,26.244,26.244,0,0,1-2.79931,3.07422c-3.09131,3.0918-7.32471,7.32617-7.32471,13.375s4.2334,10.2832,7.32471,13.375a26.41124,26.41124,0,0,1,2.79931,3.07324,25.22855,25.22855,0,0,1-.90673,4.2959c-1.16407,4.38965-2.6128,9.85156.3413,14.957,2.74561,4.74512,7.81592,6.42432,11.86786,7.5376A223.27339,223.27339,0,0,0,113.378,175.40723a7.50012,7.50012,0,0,0,9.57715,11.54492,208.16827,208.16827,0,0,1,92.34082-43.9751,13.47216,13.47216,0,0,0,5,5.21143c5.105,2.9541,10.56787,1.50586,14.957.34179a25.23231,25.23231,0,0,1,4.2959-.90625,26.3233,26.3233,0,0,1,3.07422,2.79883c3.09179,3.0918,7.32666,7.3252,13.375,7.3252s10.2832-4.2334,13.375-7.3252a26.32249,26.32249,0,0,1,3.07422-2.79883,25.23223,25.23223,0,0,1,4.29589.90625c4.38819,1.165,9.84961,2.61621,14.95606-.34082a13.48079,13.48079,0,0,0,5.00006-5.2124,208.552,208.552,0,0,1,167.79877,204.519v58.5H442.46926a7.5,7.5,0,1,0,0,15h32.02881a22.532,22.532,0,0,1,20.94549,14.29834c-16.478,1.12549-26.05395,5.28174-35.35321,9.32276-9.91455,4.30957-19.27929,8.3789-38.4292,8.3789s-28.51464-4.06933-38.4292-8.3789c-10.88427-4.72949-22.13916-9.6211-44.40771-9.6211-22.26758,0-33.522,4.89161-44.40576,9.6211-9.91406,4.30957-19.27832,8.3789-38.42725,8.3789-19.148,0-28.51172-4.06933-38.42529-8.37793-10.88379-4.73046-22.13818-9.62207-44.40527-9.62207-22.26758,0-33.522,4.89161-44.40528,9.62207-9.91406,4.3086-19.27783,8.37793-38.42627,8.37793s-28.5122-4.06933-38.42627-8.37793c-9.29834-4.0415-18.87372-8.19775-35.35028-9.32373a22.53193,22.53193,0,0,1,20.9455-14.29834H412.46926a7.5,7.5,0,0,0,0-15H47.49807v-58.5a207.99511,207.99511,0,0,1,54.20361-140.23437A7.5,7.5,0,0,0,90.604,197.16992a222.965,222.965,0,0,0-58.106,150.32617v58.84327A37.55462,37.55462,0,0,0,.04415,441.68115a7.55593,7.55593,0,0,0-.04608.81494c0,.1128.012.22266.0169.33448-.0039.22216-.0169.44238-.0169.66552v16a37.54225,37.54225,0,0,0,37.5,37.5h437a37.54226,37.54226,0,0,0,37.5-37.5v-16c0-.22314-.013-.44336-.01691-.66552C511.9861,442.71875,511.99807,442.60889,511.99807,442.49609ZM301.03078,115.4043c-3.62109.97168-7.7251,2.07422-10.82568,5.1748-3.10108,3.10156-4.20313,7.20508-5.17578,10.82617-.28174,1.04785-.66651,2.48047-1.02686,3.43457-.99072-.165-2.38916-.53613-3.41406-.80761-3.64648-.96778-7.77979-2.06836-12.05908-.91993-4.17383,1.11622-7.14258,4.084-9.76221,6.70313-.77148.77148-1.937,1.93652-2.769,2.59375-.832-.65723-1.99756-1.82227-2.76905-2.59375-2.61962-2.61914-5.58837-5.58691-9.76318-6.7041a14.84307,14.84307,0,0,0-3.854-.48828,32.05049,32.05049,0,0,0-8.2041,1.4082c-1.0254.27246-2.42383.64355-3.415.80859-.24573-.65039-.50061-1.521-.72852-2.34277l-.00671-.02393c-.10388-.375-.20356-.74169-.29114-1.06787-.97266-3.62109-2.07471-7.72558-5.17627-10.82715-3.10059-3.0996-7.2041-4.20214-10.82471-5.1748-1.04785-.28125-2.481-.666-3.43554-1.02637.16552-.99121.53613-2.39062.8081-3.415.96729-3.64648,2.06348-7.78027.91992-12.05761-1.11523-4.17383-4.084-7.14356-6.70361-9.7627-.77148-.77246-1.93652-1.9375-2.59326-2.76953.65674-.832,1.82178-1.99707,2.59326-2.76953,2.61963-2.61914,5.58838-5.58887,6.70361-9.7627,1.14356-4.27832.04737-8.41211-.91992-12.05957-.27148-1.02441-.64209-2.42187-.80762-3.41308.95459-.36035,2.38721-.74512,3.43506-1.02735,3.6211-.97168,7.7251-2.07422,10.82569-5.1748,3.10107-3.10156,4.20312-7.20508,5.17578-10.82617.28174-1.04785.6665-2.48047,1.02685-3.43457.99073.165,2.38916.53613,3.41407.80761,3.646.96582,7.77929,2.06446,12.05908.91993,4.17383-1.11622,7.14258-4.084,9.7622-6.70313.77149-.77148,1.937-1.93652,2.76905-2.59375.832.65723,1.99756,1.82227,2.769,2.59375,2.61963,2.61914,5.58838,5.58691,9.76318,6.7041,4.2793,1.14551,8.41163.04688,12.05811-.91992,1.0249-.27246,2.42383-.64355,3.41455-.80859.36084.9541.74561,2.38769,1.02686,3.43554.97265,3.6211,2.0747,7.72461,5.17627,10.82618,3.10058,3.0996,7.2041,4.20214,10.8247,5.1748,1.04785.28125,2.481.666,3.43555,1.02637-.16553.99121-.53613,2.39062-.80811,3.415-.96728,3.64648-2.06347,7.78027-.91992,12.05761,1.11524,4.17383,4.084,7.14356,6.70362,9.7627.77148.77246,1.93652,1.9375,2.59326,2.76953-.65674.832-1.82178,1.99707-2.59326,2.76953-2.61963,2.61914-5.58838,5.58887-6.70362,9.7627-1.14355,4.27832-.04736,8.41211.91992,12.05957.27149,1.02441.64209,2.42187.80762,3.41308C303.51125,114.7373,302.07863,115.12207,301.03078,115.4043ZM496.99807,459.49609a22.52554,22.52554,0,0,1-22.5,22.5h-437a22.52554,22.52554,0,0,1-22.5-22.5V450.228c14.27893.9165,22.40222,4.4414,30.92578,8.146,10.88379,4.73047,22.13818,9.62207,44.40527,9.62207s33.52149-4.8916,44.40479-9.62109c9.91406-4.30957,19.27832-8.37891,38.42676-8.37891s28.5122,4.06934,38.42626,8.37891c10.88331,4.72949,22.1377,9.62109,44.4043,9.62109,22.26758,0,33.522-4.8916,44.40576-9.62109,9.91407-4.30957,19.27832-8.37891,38.42725-8.37891,19.1499,0,28.51465,4.06934,38.4292,8.37891,10.88428,4.72949,22.13916,9.62109,44.40771,9.62109s33.52344-4.8916,44.40772-9.62109c8.52447-3.70557,16.64862-7.23047,30.9292-8.147Z"/></svg>