<svg xmlns="http://www.w3.org/2000/svg" data-name="Layer 1" viewBox="0 0 512 512"><path fill="#f1f6f9" d="M478.87,71.82V474.5a29.99813,29.99813,0,0,1-30,30H63.13a29.99813,29.99813,0,0,1-30-30V71.82A30.05154,30.05154,0,0,1,63.17993,41.77H448.82007A30.05154,30.05154,0,0,1,478.87,71.82Z"/><path fill="#dde8ef" d="M448.86877,41.77118,448.87,41.82V392.5a82,82,0,0,1-82,82H33.13a29.99813,29.99813,0,0,0,30,30H448.87a30,30,0,0,0,30-30V71.82A30.05082,30.05082,0,0,0,448.86877,41.77118Z"/><path fill="#e53950" d="M478.87,71.82V148.95H33.13V71.82A30.05154,30.05154,0,0,1,63.17993,41.77H448.82007A30.05154,30.05154,0,0,1,478.87,71.82Z"/><path fill="#ca2e43" d="M448.86877 41.77118L448.87 41.82V65.89737A53.05258 53.05258 0 0 1 395.81742 118.95H33.13v30H478.87V71.82A30.05082 30.05082 0 0 0 448.86877 41.77118zM110.49158 86.63c2.26734 3.12385 4.04016 5.56623 3.29981 7.10914-1.78247 3.7146-18.788 3.58282-27.71363-6.49952C80.94092 81.43719 80.27723 74.3689 80.18152 71.33V41.77h15V71.33a7.81219 7.81219 0 0 0 7.81006 7.8C107.24683 79.13 108.22376 83.50562 110.49158 86.63z"/><path fill="#ca2e43" d="M383.01 86.63c2.26733 3.12385 4.04016 5.56623 3.2998 7.10914-1.78247 3.7146-18.788 3.58282-27.71362-6.49952C353.45935 81.43719 352.79565 74.3689 352.7 71.33V41.77h15V71.33a7.81219 7.81219 0 0 0 7.81006 7.8C379.76526 79.13 380.74219 83.50562 383.01 86.63zM246.79033 86.63c2.26734 3.12385 4.04017 5.56623 3.29981 7.10914-1.78247 3.7146-18.788 3.58282-27.71362-6.49952C217.23968 81.43719 216.576 74.3689 216.48028 71.33V41.77h15V71.33a7.81218 7.81218 0 0 0 7.81005 7.8C243.54558 79.13 244.52251 83.50562 246.79033 86.63z"/><path fill="#e53950" d="M315.9471,399.54453a53.87532,53.87532,0,0,1-42.022-19.98876,14.99992,14.99992,0,1,1,23.26319-18.94239,24.18473,24.18473,0,1,0,18.7705-39.44433c-9.86816,0-13.70556,1.40673-18.853,3.72412-.53955.24267-.88526.41113-.9961.46728a14.97579,14.97579,0,0,1-21.62207-15.80957l9.53662-57.561a15.0006,15.0006,0,0,1,14.79834-12.54834h48.14014a15,15,0,1,1,0,30h-35.4209L307.89388,291.461c2.46485-.19287,5.13135-.292,8.06494-.292a54.424,54.424,0,0,1,39.2959,16.88574,53.74912,53.74912,0,0,1,14.81787,40.16406,54.34824,54.34824,0,0,1-53.00293,51.31445Q316.5079,399.5443,315.9471,399.54453Z"/><path fill="#ca2e43" d="M346.96265 254.44141a15.00012 15.00012 0 0 1-15 15h15a15 15 0 0 0 0-30h-15A15.00012 15.00012 0 0 1 346.96265 254.44141zM297.18823 360.61328a14.99078 14.99078 0 0 0-19.12817-3.5022 14.932 14.932 0 0 1 4.12817 3.5022 24.16623 24.16623 0 0 0 26.25281 7.74011A24.08059 24.08059 0 0 1 297.18823 360.61328z"/><path fill="#ca2e43" d="M355.25464,308.05469a54.424,54.424,0,0,0-39.2959-16.88574c-2.93359,0-5.6001.09912-8.06494.292l3.64795-22.01953h-15l-3.64795,22.01953c2.46484-.19287,5.13135-.292,8.06494-.292a54.424,54.424,0,0,1,39.2959,16.88574,53.74912,53.74912,0,0,1,14.81787,40.16406,54.37046,54.37046,0,0,1-46.62769,50.79187,54.8574,54.8574,0,0,0,7.5022.53381q.56031,0,1.12256-.01123a54.34826,54.34826,0,0,0,53.00293-51.31445A53.74912,53.74912,0,0,0,355.25464,308.05469Z"/><path fill="#ca2e43" d="M282.10571,324.89307c-.10913.04907-.20446.09289-.29736.13549a14.92966,14.92966,0,0,0,14.30127.33179c.11084-.05615.45654-.22461.99609-.46728a35.74315,35.74315,0,0,1,9.43408-3.07532,24.40158,24.40158,0,0,0-5.58105-.6488C291.09058,321.169,287.25317,322.57568,282.10571,324.89307Z"/><path fill="#e53950" d="M227.24228,399.24912h-.04736l-65.29248-.20117a15,15,0,0,1-11.86377-24.11865c.18457-.24463,5.84522-7.79443,45.22754-64.06348,5.80371-8.293,9.54785-15.66845,11.13672-21.936l.38965-3.04639a17.78961,17.78961,0,0,0-35.21924-2.65234,15,15,0,0,1-29.4375-5.78223,47.78925,47.78925,0,0,1,94.6748,9.2461,15.005,15.005,0,0,1-.12109,1.90136l-.6333,4.95606a15.02368,15.02368,0,0,1-.2666,1.48681c-2.35742,10.167-7.72217,21.2793-15.94483,33.02832-12.84521,18.353-22.13183,31.56543-28.83886,41.06983l36.28173.11181a15,15,0,0,1-.04541,30Z"/><path fill="#ca2e43" d="M156.57336,283.231a14.952,14.952,0,0,1-7.22033,10.08593A14.97164,14.97164,0,0,0,171.57336,283.231a17.76615,17.76615,0,0,1,9.93128-12.64966A17.7447,17.7447,0,0,0,156.57336,283.231Z"/><path fill="#ca2e43" d="M227.28772,369.249l-36.28174-.11181c6.707-9.5044,15.99365-22.7168,28.83887-41.06983,8.22265-11.749,13.5874-22.86133,15.94482-33.02832a15.02077,15.02077,0,0,0,.2666-1.48681l.63331-4.95606a15.00693,15.00693,0,0,0,.12109-1.90137,47.71852,47.71852,0,0,0-55.25513-47.18676,47.8579,47.8579,0,0,1,40.25513,47.18676,15.00693,15.00693,0,0,1-.12109,1.90137l-.63331,4.95606a15.02077,15.02077,0,0,1-.2666,1.48681c-2.35742,10.167-7.72217,21.2793-15.94482,33.02832-12.84522,18.353-22.13184,31.56543-28.83887,41.06983l36.28174.11181a14.9905,14.9905,0,0,1,.81616,29.95667l14.09107.04333h.04736a15,15,0,0,0,.04541-30Z"/><path fill="#282828" d="M316.7842,283.6709l1.11572-6.7334h29.061a22.5,22.5,0,0,0,0-45H298.82082a22.42584,22.42584,0,0,0-22.19726,18.82227l-9.53663,57.56152a22.47522,22.47522,0,0,0,32.40967,23.72559c.105-.05176.3418-.16407.68653-.31934,4.34423-1.95606,7.21923-3.0625,15.77392-3.0625a16.70455,16.70455,0,0,1,16.66406,17.60644,16.69015,16.69015,0,0,1-29.61865,9.60254,22.49981,22.49981,0,1,0-34.895,28.41309A61.45436,61.45436,0,0,0,315.94533,407.04c.41895,0,.83936-.00391,1.27344-.0127a61.87448,61.87448,0,0,0,60.3418-58.42382,61.17752,61.17752,0,0,0-16.86865-45.7168A61.9685,61.9685,0,0,0,316.7842,283.6709Zm45.79688,64.15527a46.81767,46.81767,0,0,1-45.64991,44.2041c-.3291.00586-.65771.00977-.98584.00977a46.51552,46.51552,0,0,1-36.20605-17.22363,7.4999,7.4999,0,0,1,11.63183-9.47071A31.6848,31.6848,0,1,0,315.95705,313.665c-11.31787,0-16.229,1.81738-21.93457,4.38574-.71972.32422-1.17969.55176-1.35547.6416a7.4761,7.4761,0,0,1-10.78222-7.91992l9.53662-57.56055a7.4756,7.4756,0,0,1,7.39941-6.27441H346.961a7.5,7.5,0,0,1,0,15h-35.4209a7.49963,7.49963,0,0,0-7.39893,6.27441l-3.64795,22.01954a7.49976,7.49976,0,0,0,7.98536,8.70214c2.30761-.18066,4.7539-.26855,7.47851-.26855a46.88889,46.88889,0,0,1,33.85694,14.5498A46.319,46.319,0,0,1,362.58108,347.82617ZM448.8218,34.26953H416.75539V22.80273A22.83313,22.83313,0,0,0,393.94826-.00391H390.5049a22.83271,22.83271,0,0,0-22.80664,22.80664v11.4668H280.52688V22.80273A22.83313,22.83313,0,0,0,257.71975-.00391h-3.44336a22.83313,22.83313,0,0,0-22.80713,22.80664v11.4668H144.29787V22.80273A22.83271,22.83271,0,0,0,121.49123-.00391h-3.44336A22.83313,22.83313,0,0,0,95.24074,22.80273v11.4668H63.17434A37.59291,37.59291,0,0,0,25.624,71.82031V474.49609a37.54226,37.54226,0,0,0,37.5,37.5H448.87209a37.54225,37.54225,0,0,0,37.5-37.5V71.82031A37.5929,37.5929,0,0,0,448.8218,34.26953Zm-66.12354-11.4668a7.81537,7.81537,0,0,1,7.80664-7.80664h3.44336a7.81579,7.81579,0,0,1,7.80713,7.80664v11.4668H382.69826Zm-136.229,0a7.81579,7.81579,0,0,1,7.80713-7.80664h3.44336a7.81579,7.81579,0,0,1,7.80713,7.80664v11.4668H246.46926Zm-136.22852,0a7.81579,7.81579,0,0,1,7.80713-7.80664h3.44336a7.81537,7.81537,0,0,1,7.80664,7.80664v11.4668H110.24074ZM471.37209,141.4502H407.22658a7.5,7.5,0,0,0,0,15h64.14551V474.49609a22.52554,22.52554,0,0,1-22.5,22.5H63.124a22.52555,22.52555,0,0,1-22.5-22.5V156.4502H377.22658a7.5,7.5,0,0,0,0-15H40.624V71.82031a22.57619,22.57619,0,0,1,22.5503-22.55078h32.0664V71.32227a22.83313,22.83313,0,0,0,22.80713,22.80664,7.5,7.5,0,0,0,0-15,7.81579,7.81579,0,0,1-7.80713-7.80664V49.26953H231.46926V71.32227a22.83313,22.83313,0,0,0,22.80713,22.80664,7.5,7.5,0,0,0,0-15,7.81579,7.81579,0,0,1-7.80713-7.80664V49.26953h121.229V71.32227A22.83271,22.83271,0,0,0,390.5049,94.12891a7.5,7.5,0,0,0,0-15,7.81537,7.81537,0,0,1-7.80664-7.80664V49.26953H448.8218a22.57618,22.57618,0,0,1,22.55029,22.55078ZM227.3091,361.74512l-21.88037-.06739c5.97608-8.499,12.856-18.30859,20.5586-29.31347,8.77587-12.54,14.53125-24.5293,17.10693-35.63672.16943-.73242.30371-1.48145.39941-2.22949l.6333-4.95606a22.56276,22.56276,0,0,0,.18164-2.85156A55.28928,55.28928,0,0,0,134.77443,275.999a22.5,22.5,0,1,0,44.15625,8.67286,10.29031,10.29031,0,0,1,20.32715.98535l-.23535,1.83984c-1.4292,5.30273-4.75879,11.71387-9.90283,19.06348l-5.58984,7.98242a7.50037,7.50037,0,0,0,12.28418,8.60937l5.59472-7.99121c6.32422-9.03613,10.44971-17.24316,12.26221-24.39258a7.53229,7.53229,0,0,0,.16943-.8916l.38965-3.04687a7.48349,7.48349,0,0,0,.05274-1.28906,25.28953,25.28953,0,0,0-50.07081-3.75977,7.5,7.5,0,1,1-14.71875-2.8916,40.28933,40.28933,0,0,1,79.81543,7.80078,7.57336,7.57336,0,0,1-.06054.95117l-.6333,4.9541a7.52234,7.52234,0,0,1-.1333.74512c-2.13965,9.22754-7.11329,19.46289-14.78321,30.42188-11.55273,16.50585-21.25,30.31542-28.82226,41.04589a7.50027,7.50027,0,0,0,6.10449,11.82422l36.28223.11231a7.5,7.5,0,0,1-.04688,15l-65.29248-.20117a7.50091,7.50091,0,0,1-5.89844-12.10352c.396-.52539,6.73438-9.27734,22.93946-32.28223a7.5,7.5,0,1,0-12.2627-8.63867c-16.75879,23.791-22.29346,31.39551-22.66748,31.9082A22.50032,22.50032,0,0,0,161.87746,406.544l65.3628.20117a22.50005,22.50005,0,0,0,.06884-45Z"/></svg>