<svg xmlns="http://www.w3.org/2000/svg" data-name="Layer 1" viewBox="0 0 512 512"><path fill="#f1f6f9" d="M475.31006,106.88c.12988,23.5-25.1001,38.54-45.94006,27.66l-1.24-.65a31.40126,31.40126,0,0,1-16.61-27.49,35.49574,35.49574,0,0,0-18.43994-30.49c-17.3-9.42-39.15015-2.16-48.15015,15.36l-41.61987,81.01L276.95,223.58l-9.6,18.69L241,293.56,141.51,487.22a31.7429,31.7429,0,0,1-45.02,12.49c-14.39-8.88-19.1-27.65-11.37-42.69L205.05005,223.58l26.35-51.3,9.6-18.69,26.35-51.3,21.20007-41.26A98.48621,98.48621,0,0,1,421.76,18.71,100.02439,100.02439,0,0,1,475.31006,106.88Z"/><polygon fill="#e53950" points="183.567 405.356 151.409 327.981 119.576 389.943 151.734 467.317 183.567 405.356"/><polygon fill="#e53950" points="261.559 253.544 229.401 176.17 197.569 238.131 229.727 315.506 261.559 253.544"/><path fill="#e53950" d="M451.50565 42.49871l-40.14942 61.24681A35.441 35.441 0 0 0 392.52077 75.6114a34.80481 34.80481 0 0 0-24.6281-2.92333l39.4091-60.1174a98.97133 98.97133 0 0 1 44.20388 29.928zM307.57873 163.96737L275.42066 86.59265 288.55387 61.029A98.29969 98.29969 0 0 1 310.551 32.56638l28.8601 69.43954z"/><polygon fill="#dde8ef" points="303.31 172.28 267.35 242.27 231.4 172.28 267.35 102.29 303.31 172.28"/><polygon fill="#ca2e43" points="276.95 223.58 267.35 242.27 241 293.56 207.418 218.969 231.4 172.28 241 153.59 276.95 223.58"/><path fill="#f1f6f9" d="M82.62789,134.54c-20.83952,10.8788-46.06942-4.156-45.93828-27.66384A100.02587,100.02587,0,0,1,90.24494,18.70693,98.48407,98.48407,0,0,1,223.44608,61.029l203.43736,395.9898c7.98223,15.53737,2.61982,34.93141-12.63977,43.43263a31.73589,31.73589,0,0,1-43.75215-13.22933L167.05718,91.23818c-8.99228-17.50343-30.81813-24.7429-48.10708-15.34484a35.4952,35.4952,0,0,0-18.46819,30.51117A31.41417,31.41417,0,0,1,83.867,133.8931Z"/><polygon fill="#e53950" points="328.433 405.356 360.591 327.981 392.424 389.943 360.266 467.317 328.433 405.356"/><polygon fill="#e53950" points="250.441 253.544 282.599 176.17 314.431 238.131 282.273 315.506 250.441 253.544"/><path fill="#e53950" d="M60.49435 42.49871l40.14942 61.24681A35.441 35.441 0 0 1 119.47923 75.6114a34.80481 34.80481 0 0 1 24.6281-2.92333l-39.4091-60.1174a98.97133 98.97133 0 0 0-44.20388 29.928zM204.42127 163.96737l32.15807-77.37472L223.44613 61.029A98.29969 98.29969 0 0 0 201.449 32.56638l-28.8601 69.43954z"/><path fill="#282828" d="M425.22365,12.05469a105.984,105.984,0,0,0-143.34277,45.543L255.99807,107.978,230.11526,57.59766a105.98406,105.98406,0,0,0-143.34278-45.543,107.23926,107.23926,0,0,0-57.585,94.77539A38.1959,38.1959,0,0,0,47.69,139.88281a38.74887,38.74887,0,0,0,38.40918,1.30078l1.23682-.64648a38.98659,38.98659,0,0,0,20.64258-33.99023q.0183-.93458.09839-1.85938c.01-.07861.01953-.15771.02709-.23682a28.00534,28.00534,0,0,1,14.42627-21.97216,26.87973,26.87973,0,0,1,20.91944-1.98145A28.61117,28.61117,0,0,1,160.3843,94.66113l51.22864,99.71631L190.94643,234.604l-.01257.02442-22.967,44.70459a7.49957,7.49957,0,1,0,13.34179,6.85351l15.5409-30.249,24.61682,59.22314L184.284,387.53906l-24.616-59.22754,6.36035-12.38086a7.5,7.5,0,0,0-13.3418-6.85546l-7.90234,15.38232-.00977.019-31.81262,61.92578c-.01111.021-.02148.04248-.03259.06348L78.44777,453.58691c-9.58349,18.64649-3.38916,41.708,14.104,52.50293a39.24159,39.24159,0,0,0,55.62744-15.44726l42.05957-81.85938c.03906-.07617.07715-.15332.11377-.23047l45.95557-89.456c.017-.03076.032-.063.04834-.09424l.02966-.05762.0133-.022,19.59778-38.15137L363.81838,490.64453A39.182,39.182,0,0,0,417.89162,506.999c18.478-10.29394,25.50342-34.2539,15.66065-53.41211L357.68068,305.90332a7.49979,7.49979,0,0,0-13.34179,6.85449l7.99,15.55225-24.617,59.22949L290.532,315.16846l24.61646-59.23,13.61572,26.50293a7.5,7.5,0,1,0,13.34229-6.8545L300.3843,194.375l51.21289-99.68457A28.65416,28.65416,0,0,1,368.57229,80.499a26.8631,26.8631,0,0,1,20.917,1.99219,28.00819,28.00819,0,0,1,14.40283,21.96045c.00757.0791.01721.15772.02722.23633q.07929.92358.09827,1.85889a38.98639,38.98639,0,0,0,20.64014,33.98925l1.24169.64844a38.75177,38.75177,0,0,0,38.40674-1.30176,38.19586,38.19586,0,0,0,18.50244-33.05273A107.23926,107.23926,0,0,0,425.22365,12.05469ZM134.83645,483.78906a24.24219,24.24219,0,0,1-34.40967,9.53418c-10.87158-6.709-14.666-21.15136-8.63721-32.88086l27.06738-52.689L143.47243,466.981Zm17.616-34.28515-24.61621-59.2295,22.85205-44.48291,24.61817,59.23194Zm267.75806,10.93847c6.188,12.04395,1.87305,27.05078-9.61865,33.45313A24.23528,24.23528,0,0,1,377.16067,483.791l-8.63648-16.811,24.61621-59.22949ZM361.30861,345.78955l22.8523,44.48242L359.5447,449.50146l-22.85278-44.48291ZM274.69985,104.40039l24.61633,59.229-7.36377,14.3335L264.43,124.39062ZM92.98147,106.25391a23.99948,23.99948,0,0,1-12.58936,20.9873l-1.23682.64649a23.87428,23.87428,0,0,1-23.65576-.81153,23.311,23.311,0,0,1-11.312-20.16211A92.7978,92.7978,0,0,1,60.02126,55.45557l32.9856,50.31884C93.002,105.93506,92.98464,106.09326,92.98147,106.25391ZM115.36672,69.2998A42.78693,42.78693,0,0,0,98.2654,86.43652L69.92019,43.19629a91.95034,91.95034,0,0,1,23.7937-17.84473q3.92431-2.04858,7.97754-3.68945l28.14673,42.937A41.5074,41.5074,0,0,0,115.36672,69.2998ZM149.062,66.56494,116.6072,17.05615a91.18789,91.18789,0,0,1,75.81628,17.6753L171.773,84.418A43.7564,43.7564,0,0,0,149.062,66.56494Zm54.63819,79.58643L180.84768,101.669l23.22851-55.88868a91.72925,91.72925,0,0,1,12.69727,18.67188l11.54346,22.46924Zm26.74524,151.53076L205.82863,238.46l14.21607-27.67041L247.565,264.35791Zm19.27429-61.9541-37.04-72.09815,24.6167-59.23,37.04028,72.09864ZM306.169,238.46l-24.61658,59.23-18.97876-36.94189-.00525-.01026-3.86877-7.53076,24.61694-59.229,1.71643,3.34082a7.46331,7.46331,0,0,0,.47839.93115Zm2.12671-92.30908-24.61634-59.229,11.54334-22.46876a91.72244,91.72244,0,0,1,12.69726-18.67285l23.2284,55.88819ZM362.926,66.57715A43.80875,43.80875,0,0,0,340.22439,84.4209L319.57253,34.73145a91.18625,91.18625,0,0,1,75.81641-17.67481Zm50.8042,19.86035a42.7852,42.7852,0,0,0-17.06519-17.11816,41.47868,41.47868,0,0,0-14.509-4.71729L410.30446,21.6626q4.04737,1.64721,7.97779,3.689A91.95034,91.95034,0,0,1,442.076,43.19629Zm42.76635,40.63867a23.86515,23.86515,0,0,1-23.65332.8125l-1.2417-.64844a23.99935,23.99935,0,0,1-12.58691-20.98632c-.00317-.16065-.02051-.31934-.02539-.4795l32.98559-50.31884a92.79764,92.79764,0,0,1,15.83374,51.45849A23.311,23.311,0,0,1,456.4966,127.07617Z"/></svg>