<svg xmlns="http://www.w3.org/2000/svg" data-name="Layer 1" viewBox="0 0 512 512"><path fill="#fed402" d="M368.76571,143.29192c0,24.50029,16.60842,44.36166,37.096,44.36166s37.096-19.86137,37.096-44.36166S405.86168,82.5,405.86168,82.5,368.76571,118.79162,368.76571,143.29192Z"/><path fill="#fac600" d="M405.86182,82.5s-3.10108,3.03735-7.5,7.93091c10.83691,12.05517,29.5957,35.43481,29.5957,52.861,0,21.42761-12.70361,39.30627-29.5957,43.45386a31.38958,31.38958,0,0,0,7.5.90783c20.4873,0,37.0957-19.86132,37.0957-44.36169S405.86182,82.5,405.86182,82.5Z"/><path fill="#fdb441" d="M387.3137,165.47275c0,12.25015,8.30421,22.18083,18.548,22.18083s18.548-9.93068,18.548-22.18083-18.548-30.396-18.548-30.396S387.3137,153.2226,387.3137,165.47275Z"/><path fill="#fea613" d="M405.86182,135.07678s-.51026.49988-1.3501,1.37634c5.042,6.30079,10.6289,14.7959,10.6289,21.51978,0,12.25024-8.30419,22.18091-18.54785,22.18091a15.75046,15.75046,0,0,1-5.26757-.91284c3.39746,5.1228,8.644,8.41259,14.53662,8.41259,10.24365,0,18.54785-9.93066,18.54785-22.1809C424.40967,153.22266,405.86182,135.07678,405.86182,135.07678Z"/><path fill="#f1f6f9" d="M355.47941,453.5H456.244V235.19144a20,20,0,0,0-20-20H375.47941a20,20,0,0,0-20,20Z"/><path fill="#dde8ef" d="M436.24414,215.19141h-10V380.72468A27.77531,27.77531,0,0,1,398.46883,408.5H355.47949v45H456.24414V235.19141A20,20,0,0,0,436.24414,215.19141Z"/><path fill="#e5eef9" d="M463.95332,230.07847l.369,48.99135a22.41524,22.41524,0,0,1-22.41461,22.58407h0a22.41525,22.41525,0,0,1-22.41525-22.41525V266.199a18.8232,18.8232,0,0,0-18.82319-18.8232h0A18.8232,18.8232,0,0,0,381.846,266.199v3.1329a17.40628,17.40628,0,0,1-17.40628,17.40628h0a17.40629,17.40629,0,0,1-17.40556-17.24787l-.35644-39.16231a15,15,0,0,1,14.99938-15.13652h87.27669A15,15,0,0,1,463.95332,230.07847Z"/><path fill="#fed402" d="M219.26571,69.29192c0,24.50029,16.60842,44.36166,37.096,44.36166s37.096-19.86137,37.096-44.36166S256.36168,8.5,256.36168,8.5,219.26571,44.79162,219.26571,69.29192Z"/><path fill="#fdb441" d="M237.8137,91.47275c0,12.25015,8.30421,22.18083,18.548,22.18083s18.548-9.93068,18.548-22.18083-18.548-30.396-18.548-30.396S237.8137,79.2226,237.8137,91.47275Z"/><path fill="#fac600" d="M256.362,8.5s-3.10107,3.03735-7.5,7.93091c10.83692,12.05517,29.59571,35.43481,29.59571,52.861,0,21.42761-12.70362,39.30627-29.59571,43.45386a31.38971,31.38971,0,0,0,7.5.90783c20.48731,0,37.09571-19.86132,37.09571-44.36169S256.362,8.5,256.362,8.5Z"/><path fill="#fea613" d="M256.362,61.07679s-.51025.49988-1.35009,1.37634c5.042,6.30079,10.6289,14.7959,10.6289,21.51978,0,12.25024-8.3042,22.18091-18.54785,22.18091a15.75047,15.75047,0,0,1-5.26758-.91284c3.39746,5.1228,8.644,8.41259,14.53662,8.41259,10.24366,0,18.54785-9.93066,18.54785-22.1809C274.9098,79.22267,256.362,61.07679,256.362,61.07679Z"/><path fill="#f1f6f9" d="M205.97941,394.5H306.744V161.19144a20,20,0,0,0-20-20H225.97941a20,20,0,0,0-20,20Z"/><path fill="#dde8ef" d="M286.74414,141.19141h-10V338.4891A26.0109,26.0109,0,0,1,250.73324,364.5H205.97949v30H306.74414V161.19141A20,20,0,0,0,286.74414,141.19141Z"/><path fill="#e5eef9" d="M197.54668,156.07847l-.369,48.99135a22.41524,22.41524,0,0,0,22.41461,22.58407h0a22.41525,22.41525,0,0,0,22.41525-22.41525V192.199a18.8232,18.8232,0,0,1,18.82319-18.8232h0A18.8232,18.8232,0,0,1,279.654,192.199v3.1329a17.40628,17.40628,0,0,0,17.40628,17.40628h0a17.40629,17.40629,0,0,0,17.40556-17.24787l.35644-39.16231A15,15,0,0,0,299.823,141.19144H212.54626A15,15,0,0,0,197.54668,156.07847Z"/><path fill="#fed402" d="M69.404,143.4403c0,24.50029,16.60841,44.36166,37.096,44.36166s37.096-19.86137,37.096-44.36166S106.5,82.64838,106.5,82.64838,69.404,118.94,69.404,143.4403Z"/><path fill="#fdb441" d="M87.952,165.62113c0,12.25015,8.30421,22.18083,18.548,22.18083s18.548-9.93068,18.548-22.18083-18.548-30.396-18.548-30.396S87.952,153.371,87.952,165.62113Z"/><path fill="#fac600" d="M106.13859,82.64839s-3.10108,3.03735-7.5,7.93091c10.83691,12.05517,29.5957,35.43481,29.5957,52.861,0,21.42761-12.70361,39.30627-29.5957,43.45386a31.38958,31.38958,0,0,0,7.5.90783c20.4873,0,37.0957-19.86132,37.0957-44.36169S106.13859,82.64839,106.13859,82.64839Z"/><path fill="#fea613" d="M106.13859,135.22517s-.51026.49988-1.3501,1.37634c5.042,6.30079,10.62891,14.7959,10.62891,21.51978,0,12.25024-8.3042,22.18091-18.54786,22.18091a15.75046,15.75046,0,0,1-5.26757-.91284c3.39746,5.1228,8.644,8.41259,14.53662,8.41259,10.24365,0,18.54785-9.93066,18.54785-22.1809C124.68644,153.37105,106.13859,135.22517,106.13859,135.22517Z"/><path fill="#f1f6f9" d="M56.11773,453.64838H156.88227V235.33983a20,20,0,0,0-20-20H76.11773a20,20,0,0,0-20,20Z"/><path fill="#dde8ef" d="M136.88232,215.33984h-10v167.3086a26,26,0,0,1-26,26H56.11768v45l100.76462,0V235.33983A20,20,0,0,0,136.88232,215.33984Z"/><path fill="#e5eef9" d="M47.685,230.22685l-.369,48.99135a22.41525,22.41525,0,0,0,22.41461,22.58407h.00005A22.41524,22.41524,0,0,0,92.1459,279.387V266.34734a18.82319,18.82319,0,0,1,18.8232-18.82319h0a18.82319,18.82319,0,0,1,18.82319,18.82319v3.1329a17.40628,17.40628,0,0,0,17.40628,17.40628h0a17.40629,17.40629,0,0,0,17.40556-17.24786l.35643-39.16232a15,15,0,0,0-14.99937-15.13651H62.68457A15,15,0,0,0,47.685,230.22685Z"/><path fill="#685e68" d="M7.5,438.5h497a0,0,0,0,1,0,0v.00007A65.99993,65.99993,0,0,1,438.50007,504.5H73.49993A65.99993,65.99993,0,0,1,7.5,438.50007V438.5A0,0,0,0,1,7.5,438.5Z"/><path fill="#554e56" d="M467.28174,438.5A65.98025,65.98025,0,0,1,408.5,474.5H43.5a65.71088,65.71088,0,0,1-29.19434-6.80566A65.991,65.991,0,0,0,73.5,504.5h365a66.00015,66.00015,0,0,0,66-66H467.28174Z"/><path fill="#46cc8d" d="M257.70126,460.99563c19.80642,3.21582,42.24974,9.06855,62.16136,12.38956a2.98811,2.98811,0,0,0,3.49071-2.66063c1.09935-13.144,8.5947-24.74312,19.8847-30.312a35.23375,35.23375,0,0,1,21.68353-2.89135,2.99156,2.99156,0,0,0,3.14671-4.31584,36.58855,36.58855,0,0,1-3.11654-25.46392c3.109-12.54,11.91388-19.60205,16.94714-22.73173a2.98383,2.98383,0,0,0,.57532-4.59325c-3.8-3.99363-9.77346-12.076-9.69906-23.48524a32.59466,32.59466,0,0,1,2.36858-11.94913,2.99611,2.99611,0,0,0-3.9055-3.9055,32.59466,32.59466,0,0,1-11.94913,2.36858c-11.40923.0744-19.49161-5.8991-23.48524-9.69906a2.98383,2.98383,0,0,0-4.59325.57532c-3.12968,5.03326-10.19171,13.83818-22.73173,16.94714a36.58855,36.58855,0,0,1-25.46392-3.11654,2.99156,2.99156,0,0,0-4.31584,3.14671,35.23375,35.23375,0,0,1-2.89135,21.68353c-5.56891,11.29-17.168,18.78535-30.312,19.8847a2.98811,2.98811,0,0,0-2.66063,3.49071c3.321,19.91162,9.17374,42.35494,12.38956,62.16136A2.98336,2.98336,0,0,0,257.70126,460.99563Z"/><path fill="#00c27a" d="M382.47412,380.4165c-3.7998-3.99365-9.77344-12.07617-9.69873-23.48535a32.59018,32.59018,0,0,1,2.36816-11.94909,2.996,2.996,0,0,0-3.90527-3.90552,32.59612,32.59612,0,0,1-11.94922,2.36853c-.501.00342-.9873-.01917-1.47558-.03858a34.2324,34.2324,0,0,0,9.66064,22.01,2.98389,2.98389,0,0,1-.57519,4.59327c-5.03321,3.12963-13.83838,10.19165-16.94727,22.73169a36.58875,36.58875,0,0,0,3.1167,25.46386,2.99168,2.99168,0,0,1-3.147,4.31592,35.23077,35.23077,0,0,0-21.68311,2.89136c-11.29,5.56885-18.78564,17.168-19.88476,30.312a2.98845,2.98845,0,0,1-3.49073,2.66064c-16.42724-2.73974-34.57373-7.19946-51.54443-10.48327.69678,3.60022,1.34375,7.15075,1.90625,10.61706a2.983,2.983,0,0,0,2.47656,2.47657c19.80664,3.21582,42.25,9.0686,62.16162,12.38964a2.98845,2.98845,0,0,0,3.49073-2.66064c1.09912-13.144,8.59472-24.74316,19.88476-30.312a35.23077,35.23077,0,0,1,21.68311-2.89136,2.99168,2.99168,0,0,0,3.147-4.31592,36.58875,36.58875,0,0,1-3.1167-25.46386c3.10889-12.54,11.91406-19.60206,16.94727-22.73169A2.98389,2.98389,0,0,0,382.47412,380.4165Z"/><path fill="#00c27a" d="M255.77832,467.94141a7.5,7.5,0,0,1-5.30371-12.80371l71.3457-71.34473a7.50058,7.50058,0,0,1,10.60742,10.60742L261.082,465.74512A7.481,7.481,0,0,1,255.77832,467.94141Z"/><path fill="#46cc8d" d="M254.29874,460.99563c-19.80642,3.21582-42.24974,9.06855-62.16136,12.38956a2.98811,2.98811,0,0,1-3.49071-2.66063c-1.09935-13.144-8.5947-24.74312-19.8847-30.312a35.23375,35.23375,0,0,0-21.68353-2.89135,2.99156,2.99156,0,0,1-3.14671-4.31584,36.58855,36.58855,0,0,0,3.11654-25.46392c-3.109-12.54-11.91388-19.60205-16.94714-22.73173a2.98383,2.98383,0,0,1-.57532-4.59325c3.8-3.99363,9.77346-12.076,9.69906-23.48524a32.59466,32.59466,0,0,0-2.36858-11.94913,2.99611,2.99611,0,0,1,3.9055-3.9055,32.59466,32.59466,0,0,0,11.94913,2.36858c11.40923.0744,19.49161-5.8991,23.48524-9.69906a2.98383,2.98383,0,0,1,4.59325.57532c3.12968,5.03326,10.19171,13.83818,22.73173,16.94714a36.58855,36.58855,0,0,0,25.46392-3.11654,2.99156,2.99156,0,0,1,4.31584,3.14671,35.23375,35.23375,0,0,0,2.89135,21.68353c5.56891,11.29,17.168,18.78535,30.312,19.8847a2.98811,2.98811,0,0,1,2.66063,3.49071c-3.321,19.91162-9.17374,42.35494-12.38956,62.16136A2.98336,2.98336,0,0,1,254.29874,460.99563Z"/><path fill="#00c27a" d="M256.22168,467.94141a7.481,7.481,0,0,1-5.30371-2.19629l-71.3457-71.34473A7.50058,7.50058,0,1,1,190.17969,383.793l71.3457,71.34473a7.5,7.5,0,0,1-5.30371,12.80371Z"/><circle cx="256" cy="457.134" r="47.366" fill="#e53950"/><path fill="#ca2e43" d="M281.13818,416.99634a47.35777,47.35777,0,0,1-65.27636,65.27612,47.36157,47.36157,0,1,0,65.27636-65.27612Z"/><path fill="#282828" d="M504.49807,430.99609H463.7383V299.67334a29.68634,29.68634,0,0,0,8.082-20.66455l-.36914-48.99121v.001a22.56,22.56,0,0,0-22.499-22.33105H413.3594V194.38867c21.02978-4.15967,37.09668-25.478,37.09668-51.10058,0-26.87989-35.32422-62.21289-39.35157-66.15332a7.50117,7.50117,0,0,0-10.49023,0c-4.02735,3.94043-39.35059,39.27343-39.35059,66.15332,0,25.62255,16.0669,46.94043,37.09571,51.10058V207.6875H361.67483a22.50016,22.50016,0,0,0-22.499,22.70508l.35645,39.16211a24.8627,24.8627,0,0,0,8.44629,18.41992v45.28906a29.43321,29.43321,0,0,1-8.27149-6.2334,8.59357,8.59357,0,0,0-13.9375,1.72852,31.79911,31.79911,0,0,1-12.251,12.52832V325.47852a7.5,7.5,0,0,0-15,0v19.27832a31.29554,31.29554,0,0,1-14.96875-4.91993,8.607,8.607,0,0,0-12.95606,9.54493c1.14551,4.10351,2.4707,12.19433-1.51269,20.27636a27.87775,27.87775,0,0,1-13.08252,12.71631A27.92854,27.92854,0,0,1,242.917,369.66113c-3.98535-8.0791-2.6582-16.17187-1.51172-20.27734a8.60967,8.60967,0,0,0-12.93261-9.56543,31.11272,31.11272,0,0,1-15.71875,4.98144V233.36133a29.929,29.929,0,0,0,36.75195-29.127V191.19531a11.32324,11.32324,0,1,1,22.64648,0v3.13281a24.93441,24.93441,0,0,0,24.90625,24.90626c.49024,0,.97657-.01856,1.46-.04688V294.124a7.5,7.5,0,0,0,15,0V212.97363a24.86056,24.86056,0,0,0,8.44531-18.41894l.35644-39.16211a22.50016,22.50016,0,0,0-22.499-22.70508H263.13674V119.38867c21.02881-4.16015,37.0957-25.478,37.0957-51.10058,0-26.87989-35.32324-62.21289-39.35058-66.15332a7.50118,7.50118,0,0,0-10.49024,0c-4.02734,3.94043-39.35156,39.27343-39.35156,66.15332,0,25.62255,16.06689,46.94091,37.09668,51.10058V132.6875H212.544a22.55986,22.55986,0,0,0-22.499,22.33008l-.36914,48.99121a29.68566,29.68566,0,0,0,8.07813,20.66016V340.88818a31.89115,31.89115,0,0,1-11.52442-12.13037,8.601,8.601,0,0,0-13.9209-1.7539,29.4172,29.4172,0,0,1-8.291,6.25927l-.00342-45.28564a24.86277,24.86277,0,0,0,8.44971-18.42285l.35644-39.16211a22.50016,22.50016,0,0,0-22.499-22.70508H113.63674V194.38867c21.02881-4.16015,37.0957-25.478,37.0957-51.10058,0-26.87989-35.32324-62.21289-39.35058-66.15332a7.50118,7.50118,0,0,0-10.49024,0c-4.02734,3.94043-39.35156,39.27343-39.35156,66.15332,0,25.62255,16.06689,46.94091,37.09668,51.10058V207.6875H63.044a22.55986,22.55986,0,0,0-22.499,22.33008l-.36914,48.99121a29.69966,29.69966,0,0,0,8.54053,21.14941l-.4375,130.8086-40.78565.02929a7.50027,7.50027,0,0,0-7.49511,7.5,73.58288,73.58288,0,0,0,73.5,73.5h365a73.58288,73.58288,0,0,0,73.5-73.5A7.49944,7.49944,0,0,0,504.49807,430.99609Zm-128.23438-287.708c0-14.85254,18.17383-37.64844,29.57617-49.98243,3.38379,3.66895,8.00391,8.92676,12.6084,14.95313,10.96778,14.35059,17.00782,26.791,17.00782,35.0293a43.7381,43.7381,0,0,1-3.92579,18.30957C429,147.84473,414.27688,132.81494,411.10451,129.71094a7.50119,7.50119,0,0,0-10.49023,0c-3.17236,3.10449-17.895,18.13427-20.42481,31.88672A43.73658,43.73658,0,0,1,376.26369,143.28809Zm18.54785,22.18066c0-4.65234,5.52149-12.84863,11.05274-19.36426,5.53027,6.50391,11.04394,14.69141,11.04394,19.36426,0,7.958-5.05957,14.68066-11.04882,14.68066C399.87111,180.14941,394.81154,173.42676,394.81154,165.46875ZM356.34768,224.9082a7.44793,7.44793,0,0,1,5.32715-2.2207h87.27734a7.51876,7.51876,0,0,1,7.499,7.44238v.001l.36914,48.99121a14.91525,14.91525,0,1,1-29.83007.11231V266.19531a26.32324,26.32324,0,0,0-52.64649,0v3.13281a9.906,9.906,0,0,1-19.81152.08985l-.35645-39.16211A7.448,7.448,0,0,1,356.34768,224.9082ZM282.53518,376.291a41.38889,41.38889,0,0,0,4.21972-18.53516,42.98116,42.98116,0,0,0,23.53028.78906,44.31887,44.31887,0,0,0,24.3164-16.0166,40.58864,40.58864,0,0,0,24.499,8.41895c.0791,0,.16113-.001.24121-.001a39.79855,39.79855,0,0,0,6.50683-.5791,39.82367,39.82367,0,0,0-.57031,6.50781,40.50338,40.50338,0,0,0,8.41309,24.74023A44.38809,44.38809,0,0,0,357.668,405.93555a42.95158,42.95158,0,0,0,.791,23.5205h-.10157a41.42794,41.42794,0,0,0-18.43652,4.22364,43.87106,43.87106,0,0,0-23.38672,31.50879c-1.92187-.34912-3.9541-.73536-6.11963-1.16114a55.15449,55.15449,0,0,0,.44873-6.89746,54.544,54.544,0,0,0-9.85449-31.31738l31.417-31.417a7.50058,7.50058,0,0,0-10.60742-10.60742L290.833,414.77344a54.613,54.613,0,0,0-34.835-12.50879c-1.50147,0-2.98438.07764-4.45557.19629-.17969-.94824-.35449-1.88282-.519-2.78711A43.86712,43.86712,0,0,0,282.53518,376.291ZM226.04006,68.28809c0-14.85254,18.17285-37.64747,29.5752-49.98047,3.418,3.70605,8.09179,9.02539,12.71972,15.09472,10.89649,14.28809,16.89746,26.67676,16.89746,34.88575a43.73642,43.73642,0,0,1-3.92578,18.30957c-2.52978-13.75245-17.25244-28.78223-20.4248-31.88672a7.5012,7.5012,0,0,0-10.49024,0c-3.17236,3.104-17.89551,18.13379-20.42578,31.88672A43.73809,43.73809,0,0,1,226.04006,68.28809Zm18.54785,22.18066c0-4.65137,5.52149-12.84863,11.05371-19.36426,5.5293,6.50391,11.043,14.69141,11.043,19.36426,0,7.958-5.05957,14.68066-11.04785,14.68066C249.64748,105.14941,244.58791,98.42676,244.58791,90.46875Zm-39.543,64.66211v-.001a7.51877,7.51877,0,0,1,7.499-7.44238h87.27734a7.49895,7.49895,0,0,1,7.499,7.56836l-.35644,39.16211a9.906,9.906,0,0,1-19.81153-.08985v-3.13281a26.32324,26.32324,0,1,0-52.64648,0v13.03907a14.91525,14.91525,0,1,1-29.83008-.11231ZM177.39358,342.52832A44.29613,44.29613,0,0,0,201.71486,358.544a42.89091,42.89091,0,0,0,23.52442-.78516,41.198,41.198,0,0,0,12.55762,29.978,8.51044,8.51044,0,0,0-.86329.89111,8.64854,8.64854,0,0,0-1.85253,6.80566c.50488,3.17188,1.10351,6.57032,1.80859,10.26953a54.90643,54.90643,0,0,0-15.72656,9.07032l-30.98535-30.98535a7.50058,7.50058,0,0,0-10.60743,10.60742l31.417,31.417a54.43838,54.43838,0,0,0-9.40577,38.21387c-2.16845.42627-4.20263.812-6.12744,1.16211a43.872,43.872,0,0,0-23.37695-31.50684,41.36016,41.36016,0,0,0-18.42774-4.22363H153.541a42.90608,42.90608,0,0,0,.78418-23.52539,44.29527,44.29527,0,0,0-16.01465-24.32129,40.50425,40.50425,0,0,0,8.41211-24.7334,39.435,39.435,0,0,0-.59082-6.52832,39.43615,39.43615,0,0,0,6.52832.5918c.08691,0,.17285.001.25976.001a39.12,39.12,0,0,0,4.29-.24121c.0918-.0083.18164-.022.27246-.03369A41.13735,41.13735,0,0,0,177.39358,342.52832Zm-29.835-48.29394c.48877,0,.97364-.01807,1.45606-.04639l.00342,41.436a26.22833,26.22833,0,0,1-9.17237-3.33007,8.59716,8.59716,0,0,0-11.77246,11.76855,25.61206,25.61206,0,0,1,3.64942,12.91309c.0664,10.18359-6.22852,17.06543-8.93946,19.55371a8.60007,8.60007,0,0,0,1.75782,13.91894c3.63867,1.95117,12.40527,7.71875,15.22558,19.09375a29.31441,29.31441,0,0,1-3.10254,21.36231l-73.38476.05224L63.689,308.459a29.92575,29.92575,0,0,0,36.31689-29.2246V266.19531a11.32324,11.32324,0,1,1,22.64648,0v3.13281A24.93441,24.93441,0,0,0,147.55861,294.23438ZM76.54006,143.28809c0-14.85254,18.17285-37.64747,29.5752-49.98047,3.418,3.70605,8.09179,9.02539,12.71972,15.09472,10.89649,14.28809,16.89746,26.67676,16.89746,34.88575a43.73642,43.73642,0,0,1-3.92578,18.30957c-2.52978-13.75245-17.25244-28.78223-20.4248-31.88672a7.5012,7.5012,0,0,0-10.49024,0c-3.17236,3.104-17.89551,18.13379-20.42578,31.88672A43.73809,43.73809,0,0,1,76.54006,143.28809Zm18.54785,22.18066c0-4.65137,5.52149-12.84863,11.05371-19.36426,5.5293,6.50391,11.043,14.69141,11.043,19.36426,0,7.958-5.05957,14.68066-11.04785,14.68066C100.14748,180.14941,95.08791,173.42676,95.08791,165.46875Zm-39.543,64.66211v-.001a7.51877,7.51877,0,0,1,7.499-7.44238h87.27734a7.49895,7.49895,0,0,1,7.499,7.56836l-.35644,39.16211a9.906,9.906,0,0,1-19.81153-.08985v-3.13281a26.32324,26.32324,0,1,0-52.64648,0v13.03907a14.91525,14.91525,0,1,1-29.83008-.11231ZM73.49807,496.99609a58.5865,58.5865,0,0,1-58.02246-51.00586l39.6206-.02832c.209.01856.419.03321.63233.03418h.02636c.23438,0,.46582-.01367.69483-.03515l85.70263-.06055a8.5867,8.5867,0,0,0,2.02247-.0791,7.51642,7.51642,0,0,0,.88916-.17774c.03418-.00927.06835-.01123.10205-.0205,4.10547-1.14551,12.19824-2.47266,20.27636,1.51172,9.35645,4.61523,15.41895,14.49121,15.82129,25.77929a8.5987,8.5987,0,0,0,9.94922,8.21582c4.21192-.66894,8.84961-1.50927,14.27393-2.58593a55.09455,55.09455,0,0,0,12.86767,18.45214Zm182.5,0a39.86572,39.86572,0,1,1,39.86523-39.86621A39.911,39.911,0,0,1,255.99807,496.99609Zm182.5,0H293.64162a55.09269,55.09269,0,0,0,12.86768-18.45166c5.42431,1.07764,10.07666,1.92139,14.33545,2.59815a8.61517,8.61517,0,0,0,6.74121-1.86231,8.70783,8.70783,0,0,0,3.14746-6.37109c.39746-11.28125,6.46-21.15918,15.82031-25.77539,8.085-3.98438,16.17383-2.65918,20.21387-1.53223a8.60646,8.60646,0,0,0,9.62793-12.9082c-2.665-4.16406-6.751-12.71-4.168-23.15039,2.81738-11.34766,11.5957-17.14063,15.19336-19.08106a8.59249,8.59249,0,0,0,1.791-13.92871c-2.709-2.48925-9.00292-9.37793-8.93359-19.56445a25.64568,25.64568,0,0,1,3.61133-12.8623,8.58951,8.58951,0,0,0-11.71973-11.81934,26.50239,26.50239,0,0,1-9.1914,3.33789V294.1875c.48339.02832.96875.04688,1.459.04688a24.93441,24.93441,0,0,0,24.90625-24.90626v-3.13281a11.32324,11.32324,0,0,1,22.64649,0v13.03907a29.92925,29.92925,0,0,0,36.748,29.12792V430.99609H403.02346a7.5,7.5,0,0,0,0,15h93.49609A58.58585,58.58585,0,0,1,438.49807,496.99609Z"/></svg>