<svg xmlns="http://www.w3.org/2000/svg" data-name="Layer 1" viewBox="0 0 512 512"><ellipse cx="322.392" cy="322.392" fill="#26a6fe" rx="112.868" ry="78.349" transform="rotate(-45 322.392 322.392)"/><path fill="#0593fc" d="M402.20154,242.58228a56.32649,56.32649,0,0,0-17.96265-12.03736c13.88617,32.73169.14282,80.65943-36.44586,117.24805s-84.51642,50.332-117.24811,36.4458a56.32582,56.32582,0,0,0,12.03736,17.96265c30.59716,30.59716,91.13311,19.66919,135.21075-24.40845S432.79871,273.17944,402.20154,242.58228Z"/><path fill="#fed402" d="M418.69661,300.71842,241.98936,299.3769a137.07423,137.07423,0,0,0-9.1274,18.957,113.66555,113.66555,0,0,0-6.74924,25.55608l177.66468-.21266"/><path fill="#fac600" d="M380.29181,300.42676a150.53545,150.53545,0,0,1-28.59448,43.31274l52.08-.06225.00141-.00245a136.90924,136.90924,0,0,0,7.69488-16.0885c.02436-.06115.04828-.12231.07257-.18347q.48323-1.21618.93732-2.43262.05741-.1538.11469-.30749.441-1.18928.85418-2.37756c.03144-.09058.06391-.18116.09516-.27173q1.3785-3.99152,2.44574-7.96363c.01342-.05.02569-.10009.03906-.15014q.31815-1.1911.60712-2.37891c.04492-.18432.08734-.36816.13122-.55237q.23721-.99444.4549-1.98645.07443-.34.14605-.67968.2005-.94446.38214-1.886c.04413-.22827.08893-.45654.13147-.68457q.18439-.988.34711-1.97229c.03052-.183.06329-.36633.09277-.54919q.20106-1.24768.37116-2.48926l.00037-.00257Z"/><path fill="#fed402" d="M496.01,228.99l-13.59,13.59a56.659,56.659,0,0,1-79.62.59c-.2-.2-.4-.38989-.6-.59s-.39-.4-.58-.6a56.62472,56.62472,0,0,1,.58-79.61l13.6-13.6a11.99254,11.99254,0,0,1,16.97,0l63.24,63.24A12.00465,12.00465,0,0,1,496.01,228.99Z"/><path fill="#fac600" d="M496.01,212.01l-63.24-63.24a11.99254,11.99254,0,0,0-16.97,0l-4.88086,4.88086,42.18858,42.18868a24.5982,24.5982,0,0,1-.0001,34.78718l-4.68628,4.68625a56.492,56.492,0,0,1-34.42707,16.32129q1.94981,1.125,3.96576,2.08569a56.75292,56.75292,0,0,0,64.46-11.14l13.59-13.59A12.00666,12.00666,0,0,0,496.01,212.01Z"/><path fill="#fed402" d="M242.58008,482.41992,228.99,496.01a12.00476,12.00476,0,0,1-16.98,0l-63.24-63.24a11.99268,11.99268,0,0,1,0-16.97L162.37,402.2a56.625,56.625,0,0,1,79.61-.57995c.2.19006.4.38.6001.57995s.38989.4.59.6001a56.659,56.659,0,0,1-.59,79.61987Z"/><path fill="#fac600" d="M253.72,417.96c-.57056-1.19824-1.193-2.37744-1.85144-3.5415a56.527,56.527,0,0,1-16.566,38.00146l-.05905.05905a31.14243,31.14243,0,0,1-44.042,0l-39.55515-39.55514L148.77,415.80005a11.99268,11.99268,0,0,0,0,16.97l63.24,63.24a12.00666,12.00666,0,0,0,16.98,0l13.59009-13.59009A56.75294,56.75294,0,0,0,253.72,417.96Z"/><rect width="138.947" height="238.005" x="125.483" y="75.954" fill="#26a6fe" rx="31.049" transform="rotate(45 194.957 194.956)"/><path fill="#0593fc" d="M306.27417,137.97888l-29.99939-29.99939a31.04941,31.04941,0,0,1-.00061,43.90967l-124.385,124.38489a31.04889,31.04889,0,0,1-43.91016,0l-24.34082-24.3407.00074.00073,54.34008,54.34a31.04889,31.04889,0,0,0,43.91016,0l124.385-124.38489A31.04936,31.04936,0,0,0,306.27417,137.97888Z"/><path fill="#fed402" d="M373.93,96.99l-13.82,13.82007A57.29628,57.29628,0,0,1,294.9,122a56.60465,56.60465,0,0,1-15.14-10.55c-.22-.21-.43994-.41992-.65991-.63989s-.43006-.44006-.64014-.66016a57.2279,57.2279,0,0,1,.64014-80.34985L292.92,15.99a11.99269,11.99269,0,0,1,16.97,0l64.04,64.03A12.01069,12.01069,0,0,1,373.93,96.99Z"/><path fill="#fac600" d="M373.92332,80.06039l-63.24-63.24a11.99252,11.99252,0,0,0-16.97,0l-4.88086,4.88086L331.021,63.88994a24.5982,24.5982,0,0,1-.0001,34.78718l-4.68629,4.68625a56.49187,56.49187,0,0,1-34.42706,16.32128q1.94981,1.125,3.96576,2.0857a56.75291,56.75291,0,0,0,64.46-11.14l13.59-13.59A12.00666,12.00666,0,0,0,373.92332,80.06039Z"/><path fill="#fed402" d="M110.81006,360.11,96.99,373.92993a12.01058,12.01058,0,0,1-16.97,0L15.99,309.89a11.99283,11.99283,0,0,1,0-16.97009L29.80005,279.1a57.22789,57.22789,0,0,1,80.35-.64c.22.21.44007.42.66.64s.42993.44006.63989.66A56.60324,56.60324,0,0,1,122,294.8999,57.29645,57.29645,0,0,1,110.81006,360.11Z"/><path fill="#fac600" d="M121.7703,295.87325c-.57056-1.19824-1.193-2.37744-1.85144-3.5415a56.527,56.527,0,0,1-16.566,38.00146l-.059.05906a31.14244,31.14244,0,0,1-44.042,0L19.69657,290.83712l-2.87622,2.87622a11.99268,11.99268,0,0,0,0,16.97l63.24,63.24a12.00666,12.00666,0,0,0,16.98,0l13.59009-13.59009A56.75294,56.75294,0,0,0,121.7703,295.87325Z"/><path fill="#fed402" d="M306.27417,181.88918a30.98545,30.98545,0,0,0,6.11093-8.66718L118.4406,173.222,83.63886,208.0237a30.98526,30.98526,0,0,0-6.11093,8.66736l193.94441,0Z"/><path fill="#fac600" d="M308.19824,179.77246q.76867-.924,1.45386-1.89209c.06445-.09082.12744-.18249.19092-.27392.46875-.67652.91418-1.36475,1.32324-2.06836l.00806-.01441q.65569-1.12922,1.20947-2.29907l.00122-.00269h-57.4436l-43.46912,43.469h60l34.80188-34.80176c.59338-.59338,1.14941-1.20972,1.68433-1.83752C308.03809,179.95837,308.11987,179.86646,308.19824,179.77246Z"/><path fill="#282828" d="M501.31594,206.707l-63.2461-63.24609a19.52418,19.52418,0,0,0-27.57666,0l-13.59667,13.59668a64.27425,64.27425,0,0,0-15.96778,64.23926c-12.6322-3.99659-27.08984-4.69971-42.61181-1.89844-27.02784,4.87988-54.24268,19.89648-76.63135,42.28418-22.38867,22.38965-37.40576,49.60449-42.28467,76.63281-2.79785,15.49853-2.10059,29.936,1.88061,42.55518a64.39438,64.39438,0,0,0-64.22094,16.02294L143.4634,410.49121a19.52344,19.52344,0,0,0,.00049,27.57715l63.2456,63.24512a19.5,19.5,0,0,0,27.57715.001l13.59717-13.59668a64.27589,64.27589,0,0,0,15.96533-64.24609,80.42761,80.42761,0,0,0,24.32422,3.60156,103.047,103.047,0,0,0,18.28955-1.69629c27.02783-4.8789,54.24268-19.89648,76.63135-42.28418,22.38867-22.38965,37.40576-49.60449,42.28467-76.63183,2.79809-15.499,2.10089-29.93653-1.88025-42.55567a64.3966,64.3966,0,0,0,64.22058-16.02343l13.59668-13.59668A19.52329,19.52329,0,0,0,501.31594,206.707ZM237.27736,477.11035,223.67971,490.708a4.49954,4.49954,0,0,1-6.36328-.001l-63.24561-63.24512a4.50529,4.50529,0,0,1-.00049-6.36425L167.667,407.501a49.32586,49.32586,0,0,1,48.64087-12.42041c-.79529.39306-1.58471.80078-2.36548,1.23a59.70025,59.70025,0,0,0-17.27685,14.28808,7.50032,7.50032,0,0,0,11.55273,9.56836,44.83816,44.83816,0,0,1,26.02661-15.438c1.03748.87842,2.05433,1.79346,3.03247,2.772.978.978,1.89332,1.99511,2.77161,3.03222a44.84518,44.84518,0,0,1-15.43713,26.02637,7.49969,7.49969,0,1,0,9.5664,11.55273A59.68631,59.68631,0,0,0,248.46731,430.835c.4292-.78027.83667-1.56934,1.22937-2.36426A49.26,49.26,0,0,1,237.27736,477.11035Zm135.21045-104.625c-20.24755,20.24805-44.6416,33.78906-68.68945,38.12988-23.04883,4.15918-42.90576-.71289-55.91455-13.72168-11.00513-11.00537-16.16187-26.92285-14.97839-45.51611l157.35949-.18848A153.63084,153.63084,0,0,1,372.48781,372.48535Zm39.50312-79.32275-49.79755-.37744h-.05762a7.50011,7.50011,0,0,0-.05566,15l47.71857.36181a118.02571,118.02571,0,0,1-10.4729,28.03125l-164.21918.19678a118.54652,118.54652,0,0,1,11.25451-29.46826l87.79615.6665h.05859a7.50011,7.50011,0,0,0,.05567-15l-78.647-.59717A154.27772,154.27772,0,0,1,272.292,272.29c25.74707-25.74707,57.30957-39.65723,84.08789-39.65723,15.94971,0,30.20459,4.93653,40.51661,15.249C408.22463,259.21,413.05471,275.29639,411.99093,293.1626Zm78.71856-69.48487-13.59668,13.59668a48.90006,48.90006,0,0,1-34.80517,14.417,49.41532,49.41532,0,0,1-13.86725-1.98q1.20914-.59692,2.397-1.24659a59.71038,59.71038,0,0,0,17.27686-14.28808,7.49994,7.49994,0,0,0-11.55176-9.56836,44.842,44.842,0,0,1-26.03058,15.43945c-1.03912-.88135-2.0545-1.79883-3.029-2.77344-.97827-.97851-1.89355-1.99511-2.77209-3.03271A44.84707,44.84707,0,0,1,420.169,208.21484a7.49957,7.49957,0,1,0-9.56836-11.55078,59.70962,59.70962,0,0,0-14.28809,17.27637c-.42914.78027-.83655,1.56934-1.22925,2.36426A49.259,49.259,0,0,1,407.503,167.665l13.59668-13.59668a4.50425,4.50425,0,0,1,6.36426,0l63.2456,63.24609a4.49836,4.49836,0,0,1,0,6.36328ZM159.93215,322.86426a38.29935,38.29935,0,0,0,27.2583-11.291l89.583-89.583,34.80224-34.80175q.6363-.63648,1.23816-1.3003c.15393-.16894.30078-.34228.45154-.51367.23462-.2666.469-.5332.6958-.80566.19922-.23926.3916-.48242.5846-.7251.15857-.2002.31726-.40039.47168-.604q.34368-.45045.672-.91065.14192-.19922.28125-.39892.39185-.56178.76343-1.13379c.02-.03125.03955-.063.05957-.09424a38.30273,38.30273,0,0,0,2.13056-3.8208c.10662-.18994.20312-.38574.29327-.58545a38.51849,38.51849,0,0,0-5.7113-41.53223q3.04266.28565,6.10022.28809a64.58932,64.58932,0,0,0,45.80761-18.94336L379.22951,102.293a19.52344,19.52344,0,0,0-.00049-27.57715L315.19094,10.67773a19.52479,19.52479,0,0,0-27.57715,0L273.79885,24.49219a64.67684,64.67684,0,0,0-18.65552,51.91113,38.59389,38.59389,0,0,0-52.42456,1.92773L178.378,102.67188A7.50024,7.50024,0,1,0,188.9844,113.2793l24.34082-24.34082a23.5728,23.5728,0,0,1,33.30371,0l27.16052,27.16015.0094.00977.00989.00928,27.16,27.15966a23.39779,23.39779,0,0,1,6.89746,16.65235,23.70443,23.70443,0,0,1-.7135,5.78808H136.54543L169.71926,132.544a7.50024,7.50024,0,0,0-10.60645-10.60743l-45.97168,45.97217-.00586.00537L78.33352,202.71582q-.63813.63793-1.24158,1.3042c-.14954.16406-.29187.33252-.43835.49853-.23853.271-.47657.542-.707.81885-.19921.23877-.39135.48194-.5841.72461-.15784.19922-.31555.39844-.46936.60059-.231.30273-.45581.60937-.67725.918q-.13788.19335-.27319.38769-.39661.56763-.77222,1.14649l-.04724.0747a38.26465,38.26465,0,0,0-2.142,3.83985c-.097.17285-.18408.35156-.26733.5332a38.514,38.514,0,0,0,5.68921,41.57861,64.67891,64.67891,0,0,0-51.908,18.65577L10.6802,287.61133a19.52328,19.52328,0,0,0,0,27.57812l64.03808,64.03809a19.52121,19.52121,0,0,0,27.57715-.001l13.81494-13.81445a64.677,64.677,0,0,0,18.6554-51.90918A38.256,38.256,0,0,0,159.93215,322.86426ZM305.43044,118.0127q1.29017-.63282,2.55591-1.32813a60.22649,60.22649,0,0,0,17.42676-14.41113,7.49994,7.49994,0,0,0-11.55176-9.56836,45.35968,45.35968,0,0,1-26.36121,15.623c-1.0592-.8955-2.0968-1.8291-3.09485-2.82714s-1.93151-2.03516-2.82678-3.09424a45.36866,45.36866,0,0,1,15.62415-26.36182,7.50019,7.50019,0,0,0-9.57032-11.55078,60.23577,60.23577,0,0,0-14.41015,17.42578q-.69617,1.26563-1.32837,2.55664a49.825,49.825,0,0,1,12.51147-49.377l13.815-13.81445a4.50424,4.50424,0,0,1,6.36425,0l64.0376,64.03711a4.50529,4.50529,0,0,1,.00049,6.36425L354.80764,105.501A49.82469,49.82469,0,0,1,305.43044,118.0127Zm-183.885,62.70507H296.83205l-28.4685,28.46875H93.07668ZM82.756,224.18652H253.36367L176.584,300.9668a23.548,23.548,0,0,1-33.30372-.001l-27.16528-27.165-.00464-.00488-.00488-.00488L88.94,246.626a23.39385,23.39385,0,0,1-6.89746-16.65137A23.70494,23.70494,0,0,1,82.756,224.18652Zm22.74793,130.61914L91.689,368.62012a4.49954,4.49954,0,0,1-6.36426,0L21.28664,304.582a4.50072,4.50072,0,0,1,0-6.36426l13.81494-13.81445A49.91638,49.91638,0,0,1,84.47951,271.8916q-1.29107.63282-2.55713,1.3291a60.21006,60.21006,0,0,0-17.42627,14.41016,7.50013,7.50013,0,0,0,11.55225,9.56836,45.37375,45.37375,0,0,1,26.36108-15.62305c1.05909.89551,2.09644,1.8291,3.09449,2.82715s1.93139,2.03516,2.82678,3.09424A45.36833,45.36833,0,0,1,92.70754,313.8584a7.50032,7.50032,0,0,0,9.56836,11.55273,60.22219,60.22219,0,0,0,14.41064-17.42578q.69618-1.26562,1.32862-2.55713A49.82787,49.82787,0,0,1,105.50393,354.80566Z"/></svg>