<svg xmlns="http://www.w3.org/2000/svg" data-name="Layer 1" viewBox="0 0 512 512"><polygon fill="#c4e2ff" points="66.12 482.56 108.554 334.803 137.88 341.582 95.446 489.339 66.12 482.56"/><path fill="#b3dafe" d="M94.48586,453.45075l60.4348,46.72305c2.33652,1.80639.51675,4.96318-2.42862,4.213L9.74653,468.02933c-2.94538-.75019-3.01383-4.38791-.09136-4.85483l75.59078-12.07717A12.16913,12.16913,0,0,1,94.48586,453.45075Z"/><path fill="#c4e2ff" d="M240.96,118.27c-.83984,26.46-5.56006,56.69995-14.43994,88.04C201.33984,295.16992,152.25,359.16992,116.87012,349.25,81.5,339.33984,73.24023,259.26,98.41992,170.3999,107.31006,139.04,119.16992,110.78,132.35986,87.77A9.81441,9.81441,0,0,1,143.52,83.17993L233.81982,108.49A9.80507,9.80507,0,0,1,240.96,118.27Z"/><path fill="#b3dafe" d="M236.334,109.60376a382.74939,382.74939,0,0,1-13.89355,77.28686c-25.17969,88.85987-74.26953,152.85987-109.64941,142.94-12.542-3.51392-21.6709-15.85816-27.11329-34.28052,4.03223,29.06714,14.64454,49.06348,31.19239,53.7C152.25,359.16992,201.33984,295.16992,226.52,206.31006,235.3999,174.97,240.12012,144.73,240.96,118.27A9.81577,9.81577,0,0,0,236.334,109.60376Z"/><path fill="#fed402" d="M226.52,206.31006C201.33984,295.16992,152.25,359.16992,116.87012,349.25,81.5,339.33984,73.24023,259.26,98.41992,170.3999c22.37012-3.61987,37.53028.3501,47.75,5.43018,15.1499,7.54,18.73,17.16992,33.96,24.75976C196.2002,208.60986,213.25,208.35986,226.52,206.31006Z"/><path fill="#fac600" d="M116.87012,319.25C97.77344,313.89941,86.585,288.08716,84.29,251.48877c-2.90869,52.08008,8.60449,91.0437,32.58008,97.76123C152.25,359.16992,201.33984,295.16992,226.52,206.31006c-3.17871.491-6.57861.87353-10.125,1.06885C189.65967,279.56958,147.96973,327.96973,116.87012,319.25Z"/><polygon fill="#c4e2ff" points="445.88 482.56 403.446 334.803 374.12 341.582 416.554 489.339 445.88 482.56"/><path fill="#b3dafe" d="M417.51414,453.45075l-60.4348,46.72305c-2.33652,1.80639-.51675,4.96318,2.42862,4.213l142.74551-36.35746c2.94538-.75019,3.01383-4.38791.09136-4.85483l-75.59078-12.07717A12.16913,12.16913,0,0,0,417.51414,453.45075Z"/><path fill="#c4e2ff" d="M395.12988,349.25C359.75,359.16992,310.66016,295.16992,285.48,206.31006,276.6001,174.97,271.87988,144.73,271.04,118.27a9.80507,9.80507,0,0,1,7.14014-9.78L368.48,83.17993A9.81441,9.81441,0,0,1,379.64014,87.77c13.18994,23.01,25.0498,51.27,33.93994,82.62988C438.75977,259.26,430.5,339.33984,395.12988,349.25Z"/><path fill="#b3dafe" d="M413.58008,170.3999C404.68994,139.04,392.83008,110.78,379.64014,87.77a9.8697,9.8697,0,0,0-3.02442-3.25171,396.94415,396.94415,0,0,1,21.96436,59.4773c25.17969,88.8601,16.91992,168.93994-18.4502,178.85009-20.68554,5.79981-46.05566-13.67675-68.5957-48.6084,25.63037,51.062,58.15723,82.14527,83.5957,75.0127C430.5,339.33984,438.75977,259.26,413.58008,170.3999Z"/><path fill="#fed402" d="M395.12988,349.25C359.75,359.16992,310.66016,295.16992,285.48,206.31006c13.27,2.0498,30.31982,2.2998,46.39014-5.72022,15.23-7.58984,18.81006-17.21972,33.96-24.75976,10.21972-5.08008,25.37988-9.05,47.75-5.43018C438.75977,259.26,430.5,339.33984,395.12988,349.25Z"/><path fill="#fac600" d="M413.58008,170.3999c-2.90235-.46972-5.67725-.80615-8.3418-1.03442,17.32031,78.7395,7.55713,145.58276-24.55664,154.58081-20.67334,5.79639-46.02637-13.6543-68.55664-48.54761,25.53857,50.36743,57.76074,80.92944,83.00488,73.85132C430.5,339.33984,438.75977,259.26,413.58008,170.3999Z"/><path fill="#282828" d="M289.8467,58.23633a7.49733,7.49733,0,0,0,10.48145-1.624L322.0508,26.9248a7.49994,7.49994,0,0,0-12.10547-8.85742l-21.72265,29.6875A7.49972,7.49972,0,0,0,289.8467,58.23633Zm-79.25586-3.09571a7.49994,7.49994,0,1,0,12.10547-8.85742L202.0508,18.06738a7.49994,7.49994,0,0,0-12.10547,8.85742Zm25.25,46.125h.001l-90.29688-25.3125a17.30806,17.30806,0,0,0-19.69043,8.085c-13.91894,24.28418-25.90136,53.43945-34.65136,84.3125C71.88576,236.50977,71.36526,301.90234,89.877,334.94531a55.14989,55.14989,0,0,0,7.73829,10.75684L68.77639,446.12842l-60.3086,9.63525a9.83981,9.83981,0,0,0-8.46,9.24121A10.18036,10.18036,0,0,0,7.8926,475.293L62.82082,489.2832a7.55465,7.55465,0,0,0,1.06983.43457,7.47818,7.47818,0,0,0,1.86328.3125l84.88574,21.62012a11.06211,11.06211,0,0,0,2.73242.34668A10.04235,10.04235,0,0,0,162.5,506.38281a9.82667,9.82667,0,0,0-2.99414-12.14648l-47.18506-36.48L142.2051,353.66553c12.85205-5.69873,26.21484-17.27393,39.26172-34.28174,21.27441-27.7334,39.83789-67.165,52.27051-111.0332.01953-.06836.0371-.13672.05664-.20557l.00293-.01074c8.707-30.78369,13.77734-61.77295,14.66015-89.63233A17.27911,17.27911,0,0,0,235.84084,101.26562ZM131.02346,491.17578l-96.03125-24.459,40.81933-6.52149c.04248-.00683.08448-.01318.127-.02051L86.42678,458.499a4.65965,4.65965,0,0,1,3.4707.88086ZM99.54934,447.88232l-.478-.36962a19.56808,19.56808,0,0,0-13.9541-3.939l25.44824-88.61963a34.50112,34.50112,0,0,0,13.74707,2.80762c.37109,0,.74463-.01465,1.11768-.02588ZM220.61916,199.50146c-14.15478,1.49073-26.63818-.3872-37.14453-5.62353a53.78182,53.78182,0,0,1-11.80859-8.08008,7.5,7.5,0,1,0-9.875,11.291,67.8845,67.8845,0,0,0,14.99121,10.21289,76.81483,76.81483,0,0,0,34.67187,7.708c1.54346,0,3.10889-.04981,4.686-.125-11.78516,37.77392-28.13916,71.33691-46.57471,95.36914-18.44727,24.04687-36.91894,35.624-50.67187,31.77246-6.18457-1.7334-11.54395-6.582-15.93067-14.41211-16.00049-28.56153-15.36719-88.58057,1.37451-150.46143,14.86182-1.728,27.79737.0708,38.49268,5.38916a7.5,7.5,0,0,0,6.68164-13.42969c-11.7666-5.85449-25.41113-8.33007-40.67334-7.415,8.0376-25.69825,18.32715-49.78321,30.02978-70.19922a2.33451,2.33451,0,0,1,2.01758-1.18555,2.25991,2.25991,0,0,1,.61035.084L231.793,115.709h.001a2.31207,2.31207,0,0,1,1.67089,2.31739C232.66262,143.31982,228.22805,171.38965,220.61916,199.50146ZM255.99807-.00391a7.49944,7.49944,0,0,0-7.5,7.5v41a7.5,7.5,0,1,0,15,0v-41A7.49944,7.49944,0,0,0,255.99807-.00391ZM511.9883,465.00488a9.83982,9.83982,0,0,0-8.46191-9.24121l-60.30664-9.63525L414.38186,345.70557c7.29492-7.79834,12.88525-19.23975,16.50683-33.97412a7.49995,7.49995,0,1,0-14.5664-3.58008c-2.69825,10.97656-9.30176,29.97363-23.21973,33.875-13.75488,3.85351-32.22461-7.72364-50.67188-31.77246-18.43554-24.03223-34.78955-57.59522-46.5747-95.36914,1.57666.07519,3.14258.125,4.686.125a76.8149,76.8149,0,0,0,34.67188-7.708c8.56543-4.26953,13.97265-9.22461,18.74316-13.59571,4.418-4.04785,8.58985-7.87109,15.209-11.16406,10.69238-5.31885,23.623-7.11963,38.48535-5.39062,9.85547,36.40381,14.35058,72.6792,12.65332,102.63965a7.50026,7.50026,0,0,0,14.97656.84765c1.86231-32.873-3.2832-72.75195-14.48828-112.28808-8.75-30.87305-20.73242-60.02832-34.65137-84.31348a17.30044,17.30044,0,0,0-19.69043-8.084l-90.2959,25.3125A17.27879,17.27879,0,0,0,263.53908,118.501c.88282,27.86035,5.95313,58.84961,14.66016,89.6333l.00293.01074c.01953.06885.03711.13721.05664.20557,12.43262,43.86816,30.99609,83.2998,52.27051,111.0332,13.04785,17.00928,26.41015,28.585,39.2622,34.2832l29.88379,104.08887-47.187,36.48144a9.82681,9.82681,0,0,0-2.99219,12.14551,10.04237,10.04237,0,0,0,9.12793,5.61426,11.07557,11.07557,0,0,0,2.7334-.34668l84.88477-21.62012a6.94476,6.94476,0,0,0,2.9331-.74707L504.10256,475.293A10.18021,10.18021,0,0,0,511.9883,465.00488Zm-233.457-346.97949a2.31143,2.31143,0,0,1,1.67188-2.31641L370.5,90.39648a2.31492,2.31492,0,0,1,2.62793,1.10059c11.70264,20.417,21.9917,44.50244,30.0293,70.20068-15.26074-.91406-28.90674,1.562-40.67285,7.41455-8.5127,4.23536-13.9043,9.17579-18.66016,13.53418-4.43555,4.06348-8.624,7.90235-15.30176,11.23145-10.50537,5.2373-22.98779,7.11572-37.14551,5.624C283.76809,171.38965,279.33352,143.31982,278.53127,118.02539ZM386.56594,357.73633c.373.01123.74658.02539,1.11767.02539a34.78121,34.78121,0,0,0,13.749-2.80029l25.44629,88.6123a19.56086,19.56086,0,0,0-13.9541,3.939l-.478.36962Zm-5.59326,133.43945,41.126-31.7959a4.66682,4.66682,0,0,1,3.46973-.88086l10.49072,1.67627c.04151.00684.08252.01319.124.01953l40.8208,6.522Z"/></svg>