<svg xmlns="http://www.w3.org/2000/svg" data-name="Layer 1" viewBox="0 0 512 512"><path fill="#46cc8d" d="M288.5,37.5001V37.5h-65v.0001a476.03811,476.03811,0,0,1-41.01168,193.29845l-.00006.00013A202.9928,202.9928,0,0,0,165,313.22528V474.5a30,30,0,0,0,30,30H317a30,30,0,0,0,30-30V313.22528a202.9928,202.9928,0,0,0-17.48826-82.4266l-.00006-.00013A476.03811,476.03811,0,0,1,288.5,37.5001Z"/><path fill="#00c27a" d="M329.51172,230.79858h-.00006A476.03872,476.03872,0,0,1,288.5,37.50006V37.5H253.08344A476.03178,476.03178,0,0,0,292.957,198.014l.00006.00012a202.99262,202.99262,0,0,1,17.48828,82.42651V389.71545a82,82,0,0,1-82,82H165V474.5a30,30,0,0,0,30,30H317a30,30,0,0,0,30-30V313.22534A202.9934,202.9934,0,0,0,329.51172,230.79858Z"/><path fill="#fed402" d="M288.5,37.50006V37.5h-65v.00006a476.03306,476.03306,0,0,1-24.818,151.68158l43.1759,43.176a20.00015,20.00015,0,0,0,28.2843,0l43.1759-43.176A476.03306,476.03306,0,0,1,288.5,37.50006Z"/><path fill="#fac600" d="M292.957,198.01416c1.19483,2.689,2.315,5.406,3.38971,8.13879l16.97131-16.97131q-1.48361-4.41321-2.87677-8.85364c-.05273-.16772-.10675-.33508-.15936-.5028q-1.38483-4.41981-2.683-8.864c-.05133-.17578-.10108-.35205-.15222-.528q-1.28385-4.41468-2.48462-8.8512c-.01123-.0415-.023-.083-.03412-.12451q-1.19833-4.44286-2.30725-8.90833c-.07642-.30676-.15119-.61389-.227-.92077q-2.17291-8.799-4.00989-17.67438-.12434-.60076-.24683-1.2019-1.78774-8.754-3.24621-17.57239-.11381-.68793-.22687-1.37586-.70908-4.36632-1.34167-8.74548c-.03-.209-.057-.41846-.08674-.62756q-.582-4.09883-1.08972-8.20905c-.05938-.47766-.121-.955-.179-1.43292q-.5203-4.29162-.964-8.59381c-.04633-.45026-.088-.901-.13306-1.35144q-.38937-3.89585-.71515-7.79932c-.03674-.44055-.07715-.88067-.11267-1.32135q-.3425-4.25244-.60669-8.51324c-.03693-.591-.06988-1.18225-.10461-1.77344q-.23136-3.93549-.40082-7.87665c-.01325-.31323-.03058-.626-.04315-.93921q-.17094-4.25271-.25983-8.51178-.02215-.99307-.03906-1.98633c-.05207-2.87268-.08771-5.74646-.08771-8.62225V37.5H253.08344A476.03178,476.03178,0,0,0,292.957,198.014Z"/><rect width="182" height="99.021" x="165" y="325.187" fill="#e53950"/><path fill="#ca2e43" d="M310.44531,390.65381a80.72763,80.72763,0,0,1-7.2749,33.55395H347v-99.021H310.44531Z"/><circle cx="256" cy="374.697" r="21.529" fill="#fed402"/><rect width="92" height="45" x="210" y="7.5" fill="#fed402" rx="5"/><path fill="#fac600" d="M297,7.5H280.52533v2.6139A24.14873,24.14873,0,0,1,256.3766,34.26263H210V47.5a5,5,0,0,0,5,5h82a5,5,0,0,0,5-5v-35A5,5,0,0,0,297,7.5Z"/><path fill="#c4e2ff" d="M399.95288,143.46484C393.36853,167.9436,389.5,197.788,389.5,230c0,83.1189,25.74365,150.5,57.5,150.5s57.5-67.3811,57.5-150.5c0-32.212-3.86853-62.0564-10.45288-86.53516Z"/><path fill="#b3dafe" d="M494.04712,143.46484H467.59381A357.03994,357.03994,0,0,1,474.5,215c0,79.08057-23.30341,143.91089-52.91675,150.02417C429.24756,374.92676,437.87451,380.5,447,380.5c31.75635,0,57.5-67.3811,57.5-150.5C504.5,197.788,500.63147,167.9436,494.04712,143.46484Z"/><path fill="#fed402" d="M447,380.5c31.75635,0,57.5-67.3811,57.5-150.5-17.74933-8.57117-31.2923-8.81677-40.99286-6.8927-14.37158,2.85059-19.6214,10.32971-34.07684,13.209C414.17651,239.35461,400.05884,234.99976,389.5,230,389.5,313.1189,415.24365,380.5,447,380.5Z"/><path fill="#fac600" d="M474.43536,222.1438c-1.35363,75.80908-24.13562,136.95215-52.85211,142.88037l.00061.00073a54.54622,54.54622,0,0,0,7.40125,7.93042c.04651.04.0932.07886.13971.11865q.67135.575,1.35009,1.10645.11316.0888.22638.17627.649.50171,1.30445.96313c.08038.05664.16058.115.24115.17078q.68755.477,1.38189.9093c.05072.03162.101.06568.1518.09693a30.11714,30.11714,0,0,0,3.16974,1.70837c.04107.01892.08252.03491.12359.05359q.7024.32043,1.41065.59546c.14416.056.28912.10571.43365.15893.37128.13684.74341.26673,1.117.385.18017.05689.36084.10938.5415.16187q.5138.14977,1.03033.27588c.19446.04736.389.0935.584.13574.33929.07373.67975.13672,1.02063.195.19372.033.38714.06848.58142.09643.3642.05249.72974.0907,1.0957.12537.1687.01611.33673.03821.5058.05029.53345.03833,1.06842.06128,1.60547.06128,31.75635,0,57.5-67.3811,57.5-150.5C492.63037,224.26807,482.65161,222.27,474.43536,222.1438Z"/><path fill="#c4e2ff" d="M17.95288,143.46484C11.36853,167.9436,7.5,197.788,7.5,230c0,83.1189,25.74365,150.5,57.5,150.5s57.5-67.3811,57.5-150.5c0-32.212-3.86853-62.0564-10.45288-86.53516Z"/><path fill="#fed402" d="M65,380.5c31.75635,0,57.5-67.3811,57.5-150.5-17.74933-8.57117-31.2923-8.81677-40.99286-6.8927-14.37158,2.85059-19.6214,10.32971-34.07684,13.209C32.17651,239.35461,18.05884,234.99976,7.5,230,7.5,313.1189,33.24365,380.5,65,380.5Z"/><path fill="#b3dafe" d="M112.04712,143.46484H85.59381A357.03994,357.03994,0,0,1,92.5,215c0,79.08057-23.30341,143.91089-52.91675,150.02417C47.24756,374.92676,55.87451,380.5,65,380.5c31.75635,0,57.5-67.3811,57.5-150.5C122.5,197.788,118.63147,167.9436,112.04712,143.46484Z"/><path fill="#fac600" d="M92.43536,222.1438C91.08173,297.95288,68.29974,359.096,39.58325,365.02417l.00061.00073a54.54622,54.54622,0,0,0,7.40125,7.93042c.04651.04.0932.07886.13971.11865q.67135.575,1.35009,1.10645.11316.0888.22638.17627.649.50171,1.30445.96313c.08038.05664.16058.115.24115.17078q.68756.477,1.38189.9093c.05072.03162.101.06568.1518.09693a30.11714,30.11714,0,0,0,3.16974,1.70837c.04107.01892.08252.03491.12359.05359q.70241.32043,1.41065.59546c.14416.056.28912.10571.43365.15893.37128.13684.74341.26673,1.11695.385.18017.05689.36084.10938.5415.16187q.5138.14977,1.03033.27588c.19446.04736.389.0935.584.13574.33929.07373.67975.13672,1.02063.195.19372.033.38714.06848.58142.09643.3642.05249.72974.0907,1.0957.12537.1687.01611.33673.03821.5058.05029C63.928,380.47705,64.463,380.5,65,380.5c31.75635,0,57.5-67.3811,57.5-150.5C110.63037,224.26807,100.65161,222.27,92.43536,222.1438Z"/><path fill="#282828" d="M87.49807,289.103a7.5,7.5,0,1,0-7.5,7.5A7.5,7.5,0,0,0,87.49807,289.103Zm-22.5,32.19677a7.5,7.5,0,1,0,7.5,7.5A7.49971,7.49971,0,0,0,64.99807,321.2998ZM320.55288,187.22949a7.47871,7.47871,0,0,0-.329-.96679A465.81,465.81,0,0,1,296.54519,59.99609h.45288a12.51408,12.51408,0,0,0,12.5-12.5v-35a12.51409,12.51409,0,0,0-12.5-12.5h-82a12.51409,12.51409,0,0,0-12.5,12.5v35a12.51408,12.51408,0,0,0,12.5,12.5h.45245c-.73114,15.15577-2.19971,30.376-4.39142,45.35059a7.49939,7.49939,0,0,0,6.33448,8.50684,7.59569,7.59569,0,0,0,1.0957.08007,7.50193,7.50193,0,0,0,7.41162-6.415c2.29651-15.69043,3.82843-31.64306,4.57025-47.52246H281.5273a480.81176,480.81176,0,0,0,23.19776,127.16553L264.83693,227.0498a12.512,12.512,0,0,1-17.67773,0l-39.90863-39.90869a483.76436,483.76436,0,0,0,12.77484-47.22021,7.49983,7.49983,0,1,0-14.65918-3.17774A469.48684,469.48684,0,0,1,175.63234,227.749a209.17358,209.17358,0,0,0-18.13427,85.47168V474.49609a37.54225,37.54225,0,0,0,37.5,37.5h122a37.54226,37.54226,0,0,0,37.5-37.5V313.2207A209.16567,209.16567,0,0,0,336.36379,227.75Q327.488,207.77393,320.55288,187.22949ZM294.49807,44.99609h-77v-30h77Zm45,371.708H313.19875a7.5,7.5,0,0,0,0,15h26.29932v42.792a22.52554,22.52554,0,0,1-22.5,22.5h-122a22.52554,22.52554,0,0,1-22.5-22.5v-42.792H283.19875a7.5,7.5,0,0,0,0-15H172.49807V332.68262h167Zm0-99.02148h-167V313.2207a194.2685,194.2685,0,0,1,16.84228-79.38086q6.7653-15.22485,12.46875-30.92627l34.74366,34.74366a27.53248,27.53248,0,0,0,38.89062,0l34.7276-34.72754q5.69651,15.6123,12.4848,30.91113a194.26059,194.26059,0,0,1,16.84229,79.37988ZM42.70669,270.74609a7.5,7.5,0,1,0,7.5,7.5A7.5,7.5,0,0,0,42.70669,270.74609Zm445.79138,226.25h-34V387.03369c15.69049-4.022,29.75079-20.6831,40.16455-47.94092,11.1792-29.25976,17.33545-68.0039,17.33545-109.09668,0-31.83691-3.70362-62.43457-10.71045-88.48339a7.50057,7.50057,0,0,0-7.24268-5.55176H399.95119a7.50054,7.50054,0,0,0-7.24267,5.55176c-7.00684,26.04882-10.71045,56.64648-10.71045,88.48339,0,41.09278,6.15625,79.83692,17.33545,109.09668,10.41375,27.25782,24.47406,43.919,40.16455,47.94092v109.9624h-34a7.5,7.5,0,0,0,0,15h83a7.5,7.5,0,0,0,0-15ZM405.771,150.96094h82.4541c4.981,20.41943,7.91345,43.56006,8.60815,67.7832-12.16729-4.15283-23.83-5.17139-34.78686-2.99707-8.24854,1.63574-13.97559,4.64844-19.02832,7.30664-4.76856,2.50781-8.88672,4.67481-15.05469,5.90332-9.56213,1.90332-19.94861.60645-30.93268-3.84473C397.35872,198.582,400.35506,173.16309,405.771,150.96094Zm7.5747,182.77832c-9.53924-24.96729-15.18365-57.519-16.17431-92.60791a70.697,70.697,0,0,0,21.98584,3.68408,59.93206,59.93206,0,0,0,11.73633-1.14746c8.29882-1.65332,14.0415-4.67383,19.10791-7.33985,4.74951-2.498,8.85156-4.65527,14.96386-5.86816,9.73682-1.93115,20.48566-.45459,32.00031,4.37109-.98444,81.67334-26.77344,138.165-49.96759,138.165C435.3174,372.99609,422.73733,358.32031,413.34572,333.73926ZM255.99807,403.72168a29.02881,29.02881,0,1,0-29.02881-29.02832A29.06183,29.06183,0,0,0,255.99807,403.72168Zm0-43.05762a14.02881,14.02881,0,1,1-14.02881,14.0293A14.04533,14.04533,0,0,1,255.99807,360.66406Zm168.70862-89.918a7.5,7.5,0,1,0,7.5,7.5A7.5,7.5,0,0,0,424.70669,270.74609ZM469.49807,289.103a7.5,7.5,0,1,0-7.5,7.5A7.5,7.5,0,0,0,469.49807,289.103Zm-22.5,32.19677a7.5,7.5,0,1,0,7.5,7.5A7.49971,7.49971,0,0,0,446.99807,321.2998Zm-334.33545,17.793c11.1792-29.25976,17.33545-68.0039,17.33545-109.09668,0-31.83691-3.70362-62.43457-10.71045-88.48339a7.50057,7.50057,0,0,0-7.24268-5.55176H17.95119a7.50054,7.50054,0,0,0-7.24267,5.55176C3.70168,167.56152-.00193,198.15918-.00193,229.99609c0,41.09278,6.15625,79.83692,17.33545,109.09668,10.41375,27.25782,24.47406,43.919,40.16455,47.94092v109.9624h-34a7.5,7.5,0,1,0,0,15h83a7.5,7.5,0,0,0,0-15h-34V387.03369C88.18856,383.01172,102.24886,366.35059,112.66262,339.09277ZM23.771,150.96094h82.4541c4.981,20.41943,7.91345,43.56006,8.60815,67.7832-12.16772-4.15234-23.83069-5.17139-34.78686-2.99707-8.24854,1.63574-13.97559,4.64844-19.02832,7.30664-4.76856,2.50781-8.88672,4.67481-15.05469,5.90332-9.56079,1.90332-19.94873.60645-30.93268-3.84473C15.35872,198.582,18.35506,173.16309,23.771,150.96094ZM64.99807,372.99609c-11.68067,0-24.26074-14.67578-33.65235-39.25683-9.53924-24.96729-15.18365-57.519-16.17431-92.60791a70.697,70.697,0,0,0,21.98584,3.68408A59.93206,59.93206,0,0,0,48.89358,243.668c8.29882-1.65332,14.0415-4.67383,19.10791-7.33985,4.74951-2.498,8.85156-4.65527,14.96386-5.86816,9.7381-1.93115,20.4859-.45459,32.00031,4.37109C113.98122,316.50439,88.19222,372.99609,64.99807,372.99609Z"/></svg>