<svg xmlns="http://www.w3.org/2000/svg" data-name="Layer 1" viewBox="0 0 512 512"><path fill="#f1f6f9" d="M164.31166,157.065,144.7104,137.19738a4.2117,4.2117,0,0,0-5.3333-.5289,23.08874,23.08874,0,1,1-20.2213-41.105,4.162,4.162,0,0,0,2.57213-2.53765A23.089,23.089,0,1,1,162.55633,113.8a4.2117,4.2117,0,0,0,.45688,5.34l33.6605,31.50617"/><path fill="#c86d36" d="M196.67371,150.64611c33.13592,14.445,67.33833.93617,95.2851,19.50341,16.84341,11.19043,28.91531,32.37168,28.23789,53.80084-.10552,3.33767-1.03,22.80461-15.35648,36.96311-20.229,19.99186-59.55882,21.86992-84.50337,6.14608-24.00861-15.13385-32.1553-44.49642-39.58708-70.11611-3.88362-13.38805-7.03915-29.09354-16.44769-39.91351Z"/><path fill="#dc8758" d="M471.35059,336.17578c9.04126,40.11548-18.902,82.39771-47.96,104.32422-19.65393,14.83032-39.58374,20.17212-140.57861,21.89331C127.79962,465.03516,110.098,453.553,99.719,440.5c-28.04333-35.26855-9.79766-91.0249-5.44561-104.32422C119.29791,259.7041,203.81055,204.36279,282.812,209.9585c52.584,3.72461,93.824,34.23462,127.06018,58.823C443.41638,293.59766,465.12927,308.57178,471.35059,336.17578Z"/><path fill="#d77f4a" d="M471.35059,336.17578c-6.22132-27.604-27.93421-42.57812-61.4784-67.39429C376.636,244.19312,335.396,213.68311,282.812,209.9585a161.16017,161.16017,0,0,0-26.28125.324c50.81214,4.85962,90.894,34.49414,123.34143,58.499,33.54419,24.81617,55.25708,39.79029,61.4784,67.39429,9.04126,40.11548-18.902,82.39771-47.96,104.32422-19.65393,14.83032-39.58374,20.17212-140.57861,21.89331-9.20032.15674-17.90161.26221-26.16162.32227,16.384.13427,34.98291.03881,56.16162-.32227,100.99487-1.72119,120.92468-7.063,140.57861-21.89331C452.44861,418.57349,480.39185,376.29126,471.35059,336.17578Z"/><path fill="#f1f6f9" d="M80.83932,253.38753,56.26858,233.83914a4.73821,4.73821,0,0,0-6.02811.12811A25.97517,25.97517,0,1,1,22.1147,190.78209a4.68231,4.68231,0,0,0,2.5308-3.181,25.97544,25.97544,0,1,1,48.40177,17.69987,4.73823,4.73823,0,0,0,1.23005,5.90268l41.84238,30.65264"/><path fill="#d77f4a" d="M334.60734,437.64605c3.233-17.82335,9.18132-38.23651,12.45468-56.09837a.9434.9434,0,0,0-.89063-1.10472c-11.95306-.70445-22.50807-7.54071-27.28248-17.82643a29.46923,29.46923,0,0,1-2.5615-14.96247,4.97419,4.97419,0,0,0-6.59274-5.07588,30.80855,30.80855,0,0,1-18.455.73182,31.94789,31.94789,0,0,1-17.8478-12.93817,4.95671,4.95671,0,0,0-7.10614-1.106,27.99865,27.99865,0,0,1-32.72389,1.936.94541.94541,0,0,0-1.32189,1.26077,27.99867,27.99867,0,0,1-3.48172,32.59569,4.95672,4.95672,0,0,0,.76866,7.1505,31.94789,31.94789,0,0,1,12.07946,18.43982c2.56937,11.52441-2.21293,20.67407-5.00153,24.80327a.94636.94636,0,0,0,1.019,1.44715,31.06453,31.06453,0,0,1,21.96146,2.24119c10.04836,5.25559,16.3777,16.12216,16.516,28.09516a.94341.94341,0,0,0,1.06135.94189c17.9967-2.4248,38.66838-7.40091,56.62471-9.7872A.908.908,0,0,0,334.60734,437.64605Z"/><path fill="#c86d36" d="M116.1197,241.85626c38.95686,11.66748,75.33713-8.03063,109.05379,8.94051,20.32091,10.22847,36.65908,32.25894,38.79081,56.28471.332,3.74211,1.9233,25.60956-12.16973,43.35435-19.89941,25.05573-63.57418,32.45444-93.55438,18.25448-28.85532-13.66715-41.9121-45.36449-53.66591-72.97771-6.14218-14.42981-11.7835-31.54614-23.75038-42.363Z"/><path fill="#fef6ad" d="M351.39015 171.48823c6.63588-15.80072 12.66928-34.26362 8.60443-51.5625-2.63591-11.21774-9.12425-19.9525-13.39142-30.22582-15.19485-36.582 24.40067-52.64966 44.01258-60.46921-3.18969 1.27178-7.68585 14.71438-8.74468 18.63656-3.10324 11.4961.09077 22.00762 5.137 31.48662 3.63007 6.81889 7.78623 13.503 9.29042 21.63749 2.58123 13.959-3.91733 27.27634-11.44256 36.07962C374.31971 149.39658 362.29976 159.70711 351.39015 171.48823zM432.06275 218.7693c4.61762-10.99506 8.816-23.84262 5.98746-35.88018-1.83422-7.80595-6.34919-13.88411-9.31853-21.03288-10.57346-25.45584 16.9794-36.63669 30.6265-42.078-2.21957.885-5.34826 10.23912-6.08505 12.9684-2.15942 7.99965.06316 15.31417 3.5746 21.91022 2.526 4.745 5.41811 9.39615 6.46481 15.05661 1.79617 9.71351-2.72591 18.98046-7.96239 25.10629C448.01846 203.39664 439.65428 210.57131 432.06275 218.7693z"/><path fill="#d77f4a" d="M326.98385,437.65571c-3.23337-17.82993-9.18535-38.2528-12.4588-56.121a.93167.93167,0,0,1,.87986-1.091c11.95846-.70021,22.51946-7.53772,27.29561-17.8272A29.46923,29.46923,0,0,0,345.262,347.6541a4.97419,4.97419,0,0,1,6.59279-5.07591,30.8084,30.8084,0,0,0,18.455.73181,31.94775,31.94775,0,0,0,17.84775-12.93813,4.95674,4.95674,0,0,1,7.10623-1.106,27.99887,27.99887,0,0,0,32.72941,1.93254.94372.94372,0,0,1,1.3195,1.25849,27.99892,27.99892,0,0,0,3.47852,32.60137,4.95672,4.95672,0,0,1-.76867,7.15058,31.94779,31.94779,0,0,0-12.07942,18.43978,30.8086,30.8086,0,0,0,1.60429,18.40061,4.97353,4.97353,0,0,1-4.75777,6.82465,29.4694,29.4694,0,0,0-14.82548,3.26635c-10.05205,5.25752-16.38235,16.13013-16.51612,28.10832a.93167.93167,0,0,1-1.04818.93048c-18.003-2.42459-38.68454-7.40388-56.64746-9.79025A.8945.8945,0,0,1,326.98385,437.65571Z"/><path fill="#46cc8d" d="M311.98385,437.65571c-3.23337-17.82993-9.18535-38.2528-12.4588-56.121a.93167.93167,0,0,1,.87986-1.091c11.95846-.70021,22.51946-7.53772,27.29561-17.8272A29.46923,29.46923,0,0,0,330.262,347.6541a4.97419,4.97419,0,0,1,6.59279-5.07591,30.8084,30.8084,0,0,0,18.455.73181,31.94775,31.94775,0,0,0,17.84775-12.93813,4.95674,4.95674,0,0,1,7.10623-1.106,27.99887,27.99887,0,0,0,32.72941,1.93254.94372.94372,0,0,1,1.3195,1.25849,27.99892,27.99892,0,0,0,3.47852,32.60137,4.95672,4.95672,0,0,1-.76867,7.15058,31.94779,31.94779,0,0,0-12.07942,18.43978,30.8086,30.8086,0,0,0,1.60429,18.40061,4.97353,4.97353,0,0,1-4.75777,6.82465,29.4694,29.4694,0,0,0-14.82548,3.26635c-10.05205,5.25752-16.38235,16.13013-16.51612,28.10832a.93167.93167,0,0,1-1.04818.93048c-18.003-2.42459-38.68454-7.40388-56.64746-9.79025A.8945.8945,0,0,1,311.98385,437.65571Z"/><path fill="#46cc8d" d="M315.69915,375.66467a30.21713,30.21713,0,0,1-11.81024-13.04814,29.46923,29.46923,0,0,1-2.5615-14.96247,4.97419,4.97419,0,0,0-6.59274-5.07588,30.80855,30.80855,0,0,1-18.455.73182,31.94789,31.94789,0,0,1-17.8478-12.93817,4.95671,4.95671,0,0,0-7.10614-1.106,27.99865,27.99865,0,0,1-32.72389,1.936.94541.94541,0,0,0-1.32189,1.26077,27.99867,27.99867,0,0,1-3.48172,32.59569,4.95672,4.95672,0,0,0,.76866,7.1505,31.94789,31.94789,0,0,1,12.07946,18.43982c2.56937,11.52441-2.21293,20.67407-5.00153,24.80327a.94636.94636,0,0,0,1.019,1.44715,31.06453,31.06453,0,0,1,21.96146,2.24119c10.04836,5.25559,16.3777,16.12216,16.516,28.09516a.94341.94341,0,0,0,1.06135.94189c9.35875-1.261,19.44089-3.21186,29.48838-5.12972"/><circle cx="315" cy="428" r="27" fill="#e53950"/><path fill="#ca2e43" d="M324.40332,402.68555a27.00409,27.00409,0,0,1-31.20068,41.24218,26.99976,26.99976,0,1,0,31.20068-41.24218Z"/><path fill="#7a6d79" d="M455.43013,504.5H56.56987A30,30,0,0,1,29.4061,487.233L7.5,440.5h497l-21.9061,46.733A30,30,0,0,1,455.43013,504.5Z"/><path fill="#685e68" d="M457.72717,440.5l-10.50964,22.42041a30,30,0,0,1-27.16382,17.26709H26.10352l3.30261,7.04541A29.99978,29.99978,0,0,0,56.56982,504.5H455.43018a29.99978,29.99978,0,0,0,27.16369-17.26709L504.5,440.5Z"/><path fill="#282828" d="M425.80471,172.97266c2.05908,3.92675,4.00439,7.63574,4.94238,11.62793,2.39356,10.18554-1.73584,22.05664-5.60107,31.26074a7.5,7.5,0,0,0,12.418,8c3.0996-3.34668,6.30322-6.48731,9.69482-9.8125,4.6001-4.50977,9.35645-9.17285,13.79053-14.36035,3.81494-4.46289,12.39013-16.45118,9.63623-31.34375-1.10938-5.99707-3.76807-10.87207-6.11426-15.17383-.37158-.68164-.74219-1.36133-1.10547-2.043-3.39062-6.37012-4.30176-11.4375-2.9541-16.43066a50.592,50.592,0,0,1,3.45947-9.00782,7.50122,7.50122,0,0,0-7.3916-12.88183h-.001c-10.11279,4.03222-28.93652,11.53711-35.46,27.0166-3.22851,7.65918-2.998,16.03906.68457,24.90527C423.03078,167.68457,424.44094,170.37305,425.80471,172.97266Zm9.13672-27.32325c1.80224-4.27636,5.73388-7.832,10.2583-10.748-.99756,7.42285.66211,15.07812,5.02539,23.27539.38672.72558.78174,1.45019,1.17724,2.17578,1.98487,3.63965,3.85938,7.07617,4.53321,10.7207,1.624,8.78223-4.40283,16.66309-6.28858,18.86914-1.064,1.24414-2.14941,2.457-3.25634,3.65039a44.29526,44.29526,0,0,0-1.041-12.42382c-1.37354-5.84278-3.8584-10.58106-6.26123-15.16309-1.26611-2.41406-2.4624-4.69531-3.43262-7.03027C433.54152,153.88477,433.30764,149.52539,434.94143,145.64941Zm75.88623,290.82325a7.50088,7.50088,0,0,0-6.32959-3.47657H443.20144c24.64282-25.10156,43.58764-62.42871,35.46362-98.47363-6.56152-29.11523-27.81445-44.80762-59.98438-68.56055l-4.35791-3.21972c-8.667-6.41211-17.6289-13.042-27.34765-19.63672a7.49981,7.49981,0,0,0-8.42188,12.41211c9.46534,6.42285,18.30225,12.96094,26.85645,19.28906l4.36084,3.22266c30.51172,22.52832,48.92822,36.126,54.26172,59.792,4.728,20.97851-2.3042,40.88183-9.03662,53.88476a131.19411,131.19411,0,0,1-34.18116,41.29H382.386a22.3723,22.3723,0,0,1,8.05249-7.21484,21.98134,21.98134,0,0,1,11.08252-2.416,12.47338,12.47338,0,0,0,11.98095-17.123,23.22248,23.22248,0,0,1-1.24023-13.96582,24.49071,24.49071,0,0,1,9.3042-14.10547,12.4573,12.4573,0,0,0,1.915-18.001,21.2668,21.2668,0,0,1-5.356-13.4375,20.96288,20.96288,0,0,1,2.74316-10.63965,8.44378,8.44378,0,0,0-11.82324-11.27636,20.97812,20.97812,0,0,1-10.49853,3.24414,21.24052,21.24052,0,0,1-13.67578-4.71582,12.45612,12.45612,0,0,0-17.88965,2.7666,24.49872,24.49872,0,0,1-13.64942,9.96,23.22254,23.22254,0,0,1-14.00879-.5791,12.47453,12.47453,0,0,0-16.53662,12.77929,21.9237,21.9237,0,0,1-1.89013,11.1836,22.16575,22.16575,0,0,1-5.095,6.93847,21.55247,21.55247,0,0,1-7.00122-18.12207,12.47486,12.47486,0,0,0-16.53711-12.77929,23.12494,23.12494,0,0,1-22.96338-4.17188,76.35942,76.35942,0,0,0,2.13379-24.90625c-2.26319-25.502-19.499-50.54687-42.88965-62.32031-11.3562-5.71777-22.92627-7.66406-34.46265-8.00195,28.37805-14.00586,59.35278-20.69825,88.199-18.65625,23.27441,1.64843,46.47851,8.98437,70.93847,22.42675a7.5003,7.5003,0,0,0,7.22412-13.14648A219.524,219.524,0,0,0,326.81618,211.582a72.61994,72.61994,0,0,0-30.70776-47.68359c-16.72168-11.10938-35.18262-11.918-53.03565-12.70117-14.02294-.61524-28.508-1.26465-42.26709-6.959L170.231,115.62109a30.59069,30.59069,0,1,0-54.99365-26.60351,30.59052,30.59052,0,1,0,25.958,55.29394l17.65027,17.88965c6.714,7.88184,9.87488,19.37012,12.92786,30.48828.59033,2.14942,1.17236,4.26953,1.771,6.334l.36231,1.25c2.396,8.27344,4.86719,16.76855,7.94141,25.16406a215.50512,215.50512,0,0,0-20.0188,12.17969c-13.91773.97265-28.175,1.38281-42.3855-2.625l-38.729-28.37305a33.477,33.477,0,1,0-63.06152-21.98535A33.47682,33.47682,0,1,0,53.32863,241.082L76.063,259.169c8.70959,8.03515,13.8269,20.5332,18.772,32.63085.94971,2.32422,1.88721,4.61719,2.83643,6.84668l.64306,1.51075q.88294,2.07568,1.78064,4.17773a169.05432,169.05432,0,0,0-12.95153,29.50391c-15.87269,48.50293-10.87513,79.68945-1.05127,99.15722H7.49807a7.5001,7.5001,0,0,0-6.791,10.6836L22.6133,490.41113a37.64333,37.64333,0,0,0,33.95459,21.585H455.42824a37.64411,37.64411,0,0,0,33.95459-21.584l21.90625-46.73242A7.50041,7.50041,0,0,0,510.82766,436.47266ZM334.50149,365.76953a36.27771,36.27771,0,0,0,3.3706-15.06933,38.19558,38.19558,0,0,0,19.41211-.15918,38.90365,38.90365,0,0,0,20.5-13.8125A35.54109,35.54109,0,0,0,399,343.05273a34.58632,34.58632,0,0,0,4.3252-.40332,34.76515,34.76515,0,0,0-.19825,4.33985,35.64,35.64,0,0,0,7.3208,20.89258,38.89737,38.89737,0,0,0-12.82666,21.13086,38.19856,38.19856,0,0,0,.75928,19.39843,36.26385,36.26385,0,0,0-14.894,4.0791,38.06458,38.06458,0,0,0-17.887,20.50586H350.72658a35.81609,35.81609,0,0,0-2.7705-21.42578L377.51174,380.582a7.50025,7.50025,0,1,0-10.85449-10.35351l-27.85108,29.20117a35.93264,35.93264,0,0,0-29.66821-8.31153c-.30957-1.39746-.62012-2.8291-.92407-4.28027A38.64412,38.64412,0,0,0,334.50149,365.76953Zm-19.30811,39.83106a21.09494,21.09494,0,0,1,20.13477,27.3955H295.05984a21.0902,21.0902,0,0,1,20.13354-27.3955ZM274.30129,350.54a38.18675,38.18675,0,0,0,19.4126.15918,36.2631,36.2631,0,0,0,3.37012,15.07129,36.7204,36.7204,0,0,0,4.30249,7.05371c-.47193.05176-.94507.09961-1.42408.12793a8.43186,8.43186,0,0,0-7.81689,9.92969c.86621,4.72754,1.906,9.55761,2.88733,13.88671q-1.44929.98-2.796,2.0918l-27.3086-28.63183A7.50025,7.50025,0,1,0,254.07375,380.582l28.7561,30.14942a35.81245,35.81245,0,0,0-3.1687,22.26464H265.98659a38.0631,38.0631,0,0,0-17.887-20.50586,36.3677,36.3677,0,0,0-14.88281-4.06835,37.78178,37.78178,0,0,0,.748-19.40918,38.8988,38.8988,0,0,0-12.82714-21.13086,35.64411,35.64411,0,0,0,7.32129-20.89258,34.83531,34.83531,0,0,0-.19874-4.33887,34.76981,34.76981,0,0,0,4.32569.40234,35.37814,35.37814,0,0,0,21.21533-6.32324A38.90327,38.90327,0,0,0,274.30129,350.54ZM166.78591,148.8916l-16.739-16.96582a11.74066,11.74066,0,0,0-14.812-1.51562,15.56466,15.56466,0,0,1-19.83691-2.22852,15.74276,15.74276,0,0,1-.05762-21.50976,15.43,15.43,0,0,1,6.24561-4.01758,11.6095,11.6095,0,0,0,7.20263-7.1084,15.41727,15.41727,0,0,1,4.10108-6.1875,15.74366,15.74366,0,0,1,21.50684.34765,15.56929,15.56929,0,0,1,1.96,19.86622,11.74192,11.74192,0,0,0,1.3164,14.831c.06983.07129.14063.14063.21338.208l22.97632,21.50586Zm10.0105,13.31543,19.08154-3.76172c15.88623,6.39453,31.457,7.07715,46.5376,7.73731,16.53125.72461,32.146,1.40918,45.39062,10.209,10.415,6.92383,18.53614,18.13867,22.40882,30.30078a162.701,162.701,0,0,0-26.87513-4.21972c-29.234-2.07129-59.4718,3.65625-87.946,16.34179-2.66895-7.4834-4.902-15.19433-7.07935-22.71386l-.36328-1.25391c-.5791-1.998-1.14209-4.04883-1.71289-6.12793C183.87307,180.10352,181.28567,170.67969,176.79641,162.207ZM60.93654,227.96582a12.277,12.277,0,0,0-15.5581.28418,18.45148,18.45148,0,0,1-23.65772.19629,18.65868,18.65868,0,0,1-3.12255-25.30078,18.27884,18.27884,0,0,1,6.77587-5.61328,12.12041,12.12041,0,0,0,6.5835-8.27637,18.28268,18.28268,0,0,1,3.94629-7.86231,18.66007,18.66007,0,0,1,25.35644-2.6455,18.45425,18.45425,0,0,1,5.12647,23.09668,12.26861,12.26861,0,0,0,3.2207,15.22461c.07764.06152.15576.12207.23584.17968l30.035,22.00391-17.56653,5.71973ZM93.97561,256.9502l22.28613-7.25684c18.55322,5.04492,36.04248,3.71,52.97754,2.416,18.69433-1.42774,36.35058-2.77833,52.56006,5.38281,18.9292,9.52734,32.87109,29.7207,34.69238,50.24707a59.96748,59.96748,0,0,1-.39282,13.11914,12.48623,12.48623,0,0,0-9.385,2.4873,21.21718,21.21718,0,0,1-13.67578,4.71387,20.96078,20.96078,0,0,1-10.4961-3.24219,8.44524,8.44524,0,0,0-11.82226,11.2793,20.96885,20.96885,0,0,1,2.74121,10.63574,21.26689,21.26689,0,0,1-5.356,13.43653,12.45894,12.45894,0,0,0-2.93921,7.10937c-15.33838,2.43262-31.18823.56348-43.717-5.37012-25.75439-12.19824-38.28027-41.64355-49.33154-67.62207l-.644-1.51465c-.92139-2.16406-1.83106-4.39062-2.75342-6.64648C104.79055,276.51172,100.47756,265.96094,93.97561,256.9502ZM475.8008,484.0459a22.58532,22.58532,0,0,1-20.37256,12.95019H56.56789a22.58455,22.58455,0,0,1-20.37256-12.95117L19.2969,447.99609H120.21877a7.5,7.5,0,1,0,0-15H103.48684c-10.6803-15.4082-18.65454-43.86621-2.08741-94.49218a150.90676,150.90676,0,0,1,6.563-16.58106c10.40442,21.72656,23.908,42.57422,47.06543,53.542,10.94434,5.1836,23.8916,7.83789,37.11719,7.83789a98.63972,98.63972,0,0,0,21.06689-2.28125,23.60176,23.60176,0,0,1,6.11231,11.25489,24.49632,24.49632,0,0,1-3.898,18.97461,8.44662,8.44662,0,0,0,9.0835,12.91211,23.675,23.675,0,0,1,16.63769,1.61816,22.37166,22.37166,0,0,1,8.05225,7.21484h-98.981a7.5,7.5,0,0,0,0,15H260.34206c.01538,0,.02991.00391.04517.00391.02441,0,.04931-.00391.074-.00391h29.63989c.0149,0,.02955.00293.04444.00293.01587,0,.03161-.00293.04736-.00293h80.9314c.02466,0,.0498.00391.07446.00391.01526,0,.02979-.00391.04517-.00391H492.69924Zm-130.5-379.89063c3.0586,5.832,5.94776,11.34082,7.39063,17.48243,3.65576,15.55761-2.47168,33.25878-8.21826,46.94238a7.5,7.5,0,0,0,12.418,8c4.50733-4.86719,9.354-9.61817,14.041-14.21289,6.56006-6.43164,13.34424-13.082,19.62256-20.42774,5.17676-6.05468,16.81836-22.30078,13.1167-42.31543-1.49854-8.10547-5.187-14.86816-8.44092-20.834-.53955-.98926-1.07764-1.97559-1.60449-2.96484-5.22266-9.81055-6.65772-18.07422-4.51612-26.00782,1.24024-4.59472,4.15479-12.15527,5.688-14.36426a7.501,7.501,0,0,0-6.96142-13.19335l-.01465.00585C373.73049,27.88379,347.524,38.33887,338.68459,59.3125c-4.28613,10.16895-3.95312,21.36035.99024,33.26074C341.38234,96.68359,343.37453,100.48242,345.3008,104.15527Zm7.20606-39.01757c3.76709-8.93848,13.07763-15.7129,22.55859-20.75489-.16894.56446-.31592,1.07715-.437,1.52539-3.15235,11.67578-1.269,23.76758,5.75732,36.96582.5503,1.03418,1.11231,2.06446,1.67578,3.09766,2.981,5.46582,5.79688,10.62793,6.85987,16.37988.65674,3.55176,1.89355,16.2002-9.76856,29.8418-3.6792,4.30469-7.51855,8.32617-11.50781,12.334a66.02411,66.02411,0,0,0-.35107-26.32129c-1.87793-7.99218-5.35108-14.61425-8.70948-21.01757-1.855-3.53711-3.60693-6.87793-5.05713-10.36914C350.13479,78.65137,349.8008,71.55859,352.50686,65.1377Z"/></svg>