<svg xmlns="http://www.w3.org/2000/svg" data-name="Layer 1" viewBox="0 0 512 512"><path fill="#d88a55" d="M285,406.03V494.5a10.00366,10.00366,0,0,1-10,10H237a10.0037,10.0037,0,0,1-10-10V406.03Z"/><polygon fill="#c57a44" points="285 406.03 285 475.49 227 416.39 227 406.03 285 406.03"/><circle cx="370" cy="468" r="22.5" fill="#fed402"/><path fill="#fac600" d="M383.39832,449.9245a22.50023,22.50023,0,0,1-34.79664,25.03265,22.50038,22.50038,0,1,0,34.79664-25.03265Z"/><circle cx="142" cy="468" r="22.5" fill="#fed402"/><path fill="#46cc8d" d="M436.67,396.93A819.47523,819.47523,0,0,1,258.5,417.02,820.13126,820.13126,0,0,1,93.74,400.87c-6.41-1.29-12.56-2.62-18.44995-3.95a8.53757,8.53757,0,0,1-4.1-2.15,5.65514,5.65514,0,0,1-.42-.43c0-.01,0-.01-.01-.01a7.54108,7.54108,0,0,1-.69-.94,9.171,9.171,0,0,1-.52-1.04c-.08-.22-.15-.43-.21-.65a.07567.07567,0,0,0-.01-.04c-.04-.18-.08-.37-.11-.56a.21993.21993,0,0,1-.01-.08c-.02-.14-.04-.28-.05-.42a6.60157,6.60157,0,0,1,0-.89,6.22047,6.22047,0,0,1,1.75-3.86l.84-.9L240.5,204.21l8.92-9.55a7.82262,7.82262,0,0,1,.66-.63,9.55466,9.55466,0,0,1,11.84,0,7.83174,7.83174,0,0,1,.66.63L368.61,308.22l10.32,11.05,62.16,66.58C444.78,389.81,442.45,395.62,436.67,396.93Z"/><path fill="#00c27a" d="M436.67,396.93A819.47523,819.47523,0,0,1,258.5,417.02,820.13126,820.13126,0,0,1,93.74,400.87c-6.41-1.29-12.56-2.62-18.44995-3.95a8.53757,8.53757,0,0,1-4.1-2.15,5.65514,5.65514,0,0,1-.42-.43c0-.01,0-.01-.01-.01a7.54108,7.54108,0,0,1-.69-.94,9.171,9.171,0,0,1-.52-1.04c-.08-.22-.15-.43-.21-.65a.07567.07567,0,0,0-.01-.04c-.04-.18-.08-.37-.11-.56a.21993.21993,0,0,1-.01-.08c-.02-.14-.04-.28-.05-.42a6.60157,6.60157,0,0,1,0-.89,617.14415,617.14415,0,0,0,67.78,10.19,576.568,576.568,0,0,0,76.56,2.12c60.36-2.37,124.42-16.24,158.32-24.61a14.91326,14.91326,0,0,0,7.31-24.66l-19.78-21.2-10.5-11.24L240.5,204.21l8.92-9.55a7.82262,7.82262,0,0,1,.66-.63,8.9806,8.9806,0,0,1,11.84,0,7.83174,7.83174,0,0,1,.66.63L368.61,308.22l10.32,11.05,62.16,66.58C444.78,389.81,442.45,395.62,436.67,396.93Z"/><path fill="#46cc8d" d="M409.45,301.52a695.39483,695.39483,0,0,1-151.32,17.06A695.32122,695.32122,0,0,1,102.5,301.51c-4.89-1.11005-6.84-6.05-3.72-9.4l62.83-67.29,88.8-95.11a7.99269,7.99269,0,0,1,11.18,0L350.38,224.82l62.83,67.29C416.35,295.47,414.37,300.41,409.45,301.52Z"/><path fill="#46cc8d" d="M409.45,301.52a704.6362,704.6362,0,0,1-151.32,17.06A695.32122,695.32122,0,0,1,102.5,301.51c-3.89-.88-5.92-4.19-5.01-7.19a5.482,5.482,0,0,1,1.29-2.21l62.83-67.29,7.01-7.51,10.24-10.97,61.64-66.02L250.41,129.71a7.99269,7.99269,0,0,1,11.18,0L350.38,224.82l60.96,65.29h.01l1.86,2C416.35,295.47,414.37,300.41,409.45,301.52Z"/><path fill="#00c27a" d="M409.45,301.52q-7.68,1.74-16.07,3.43a696.5352,696.5352,0,0,1-135.25,13.63A695.32122,695.32122,0,0,1,102.5,301.51c-3.89-.88-5.92-4.19-5.01-7.19a698.084,698.084,0,0,0,115.64,9.26c28.51-.08,64.07-5.82,93.95-11.93,12.54-2.57,24.07-5.2,33.66-7.51,1.26-.3,2.48-.59,3.66-.88a14.50272,14.50272,0,0,0,7.15-23.99l-46.17-49.45-64.88-69.5L250.41,129.71a7.99269,7.99269,0,0,1,11.18,0L350.38,224.82l60.97,65.29,1.86,2C416.35,295.47,414.37,300.41,409.45,301.52Z"/><circle cx="146.433" cy="365.414" r="7.5" fill="#0067c5"/><circle cx="285" cy="376.542" r="22.5" fill="#00c27a"/><path fill="#f4d902" d="M134.43 197.67a4.263 4.263 0 0 0-.71 1.02 3.53544 3.53544 0 0 0-.16.34c-.04.12-.09.24-.12.36-.68 2.31.89 4.84 3.89 5.52q6.855 1.56006 14.45 3.06a276.18934 276.18934 0 0 0 32.41-5.52C166.25 201.56 149.6 199.84 134.43 197.67zM287.34 134.23l10.25 10.98q8.58-7.365 16.54-15.49L303.9 118.76a2.61217 2.61217 0 0 0-.25.23Q295.82 126.985 287.34 134.23z"/><circle cx="276.328" cy="369.042" r="22.5" fill="#e53950"/><circle cx="194.053" cy="327.45" r="22.5" fill="#00c27a"/><circle cx="186.413" cy="318.588" r="22.5" fill="#e53950"/><path fill="#fac600" d="M155.39832,449.9245a22.50023,22.50023,0,0,1-34.79664,25.03265,22.50038,22.50038,0,1,0,34.79664-25.03265Z"/><path fill="#46cc8d" d="M374.64,204.92a537.51081,537.51081,0,0,1-117,13.19,538.68137,538.68137,0,0,1-105.86-10.14q-7.59-1.5-14.45-3.06c-3-.68-4.57-3.21-3.89-5.52.03-.12.08-.24.12-.36a3.53544,3.53544,0,0,1,.16-.34,4.263,4.263,0,0,1,.71-1.02l.02-.02,3.28-3.51L240.5,84.06l11.18-11.97a6.17561,6.17561,0,0,1,8.64,0l43.58,46.67,10.23,10.96,63.42,67.93C379.97,200.24,378.44,204.06,374.64,204.92Z"/><path fill="#00c27a" d="M374.64,204.92a537.51081,537.51081,0,0,1-117,13.19,538.68137,538.68137,0,0,1-105.86-10.14q-7.59-1.5-14.45-3.06c-3-.68-4.57-3.21-3.89-5.52.03-.12.08-.24.12-.36a3.53544,3.53544,0,0,1,.16-.34,4.263,4.263,0,0,1,.71-1.02c15.17005,2.17,31.82,3.89,49.76,4.78,9.16.45,18.65.69,28.45.66,28.6-.08,66.39-7.53,91.83-13.41a16.88434,16.88434,0,0,0,8.55-27.97l-15.43-16.52-10.25-10.98L240.5,84.06l11.18-11.97a5.91416,5.91416,0,0,1,8.64,0l43.58,46.67,10.23,10.96,63.42,67.93C379.97,200.24,378.44,204.06,374.64,204.92Z"/><circle cx="300.735" cy="230.47" r="22.5" fill="#00c27a"/><circle cx="294.064" cy="220.148" r="22.5" fill="#e53950"/><path fill="#fac600" d="M259.60507,9.741l9.88511,20.02944a4.02025,4.02025,0,0,0,3.027,2.19922l22.10379,3.21186a4.02021,4.02021,0,0,1,2.22806,6.85725L280.85454,57.62951a4.02024,4.02024,0,0,0-1.1562,3.55841l3.77578,22.01448a4.02021,4.02021,0,0,1-5.83312,4.238L257.87077,77.04659a4.0202,4.0202,0,0,0-3.74154,0L234.359,87.44041a4.02021,4.02021,0,0,1-5.83312-4.238l3.77578-22.01448a4.02024,4.02024,0,0,0-1.1562-3.55841L215.151,42.03877a4.02021,4.02021,0,0,1,2.22806-6.85725l22.10379-3.21186a4.02025,4.02025,0,0,0,3.027-2.19922L252.39493,9.741A4.02022,4.02022,0,0,1,259.60507,9.741Z"/><path fill="#ca2e43" d="M280.30572 346.90012A22.48857 22.48857 0 0 1 259.252 383.68478a22.49656 22.49656 0 1 0 21.05371-36.78466zM297.98444 197.82724a22.48857 22.48857 0 0 1-21.05371 36.78467 22.49656 22.49656 0 1 0 21.05371-36.78467zM190.39045 296.44536A22.48857 22.48857 0 0 1 169.33674 333.23a22.49656 22.49656 0 1 0 21.05371-36.78467z"/><path fill="#fed402" d="M230.24585,73.17426c1.09405.08642,2.19641.14343,3.31268.14343A41.52169,41.52169,0,0,0,275.073,32.34106l-2.55585-.37139a4.0205,4.0205,0,0,1-3.027-2.19922L259.6051,9.741a4.02023,4.02023,0,0,0-7.21014,0l-9.88513,20.02948a4.02028,4.02028,0,0,1-3.027,2.19922l-22.10376,3.21185a4.0202,4.0202,0,0,0-2.22809,6.85724l15.99445,15.59076a4.02034,4.02034,0,0,1,1.15625,3.55841Z"/><path fill="#282828" d="M309.00484,172.36426a7.5,7.5,0,1,0-7.5-7.5A7.5,7.5,0,0,0,309.00484,172.36426Zm32.78681,98.63183a7.5,7.5,0,1,0-7.5-7.5A7.5,7.5,0,0,0,341.79165,270.99609ZM446.57082,380.73047l-62.0343-66.44238q13.35205-2.47705,26.57288-5.46a13.95788,13.95788,0,0,0,10.55371-9.37988,12.65082,12.65082,0,0,0-2.97022-12.46l-65.43146-70.08057q11.60733-2.09765,23.03254-4.67724a12.6368,12.6368,0,0,0,9.41113-8.41211,11.46148,11.46148,0,0,0-2.6792-11.294L288.41317,91.189a11.43521,11.43521,0,0,0,2.45111-9.2583l-3.4668-20.21191L302.083,47.40527a11.52031,11.52031,0,0,0-6.38526-19.64941l-20.29345-2.94922L266.32863,6.418a11.52008,11.52008,0,0,0-20.66113,0l-9.07568,18.38867-20.292,2.94922a11.52014,11.52014,0,0,0-6.38575,19.65039l14.68457,14.3125-3.46679,20.21094A11.4361,11.4361,0,0,0,223.5815,91.187l-94.61419,101.3374a11.47119,11.47119,0,0,0-2.68067,11.30274c.02564.08349.06641.16015.09393.24267a7.41829,7.41829,0,0,0,.41071,1.061,12.73276,12.73276,0,0,0,8.87524,7.0918q11.46488,2.59643,23.06318,4.688L93.30031,286.98828a12.66439,12.66439,0,0,0-2.9707,12.47363,13.91239,13.91239,0,0,0,10.51416,9.35743q13.18075,2.98534,26.61993,5.46582L65.42678,380.73047a13.59271,13.59271,0,0,0-3.19873,13.38476c.06024.19581.13183.38575.2.57764.0191.05713.03864.11377.059.17041a15.14356,15.14356,0,0,0,11.14282,9.36426q30.02848,6.80054,60.63251,11.31689l.1839,23.41553a29.99943,29.99943,0,1,0,15.00067-.02685l-.16724-21.30127q34.89157,4.519,70.20771,6.07617l.01062,70.78808a17.52,17.52,0,0,0,17.5,17.5h38a17.52,17.52,0,0,0,17.5-17.5V423.71826q35.27371-1.54761,70.21832-6.08349l-.16724,21.29834a30.00057,30.00057,0,1,0,15.00068.02685l.18389-23.417q30.55152-4.52856,60.5871-11.30469a15.11849,15.11849,0,0,0,11.44824-10.13965A13.57443,13.57443,0,0,0,446.57082,380.73047ZM401.095,290.11865a346.89759,346.89759,0,0,1-129.86987-26.8081,346.569,346.569,0,0,1-71.77667-40.62891,549.10892,549.10892,0,0,0,56.55792,2.93164c.55029,0,1.10693-.001,1.65771-.00293,2.29047-.00732,4.59394-.02978,6.89478-.06543a29.99321,29.99321,0,0,0,59.47235-4.166c3.81158-.477,7.6192-1.00684,11.42279-1.56446ZM279.06252,220.14453a15,15,0,1,1,15,15A15.01672,15.01672,0,0,1,279.06252,220.14453ZM240.56008,39.3877a11.51719,11.51719,0,0,0,8.67334-6.30176l6.76465-13.707L262.76272,33.085a11.516,11.516,0,0,0,8.67382,6.30274L286.563,41.58594,275.61623,52.25586a11.5183,11.5183,0,0,0-3.312,10.19531l2.584,15.06641-13.52685-7.11133a11.51159,11.51159,0,0,0-10.72363-.00195l-13.52979,7.11328,2.584-15.06641a11.52067,11.52067,0,0,0-3.31348-10.19726l-10.94531-10.668ZM148.85317,193.20459l95.98389-102.8042,11.161-5.86719L267.15352,90.398l31.39966,33.63086a251.698,251.698,0,0,1-31.35052,25.75732,7.50053,7.50053,0,1,0,8.54687,12.32813,266.817,266.817,0,0,0,33.04-27.12158l59.437,63.66064c-15.56543,3.36914-31.45837,6.04932-47.3808,8.00147a29.98507,29.98507,0,0,0-55.19018,3.86474c-2.68134.04834-5.36646.083-8.03742.09082q-.80712.00292-1.61279.00293a532.95625,532.95625,0,0,1-80.883-6.17578,266.51512,266.51512,0,0,0,72.82342-25.49316,7.50022,7.50022,0,0,0-6.958-13.28907A253.70921,253.70921,0,0,1,148.85317,193.20459ZM106.5884,294.73633l67.77307-72.58887a362.22886,362.22886,0,0,0,91.08337,55.00488,360.64587,360.64587,0,0,0,97.868,25.54932,691.46112,691.46112,0,0,1-105.21271,8.37842c-14.266.02734-28.69989-.39112-42.99024-1.231a29.9935,29.9935,0,0,0-55.12158-5.4585C142.049,301.874,124.12392,298.63818,106.5884,294.73633ZM201.41067,318.584a15,15,0,1,1-15-15A15.01672,15.01672,0,0,1,201.41067,318.584Zm-44.4126,149.41211a15,15,0,1,1-15-15A15.01672,15.01672,0,0,1,156.99807,467.99609Zm120.5,26.5a2.50263,2.50263,0,0,1-2.5,2.5h-38a2.50283,2.50283,0,0,1-2.5-2.501l-.01056-70.2627q10.75.27759,21.514.28711c.83789,0,1.68554-.001,2.52343-.00391,6.3274-.019,12.6518-.12792,18.97315-.291Zm107.5-26.5a15,15,0,1,1-15-15A15.01672,15.01672,0,0,1,384.99807,467.99609ZM258.47951,409.51562a814.69411,814.69411,0,0,1-125.92883-9.3833,508.56892,508.56892,0,0,0,62.84973-7.46533,7.50018,7.50018,0,0,0-2.69726-14.75586A498.36443,498.36443,0,0,1,81.53621,385.457l63.60523-68.126q5.63645.89649,11.28076,1.708a29.994,29.994,0,0,0,59.31018,5.876c13.39087.76074,26.89118,1.168,40.272,1.168q1.07079,0,2.14111-.00293a707.217,707.217,0,0,0,91.49109-6.23487,488.85951,488.85951,0,0,1-53.32251,26.84571,29.97473,29.97473,0,0,0-49.68579,18.13135c-7.352,2.23535-14.8067,4.3208-22.23914,6.19921a7.50028,7.50028,0,1,0,3.67676,14.543c6.78619-1.71582,13.59344-3.59619,20.32776-5.604a29.99218,29.99218,0,0,0,56.33166-20.57031,505.01857,505.01857,0,0,0,67.8631-35.91993l61.86713,66.26417A811.908,811.908,0,0,1,258.47951,409.51562Zm32.84668-40.47753a15,15,0,1,1-15-15A15.01672,15.01672,0,0,1,291.32619,369.03809Zm70.67188-7.5a7.5,7.5,0,1,0,7.5,7.5A7.5,7.5,0,0,0,361.99807,361.53809ZM181.24148,269.7373a7.5,7.5,0,1,0-7.5-7.5A7.5,7.5,0,0,0,181.24148,269.7373Zm53.25659-140.51953a7.5,7.5,0,1,0,7.5,7.5A7.5,7.5,0,0,0,234.49807,129.21777ZM146.43062,357.91016a7.5,7.5,0,1,0,7.5,7.5A7.5,7.5,0,0,0,146.43062,357.91016Z"/></svg>