<svg xmlns="http://www.w3.org/2000/svg" data-name="Layer 1" viewBox="0 0 512 512"><path fill="#554e56" d="M487.86035,105.46411a77.549,77.549,0,0,0-80.90723-36.1748l-93.563,17.78735V362.70605l143.854-104.6582a115.11193,115.11193,0,0,0,30.61621-152.58374Zm-61.42041,115.575L354.76245,273.187V124.93457L411.294,114.188a32.2122,32.2122,0,0,1,33.57373,15.01123h0A69.28562,69.28562,0,0,1,426.43994,221.03906Z"/><path fill="#433f43" d="M381.294,114.188l-56.5315,10.74658V273.187l30-21.82617V124.93457l45.37085-8.625A32.08575,32.08575,0,0,0,381.294,114.188Z"/><path fill="#433f43" d="M487.86035,105.46411a77.549,77.549,0,0,0-80.90723-36.1748l-.60034.114a78.28609,78.28609,0,0,1,51.50757,36.06079,115.11193,115.11193,0,0,1-30.61621,152.58374l-113.854,82.83228v21.82592l143.854-104.6582a115.11193,115.11193,0,0,0,30.61621-152.58374Z"/><path fill="#554e56" d="M94.7758,357.29287v62.88177a17.47033,17.47033,0,0,1-17.43119,17.5092H69.122a33.33388,33.33388,0,0,0-33.25921,33.408v.00007A33.33388,33.33388,0,0,0,69.122,504.5H150.3898a34.50019,34.50019,0,0,0,34.42291-34.577V357.29287Z"/><path fill="#433f43" d="M169.81274,357.293V454.9231A34.50024,34.50024,0,0,1,135.38965,489.5H54.12207a32.9908,32.9908,0,0,1-14.74341-3.46118A33.23725,33.23725,0,0,0,69.12207,504.5h81.26758a34.50024,34.50024,0,0,0,34.42309-34.5769V357.293Z"/><path fill="#554e56" d="M274.84962,357.29287v62.88177a17.47033,17.47033,0,0,0,17.43119,17.5092h8.22264a33.33388,33.33388,0,0,1,33.25921,33.408v.00007A33.33388,33.33388,0,0,1,300.50345,504.5H219.23562a34.50019,34.50019,0,0,1-34.42291-34.577V357.29287Z"/><path fill="#433f43" d="M300.50342,437.68384h-8.22266a17.47031,17.47031,0,0,1-17.43115-17.50928V357.293H184.81274v15h75.03687v62.88159a17.47031,17.47031,0,0,0,17.43115,17.50928h8.22266a33.33384,33.33384,0,0,1,33.25928,33.408h0a33.37836,33.37836,0,0,1-3.51587,14.947,33.41715,33.41715,0,0,0,18.51587-29.947h0A33.33384,33.33384,0,0,0,300.50342,437.68384Z"/><path fill="#e53950" d="M371.82007,50.23V277.10986A124.07924,124.07924,0,0,1,367.85986,308.28c-.30981,1.17993-.62988,2.34985-.96972,3.52A123.36159,123.36159,0,0,1,270.78,398.79l-8.38989,1.54a418.8885,418.8885,0,0,1-155.02-.75,123.44534,123.44534,0,0,1-95.26026-87.91016c-.16992-.59985-.32983-1.2-.48974-1.7998-.17017-.61011-.33008-1.23-.48-1.8501A124.26593,124.26593,0,0,1,7.5,278.12012V50.23a7.97661,7.97661,0,0,1,7.96-8h348.3999A7.97667,7.97667,0,0,1,371.82007,50.23Z"/><path fill="#ca2e43" d="M363.85986,42.23H341.82007V262.10986A124.07924,124.07924,0,0,1,337.85986,293.28c-.30981,1.17993-.62988,2.34985-.96972,3.52A123.36159,123.36159,0,0,1,240.78,383.79l-8.38989,1.54a418.8885,418.8885,0,0,1-155.02-.75,123.22576,123.22576,0,0,1-16.1023-4.25659,122.47152,122.47152,0,0,0,46.1023,19.25659,418.8885,418.8885,0,0,0,155.02.75l8.38989-1.54a123.36159,123.36159,0,0,0,96.11011-86.99c.33984-1.17017.65991-2.34009.96972-3.52a124.07924,124.07924,0,0,0,3.96021-31.17017V50.23A7.97667,7.97667,0,0,0,363.85986,42.23Z"/><rect width="364.32" height="58.95" x="7.5" y="153.73" fill="#554e56"/><rect width="30" height="58.95" x="341.82" y="153.73" fill="#433f43"/><path fill="#433f43" d="M234.8501,148.82007v68.76A11.39508,11.39508,0,0,1,223.45,228.98H155.87012A11.40148,11.40148,0,0,1,144.47,217.58008v-68.76a11.39941,11.39941,0,0,1,11.40015-11.39014H223.45A11.393,11.393,0,0,1,234.8501,148.82007Z"/><path fill="#554e56" d="M181.97,184.21a7.50272,7.50272,0,0,1-7.5,7.5h-30v-15h30A7.50288,7.50288,0,0,1,181.97,184.21Z"/><path fill="#f1f6f9" d="M366.89014,311.80005A123.36159,123.36159,0,0,1,270.78,398.79l-8.38989,1.54a418.8885,418.8885,0,0,1-155.02-.75,123.44534,123.44534,0,0,1-95.26026-87.91016,609.90516,609.90516,0,0,0,168.75,26.28A609.195,609.195,0,0,0,366.89014,311.80005Z"/><path fill="#dde8ef" d="M240.78,383.79l-8.38989,1.54a418.8885,418.8885,0,0,1-155.02-.75,123.22576,123.22576,0,0,1-16.1023-4.25659q1.22827.84192,2.47925,1.654.09667.063.1936.12549,1.18763.76941,2.39429,1.512l.1875.116q5.1797,3.17505,10.70093,5.84765c.12305.05957.24707.11743.37036.17652q1.1499.55115,2.31421,1.07959.28344.12853.56787.25561,1.09387.49,2.2.9585c.20117.0852.40137.17138.603.25561q1.158.48414,2.32983.94483c.15259.06006.304.12231.457.18188q2.82093,1.099,5.71289,2.06348c.19483.06494.39161.126.58692.18994q1.11291.36474,2.23535.71094c.30981.09472.62109.186.93188.27881q.96608.28784,1.93848.56152.52111.14576,1.04443.28735.94263.25525,1.89234.49536c.35132.08912.70239.1792,1.05517.26539.67261.1643,1.34839.32055,2.02564.47412.30688.06958.6123.14257.92041.20971q1.47363.32227,2.96094.61231a418.8885,418.8885,0,0,0,155.02.75l8.38989-1.54a123.36159,123.36159,0,0,0,96.11011-86.99c-12.40528,3.76782-26.05713,7.471-40.84717,10.8562A123.07127,123.07127,0,0,1,240.78,383.79Z"/><path fill="#282828" d="M494.27541,101.57715A85.05,85.05,0,0,0,405.5508,61.917l-26.23047,4.98682V50.22656A15.49656,15.49656,0,0,0,363.8594,34.72949H15.459A15.49656,15.49656,0,0,0-.00193,50.22656v227.8877a131.28907,131.28907,0,0,0,3.80957,31.44433c.01831.08692.02929.17383.05078.26075.18994.76757.4021,1.52636.60693,2.28808.02491.09278.04883.18555.07373.27832.11768.4336.22437.8711.34571,1.30371.02929.1045.07324.20313.10693.30567A131.35563,131.35563,0,0,0,87.27346,401.8623v18.3086a9.98158,9.98158,0,0,1-9.93067,10.00879H69.12014a40.90847,40.90847,0,0,0,0,81.8164h81.26758a41.85592,41.85592,0,0,0,34.42285-18.10156,41.85592,41.85592,0,0,0,34.42285,18.10156H300.502a40.90847,40.90847,0,0,0,0-81.8164h-8.22265a9.98178,9.98178,0,0,1-9.93164-10.00879V403.86328a130.73428,130.73428,0,0,0,84.50879-70.78613l94.79785-68.96875a122.61125,122.61125,0,0,0,32.62109-162.53125ZM14.99807,161.22754H71.27248v43.94434H14.99807ZM177.31057,469.919a27.03048,27.03048,0,0,1-26.92285,27.07714H69.12014a25.90863,25.90863,0,0,1,0-51.8164h8.22265a24.99785,24.99785,0,0,0,24.93067-25.00879V406.169c1.2185.27148,2.4414.5332,3.67383.77148a426.471,426.471,0,0,0,71.36328,7.66895Zm114.96875-24.73926H300.502a25.90863,25.90863,0,0,1,0,51.8164H219.23342A27.03048,27.03048,0,0,1,192.31057,469.919V414.65723a426.459,426.459,0,0,0,71.43261-6.95313l3.6045-.66015v13.127A24.99867,24.99867,0,0,0,292.27932,445.17969Zm72.041-168.07227a116.84731,116.84731,0,0,1-3.56836,28.69629,601.342,601.342,0,0,1-63.00488,15.00391,7.49974,7.49974,0,1,0,2.68164,14.75781c18.28467-3.32227,36.54444-7.52148,54.47461-12.49512q-.37391.87159-.76025,1.73731c-.07959.1582-.15064.31836-.21851.48144a115.67569,115.67569,0,0,1-84.4939,66.124l-8.39062,1.53711a411.24856,411.24856,0,0,1-75.8291,6.76074c-.13355-.00782-.26514-.02051-.40039-.02051-.10742,0-.21192.01172-.31812.01562a411.10411,411.10411,0,0,1-75.69946-7.49218q-5.65064-1.09278-11.075-2.72071a7.364,7.364,0,0,0-1.53833-.46484A116.13741,116.13741,0,0,1,23.961,322.90918,618.05208,618.05208,0,0,0,180.749,345.44434q4.49855.06591,8.999.06543a622.16588,622.16588,0,0,0,75.51953-4.59864,7.50012,7.50012,0,0,0-1.82617-14.88867,608.77254,608.77254,0,0,1-82.47364,4.42383A602.66,602.66,0,0,1,18.30788,305.69922a116.343,116.343,0,0,1-3.30981-27.585V220.17188H137.16994a18.91191,18.91191,0,0,0,18.69922,16.30664h67.58008a18.91191,18.91191,0,0,0,18.69922-16.30664H364.32033ZM174.46682,176.70508h-22.4961V148.82031a3.9031,3.9031,0,0,1,3.89844-3.89843h67.58008a3.9031,3.9031,0,0,1,3.89844,3.89843v68.75977a3.90311,3.90311,0,0,1-3.89844,3.89844H155.86916a3.90311,3.90311,0,0,1-3.89844-3.89844v-25.875h22.4961a7.5,7.5,0,1,0,0-15Zm67.88086,28.4668V161.22754h50.69824v43.94434Zm121.97265,0H308.04592V161.22754h56.27441Zm0-129.33252c-.00024.01074,0,.021,0,.03173v45.66114c-.00073.03906,0,.07715,0,.11621v24.5791H242.14846a18.9118,18.9118,0,0,0-18.69922-16.30566H155.86916a18.91949,18.91949,0,0,0-18.89844,18.89843v56.35157H86.27248V161.22754h28.19531a7.5,7.5,0,1,0,0-15H14.99807v-96.001a.48053.48053,0,0,1,.46094-.49707H363.8594a.48053.48053,0,0,1,.46093.49707Zm15,52.05615,33.37207-6.34375a24.83344,24.83344,0,0,1,25.75684,11.52636,61.78734,61.78734,0,0,1-16.42285,81.89258L379.32033,246.04ZM494.878,186.28418a107.05459,107.05459,0,0,1-42.04785,65.69531l-77.20435,56.169a131.89759,131.89759,0,0,0,3.69458-31.041V264.58887l51.53028-37.48926A76.78685,76.78685,0,0,0,451.28322,125.3125a39.89494,39.89494,0,0,0-41.3916-18.49707L379.32033,112.627V82.17236l29.03028-5.519a70.04958,70.04958,0,0,1,73.09082,32.68945A107.41821,107.41821,0,0,1,494.878,186.28418Z"/></svg>