<svg xmlns="http://www.w3.org/2000/svg" data-name="Layer 1" viewBox="0 0 512 512"><path fill="#e53950" d="M67.02316,211.793l.00009-.00008a61.20328,61.20328,0,0,1,85.59948.04074l25.79275,25.41794.048-98.00608C178.49915,66.44931,238.46915,7.46483,312.41024,7.49993h.00027C386.3516,7.535,446.26378,66.57645,446.22812,139.37261l-.13057,266.54769-267.76463-.14179L66.986,296.07109A58.94044,58.94044,0,0,1,67.02316,211.793Z"/><path fill="#ca2e43" d="M363.28418,17.38568a130.32249,130.32249,0,0,1,37.944,91.98694l-.09039,184.5444a82,82,0,0,1-82.04344,81.95982l-171.20186-.09071L178.333,405.77856l267.76459.14173.13055-266.54767C446.25513,84.31079,411.98059,37.12677,363.28418,17.38568Z"/><path fill="#f1f6f9" d="M462.73,428.07007,462.7,482.37a22.13691,22.13691,0,0,1-22.15,22.13l-258.69-.12a22.15619,22.15619,0,0,1-22.13-22.15l.01-26.58008.01-15,.01-12.73A22.1496,22.1496,0,0,1,181.91,405.79l258.69.12988A22.1434,22.1434,0,0,1,462.73,428.07007Z"/><path fill="#dde8ef" d="M440.6,405.91992l-9.0575-.00464c.76587,2.24549-4.05841,25.23158-6.68135,34.27a68.33654,68.33654,0,0,1-65.66056,49.291L160.919,489.38428A22.16087,22.16087,0,0,0,181.86,504.38l258.69.12a22.13691,22.13691,0,0,0,22.15-22.13l.03-54.29993A22.1434,22.1434,0,0,0,440.6,405.91992Z"/><path fill="#282828" d="M229.20461,206.43945a7.49149,7.49149,0,0,0,9.165,5.33887l32.93555-8.689L304.79592,222.126,271.30446,241.1626l-32.93481-8.688a7.5,7.5,0,0,0-3.82617,14.50391l18.11975,4.78027-16.255,9.23926a7.50012,7.50012,0,1,0,7.41211,13.041l16.55811-9.41162-4.88184,17.937a7.50009,7.50009,0,1,0,14.47364,3.93946l8.79882-32.33008,32.5127-18.48047v38.10693L287.24318,297.4668a7.50012,7.50012,0,0,0,10.52344,10.68945l13.51514-13.30615v18.73877a7.5,7.5,0,0,0,15,0V294.8501l13.51465,13.30615a7.50012,7.50012,0,0,0,10.52343-10.68945l-24.03808-23.66651V234.33838l34.89606,19.83545,8.79925,32.33008a7.50009,7.50009,0,0,0,14.47363-3.93946l-4.88214-17.937,16.55793,9.41162a7.50012,7.50012,0,1,0,7.4121-13.041l-16.255-9.23926,18.11975-4.78027a7.5,7.5,0,1,0-3.82617-14.50391l-32.93488,8.688L335.151,222.126l33.49066-19.03662,32.93555,8.689a7.5,7.5,0,1,0,3.82617-14.50391l-18.12152-4.78027,18.64056-10.5957a7.50013,7.50013,0,1,0-7.41211-13.041L379.56905,179.624l4.88165-17.93554a7.50009,7.50009,0,0,0-14.47363-3.93946L361.178,190.07764l-34.89624,19.83545V171.80615l24.03808-23.66553a7.50012,7.50012,0,0,0-10.52343-10.68945l-13.51465,13.30567V129.30762a7.5,7.5,0,0,0-15,0v21.44922l-13.51514-13.30567a7.50012,7.50012,0,0,0-10.52344,10.68945l24.03858,23.66553v36.752l-32.51294-18.48047L269.97024,157.749a7.50009,7.50009,0,0,0-14.47364,3.93946l4.88159,17.93554-18.94165-10.7666a7.50013,7.50013,0,0,0-7.41211,13.041l18.6399,10.59521-18.12085,4.78076A7.5,7.5,0,0,0,229.20461,206.43945Zm232.34815,200.666a29.6864,29.6864,0,0,0-7.95484-5.69141l.12817-262.042a137.37,137.37,0,0,0-41.40332-98.56738A141.52683,141.52683,0,0,0,312.41164-.00391h-.06933c-77.92579,0-141.34327,62.4502-141.38086,139.24121a7.49974,7.49974,0,0,0,7.49609,7.50391h.00391a7.49986,7.49986,0,0,0,7.5-7.49609c.03369-68.52735,56.71728-124.249,126.38183-124.249h.062a126.61354,126.61354,0,0,1,89.38916,36.49317,122.47921,122.47921,0,0,1,36.93164,87.875l-.1267,259.04883-20.10425-.01172h-.0044a7.5,7.5,0,0,0-.00439,15l22.105.01269a14.63793,14.63793,0,0,1,14.63232,14.64649l-.00628,12.99609c-9.891,1.15039-15.93787,4.50293-21.39313,7.52734-5.86377,3.252-10.92822,6.05957-21.61231,6.05957-10.68457,0-15.749-2.80761-21.61279-6.05957-6.71289-3.72168-14.32129-7.94043-28.88623-7.94043-14.56348,0-22.17139,4.21875-28.8833,7.94141-5.86279,3.251-10.92627,6.05859-21.60889,6.05859-10.6831,0-15.74658-2.80761-21.60937-6.05859-6.7124-3.72266-14.32031-7.94141-28.88379-7.94141-14.563,0-22.1709,4.21875-28.88281,7.94141-5.8628,3.251-10.92578,6.05859-21.6084,6.05859-10.68213,0-15.74512-2.80761-21.60791-6.05859-5.45178-3.02392-11.49463-6.37451-21.37561-7.52637l.00647-13.13476A14.64044,14.64044,0,0,1,181.89943,413.291h.00684l206.58106.10449h.0039a7.5,7.5,0,0,0,.00391-15L181.91359,398.291h-.01416c-.15588,0-.3103.00878-.46582.01123L72.24758,290.72461a51.4412,51.4412,0,0,1,.0332-73.58887,53.74029,53.74029,0,0,1,75.07569.03516L173.14431,242.584l.00464.00489,17.88525,17.626a7.50009,7.50009,0,1,0,10.5293-10.68359l-15.64844-15.42139.03223-65.44091a7.49975,7.49975,0,0,0-7.4961-7.50391h-.0039a7.49985,7.49985,0,0,0-7.5,7.49609l-.02491,50.67383L157.88479,206.4873a68.80268,68.80268,0,0,0-96.12305-.04492,66.44115,66.44115,0,0,0-.0415,94.96778l103.524,101.999a29.96241,29.96241,0,0,0-4.29309,3.55273A29.44391,29.44391,0,0,0,152.2593,427.916l-.01,20.16406c-.00012.02148-.00318.042-.00318.06347,0,.021.00293.04151.00318.0625l-.01685,34.01172a29.67419,29.67419,0,0,0,29.62647,29.65528l258.68408.123h.01416a29.674,29.674,0,0,0,29.64014-29.626l.02636-54.30176A29.44439,29.44439,0,0,0,461.55276,407.10547Zm-6.35547,75.25683a14.64044,14.64044,0,0,1-14.64014,14.63379h-.00732l-258.68409-.123a14.65726,14.65726,0,0,1-14.6333-14.64746l.01294-26.01612c5.948.978,9.81885,3.11377,14.10864,5.49268,6.71192,3.72265,14.31934,7.9414,28.88233,7.9414s22.1709-4.21875,28.88281-7.9414c5.86279-3.251,10.92578-6.0586,21.6084-6.0586,10.68311,0,15.74658,2.80762,21.60937,6.0586,6.71241,3.72265,14.32032,7.9414,28.88379,7.9414s22.17139-4.21875,28.8833-7.9414c5.8628-3.251,10.92627-6.0586,21.60889-6.0586,10.68457,0,15.749,2.80762,21.61279,6.05957,6.71289,3.72168,14.32129,7.94043,28.88623,7.94043,14.56446,0,22.17286-4.21875,28.88575-7.94043,4.29065-2.37939,8.16266-4.51611,14.1123-5.49365Z"/></svg>