<svg xmlns="http://www.w3.org/2000/svg" data-name="Layer 1" viewBox="0 0 512 512"><path fill="#46cc8d" d="M226.87348,118.11219h58.253a22.37767,22.37767,0,0,1,22.37767,22.37767v71.60855a0,0,0,0,1,0,0H204.49581a0,0,0,0,1,0,0V140.48986A22.37767,22.37767,0,0,1,226.87348,118.11219Z"/><path fill="#00c27a" d="M285.12653,118.11218h-7.62232v6.57787a27.40834,27.40834,0,0,1-27.40833,27.40834h-45.6v60H307.50421V140.48987A22.37768,22.37768,0,0,0,285.12653,118.11218Z"/><path fill="#e53950" d="M423.09,337.40913a166.62573,166.62573,0,0,1-11.75,61.66016c-.91,2.27978-1.9,4.63965-3,7.08008-.17.38965-.35.77978-.53,1.16992q-1.875,4.06494-3.96,8.00976a167.15169,167.15169,0,0,1-296.07-.71972c-1.15-2.18994-2.24-4.40039-3.29-6.65039q-1.97993-4.24438-3.72-8.60987a167.6829,167.6829,0,0,1,.42-124.92968c1.03-2.53028,2.12-5.02,3.27-7.49024q1.98-4.24512,4.19-8.35986a167.152,167.152,0,0,1,294.71.00976q2.59506,4.83033,4.87,9.84034,1.34994,2.97,2.58,6A166.58554,166.58554,0,0,1,423.09,337.40913Z"/><path fill="#ca2e43" d="M410.81,274.41992a164.69149,164.69149,0,0,0-7.45-15.84,167.281,167.281,0,0,0-117.56818-85.59278A167.78777,167.78777,0,0,1,358.36,243.58a164.69149,164.69149,0,0,1,7.45,15.84,167.20553,167.20553,0,0,1-184.58356,227.4303A167.163,167.163,0,0,0,410.81,274.41992Z"/><path fill="#46cc8d" d="M423.09,337.40913a166.62573,166.62573,0,0,1-11.75,61.66016c-.91,2.27978-1.9,4.63965-3,7.08008-1.39.59961-2.8,1.17968-4.24,1.71972a26.53882,26.53882,0,0,0-9.32,1.5c-9.97,3.62012-12.97,12.5-27.71,12.5-18.52,0-18.52-14-37.03-14s-18.51,14-37.03,14c-18.51,0-18.51-14-37.02-14s-18.51,14-37.02,14-18.51-14-37.03-14c-18.5,0-18.5,14-37.01,14s-18.51-14-37.03-14c-1.14.0503-2.28.08985-3.41.08985q-1.97993-4.24438-3.72-8.60987a167.6829,167.6829,0,0,1,.42-124.92968c1.03-2.53028,2.12-5.02,3.27-7.49024,1.14-.02,2.29-.00976,3.44.02979,18.52,0,18.52-14,37.03-14,18.52,0,18.52,14,37.03,14s18.51-14,37.03-14c18.51,0,18.51,14,37.02,14s18.51-14,37.02-14,18.51,14,37.03,14c18.5,0,18.5-14,37.01-14s18.51,14,37.03,14c1.38995.45019,2.77.93017,4.13,1.46045q1.34994,2.97,2.58,6A166.58554,166.58554,0,0,1,423.09,337.40913Z"/><path fill="#00c27a" d="M423.09,337.40962a166.5867,166.5867,0,0,0-12.28-62.98974q-.767-1.88452-1.5824-3.74463c-.115-.26368-.23279-.52637-.34924-.78955-.21845-.49415-.44648-.98291-.66962-1.47413-1.35309-.52685-2.72595-1.00488-4.1087-1.45263-18.52,0-18.52-14-37.03-14a31.60675,31.60675,0,0,0-3.95545.24511c.93518,2.05225,1.84253,4.12012,2.69544,6.21583A166.56638,166.56638,0,0,1,349.63666,415.685c4.29407,3.20752,8.89508,6.18408,17.43335,6.18408,14.74,0,17.74-8.87988,27.71-12.5a26.53882,26.53882,0,0,1,9.32-1.5c1.43463-.53808,2.83917-1.11572,4.22424-1.71289q.36822-.81591.72705-1.63672c.25171-.57519.51184-1.15722.75214-1.72363q.74935-1.76293,1.46191-3.54492c.02387-.05957.05084-.12207.07465-.18164A166.62441,166.62441,0,0,0,423.09,337.40962Z"/><circle cx="159.208" cy="337.413" r="19.358" fill="#f1f6f9"/><circle cx="352.792" cy="337.413" r="19.358" fill="#f1f6f9"/><path fill="#dde8ef" d="M359.81244 319.3877a19.33139 19.33139 0 0 1-24.19592 26.93408 19.35078 19.35078 0 1 0 24.19592-26.93408zM166.22807 319.3877a19.33139 19.33139 0 0 1-24.19593 26.93408 19.35079 19.35079 0 1 0 24.19593-26.93408z"/><path fill="#fed402" d="M280.85 347.34a4.01425 4.01425 0 0 0-1.15 3.55993l3.77 22.01a4.01894 4.01894 0 0 1-5.83 4.24L257.87 366.75a4.05056 4.05056 0 0 0-3.74 0l-19.77 10.3999a4.01891 4.01891 0 0 1-5.83-4.24l2.22-12.95 1.55-9.06006a4.01405 4.01405 0 0 0-1.15-3.55993l-16-15.59a4.02065 4.02065 0 0 1 2.23-6.86l22.1-3.21008a4.0473 4.0473 0 0 0 3.03-2.2l9.88-20.03a4.027 4.027 0 0 1 7.22 0l9.88 20.03a4.05386 4.05386 0 0 0 2.07 1.92993 3.90076 3.90076 0 0 0 .96.27l22.1 3.21008a4.02066 4.02066 0 0 1 2.23 6.86zM424.60507 90.26521l9.88511 20.02943a4.02023 4.02023 0 0 0 3.027 2.19922l22.10379 3.21187A4.02021 4.02021 0 0 1 461.849 122.563l-15.99446 15.59074a4.02024 4.02024 0 0 0-1.1562 3.55841l3.77578 22.01448a4.02021 4.02021 0 0 1-5.83312 4.238l-19.77023-10.39383a4.02026 4.02026 0 0 0-3.74154 0L399.359 167.96462a4.02021 4.02021 0 0 1-5.83312-4.238l3.77578-22.01448a4.02024 4.02024 0 0 0-1.1562-3.55841L380.151 122.563a4.02021 4.02021 0 0 1 2.22806-6.85725l22.10379-3.21187a4.02023 4.02023 0 0 0 3.027-2.19922l9.88511-20.02943A4.02022 4.02022 0 0 1 424.60507 90.26521zM94.60507 90.26521l9.88511 20.02943a4.02023 4.02023 0 0 0 3.027 2.19922l22.10379 3.21187A4.02021 4.02021 0 0 1 131.849 122.563l-15.99446 15.59074a4.02024 4.02024 0 0 0-1.1562 3.55841l3.77578 22.01448a4.02021 4.02021 0 0 1-5.83312 4.238L92.87077 157.57079a4.02026 4.02026 0 0 0-3.74154 0L69.359 167.96462a4.02021 4.02021 0 0 1-5.83312-4.238l3.77578-22.01448a4.02024 4.02024 0 0 0-1.1562-3.55841L50.151 122.563a4.02021 4.02021 0 0 1 2.22806-6.85725l22.10379-3.21187a4.02023 4.02023 0 0 0 3.027-2.19922l9.88511-20.02943A4.02022 4.02022 0 0 1 94.60507 90.26521z"/><path fill="#fac600" d="M280.85 347.34a4.01425 4.01425 0 0 0-1.15 3.55993l3.77 22.01a4.01894 4.01894 0 0 1-5.83 4.24L257.87 366.75a4.05056 4.05056 0 0 0-3.74 0l-19.77 10.3999a4.01891 4.01891 0 0 1-5.83-4.24l2.22-12.95a71.96125 71.96125 0 0 0 29.2-20.07 70.912 70.912 0 0 0 11.61-18.4801 3.90076 3.90076 0 0 0 .96.27l22.1 3.21008a4.02066 4.02066 0 0 1 2.23 6.86zM446.08105 138.15553a4.01429 4.01429 0 0 0-1.15 3.55994l3.77 22.01a4.019 4.019 0 0 1-5.83 4.24l-19.77-10.39991a4.0506 4.0506 0 0 0-3.74 0l-19.77 10.39991a4.01891 4.01891 0 0 1-5.82995-4.24l2.22-12.95a71.96138 71.96138 0 0 0 29.2-20.06994 70.912 70.912 0 0 0 11.61-18.4801 3.90082 3.90082 0 0 0 .96.27l22.1 3.21009a4.02065 4.02065 0 0 1 2.23 6.86zM116.08105 138.15553a4.01429 4.01429 0 0 0-1.15 3.55994l3.77 22.01a4.019 4.019 0 0 1-5.83 4.24l-19.77-10.39991a4.0506 4.0506 0 0 0-3.74 0l-19.77 10.39991a4.01891 4.01891 0 0 1-5.82995-4.24l2.22-12.95a71.96138 71.96138 0 0 0 29.2-20.06994 70.912 70.912 0 0 0 11.61-18.4801 3.90082 3.90082 0 0 0 .96.27l22.1 3.21009a4.02065 4.02065 0 0 1 2.23 6.86z"/><path fill="#282828" d="M301.05391,456.36768h-.09686a7.43456,7.43456,0,0,0-7.42749,7.47558,7.5,7.5,0,1,0,7.52435-7.47558ZM109.15041,174.59961a11.51967,11.51967,0,0,0,16.71387-12.14453l-3.4668-20.21192,14.68457-14.31347a11.52049,11.52049,0,0,0-6.38476-19.65039l-20.293-2.94825-9.07569-18.38964h-.00048a11.5482,11.5482,0,0,0-2.83008-3.65332V7.49609a7.5,7.5,0,1,0-15,0V83.2876a11.557,11.557,0,0,0-2.83057,3.65381l-9.07568,18.38964L51.29787,108.2793a11.52062,11.52062,0,0,0-6.38379,19.65039l14.68457,14.31347L56.13186,162.4541a11.52043,11.52043,0,0,0,16.71533,12.14551l18.15088-9.543ZM72.10793,158.041l2.584-15.06543a11.52069,11.52069,0,0,0-3.31348-10.19727L60.43313,122.10938l15.127-2.19727a11.51719,11.51719,0,0,0,8.67334-6.30176l6.76465-13.707,6.76465,13.70606a11.516,11.516,0,0,0,8.67431,6.30273l15.126,2.19727-10.94678,10.67089a11.51831,11.51831,0,0,0-3.312,10.19532l2.584,15.06543-13.53076-7.11426a11.52156,11.52156,0,0,0-10.72021.001Zm138.946,298.32666h-.09686a7.43456,7.43456,0,0,0-7.42749,7.47558,7.5,7.5,0,1,0,7.52435-7.47558Zm45,0h-.09686a7.43456,7.43456,0,0,0-7.42749,7.47558,7.5,7.5,0,1,0,7.52435-7.47558Zm39.64338-138.90479-20.293-2.94824L266.32863,296.125h-.00048a11.52047,11.52047,0,0,0-20.66065,0l-9.07568,18.38965-20.294,2.94824a11.52062,11.52062,0,0,0-6.38379,19.65039l14.68457,14.31348-3.46679,20.21094a11.52043,11.52043,0,0,0,16.71533,12.1455l18.15088-9.543,18.15234,9.543a11.51967,11.51967,0,0,0,16.71387-12.14453l-3.4668-20.21191,14.68457-14.31348a11.52049,11.52049,0,0,0-6.38476-19.65039Zm-20.08106,24.501a11.5183,11.5183,0,0,0-3.312,10.19531l2.584,15.06543-13.53076-7.11426a11.5216,11.5216,0,0,0-10.72021.001l-13.5293,7.11328,2.584-15.06543a11.5207,11.5207,0,0,0-3.31348-10.19727L225.43313,331.293l15.12695-2.19727a11.51718,11.51718,0,0,0,8.67334-6.30175l6.76465-13.707,6.76465,13.70606a11.516,11.516,0,0,0,8.67431,6.30273l15.126,2.19727Zm32.91333-122.394a7.47578,7.47578,0,0,0-7.47565-7.47558h-.09686a7.43487,7.43487,0,0,0-7.42749,7.47558,7.5,7.5,0,0,0,15,0Zm161.468-103.44873a11.4498,11.4498,0,0,0-9.30029-7.84179l-20.293-2.94825-9.07569-18.38964h-.00048a11.5482,11.5482,0,0,0-2.83008-3.65332V7.49609a7.5,7.5,0,1,0-15,0V83.2876a11.557,11.557,0,0,0-2.83057,3.65381l-9.07568,18.38964-20.29395,2.94825a11.52062,11.52062,0,0,0-6.38379,19.65039l14.68457,14.31347-3.46679,20.21094a11.52043,11.52043,0,0,0,16.71533,12.14551l18.15088-9.543,18.15234,9.543a11.51967,11.51967,0,0,0,16.71387-12.14453l-3.4668-20.21192,14.68457-14.31347A11.4482,11.4482,0,0,0,469.99758,116.12109Zm-29.38135,16.65918a11.51831,11.51831,0,0,0-3.312,10.19532l2.584,15.06543-13.53076-7.11426a11.52156,11.52156,0,0,0-10.72021.001l-13.5293,7.11329,2.584-15.06543a11.52069,11.52069,0,0,0-3.31348-10.19727l-10.94531-10.66894,15.127-2.19727a11.51719,11.51719,0,0,0,8.67334-6.30176l6.76465-13.707,6.76465,13.70606a11.516,11.516,0,0,0,8.67431,6.30273l15.126,2.19727ZM159.20608,310.55078a26.8584,26.8584,0,1,0,26.85839,26.8584A26.88908,26.88908,0,0,0,159.20608,310.55078Zm0,38.7168a11.8584,11.8584,0,1,1,11.85839-11.8584A11.87173,11.87173,0,0,1,159.20608,349.26758ZM263.52956,219.56982a7.47578,7.47578,0,0,0-7.47565-7.47558h-.09686a7.43487,7.43487,0,0,0-7.42749,7.47558,7.5,7.5,0,0,0,15,0Zm89.2605,90.981a26.86556,26.86556,0,0,0-23.84277,39.23242,7.5,7.5,0,0,0,13.30957-6.918,11.71094,11.71094,0,0,1-1.3252-5.45605A11.8584,11.8584,0,1,1,355.188,349.02637a7.49989,7.49989,0,1,0,3.00683,14.69531,26.86034,26.86034,0,0,0-5.40478-53.1709Zm-37.7876-137.457v-32.6084a29.91111,29.91111,0,0,0-29.87793-29.877H263.49807V7.49609a7.5,7.5,0,1,0-15,0V110.6084H226.8716a29.91111,29.91111,0,0,0-29.87793,29.877V173.04a175.14776,175.14776,0,0,0-19.95019,8.61621A7.4996,7.4996,0,1,0,183.836,195.0293a159.466,159.466,0,0,1,21.94562-9.166,7.44049,7.44049,0,0,0,1.929-.61426A159.74771,159.74771,0,0,1,393.4258,256.37256c-1.08569-.71387-2.15857-1.521-3.31982-2.39893-5.01758-3.7959-11.2627-8.51855-23.03467-8.51855-11.77148,0-18.01611,4.72363-23.03369,8.51855-4.207,3.18262-7.24707,5.48145-13.98438,5.48145-6.73877,0-9.77929-2.29981-13.9873-5.48145-5.01758-3.7959-11.2627-8.51855-23.03516-8.51855s-18.01709,4.72265-23.03515,8.51758c-4.208,3.18261-7.24854,5.48242-13.9878,5.48242s-9.77978-2.29981-13.98828-5.48242c-5.01806-3.79493-11.26318-8.51758-23.03613-8.51758-11.77246,0-18.01758,4.72265-23.03565,8.51758-4.208,3.18261-7.24853,5.48242-13.98779,5.48242-6.74121,0-9.78222-2.29981-13.99121-5.48242-5.01855-3.79493-11.26416-8.51758-23.0376-8.51758s-18.019,4.72265-23.03759,8.51758c-1.2641.95605-2.42328,1.82959-3.60853,2.58789a160.1689,160.1689,0,0,1,40.95423-46.07032,7.50008,7.50008,0,1,0-9.10352-11.92187,176.2002,176.2002,0,0,0-50.02148,60.14355,172.77018,172.77018,0,0,0-18.70264,78.69727c0,96.26758,78.31934,174.58691,174.58643,174.58691s174.58642-78.31933,174.58642-174.58691C430.58449,261.84082,382.32052,197.34131,315.00246,173.09375Zm-15-4.65039a175.69629,175.69629,0,0,0-88.00879-.04248V140.48535a14.8944,14.8944,0,0,1,14.87793-14.877h58.25293a14.89439,14.89439,0,0,1,14.87793,14.877ZM255.99807,496.99609a159.65908,159.65908,0,0,1-137.42743-78.5498c1.08545.71387,2.15808,1.52051,3.319,2.39844,5.01758,3.79589,11.26269,8.51855,23.03467,8.51855,11.77148,0,18.01611-4.72363,23.03369-8.51855,4.207-3.18262,7.24707-5.48145,13.98437-5.48145,6.73877,0,9.7793,2.29981,13.98731,5.48145,5.01758,3.79589,11.26269,8.51855,23.03515,8.51855s18.01758-4.72266,23.03565-8.51855c4.208-3.18164,7.24853-5.48145,13.9873-5.48145,6.73926,0,9.77979,2.29981,13.98828,5.48242,5.01807,3.79492,11.26368,8.51758,23.03663,8.51758,11.77246,0,18.01757-4.72266,23.03564-8.51758,4.208-3.18261,7.24854-5.48242,13.98779-5.48242,6.74073,0,9.78174,2.29981,13.99073,5.48242,5.01855,3.79492,11.26416,8.51758,23.03759,8.51758,11.77393,0,18.01954-4.72266,23.03809-8.51758,1.163-.87939,2.2373-1.6875,3.32458-2.40234A159.65833,159.65833,0,0,1,255.99807,496.99609ZM415.58449,337.40918A158.68086,158.68086,0,0,1,402.615,400.40039c-10.81769.37988-16.757,4.84912-21.55927,8.48047-4.209,3.18262-7.25,5.48242-13.99121,5.48242-6.74072,0-9.78173-2.2998-13.99072-5.48242-5.01855-3.79492-11.26416-8.51758-23.0376-8.51758-11.77246,0-18.01757,4.72266-23.03564,8.51758-4.208,3.18262-7.24854,5.48242-13.98779,5.48242-6.73975,0-9.78028-2.2998-13.98877-5.48242-5.01807-3.79492-11.26368-8.51758-23.03614-8.51758s-18.01709,4.72266-23.03515,8.51758c-4.208,3.18262-7.24854,5.48242-13.9878,5.48242-6.73877,0-9.77929-2.2998-13.9873-5.48144-5.01758-3.7959-11.2627-8.51856-23.03516-8.51856-11.77148,0-18.01562,4.72363-23.0332,8.51856-4.20752,3.18164-7.24707,5.48144-13.98486,5.48144-6.73877,0-9.77881-2.2998-13.98682-5.48144-4.80121-3.63233-10.73987-8.10157-21.55633-8.48145a160.26766,160.26766,0,0,1-.1446-125.979c10.90894-.34473,16.8805-4.83643,21.70386-8.48389,4.209-3.18262,7.25-5.48242,13.99072-5.48242s9.78174,2.2998,13.99073,5.48242c5.01855,3.79492,11.26416,8.51758,23.03808,8.51758,11.77246,0,18.01758-4.72266,23.03565-8.51758,4.208-3.18262,7.24853-5.48242,13.98779-5.48242s9.77978,2.2998,13.98828,5.48242c5.01807,3.79492,11.26318,8.51758,23.03613,8.51758,11.77246,0,18.01758-4.72266,23.03565-8.51856,4.208-3.18164,7.24853-5.48144,13.9873-5.48144s9.7793,2.2998,13.98731,5.48144c5.01758,3.7959,11.26269,8.51856,23.03515,8.51856,11.77149,0,18.01563-4.72363,23.03321-8.51856,4.20752-3.18164,7.24707-5.48144,13.98486-5.48144,6.73877,0,9.77881,2.2998,13.98682,5.48144,4.80133,3.63233,10.74011,8.10157,21.55682,8.48145A158.68186,158.68186,0,0,1,415.58449,337.40918ZM218.52956,219.56982a7.47578,7.47578,0,0,0-7.47565-7.47558h-.09686a7.43487,7.43487,0,0,0-7.42749,7.47558,7.5,7.5,0,0,0,15,0Z"/></svg>