<svg xmlns="http://www.w3.org/2000/svg" data-name="Layer 1" viewBox="0 0 512 512"><path fill="#46cc8d" d="M361.37689,160.96137l-10.91128,97.53485a18.819,18.819,0,0,0,6.37616,16.31266l74.16111,64.28244a18.819,18.819,0,0,1-8.53668,32.65393l-96.13292,19.76268a18.819,18.819,0,0,0-13.54392,11.105l-38.2192,90.39577a18.819,18.819,0,0,1-33.69371,1.97176L192.37432,409.6596a18.819,18.819,0,0,0-14.74676-9.44941l-97.78187-8.41478a18.819,18.819,0,0,1-12.28718-31.43532l66.157-72.49386a18.819,18.819,0,0,0,4.42991-16.945l-22.21332-95.5964A18.819,18.819,0,0,1,142.03188,153.925l89.38938,40.51717a18.819,18.819,0,0,0,17.4846-1.0232l84.05328-50.667A18.819,18.819,0,0,1,361.37689,160.96137Z"/><path fill="#e53950" d="M443.63,258.26a18.51344,18.51344,0,0,1-5.6,11.40991l-70.28,68.5a18.83994,18.83994,0,0,0-5.41,16.66016l16.59,96.73a18.51392,18.51392,0,0,1-3.13,14.02,19.18481,19.18481,0,0,1-12.86,7.83984,18.48923,18.48923,0,0,1-11.31-2.02L264.76,425.73a18.84407,18.84407,0,0,0-17.52,0L160.37,471.3999a18.3987,18.3987,0,0,1-12,1.90015,19.13974,19.13974,0,0,1-12.55-8.28,18.4963,18.4963,0,0,1-2.75-13.46l16.59-96.73a18.84,18.84,0,0,0-5.41-16.66016l-70.28-68.5a18.46808,18.46808,0,0,1-5.68-14.25A19.10529,19.10529,0,0,1,74.86,241.8501a18.61662,18.61662,0,0,1,9.54-4.28L181.52,223.46a18.80788,18.80788,0,0,0,14.17-10.3l43.43-88.01a18.549,18.549,0,0,1,9.38-8.96,19.23389,19.23389,0,0,1,15,0,18.549,18.549,0,0,1,9.38,8.96l43.43,88.01a18.808,18.808,0,0,0,14.17,10.3l97.12,14.11011a18.46843,18.46843,0,0,1,11.59,6.33984A19.14381,19.14381,0,0,1,443.63,258.26Z"/><circle cx="256" cy="316.157" r="40.309" fill="#fed402"/><path fill="#fac600" d="M275.99518,281.16187a40.30173,40.30173,0,0,1-54.9903,54.99023,40.306,40.306,0,1,0,54.9903-54.99023Z"/><path fill="#fed402" d="M466.03762 90.26521l9.88512 20.02943a4.02019 4.02019 0 0 0 3.027 2.19922l22.10379 3.21187a4.02022 4.02022 0 0 1 2.228 6.85725L487.2871 138.15372a4.02019 4.02019 0 0 0-1.1562 3.55841l3.77578 22.01448a4.02022 4.02022 0 0 1-5.83313 4.238l-19.77023-10.39383a4.02024 4.02024 0 0 0-3.74153 0l-19.77024 10.39383a4.02021 4.02021 0 0 1-5.83312-4.238l3.77578-22.01448a4.02019 4.02019 0 0 0-1.1562-3.55841L421.58356 122.563a4.02021 4.02021 0 0 1 2.228-6.85725l22.10379-3.21187a4.02019 4.02019 0 0 0 3.027-2.19922l9.88512-20.02943A4.02021 4.02021 0 0 1 466.03762 90.26521zM53.17251 90.26521l9.88512 20.02943a4.02019 4.02019 0 0 0 3.027 2.19922l22.10379 3.21187a4.02021 4.02021 0 0 1 2.228 6.85725L74.422 138.15372a4.02019 4.02019 0 0 0-1.1562 3.55841l3.77578 22.01448a4.02021 4.02021 0 0 1-5.83312 4.238L51.43821 157.57079a4.02024 4.02024 0 0 0-3.74153 0L27.92645 167.96462a4.02022 4.02022 0 0 1-5.83313-4.238l3.77578-22.01448a4.02019 4.02019 0 0 0-1.1562-3.55841L8.71845 122.563a4.02022 4.02022 0 0 1 2.228-6.85725l22.10379-3.21187a4.02019 4.02019 0 0 0 3.027-2.19922l9.88512-20.02943A4.02021 4.02021 0 0 1 53.17251 90.26521z"/><path fill="#fac600" d="M74.42464 138.14476a4.0387 4.0387 0 0 0-1.16 3.56006l3.78 22.02a4.02007 4.02007 0 0 1-5.84 4.23l-19.77-10.39014a4.64422 4.64422 0 0 0-.94-.34985 58.02636 58.02636 0 0 0 13.24-30.11987 56.73541 56.73541 0 0 0-.48-16.47022 3.97665 3.97665 0 0 0 2.83 1.86011l22.1 3.22a4.014 4.014 0 0 1 2.23 6.8501zM487.28975 138.1787a4.0387 4.0387 0 0 0-1.16 3.56006l3.78 22.02a4.02007 4.02007 0 0 1-5.84 4.23l-19.77-10.39014a4.64348 4.64348 0 0 0-.94-.34985 58.02644 58.02644 0 0 0 13.24006-30.11988 56.735 56.735 0 0 0-.48-16.47021 3.97668 3.97668 0 0 0 2.83 1.86011l22.1 3.22a4.014 4.014 0 0 1 2.23 6.85009z"/><path fill="#282828" d="M73.08791,175.93457a11.54128,11.54128,0,0,0,11.34375-13.47949l-3.4668-20.21192L95.649,127.92969a11.52006,11.52006,0,0,0-6.38428-19.65039l-20.293-2.94825L59.896,86.94141h-.00049a11.5482,11.5482,0,0,0-2.83008-3.65332V7.49609a7.5,7.5,0,0,0-15,0V83.2876a11.557,11.557,0,0,0-2.83057,3.65381L30.1592,105.33105,9.86526,108.2793a11.52061,11.52061,0,0,0-6.38379,19.65039L18.166,142.24316l-3.4668,20.21192a11.52074,11.52074,0,0,0,16.71533,12.14453l18.15088-9.543,18.15234,9.543A11.52529,11.52529,0,0,0,73.08791,175.93457Zm-23.522-26.33008a11.5249,11.5249,0,0,0-5.36133,1.32324L30.67531,158.041l2.584-15.06543a11.51942,11.51942,0,0,0-3.31348-10.19727L19.00051,122.10938l15.127-2.19727a11.51718,11.51718,0,0,0,8.67334-6.30176l6.76465-13.707,6.76465,13.70606a11.51827,11.51827,0,0,0,8.67432,6.30273l15.126,2.19727L69.18361,132.78027a11.51831,11.51831,0,0,0-3.312,10.19532l2.584,15.06543-13.53076-7.11426A11.52451,11.52451,0,0,0,49.56594,149.60449Zm461.86426-33.4834a11.4498,11.4498,0,0,0-9.3003-7.84179l-20.293-2.94825-9.07568-18.38964h-.00049a11.54805,11.54805,0,0,0-2.83008-3.65332V7.49609a7.5,7.5,0,1,0-15,0V83.2876a11.557,11.557,0,0,0-2.83056,3.65381l-9.07569,18.38964-20.29394,2.94825a11.52048,11.52048,0,0,0-6.38379,19.65039l14.68457,14.31347-3.4668,20.21094a11.52044,11.52044,0,0,0,16.71534,12.14551l18.15087-9.543,18.15235,9.543a11.52013,11.52013,0,0,0,16.71387-12.14453l-3.4668-20.21192,14.68457-14.31347A11.44822,11.44822,0,0,0,511.4302,116.12109Zm-29.37989,16.65723a11.51939,11.51939,0,0,0-3.31347,10.19727l2.584,15.06543-13.53076-7.11426a11.52158,11.52158,0,0,0-10.72022.001L443.54055,158.041l2.584-15.06543a11.52069,11.52069,0,0,0-3.31347-10.19727l-10.94532-10.66894,15.12744-2.19727a11.51951,11.51951,0,0,0,8.67286-6.30176l6.76464-13.707,6.76465,13.70606a11.516,11.516,0,0,0,8.67432,6.30273l15.126,2.19727Zm-32.124,115.27734a26.156,26.156,0,0,0-21.24609-17.91211l-66.41846-9.65136,6.56689-58.70117A26.31879,26.31879,0,0,0,329.085,136.3252l-32.62585,19.667-16.86-34.16211a26.13849,26.13849,0,0,0-16.10107-13.5918V7.49609a7.5,7.5,0,1,0-15,0V108.23828a26.13851,26.13851,0,0,0-16.10108,13.5918l-43.43506,88.00879a11.318,11.318,0,0,1-8.52246,6.1914l-45.80371,6.65625-11.40039-49.06347a11.31916,11.31916,0,0,1,15.69824-12.8711l40.83692,18.50977a7.5,7.5,0,1,0,6.19238-13.66211L145.126,147.08984a26.31855,26.31855,0,0,0-36.501,29.92774l11.11456,47.833-36.42364,5.293a26.12779,26.12779,0,0,0-19.92273,14.61524c-.04651.09375-.08576.19336-.1286.28906a26.8134,26.8134,0,0,0-1.19477,3.00781A26.15866,26.15866,0,0,0,68.73,275.03613l35.212,34.32227L62.01711,355.30078A26.31846,26.31846,0,0,0,79.2007,399.26367l54.42145,4.6836L125.67385,450.29a26.15708,26.15708,0,0,0,10.46973,25.74219c.181.13183.37078.24414.55419.37011l.001.001.00366.00195a26.09415,26.09415,0,0,0,27.15894,1.62989l45.23651-23.78223,25.25665,44.43066a26.14,26.14,0,0,0,22.83936,13.3125q.78588,0,1.57861-.04589a26.15745,26.15745,0,0,0,22.7041-16.02442L299.787,452.61719l48.34784,25.418a26.3184,26.3184,0,0,0,38.1875-27.74414l-2.12452-12.38965a7.5,7.5,0,1,0-14.78418,2.53515l2.12452,12.38965a11.28462,11.28462,0,0,1-.62006,6.15137L290.08059,349.63672a47.60886,47.60886,0,0,0,12.94513-42.03906l132.00854-46.32813a11.58384,11.58384,0,0,1-2.23785,3.02442L362.51662,332.7998a26.31465,26.31465,0,0,0-7.56885,23.29493l9.44971,55.09765a7.5,7.5,0,0,0,14.78418-2.53515l-3.37317-19.668,48.16614-9.90137a26.31944,26.31944,0,0,0,11.939-45.668L408.1014,309.31348l35.16522-34.27735A26.15942,26.15942,0,0,0,449.92629,248.05566ZM336.82912,149.1709a11.31924,11.31924,0,0,1,17.09229,10.95215l-6.512,58.21093-15.85272-2.30371a11.318,11.318,0,0,1-8.52246-6.1914l-19.91327-40.34864Zm-80.831,134.17285a32.80908,32.80908,0,1,1-32.80957,32.80957A32.847,32.847,0,0,1,255.99807,283.34375ZM85.47317,244.9873,182.5967,230.874a26.31678,26.31678,0,0,0,19.81641-14.39648l43.43506-88.00879a11.46812,11.46812,0,0,1,2.6499-3.48437V268.93652a47.924,47.924,0,0,0-34.24237,23.94532L84.19521,245.26172A11.83324,11.83324,0,0,1,85.47317,244.9873Zm50.69372,144.123-55.68-4.792a11.31814,11.31814,0,0,1-7.39014-18.90625L114.68929,319.835,139.00881,343.54a11.31824,11.31824,0,0,1,3.25537,10.01953Zm4.66187,69.18555a11.36256,11.36256,0,0,1-.37073-5.46973l16.59033-96.73144a26.31629,26.31629,0,0,0-7.56934-23.2959l-70.2788-68.50391A11.22069,11.22069,0,0,1,75.927,258.209L209.084,306.96289a47.677,47.677,0,0,0,12.722,42.55957ZM267.66067,490.084a11.31978,11.31978,0,0,1-20.26612,1.18653l-25.013-44.001,28.34894-14.9043a11.31509,11.31509,0,0,1,10.53467,0l25.19726,13.24707Zm89.47644-24.51464a11.72614,11.72614,0,0,1-2.02185-.81153l-86.87012-45.66992a26.31738,26.31738,0,0,0-24.49463,0l-86.86963,45.66992a11.68077,11.68077,0,0,1-2.9693,1.084l79.91754-107.35059a47.64633,47.64633,0,0,0,44.19654.07227Zm-59.07764-172.126a47.93431,47.93431,0,0,0-34.5614-24.50684V124.98438a11.46828,11.46828,0,0,1,2.6499,3.48437L309.583,216.47754a26.31677,26.31677,0,0,0,19.8164,14.39648L426.523,244.9873a11.39486,11.39486,0,0,1,4.63287,1.7461ZM426.0884,344.75391a11.31923,11.31923,0,0,1-5.13428,19.64062l-47.68274,9.80176L369.732,353.55957a11.31652,11.31652,0,0,1,3.25489-10.01855l24.33569-23.72071Z"/></svg>