<svg xmlns="http://www.w3.org/2000/svg" data-name="Layer 1" viewBox="0 0 512 512"><path fill="#d3e1f5" d="M447.16016,256A192.127,192.127,0,0,1,254.83984,448.32007C148.62012,448.32007,62.52,362.22,62.52,256A192.323,192.323,0,0,1,254.83984,63.67993C361.0498,63.67993,447.16016,149.79,447.16016,256Z"/><path fill="#e53950" d="M90.68018,316.89014A37.43506,37.43506,0,1,1,40.27,281.76a34.07511,34.07511,0,0,1,3.43018-1.08008A37.48386,37.48386,0,0,1,87.00977,300.7a36.88892,36.88892,0,0,1,2.04,5.22A37.475,37.475,0,0,1,90.68018,316.89014Z"/><path fill="#ca2e43" d="M90.68018,316.89014a37.451,37.451,0,0,1-21.79,34.01977A25.44215,25.44215,0,0,1,76.79,306.82007a15.16951,15.16951,0,0,1-2.43994.21,15.838,15.838,0,0,1-15.84033-15.84009,16.97576,16.97576,0,0,1,.14013-2.02l-5.65967,2.4502a7.50383,7.50383,0,0,1-9.29-10.94019A37.48386,37.48386,0,0,1,87.00977,300.7,15.84422,15.84422,0,0,1,79.87012,306.02a25.93529,25.93529,0,0,1,4.87011-.47,24.49726,24.49726,0,0,1,4.30957.36987A37.475,37.475,0,0,1,90.68018,316.89014Z"/><circle cx="94.587" cy="326.272" r="25.455" fill="#e53950"/><path fill="#ca2e43" d="M94.5874,300.81714a25.50346,25.50346,0,0,0-6.09277.73926,25.45529,25.45529,0,0,1,0,49.43042,25.45478,25.45478,0,1,0,6.09277-50.16968Z"/><circle cx="84.196" cy="286.459" r="15.838" fill="#ffcebf"/><path fill="#ffb09e" d="M84.19629,270.62183a15.8139,15.8139,0,0,0-4.24756.593,15.82039,15.82039,0,0,1,0,30.48877,15.83188,15.83188,0,1,0,4.24756-31.08178Z"/><path fill="#e53950" d="M59.40444 280.02786L95.01923 264.7818c-1.39647-2.08015-10.42009-15.0316-28.04883-17.26933a42.48 42.48 0 0 0-23.903 4.13071 1.00006 1.00006 0 0 0 .48393 1.89266c7.95177-.07485 14.91006 4.00922 17.61048 10.25423C64.47883 271.461 59.95785 279.12271 59.40444 280.02786zM143.31006 316.07007a7.48474 7.48474 0 0 0-9.41992-4.42017.98363.98363 0 0 0-.16016.05l-43 15.69019-56.08984 20.46v-.01026l-4.57032-10.5A19.16909 19.16909 0 0 0 5.21973 326.72a7.50023 7.50023 0 0 0 5.54 13.93994A4.18212 4.18212 0 0 1 16.18018 343c.02978.08008.06005.1499.08984.22l4.56982 10.51 2.86036 6.58008a.00964.00964 0 0 1 .00976.01l2.62012 6.03979 4.58008 10.53028A35.50636 35.50636 0 0 0 77.04 396.67993L110.23 383.49A35.57274 35.57274 0 0 0 132.3501 355.04l4.08984-25.74c.01026-.08008.02-.15015.02979-.23a4.17825 4.17825 0 0 1 2.47021-3.3c.04-.02.09033-.04.12988-.06006A7.49634 7.49634 0 0 0 143.31006 316.07007z"/><path fill="#ca2e43" d="M143.31006,316.07007a7.48474,7.48474,0,0,0-9.41992-4.42017.98363.98363,0,0,0-.16016.05l-6.54932,2.38989A7.488,7.488,0,0,1,124.06982,325.71c-.03955.02-.08984.04-.12988.06006a4.17825,4.17825,0,0,0-2.47021,3.3c-.00977.07983-.01953.1499-.02979.23l-4.08984,25.74A35.57274,35.57274,0,0,1,95.23,383.49L62.04,396.67993a35.84974,35.84974,0,0,1-5.64551,1.71436A35.22555,35.22555,0,0,0,77.04,396.67993L110.23,383.49A35.57274,35.57274,0,0,0,132.3501,355.04l4.08984-25.74c.01026-.08008.02-.15015.02979-.23a4.17825,4.17825,0,0,1,2.47021-3.3c.04-.02.09033-.04.12988-.06006A7.49634,7.49634,0,0,0,143.31006,316.07007Z"/><path fill="#fdb441" d="M322.98682 247.02686c.332.00927 6.39746.26635 8.45117 4.56738a6.7878 6.7878 0 0 1 .646 2.8706L329.44434 282.457a7.49965 7.49965 0 0 0 6.76269 8.1709q.35889.03369.71289.03418a7.502 7.502 0 0 0 7.458-6.79688l2.63965-27.99316a19.60455 19.60455 0 0 0-13.48926-20.5791l-8.6792-2.84107a31.98832 31.98832 0 0 0 5.24561-31.19311l-2.16309-6c1.23828-.57813 2.17383-1.01563 2.207-1.03125.05469-.02539 1.97266-.92188 3.88965-1.81738l3.85742-1.80176a7.5001 7.5001 0 0 0-6.3164-13.60547c-.05469.02539-1.97266.92187-3.88965 1.81738l-3.88477 1.81446c-.208.09765-8.13086 3.7998-8.38672 3.918-.0874.04053-.16845.08887-.2539.13233a18.97231 18.97231 0 0 1-20.2002-15.36963 7.50034 7.50034 0 1 0-14.74023 2.7832 33.97537 33.97537 0 0 0 33.291 27.66114c.03467 0 .06934-.00245.104-.00245l2.37451 6.58741a17.06766 17.06766 0 0 1-9.83887 21.77221c-.02246.00879-.04394.0188-.06641.02759-4.45214 1.7478-13.70507 5.34717-22.98339 8.95606-9.35791 3.64062-18.73291 7.28759-23.2461 9.06054l-.02539.00977-.04687.01855c-.1084.04248-.20948.09546-.31494.14234-.1084.04858-.21827.09057-.32569.14477a19.27639 19.27639 0 0 1-11.07715 1.957 7.49956 7.49956 0 0 0-1.80078 14.89063 34.30468 34.30468 0 0 0 4.13672.25c1.05811 0 2.11377-.06445 3.166-.16211a32.93081 32.93081 0 0 0 .52148 4.33984c1.03906 5.50293 4.50586 11.22168 7.94483 15.46436a31.19078 31.19078 0 0 1-3.43018 7.76025 7.50056 7.50056 0 0 0 .12988 8.15918 24.34618 24.34618 0 0 1 4.12891 12.1211 25.32227 25.32227 0 0 1-5.58985 16.89648 7.50064 7.50064 0 0 0 11.6875 9.4043A40.56665 40.56665 0 0 0 277.832 310.4043a38.97744 38.97744 0 0 0-4.25488-15.55664c.55908-1.26734 1.37549-3.18067 2.271-5.54029 3.82959-10.09008 3.0459-12.37085 4.68848-15.47778 4.78027-9.04272 18.93555-3.948 31.96729-13.73608A35.477 35.477 0 0 0 322.98682 247.02686zM482.81983 150.62991c.32653-.06091 6.30989-1.088 9.224 2.68352a6.78791 6.78791 0 0 1 1.23653 2.67l3.31958 27.91972a7.49966 7.49966 0 0 0 8.333 6.562q.35793-.04272.70408-.11685a7.502 7.502 0 0 0 5.85789-8.21611l-3.31979-27.92068a19.60456 19.60456 0 0 0-17.5237-17.27366l-9.083-.94792a31.98832 31.98832 0 0 0-1.44683-31.598l-3.37912-5.4093c1.08862-.82613 1.91093-1.451 1.9401-1.47326.04811-.03635 1.734-1.31694 3.41922-2.59638l3.391-2.57431a7.5001 7.5001 0 0 0-9.04215-11.96852c-.04811.03635-1.734 1.31694-3.41922 2.59638L469.61628 85.559c-.18275.1393-7.14732 5.42819-7.37252 5.59763-.0769.058-.146.12237-.22032.18286A18.97229 18.97229 0 0 1 439.03757 80.5727a7.50035 7.50035 0 0 0-13.82249 5.82749 33.97538 33.97538 0 0 0 38.37331 20.023c.03389-.0073.06726-.017.10115-.0243l3.7096 5.93894a17.06765 17.06765 0 0 1-5.02889 23.35686c-.02011.01332-.039.02764-.0591.041-3.98375 2.64692-12.27018 8.11568-20.57942 13.59909-8.38035 5.53121-16.77607 11.07223-20.81418 13.7566l-.02277.0149-.04191.028c-.097.06437-.18464.13746-.27786.20551-.09573.07034-.19427.13455-.28786.21017a19.27654 19.27654 0 0 1-10.41582 4.24781 7.49956 7.49956 0 1 0 1.37818 14.93566 34.30317 34.30317 0 0 0 4.09648-.62751c1.03434-.223 2.0527-.50853 3.06073-.82577a32.93051 32.93051 0 0 0 1.42448 4.13244c2.17558 5.1603 6.76984 10.01988 11.02578 13.44242a31.19039 31.19039 0 0 1-1.71749 8.3089 7.50057 7.50057 0 0 0 1.84668 7.94851 24.34628 24.34628 0 0 1 6.59093 10.97855 25.32235 25.32235 0 0 1-1.903 17.69509 7.50064 7.50064 0 0 0 13.4071 6.72965 40.56661 40.56661 0 0 0 2.95632-28.41474 38.97748 38.97748 0 0 0-7.43818-14.31037c.2794-1.3567.6742-3.39912 1.05225-5.89448 1.61686-10.67059.37006-12.73493 1.32089-16.11828 2.76694-9.84712 17.678-7.85037 28.354-20.16527A35.47683 35.47683 0 0 0 482.81983 150.62991z"/><ellipse cx="182.283" cy="128.974" fill="#dde8ef" rx="25.382" ry="14.084" transform="rotate(-30 182.283 128.974)"/><path fill="#dde8ef" d="M111.66 175.36c-12.74 12.74-27.53 20.52-39.74 22.01a192.3525 192.3525 0 0 1 53.41-83.28 16.77359 16.77359 0 0 1 3.15991 2.48C140.08008 128.15 132.54 154.4801 111.66 175.36zM236.0893 117.28249a7.49787 7.49787 0 0 1-5.91084-13.78167l.00942-.004a7.49788 7.49788 0 0 1 5.90142 13.78571zM435.25977 322.73a190.77492 190.77492 0 0 1-19.2295 38.21A193.11621 193.11621 0 0 1 338.33984 429.29 189.88923 189.88923 0 0 1 306.96 441.16992a35.02617 35.02617 0 0 1 1.04-69.29 2.78662 2.78662 0 0 0 2.39014-2.79v-.01977A35.027 35.027 0 0 1 361.46 337.92993a3.31377 3.31377 0 0 0 4.43018-1.41992 45.774 45.774 0 0 1 69.36963-13.78z"/><path fill="#e8edf2" d="M465.44667,370.658a45.86688,45.86688,0,0,0-84.55335-34.144,3.323,3.323,0,0,1-4.43653,1.41746A35.02433,35.02433,0,0,0,325.38616,369.067v.026a2.77323,2.77323,0,0,1-2.3821,2.78283,35.02889,35.02889,0,0,0-30.42151,34.7207v0a35.02757,35.02757,0,0,0,35.02757,35.02757H454.37657a35.02757,35.02757,0,0,0,35.02757-35.02757v0a35.03726,35.03726,0,0,0-22.29834-32.64A2.754,2.754,0,0,1,465.44667,370.658Z"/><path fill="#282828" d="M171.32326,154.07129c.17285,0,.34668-.00195.52149-.00488,6.7334-.11426,14.27246-2.38868,21.22754-6.40528,6.956-4.01562,12.69531-9.40722,16.16113-15.18066,4.22559-7.03906,4.78027-14.31152,1.52344-19.95215-6.15332-10.65723-23.03516-11.624-39.26758-2.251-6.95606,4.01661-12.69531,9.40821-16.16113,15.18164-4.22559,7.03907-4.78028,14.31153-1.52344,19.95118C156.99221,150.93164,163.35842,154.07129,171.32326,154.07129Zm-3.13476-20.8916c2.14551-3.5752,6.083-7.1875,10.80078-9.91211,5.79492-3.3457,10.90723-4.37793,14.33984-4.37793,2.48731,0,4.09278.542,4.4375,1.13867.23145.40137.19531,2.085-1.39355,4.73145-2.14551,3.57519-6.082,7.1875-10.80078,9.91113-4.71778,2.72461-9.81446,4.32715-13.9834,4.39844-3.06543.04785-4.5625-.75879-4.79395-1.16016C166.5635,137.50879,166.59963,135.82617,168.1885,133.17969Zm-46.23926,120.916a7.49973,7.49973,0,1,0,12.61328,8.11719c8.41992-13.082,18.56641-21.87012,30.15723-26.12207,11.34082-4.1582,20.543-2.81152,33.27734-.94531a190.74184,190.74184,0,0,0,26.1543,2.48926c22.80762.32714,46.30664-5.26563,69.79883-16.59278a7.50033,7.50033,0,0,0-6.51563-13.51172c-21.377,10.3086-42.62793,15.35547-63.07422,15.10645a175.8646,175.8646,0,0,1-24.18945-2.333c-13.21777-1.93652-25.70313-3.76465-40.61524,1.70508C144.82912,227.40918,132.1758,238.20508,121.94924,254.0957ZM329.4424,282.45312a7.49966,7.49966,0,0,0,6.7627,8.1709q.35889.03369.71289.03418a7.502,7.502,0,0,0,7.458-6.79687l2.63965-27.99317a19.60457,19.60457,0,0,0-13.48926-20.5791l-8.6792-2.84082a31.98678,31.98678,0,0,0,5.2456-31.19336l-2.16308-6,2.207-1.03125c.11035-.05078,7.68652-3.59179,7.79687-3.64355a7.50019,7.50019,0,0,0-6.40234-13.56543c-.25586.12109-7.51269,3.51074-7.69922,3.59765-.06445.03028-2.15332,1.00586-4.24121,1.98243l-4.18457,1.9541c-.08643.04-.1665.08789-.251.13086a18.95122,18.95122,0,0,1-20.20312-15.36914,7.50035,7.50035,0,0,0-14.74024,2.7832A34.00878,34.00878,0,0,0,313.56154,199.75l.04346-.001,2.37647,6.59278a17.06639,17.06639,0,0,1-9.84473,21.77392c-.0166.00635-.03223.01367-.04883.02051-4.44775,1.74561-13.709,5.34863-22.99512,8.96045-9.356,3.64014-18.729,7.28613-23.24316,9.05957l-.03174.01221-.04346.01709c-.10449.041-.20214.09228-.30371.1372-.1123.0503-.22607.09375-.33691.14991a19.27661,19.27661,0,0,1-11.07715,1.957,7.49956,7.49956,0,1,0-1.80078,14.89062,34.30456,34.30456,0,0,0,4.13672.25c1.0581,0,2.11377-.06445,3.166-.16211a32.931,32.931,0,0,0,.52149,4.33985c1.03906,5.50146,4.50586,11.22021,7.94482,15.46338a31.16059,31.16059,0,0,1-3.43017,7.76123,7.50056,7.50056,0,0,0,.12988,8.15918,24.34569,24.34569,0,0,1,4.12891,12.12011,25.32325,25.32325,0,0,1-5.58985,16.89746,7.50064,7.50064,0,0,0,11.6875,9.4043,40.56978,40.56978,0,0,0,8.87891-27.1543,38.97241,38.97241,0,0,0-4.25488-15.55566,46.081,46.081,0,0,0,2.27148-5.541c20.36914-7.61425,30.87988-11.79394,33.97949-13.51074a103.42485,103.42485,0,0,0,10.01465-6.32519,7.50036,7.50036,0,0,0-8.72656-12.20118,88.4083,88.4083,0,0,1-8.55567,5.4043c-1.26562.70117-6.7373,3.11572-28.67724,11.35108-2.5083-3.04444-4.62891-6.76465-5.061-9.05616a17.89464,17.89464,0,0,1-.07666-6.18213c5-1.95312,12.39551-4.83007,19.7876-7.70654,7.82178-3.04248,15.61621-6.07471,20.55274-8.00488l19.77539,6.47363a4.683,4.683,0,0,1,3.22265,4.916Zm-93.355-165.1748a7.49783,7.49783,0,0,0-5.90136-13.78564l-.00928.0039a7.49787,7.49787,0,0,0,5.91064,13.78174ZM65.33108,223.86719a7.49058,7.49058,0,0,0,8.875-5.8086c.98828-4.73193,2.17773-9.46142,3.543-14.11718,13.12012-2.94287,27.15186-11.22217,39.21289-23.28223,10.9834-10.98438,18.97364-23.8125,22.49805-36.12207,3.4624-12.09277,2.36231-22.63867-3.04785-30.1875a184.80849,184.80849,0,0,1,243.2959,5.127,7.5,7.5,0,1,0,10.11523-11.07617,199.81249,199.81249,0,0,0-269.55859.15332q-7.2422,6.62843-13.77832,13.90527a199.74229,199.74229,0,0,0-41.71094,72.61914v.001l-.00195.00488-.001.00293a198.95253,198.95253,0,0,0-5.25,19.90528A7.5003,7.5003,0,0,0,65.33108,223.86719Zm19.6538-40.11914c.19532-.459.38575-.91993.58448-1.37744q1.08984-2.50489,2.248-4.978c.0752-.16065.15625-.31836.23243-.47852q1.05249-2.22,2.166-4.40918c.25342-.49853.5127-.99365.77051-1.49023q.9016-1.7373,1.83984-3.45557c.27393-.501.5459-1.00293.82422-1.50146q1.12721-2.01856,2.30469-4.0083c.14111-.23877.27637-.481.41846-.71875q1.39306-2.3313,2.85839-4.61963c.26807-.42041.54493-.83545.81641-1.25342q1.0935-1.68384,2.22217-3.34522.50318-.73827,1.01269-1.47216,1.15869-1.66773,2.356-3.30811c.28369-.39014.562-.7832.84863-1.1709q1.615-2.18189,3.291-4.31933c.21289-.27.4331-.53467.647-.80371q1.38209-1.73805,2.80567-3.44483c.37744-.45264.76025-.90088,1.14257-1.3501q1.26051-1.48095,2.55323-2.93554c.37744-.4253.75293-.85254,1.13476-1.27442q1.69556-1.87426,3.4419-3.707c.09472-.09961.18652-.20215.28174-.30127,1.08935-1.13525,2.20556-2.24756,3.32519-3.35644,1.76318,3.79736,1.76758,9.31689-.07178,15.74072-2.79394,9.75781-9.60449,20.5625-18.68457,29.64258a79.21938,79.21938,0,0,1-22.29687,15.94287C84.36477,185.24512,84.668,184.49365,84.98488,183.74805Zm99.03955,176.1455a24.57553,24.57553,0,0,0-31.87695-13.74121,7.50019,7.50019,0,1,0,5.541,13.93946,9.5451,9.5451,0,1,1,7.05371,17.73925L133.648,390.19238l-8.03174-18.5542a35.51134,35.51134,0,0,0,6.7334-16.59716l4.084-25.7461c.0127-.07617.02344-.15332.03321-.23047a4.17086,4.17086,0,0,1,2.46142-3.28711l.8667-.3164a21.74827,21.74827,0,0,0,13.60352-27.02149l-.3711-1.20019a7.49984,7.49984,0,1,0-14.33007,4.43164l.37109,1.19922a6.81583,6.81583,0,0,1-4.33105,8.46972l-.76514.2793c-.082.02686-.165.04639-.24658.07617l-8.27686,3.01953a33.11081,33.11081,0,0,0-19.65674-19.4292,23.28065,23.28065,0,0,0-4.96582-25.18017,7.49139,7.49139,0,0,0-1.91211-12.62988,47.94154,47.94154,0,0,0-31.001-17.40723c-16.07715-2.0459-28.61719,4.71582-33.26075,7.71582a7.5001,7.5001,0,0,0,5.67969,13.625c6.04883-1.32715,12.04981.97168,13.94434,5.35352a8.55108,8.55108,0,0,1,.33447,5.21777c-.45605-.01367-.91064-.03613-1.36865-.03613a44.86534,44.86534,0,0,0-44.06445,53.6831,19.30248,19.30248,0,0,0-3.96387,1.09326,7.50019,7.50019,0,0,0,5.541,13.93946,4.1792,4.1792,0,0,1,5.42188,2.33691c.0293.07422.06055.14746.0918.2207l7.43359,17.09278.001.001,7.208,16.57422a35.42192,35.42192,0,0,0,39.00977,21.79541l6.08935,14.42578-16.936,6.73291a7.50019,7.50019,0,1,0,5.541,13.93946l105.668-42.00879A24.57471,24.57471,0,0,0,184.02443,359.89355Zm-72.67236-40.03564L77.626,332.16211a17.9297,17.9297,0,0,1,10.92627-22.7832,23.14108,23.14108,0,0,0,3.04052-.79493,17.80209,17.80209,0,0,1,19.75928,11.27393ZM84.19436,278.11816a8.33316,8.33316,0,0,1,3.37451,15.95459c-.88721.19336-1.7627.41846-2.62207.68213-.248.02246-.49854.03809-.75244.03809a8.33541,8.33541,0,0,1-8.17237-9.98828c.04053-.14795.08008-.2959.11182-.44434a8.34561,8.34561,0,0,1,3.03027-4.53857l3.65479-1.58008A8.29431,8.29431,0,0,1,84.19436,278.11816ZM66.02443,254.94922a31.99057,31.99057,0,0,1,16.36719,7.07519l-4.7749,2.04395a23.19246,23.19246,0,0,0-5.021,2.14893L69.752,267.43457a21.95428,21.95428,0,0,0-1.708-6.625,22.75247,22.75247,0,0,0-3.84278-6.04Q65.10061,254.83252,66.02443,254.94922ZM23.30276,316.88281a29.91258,29.91258,0,0,1,34.08544-29.646,7.47369,7.47369,0,0,0,1.59571.26416c.64648.12548,1.28857.26757,1.92431.436A23.31172,23.31172,0,0,0,69.687,304.71582a32.851,32.851,0,0,0-6.147,32.58594L42.6924,344.90723A30.095,30.095,0,0,1,23.30276,316.88281Zm66.64892,90.68164-5.791-13.71826,26.06494-10.36279a35.52432,35.52432,0,0,0,3.4707-1.62207l6.00684,13.87549ZM117.5176,352.7998c-.0127.07618-.02344.15332-.0332.23047A20.561,20.561,0,0,1,104.68459,369.544L71.502,382.73633a20.55718,20.55718,0,0,1-26.69824-11.50879c-.0293-.07422-.06055-.14746-.0918-.2207l-4.08007-9.3794,4.46045-1.62695c.11181-.03516.21875-.0791.32812-.11963l75.33252-27.4751Zm235.417-146.11328a7.62644,7.62644,0,0,0,1.24609-.10351c12.5879-2.10645,22.53907-7.124,29.57618-14.91211,7.26562-8.04,9.17675-16.49024,10.71289-23.28028.46582-2.05957.90625-4.00488,1.44238-5.65234,4.51074-13.8584,21.87207-24.917,51.60156-32.86816a7.49971,7.49971,0,0,0-3.875-14.49024c-35.44336,9.47852-55.71972,23.45117-61.99023,42.7168-.75,2.30566-1.28809,4.68457-1.8086,6.98437-1.32714,5.86719-2.58105,11.40821-7.21191,16.53321-4.71387,5.21679-11.75293,8.63965-20.92187,10.17383a7.50064,7.50064,0,0,0,1.22851,14.89843ZM473.63186,368.66211A53.33824,53.33824,0,0,0,447.107,311.53125a199.51693,199.51693,0,0,0,6.71924-34.25391,7.49984,7.49984,0,0,0-14.916-1.582,184.60371,184.60371,0,0,1-5.8711,30.4624,53.37613,53.37613,0,0,0-56.78613,23.439,42.52456,42.52456,0,0,0-58.1875,35.55176A42.49042,42.49042,0,0,0,296.98,436.05078a185.37489,185.37489,0,0,1-137.02881-21.58984,7.50022,7.50022,0,0,0-7.73633,12.85156,200.30061,200.30061,0,0,0,161.96485,19.62256,42.34212,42.34212,0,0,0,13.42871,2.18506H454.375a42.5354,42.5354,0,0,0,19.25684-80.458Zm-19.25684,65.458H327.60842a27.5261,27.5261,0,0,1-3.626-54.8125,10.30646,10.30646,0,0,0,8.90137-10.24512,27.55925,27.55925,0,0,1,27.52832-27.52734,27.18761,27.18761,0,0,1,12.60059,3.05566,10.87659,10.87659,0,0,0,14.48242-4.52539,38.35868,38.35868,0,0,1,47.47119-17.69336c.07178.03223.147.05908.22021.08936a38.35388,38.35388,0,0,1,23.03907,46.15673l-.001.00391a10.20787,10.20787,0,0,0,6.15234,12.31641A27.53229,27.53229,0,0,1,454.375,434.12012ZM21.15041,268.5A7.49783,7.49783,0,1,0,15.249,254.71436l-.00927.0039A7.49787,7.49787,0,0,0,21.15041,268.5Zm490.31641-85.751-3.08594-27.94726A19.60253,19.60253,0,0,0,491.002,137.38184l-9.07568-1.02442a31.98906,31.98906,0,0,0-1.18311-31.60937l-3.333-5.43653c1.082-.80761,1.9082-1.42382,1.97168-1.4707l6.85351-5.11523a7.5,7.5,0,0,0-8.98047-12.01465L470.416,85.81445c-.11426.085-7.3711,5.501-7.48536,5.58692-.06.04492-.11328.0957-.17138.14209a18.95085,18.95085,0,0,1-22.89795-10.95655,7.50037,7.50037,0,0,0-13.87109,5.71094,33.84159,33.84159,0,0,0,38.30322,20.31641l3.66162,5.97363A17.06759,17.06759,0,0,1,462.708,135.919c-4.00977,2.61621-12.42481,8.07031-20.83985,13.52343-8.39355,5.43946-16.78515,10.87647-20.82421,13.51319l-.00586.00341-.05176.03418c-.1084.0708-.20752.15088-.311.22608-.08593.0625-.17431.11865-.2583.18506a19.26865,19.26865,0,0,1-10.44629,4.16015,7.49971,7.49971,0,0,0,.61329,14.97364c.209,0,.41992-.00782.63085-.02539a34.30485,34.30485,0,0,0,7.17383-1.39454,33.04015,33.04015,0,0,0,1.38965,4.14454c2.1333,5.17919,6.687,10.07617,10.91358,13.53418a31.19993,31.19993,0,0,1-1.78663,8.29394,7.49872,7.49872,0,0,0,1.78028,7.96387,24.34349,24.34349,0,0,1,6.498,11.0332,25.31409,25.31409,0,0,1-2.0498,17.67773,7.5,7.5,0,1,0,13.34766,6.84376,40.54632,40.54632,0,0,0,3.19433-28.39063,38.93425,38.93425,0,0,0-7.31738-14.37109A45.97731,45.97731,0,0,0,445.461,201.96c18.38965-11.57422,27.85351-17.80762,30.53711-20.11426a103.57721,103.57721,0,0,0,8.52441-8.2207,7.50016,7.50016,0,1,0-11.01562-10.18164,88.3369,88.3369,0,0,1-7.28418,7.02539c-1.09619.94141-5.96241,4.41211-25.78272,16.9248-3.07275-2.47216-5.90332-5.68554-6.7915-7.84277a17.92034,17.92034,0,0,1-1.32715-6.03857c4.47559-2.90869,11.085-7.19239,17.7041-11.48194,7.08057-4.58838,14.15137-9.16992,18.61817-12.07568l20.67675,2.3335a4.67979,4.67979,0,0,1,4.15039,4.16015l3.08594,27.94727a7.501,7.501,0,0,0,7.44629,6.67773,7.72979,7.72979,0,0,0,.832-.0459A7.5012,7.5012,0,0,0,511.46682,182.749Z"/></svg>