<svg xmlns="http://www.w3.org/2000/svg" data-name="Layer 1" viewBox="0 0 512 512"><path fill="#26a6fe" d="M253.64363 504.5a79.76126 79.76126 0 0 1-62.11987-29.43493 22.13991 22.13991 0 0 1 34.38929-27.894 35.793 35.793 0 0 0 63.45378-20.54125A35.703 35.703 0 0 0 253.661 389.08634c-14.58782 0-20.26054 2.07153-27.86988 5.484-.79761.35736-1.30865.60543-1.4725.68812a22.12027 22.12027 0 0 1-31.96328-23.28076L206.453 287.21489a22.15 22.15 0 0 1 21.876-18.47835h71.16417a22.08876 22.08876 0 1 1 0 44.1772H247.13144l-5.39266 32.42538c3.64371-.284 7.58553-.43 11.92217-.43a80.6023 80.6023 0 0 1 58.09 24.86549 78.97358 78.97358 0 0 1 21.90483 59.14453c-2.164 41.53405-36.58071 74.72591-78.3527 75.5643Q254.47263 504.49965 253.64363 504.5zM133.82454 504.065h-.07l-96.52-.29624a22.08227 22.08227 0 0 1-17.53787-35.51649c.27284-.36023 8.64081-11.47787 66.85856-94.33817 8.57946-12.212 14.11431-23.07295 16.46309-32.30242l.576-4.486a26.30972 26.30972 0 0 0-52.06359-3.90577 22.171 22.171 0 0 1-43.5166-8.51475 70.66983 70.66983 0 0 1 139.955 13.61555 22.01294 22.01294 0 0 1-.179 2.7999l-.93619 7.29816a22.046 22.046 0 0 1-.39411 2.18944c-3.48491 14.97164-11.41546 31.33533-23.57078 48.63663-18.98871 27.02618-32.71685 46.48241-42.63166 60.47833l53.63425.16466a22.08868 22.08868 0 1 1-.06713 44.1772z"/><path fill="#0182fc" d="M36.53076 333.21973A22.0999 22.0999 0 0 1 22.27417 349.752a22.42 22.42 0 0 0 3.22437.885 22.1646 22.1646 0 0 0 26.03222-17.41723 26.22516 26.22516 0 0 1 18.3357-19.9917 26.33789 26.33789 0 0 0-33.3357 19.9917zM133.8916 459.8877l-53.63415-.16456c9.91479-13.99609 23.64294-33.45214 42.63171-60.47827 12.19873-17.36337 20.14247-33.782 23.60789-48.79725.15483-.67089.26935-1.346.357-2.02892l.93616-7.29809a20.62248 20.62248 0 0 0 .17863-2.54775c.1376-38.91653-31.60433-70.62022-70.63969-70.62022a70.76022 70.76022 0 0 0-7.44494.40771 70.56289 70.56289 0 0 1 63.08463 70.21216 20.62616 20.62616 0 0 1-.17863 2.5481l-.93616 7.29809c-.0876.68293-.20212 1.358-.357 2.02892-3.46542 15.01521-11.40916 31.43388-23.60789 48.79725C94.85285 417.79905 84.296 432.7853 75.75024 444.8864a9.445 9.445 0 0 0 7.69024 14.89253l35.45112.10877a22.08473 22.08473 0 0 1 1.24524 44.13549l13.61768.04175h.06994a22.0887 22.0887 0 1 0 .06714-44.17724z"/><path fill="#0593fc" d="M306.66724 290.8252a22.13175 22.13175 0 0 1-22.17408 22.08862h15a22.08879 22.08879 0 1 0 0-44.17725h-15A22.13159 22.13159 0 0 1 306.66724 290.8252zM225.91309 447.1709a22.2176 22.2176 0 0 0-24.7-6.81763 22.03456 22.03456 0 0 1 9.7 6.81763 35.86357 35.86357 0 0 0 35.23864 12.3623A35.56124 35.56124 0 0 1 225.91309 447.1709zM229.6706 327.71056l-.938 5.64013a9.92951 9.92951 0 0 0 9.79833 11.55853l.13 0c1.04773 0 2.092.03955 3.136.08105l5.33459-32.07641h0A17.70068 17.70068 0 0 0 229.6706 327.71056zM210.791 394.57031c-.79761.35742-1.3086.60547-1.47242.68823a22.19227 22.19227 0 0 1-2.636 1.13965 22.13324 22.13324 0 0 0 17.636-1.13965c.16382-.08276.67481-.33081 1.47242-.68823 5.66064-2.53857 10.25586-4.33325 18.24047-5.08691a36.533 36.533 0 0 0-5.3706-.397C224.07312 389.08643 218.40039 391.15771 210.791 394.57031z"/><path fill="#0593fc" d="M311.751,369.77466a80.60183,80.60183,0,0,0-58.09009-24.86548c-3.25366,0-6.28491.082-9.13477.24316A80.61858,80.61858,0,0,1,296.751,369.77466a78.97343,78.97343,0,0,1,21.90478,59.14453c-2.064,39.61426-33.47424,71.61694-72.61621,75.22021,2.51245.23462,5.04822.3606,7.604.3606q.82837,0,1.65955-.0166c41.772-.83838,76.1886-34.03028,78.35266-75.56421A78.97343,78.97343,0,0,0,311.751,369.77466Z"/><path fill="#e53950" d="M39.83608,236.55087C36.54374,228.22,7.0536,150.0855,50.88566,88.8305,88.11179,36.80724,153.692,31.24322,163.638,30.55239c96.44517-6.69892,139.87509,78.76285,224.255,63.5309,33.29169-6.00969,57.36971-24.88,70.62928-37.15953-4.3663,45.20084-20.30732,64.36726-33.36829,73.59-34.90347,24.64657-89.0252,6.37558-110.855,34.42393a68.19673,68.19673,0,0,0-12.31011,25.06205c-1.34422,6.41628-1.258,13.18947-1.08552,26.73585.09562,7.5056.37315,13.724.61163,18.03259Q170.67552,235.65957,39.83608,236.55087Z"/><path fill="#ca2e43" d="M437.62939,73.50073c-6.98645,23.35718-17.98852,35.31421-27.47534,42.01294-34.90356,24.64673-89.02527,6.37573-110.8551,34.42407a68.19679,68.19679,0,0,0-12.31018,25.062c-1.34424,6.41626-1.25794,13.18945-1.08545,26.73584.09558,7.50561.37317,13.72387.61157,18.03247q-125.8482.85766-251.69653,1.71484c2.24,7.85791,4.28247,13.20752,5.0177,15.06787l261.67883-1.78271c-.2384-4.3086-.516-10.52686-.61157-18.03247-.17249-13.54639-.25879-20.31958,1.08545-26.73584a68.19679,68.19679,0,0,1,12.31018-25.062c21.82983-28.04834,75.95154-9.77734,110.8551-34.42407,13.06092-9.22265,29.002-28.38916,33.36817-73.58984A168.95385,168.95385,0,0,1,437.62939,73.50073Z"/><ellipse cx="464.038" cy="52.324" fill="#f1f6f9" rx="40.462" ry="40.306"/><path fill="#dde8ef" d="M484.19458,17.38086a40.4064,40.4064,0,0,1-55.314,54.88672,40.41047,40.41047,0,1,0,55.314-54.88672Z"/><rect width="316.065" height="65.403" x="7.5" y="216.736" fill="#f1f6f9" rx="15.239"/><path fill="#dde8ef" d="M308.325,216.7356H293.55249c.00122.08056.012.15844.012.2395V231.457A35.68143,35.68143,0,0,1,257.883,267.13843H7.51208a15.23275,15.23275,0,0,0,15.2273,15H308.3252a15.23925,15.23925,0,0,0,15.23925-15.23926V231.9751A15.23949,15.23949,0,0,0,308.325,216.7356Z"/><path fill="#282828" d="M464.03567,4.51367a47.939,47.939,0,0,0-47.96241,47.80664,47.37355,47.37355,0,0,0,5.44727,22.08838,119.89,119.89,0,0,1-34.96192,12.28955c-39.86279,7.19629-70.71093-9.97363-103.36767-28.15234-34.40723-19.15235-69.98242-38.9541-120.0752-35.47949A184.55138,184.55138,0,0,0,96.97805,40.98047a7.50032,7.50032,0,0,0,6.63574,13.45312,168.92923,168.92923,0,0,1,60.542-16.40332c45.645-3.166,79.24463,15.53418,111.73975,33.62207,28.09863,15.64161,56.99219,31.72852,92.19189,31.72657a118.78017,118.78017,0,0,0,21.13623-1.919,135.43741,135.43741,0,0,0,41.37452-14.91308,48.178,48.178,0,0,0,11.86523,8.45117c-5.17285,13.12549-12.2865,22.78222-21.6377,29.38476-14.9624,10.56641-34.63037,12.46387-53.65087,14.29981-22.29932,2.15234-45.35743,4.37793-58.79639,21.64453-8.91309,11.45117-12.8208,23.56933-13.6958,28.13867l-.03662-.00781c-1.21314,5.79053-1.39527,11.48828-1.32776,20.77344H39.41714c-6.45228-28.26221-10.932-76.21485,17.56579-116.041A117.30257,117.30257,0,0,1,78.95656,70.03711,7.5,7.5,0,1,0,69.564,58.3418a132.244,132.244,0,0,0-24.7793,26.12011C14.052,127.40967,17.44826,177.96826,24.05947,209.23145H22.73733A22.76519,22.76519,0,0,0-.00193,231.9707v34.92481A22.77847,22.77847,0,0,0,16.9739,288.89258,77.35763,77.35763,0,0,0,.65383,323.25a29.59316,29.59316,0,0,0,23.3999,34.74316A29.70388,29.70388,0,0,0,58.88723,334.666a18.81209,18.81209,0,0,1,37.17627,2.19921l-.4253,3.31739c-2.18847,8.25781-7.30761,18.15136-15.22168,29.416-58.13769,82.7461-66.37793,93.69532-66.66845,94.0791a29.58225,29.58225,0,0,0,23.46142,47.58692l96.61328.2959a29.6833,29.6833,0,0,0,29.67237-29.4961,29.631,29.631,0,0,0-29.58252-29.68066l-39.1958-.12012c9.74463-13.792,21.24072-30.11426,34.30713-48.71191,12.71142-18.09278,21.03515-35.335,24.73925-51.249a29.69763,29.69763,0,0,0,.52784-2.93359l.936-7.29883a29.6391,29.6391,0,0,0,.24024-3.7539,76.98278,76.98278,0,0,0-17.14771-48.68164H198.445L184.9551,370.74316a29.62069,29.62069,0,0,0,42.74365,31.20606c.14551-.07324.54639-.26465,1.15967-.54,6.874-3.083,11.415-4.82715,24.80078-4.82715a28.11937,28.11937,0,1,1-21.94141,45.83789,29.7766,29.7766,0,0,0-41.72705-4.25976,29.52914,29.52914,0,0,0-4.27588,41.64648,87.393,87.393,0,0,0,67.92676,32.18945q.90089,0,1.81006-.01855a87.79872,87.79872,0,0,0,81.40039-59.92676,7.50022,7.50022,0,0,0-14.23242-4.73828,72.74016,72.74016,0,0,1-125.291,23.001,14.52939,14.52939,0,0,1,2.11084-20.50293,14.74485,14.74485,0,0,1,20.66455,2.10351,43.29362,43.29362,0,0,0,76.75049-24.89746A43.20251,43.20251,0,0,0,253.6592,381.582c-16.04736,0-22.66894,2.43164-30.938,6.14063-.97021.43457-1.59131.73925-1.83545.86328A14.62026,14.62026,0,0,1,199.752,373.2041l13.899-83.56933h94.67224a22.704,22.704,0,0,0,5.70972-.72657,14.54535,14.54535,0,0,1-14.54175,16.501H247.12942a7.50016,7.50016,0,0,0-7.39844,6.26953l-5.39258,32.42578a7.50081,7.50081,0,0,0,7.98144,8.708c3.51124-.27441,7.22022-.40723,11.33936-.40723a73.06861,73.06861,0,0,1,52.66064,22.54,70.96786,70.96786,0,0,1,19.87745,46.50879,7.49961,7.49961,0,0,0,7.48779,7.17774c.1084,0,.21826-.002.32764-.00684a7.5,7.5,0,0,0,7.17089-7.81543,86.92918,86.92918,0,0,0-24.00585-56.21387,88.13446,88.13446,0,0,0-63.51856-27.19043q-1.53369,0-3.00439.02246l2.83056-17.01855h46.00586a29.571,29.571,0,0,0,27.53784-40.60547,22.60687,22.60687,0,0,0,4.03345-12.9082V231.9707a22.76519,22.76519,0,0,0-22.73926-22.73925h-.00415c-.06128-8.26416.08142-13.2627,1.00464-17.68067A61.61778,61.61778,0,0,1,320.21535,169.54c9.47168-12.16992,27.51172-13.91016,48.40039-15.92676,19.99121-1.92969,42.64942-4.11621,60.86231-16.97656,11.8645-8.37793,21.021-20.8291,27.28992-37.05811a47.99606,47.99606,0,0,0,55.2301-47.2583A47.939,47.939,0,0,0,464.03567,4.51367ZM140.46731,338.31641a14.52392,14.52392,0,0,1-.11817,1.8457l-.93555,7.2959c-.063.48633-.15039.97363-.26025,1.44629-3.26562,14.02929-10.80273,29.51367-22.40283,46.02441C99.751,419.124,85.41311,439.46387,74.13527,455.38281a7.50033,7.50033,0,0,0,6.09717,11.83594l53.63428.165a14.61684,14.61684,0,0,1,10.37256,4.31445,14.45385,14.45385,0,0,1,4.25586,10.31934,14.66676,14.66676,0,0,1-14.71973,14.543l-96.51953-.2959a14.58257,14.58257,0,0,1-11.58252-23.48828c.32861-.4336,8.7124-11.57129,67.0166-94.55469,9.10108-12.9541,15.02051-24.65039,17.59473-34.76465a7.40939,7.40939,0,0,0,.1709-.89551l.57568-4.48632a7.48719,7.48719,0,0,0,.05322-1.29395,33.80949,33.80949,0,0,0-66.91406-5.01563,14.70415,14.70415,0,0,1-26.604,5.29395,14.42958,14.42958,0,0,1-2.1958-10.90723A62.60792,62.60792,0,0,1,37.4363,289.63477h79.76025A62.25975,62.25975,0,0,1,140.46731,338.31641Zm167.856-114.085a7.74784,7.74784,0,0,1,7.73926,7.73925v34.92481a7.699,7.699,0,0,1-1.90991,5.0747c-.16284.09327-.32568.18653-.48364.29346a7.48416,7.48416,0,0,0-1.47217,1.32178,7.68249,7.68249,0,0,1-3.87354,1.04932H208.08938c-.08081-.00147-.16114-.001-.24183,0H22.73733a7.74785,7.74785,0,0,1-7.73926-7.73926V231.9707a7.74784,7.74784,0,0,1,7.73926-7.73925H33.49514l.02344.00195c.01025,0,.02063-.00195.03076-.00195ZM464.03567,85.12695a33.00037,33.00037,0,0,1-9.69727-1.45068c-.04089-.01416-.07886-.03223-.12012-.04541-.04443-.01416-.08935-.022-.134-.03516a32.98144,32.98144,0,1,1,9.95142,1.53125Z"/></svg>