<svg xmlns="http://www.w3.org/2000/svg" data-name="Layer 1" viewBox="0 0 512 512"><polygon fill="#e5eef9" points="471 289.07 471 504.5 41 504.5 41 289.07 256 189.7 441.81 275.58 471 289.07"/><path fill="#e53950" d="M471.12881,306.15993,256,206.74555,40.87119,306.15993A24.44282,24.44282,0,0,1,7.5,283.40612v0L256,170.89719,504.5,283.40608v0A24.44282,24.44282,0,0,1,471.12881,306.15993Z"/><polygon fill="#f1f6f9" points="163.665 174.419 163.665 504.5 348.335 504.5 348.335 174.419 256 131.75 163.665 174.419"/><path fill="#d88a55" d="M308.5,411v93.5h-105V411a52.49679,52.49679,0,0,1,45-51.96,52.3495,52.3495,0,0,1,15,0,52.51029,52.51029,0,0,1,45,51.96Z"/><path fill="#7a6d79" d="M300,231.5a43.97532,43.97532,0,1,1-.64-7.5A44.12938,44.12938,0,0,1,300,231.5Z"/><path fill="#e53950" d="M378.33008,151.29v0A23.65508,23.65508,0,0,1,344.752,172.76325L256,131.75l-88.752,41.01324A23.65507,23.65507,0,0,1,133.67,151.29008v0L256,95.8999Z"/><path fill="#cbc4cc" d="M298.47366,33.5H278.5a5,5,0,0,1-5-5v-16a5,5,0,0,0-5-5h-25a5,5,0,0,0-5,5v16a5,5,0,0,1-5,5H213.52634a5,5,0,0,0-5,5v25a5,5,0,0,0,5,5H233.5a5,5,0,0,1,5,5v76a5,5,0,0,0,5,5h25a5,5,0,0,0,5-5v-76a5,5,0,0,1,5-5h19.97363a5,5,0,0,0,5-5v-25A5,5,0,0,0,298.47366,33.5Z"/><path fill="#c4e2ff" d="M348.33482,352.5h63a7,7,0,0,1,7,7v59a7,7,0,0,1-7,7h-63a0,0,0,0,1,0,0v-73A0,0,0,0,1,348.33482,352.5Z"/><path fill="#c4e2ff" d="M93.66518,352.5h63a7,7,0,0,1,7,7v59a7,7,0,0,1-7,7h-63a0,0,0,0,1,0,0v-73A0,0,0,0,1,93.66518,352.5Z" transform="rotate(180 128.665 389)"/><path fill="#282828" d="M255.99807,179.99609a51.5,51.5,0,1,0,51.5,51.5A51.5583,51.5583,0,0,0,255.99807,179.99609Zm-7.5,87.22168a36.6093,36.6093,0,0,1-28.22168-28.22168h28.22168Zm0-43.22168H220.27639a36.60933,36.60933,0,0,1,28.22168-28.22168Zm15,43.22168V238.99609h28.22168A36.60923,36.60923,0,0,1,263.49807,267.21777Zm0-43.22168V195.77441a36.60926,36.60926,0,0,1,28.22168,28.22168Zm241,273h-26V315.30762c.52.02539,1.04016.04,1.56006.04a31.9483,31.9483,0,0,0,31.93994-31.94532,7.49932,7.49932,0,0,0-4.40674-6.832l-151.7583-68.709V182.41846a31.15286,31.15286,0,0,0,29.99512-31.13233,7.49968,7.49968,0,0,0-4.40625-6.832L280.99807,98.98242V75.99609H298.4717a12.51408,12.51408,0,0,0,12.5-12.5v-25a12.51409,12.51409,0,0,0-12.5-12.5H280.99807v-13.5a12.51409,12.51409,0,0,0-12.5-12.5h-25a12.51409,12.51409,0,0,0-12.5,12.5v13.5H213.52443a12.5141,12.5141,0,0,0-12.5,12.5v25a12.51409,12.51409,0,0,0,12.5,12.5h17.47364V98.98242L130.57424,144.4541a7.49966,7.49966,0,0,0-4.40625,6.832,31.15285,31.15285,0,0,0,29.99512,31.13233v25.44287l-51.40918,23.27539a7.49966,7.49966,0,1,0,6.18652,13.66406l45.22266-20.47461v20.28858L37.94143,299.24707a16.97847,16.97847,0,0,1-22.33789-11.28125l69.46679-31.45215a7.49966,7.49966,0,1,0-6.18652-13.66406l-74.479,33.7207a7.4993,7.4993,0,0,0-4.40674,6.832A31.94829,31.94829,0,0,0,31.938,315.34766c.51984,0,1.04-.01465,1.56006-.04V496.99609h-26a7.5,7.5,0,1,0,0,15h497a7.5,7.5,0,0,0,0-15Zm-348.335-79h-55v-58h55Zm0-73h-55.5a14.51669,14.51669,0,0,0-14.5,14.5v59a14.51669,14.51669,0,0,0,14.5,14.5h55.5v64H48.49807v-186.103l107.665-49.75342ZM370.2007,155.83887A16.19888,16.19888,0,0,1,347.896,165.9502l-66.898-30.91358V115.44824ZM216.02443,60.99609v-20h17.47364a12.51408,12.51408,0,0,0,12.5-12.5v-13.5h20v13.5a12.51408,12.51408,0,0,0,12.5,12.5H295.9717v20H278.49807a12.51409,12.51409,0,0,0-12.5,12.5v65.418a7.44185,7.44185,0,0,0,0,1.73633v6.3457h-20v-73.5a12.51409,12.51409,0,0,0-12.5-12.5ZM148.61965,164.89551a15.86774,15.86774,0,0,1-6.82422-9.05664l89.20264-40.39063v19.58789L164.09963,165.9502A15.87284,15.87284,0,0,1,148.61965,164.89551Zm99.87842,332.10058h-37.5v-86a45.06491,45.06491,0,0,1,37.5-44.36328Zm52.5,0h-37.5V366.63281a45.065,45.065,0,0,1,37.5,44.36328Zm162.5,0H355.833v-64h55.5a14.51669,14.51669,0,0,0,14.5-14.5v-59a14.51669,14.51669,0,0,0-14.5-14.5h-55.5v-24.5a7.5,7.5,0,0,0-15,0v176.5h-24.835v-86a60,60,0,1,0-120,0v86h-24.835V179.21094l60.00805-27.73a12.50891,12.50891,0,0,0,12.32691,10.51513h25a12.50866,12.50866,0,0,0,12.3269-10.51464l60.00806,27.73V290.49609a7.5,7.5,0,0,0,15,0V261.13965l107.665,49.75342Zm-107.665-79v-58h55v58Zm0-173.38134V224.32666L496.3926,287.96582a16.97847,16.97847,0,0,1-22.33789,11.28125Z"/></svg>