<svg xmlns="http://www.w3.org/2000/svg" data-name="Layer 1" viewBox="0 0 512 512"><path fill="#fed402" d="M259.60507 9.741l9.88511 20.02944a4.02025 4.02025 0 0 0 3.027 2.19922l22.10379 3.21186a4.02021 4.02021 0 0 1 2.22806 6.85725L280.85454 57.62951a4.02024 4.02024 0 0 0-1.1562 3.55841l3.77578 22.01448a4.02021 4.02021 0 0 1-5.83312 4.238L257.87077 77.04659a4.0202 4.0202 0 0 0-3.74154 0L234.359 87.44041a4.02021 4.02021 0 0 1-5.83312-4.238l3.77578-22.01448a4.02024 4.02024 0 0 0-1.1562-3.55841L215.151 42.03877a4.02021 4.02021 0 0 1 2.22806-6.85725l22.10379-3.21186a4.02025 4.02025 0 0 0 3.027-2.19922L252.39493 9.741A4.02022 4.02022 0 0 1 259.60507 9.741zM259.60507 426.32987l9.88511 20.02943a4.02023 4.02023 0 0 0 3.027 2.19922l22.10379 3.21187a4.02021 4.02021 0 0 1 2.22806 6.85725l-15.99446 15.59074a4.02024 4.02024 0 0 0-1.1562 3.55841l3.77578 22.01448a4.02021 4.02021 0 0 1-5.83312 4.238l-19.77023-10.39383a4.0202 4.0202 0 0 0-3.74154 0L234.359 504.02928a4.02021 4.02021 0 0 1-5.83312-4.238l3.77578-22.01448a4.02024 4.02024 0 0 0-1.1562-3.55841L215.151 458.62764a4.02021 4.02021 0 0 1 2.22806-6.85725l22.10379-3.21187a4.02023 4.02023 0 0 0 3.027-2.19922l9.88511-20.02943A4.02021 4.02021 0 0 1 259.60507 426.32987z"/><path fill="#46cc8d" d="M487.29 265.91992a4.0387 4.0387 0 0 0-1.16 3.56006l3.78 22.02a4.02006 4.02006 0 0 1-5.84 4.23L464.3 285.33984a4.64422 4.64422 0 0 0-.94-.34985 4.06884 4.06884 0 0 0-2.8.34985L440.79 295.73a4.01356 4.01356 0 0 1-5.83-4.23l3.77-22.02a4.00484 4.00484 0 0 0-1.15-3.56006l-16-15.58984a4.01683 4.01683 0 0 1 2.23-6.8501l22.11-3.22a4.00745 4.00745 0 0 0 3.02-2.2l9.89-20.02a4.01894 4.01894 0 0 1 7.21 0l9.88 20.02a2.33031 2.33031 0 0 0 .2.33984 3.97665 3.97665 0 0 0 2.83 1.86011l22.1 3.22a4.014 4.014 0 0 1 2.23 6.8501zM53.17251 218.03544l9.88512 20.02943a4.02019 4.02019 0 0 0 3.027 2.19922L88.18839 243.476a4.0202 4.0202 0 0 1 2.228 6.85724L74.422 265.92394a4.0202 4.0202 0 0 0-1.1562 3.55842l3.77578 22.01447a4.02021 4.02021 0 0 1-5.83312 4.238L51.43821 285.341a4.02018 4.02018 0 0 0-3.74153 0L27.92645 295.73484a4.02021 4.02021 0 0 1-5.83313-4.238l3.77578-22.01447a4.0202 4.0202 0 0 0-1.1562-3.55842L8.71845 250.3332a4.02021 4.02021 0 0 1 2.228-6.85724l22.10379-3.21187a4.02019 4.02019 0 0 0 3.027-2.19922l9.88512-20.02943A4.0202 4.0202 0 0 1 53.17251 218.03544z"/><path fill="#e53950" d="M436.18 133.58984l-22.34-.27978a3.98871 3.98871 0 0 0-3.15 1.46c-.06.06982-.12.1499-.18.23l-12.9 18.24a4.0203 4.0203 0 0 1-7.12-1.13013L383.86 130.78a4.00657 4.00657 0 0 0-2.64-2.63989L359.89 121.51a4.02024 4.02024 0 0 1-1.13-7.11987L377 101.49a3.99724 3.99724 0 0 0 1.69-3.33008l-.28-22.33984a4.01756 4.01756 0 0 1 6.42-3.27l17.9 13.35986a4.01822 4.01822 0 0 0 3.7.58008l.87-.29 20.28-6.87988a4.02019 4.02019 0 0 1 5.1 5.09985l-7.17 21.15015a4.01806 4.01806 0 0 0 .58 3.7l13.36 17.8999A4.01753 4.01753 0 0 1 436.18 133.58984zM138.10776 378.99057l-7.17311 21.15278a4.02021 4.02021 0 0 0 .5853 3.69548l13.35861 17.90087a4.02021 4.02021 0 0 1-3.27333 6.42428l-22.33411-.28547a4.02022 4.02022 0 0 0-3.33373 1.69862L103.04068 447.8136a4.02022 4.02022 0 0 1-7.12137-1.12792l-6.63012-21.32921a4.02019 4.02019 0 0 0-2.64566-2.64566l-21.32921-6.63012a4.02022 4.02022 0 0 1-1.12792-7.12137l18.23647-12.89671a4.02022 4.02022 0 0 0 1.69862-3.33373L83.836 370.39477a4.02021 4.02021 0 0 1 6.42428-3.27333l17.90087 13.35861a4.02021 4.02021 0 0 0 3.69548.5853l21.15278-7.17311A4.02021 4.02021 0 0 1 138.10776 378.99057z"/><path fill="#26a6fe" d="M434.86 426.8501l-22.33-.29a4.05013 4.05013 0 0 0-3.34 1.7l-.84 1.18994L396.3 446.5a4.01941 4.01941 0 0 1-7.12-1.12988L382.55 424.04a4.07688 4.07688 0 0 0-2.65-2.6499L358.57 414.76a4.0193 4.0193 0 0 1-1.13-7.11987L375.68 394.75a4.05037 4.05037 0 0 0 1.7-3.34009l-.29-22.32983a4.02839 4.02839 0 0 1 6.43-3.28l17.9 13.35986a4.01506 4.01506 0 0 0 3.69.59009l21.16-7.16992a4.013 4.013 0 0 1 5.09 5.08984l-7.17 21.16016a4.00145 4.00145 0 0 0 .59 3.68994l13.35 17.8999A4.02223 4.02223 0 0 1 434.86 426.8501zM139.42431 85.73431l-7.17312 21.15278a4.02022 4.02022 0 0 0 .58531 3.69547l13.35861 17.90088a4.02021 4.02021 0 0 1-3.27334 6.42427l-22.3341-.28547a4.02021 4.02021 0 0 0-3.33374 1.69863l-12.8967 18.23646a4.02021 4.02021 0 0 1-7.12137-1.12791l-6.63012-21.32921a4.02022 4.02022 0 0 0-2.64567-2.64567l-21.3292-6.63012a4.02021 4.02021 0 0 1-1.12792-7.12137l18.23647-12.8967A4.02023 4.02023 0 0 0 85.438 99.47261l-.28547-22.3341a4.02021 4.02021 0 0 1 6.42428-3.27333l17.90087 13.3586a4.02022 4.02022 0 0 0 3.69547.58531L134.326 80.636A4.02021 4.02021 0 0 1 139.42431 85.73431z"/><circle cx="256" cy="256" r="23" fill="#26a6fe"/><path fill="#0593fc" d="M269.42285,237.32861a22.99515,22.99515,0,0,1-34.3457,28.22046,22.99841,22.99841,0,1,0,34.3457-28.22046Z"/><path fill="#00c27a" d="M487.29 265.91992a4.0387 4.0387 0 0 0-1.16 3.56006l3.78 22.02a4.02006 4.02006 0 0 1-5.84 4.23L464.3 285.33984a4.64422 4.64422 0 0 0-.94-.34985 58.02652 58.02652 0 0 0 13.24-30.11987 56.73541 56.73541 0 0 0-.48-16.47022 3.97665 3.97665 0 0 0 2.83 1.86011l22.1 3.22a4.014 4.014 0 0 1 2.23 6.8501zM74.42464 265.91992a4.0387 4.0387 0 0 0-1.16 3.56006l3.78 22.02a4.02007 4.02007 0 0 1-5.84 4.23l-19.77-10.39014a4.64422 4.64422 0 0 0-.94-.34985 58.02636 58.02636 0 0 0 13.24-30.11987 56.73541 56.73541 0 0 0-.48-16.47022 3.97665 3.97665 0 0 0 2.83 1.86011l22.1 3.22a4.014 4.014 0 0 1 2.23 6.8501z"/><path fill="#fac600" d="M280.85719 57.62614a4.0387 4.0387 0 0 0-1.16 3.56006l3.78 22.02a4.02007 4.02007 0 0 1-5.84 4.23l-19.77-10.39013a4.64321 4.64321 0 0 0-.94-.34986 58.02636 58.02636 0 0 0 13.24-30.11987 56.73506 56.73506 0 0 0-.48-16.47022 3.97663 3.97663 0 0 0 2.83 1.86011l22.1 3.22a4.014 4.014 0 0 1 2.23 6.8501zM280.85719 474.215a4.0387 4.0387 0 0 0-1.16 3.56006l3.78 22.02a4.02007 4.02007 0 0 1-5.84 4.23l-19.77-10.39014a4.64377 4.64377 0 0 0-.94-.34985 58.02635 58.02635 0 0 0 13.24-30.11988 56.735 56.735 0 0 0-.48-16.47021 3.97666 3.97666 0 0 0 2.83 1.86011l22.1 3.22a4.014 4.014 0 0 1 2.23 6.8501z"/><path fill="#ca2e43" d="M436.18,133.58984l-22.34-.27978a3.98871,3.98871,0,0,0-3.15,1.46A100.47584,100.47584,0,0,0,407.3,86.2l20.28-6.87988a4.02019,4.02019,0,0,1,5.1,5.09985l-7.17,21.15015a4.01806,4.01806,0,0,0,.58,3.7l13.36,17.8999A4.01753,4.01753,0,0,1,436.18,133.58984Z"/><path fill="#0593fc" d="M142.926 134.92356l-22.34-.27979a3.9887 3.9887 0 0 0-3.15 1.46 100.65021 100.65021 0 0 0 1.1-26.84009 100.29727 100.29727 0 0 0-4.49-21.73l20.28-6.87988a4.02019 4.02019 0 0 1 5.1 5.09985l-7.17 21.15015a4.01806 4.01806 0 0 0 .58 3.7l13.36 17.8999A4.01754 4.01754 0 0 1 142.926 134.92356zM434.86 426.8501l-22.33-.29a4.05013 4.05013 0 0 0-3.34 1.7l-.84 1.18994a72.633 72.633 0 0 0-5.46-49.59985 4.10063 4.10063 0 0 0 2.22-.1001l21.16-7.16992a4.013 4.013 0 0 1 5.09 5.08984l-7.17 21.16016a4.00145 4.00145 0 0 0 .59 3.68994l13.35 17.8999A4.02223 4.02223 0 0 1 434.86 426.8501z"/><path fill="#ca2e43" d="M141.6051,428.17829l-22.33-.29a4.05012,4.05012,0,0,0-3.34,1.69995l-.84,1.18994a72.62049,72.62049,0,0,0,1.48-26.8,73.19843,73.19843,0,0,0-6.94-22.7998,4.1006,4.1006,0,0,0,2.22-.1001l21.16-7.16992a4.013,4.013,0,0,1,5.09,5.08984l-7.17,21.16016a4.00144,4.00144,0,0,0,.59,3.68994l13.35,17.8999A4.02223,4.02223,0,0,1,141.6051,428.17829Z"/><path fill="#282828" d="M248.49807,315.99609V382.333a7.5,7.5,0,1,0,15,0V315.99609a7.5,7.5,0,1,0-15,0ZM224.59865,61.71875l-3.46679,20.21094A11.50492,11.50492,0,0,0,237.8467,94.0752l18.15137-9.542,18.15039,9.542a11.52055,11.52055,0,0,0,16.71582-12.14454l-3.4668-20.21191L302.083,47.40527a11.52031,11.52031,0,0,0-6.38526-19.64941l-20.29345-2.94922L266.32863,6.418a11.52008,11.52008,0,0,0-20.66113,0l-9.07568,18.38867-20.292,2.94922a11.52014,11.52014,0,0,0-6.38575,19.65039Zm15.96143-22.331a11.51719,11.51719,0,0,0,8.67334-6.30176l6.76465-13.707L262.76272,33.085a11.516,11.516,0,0,0,8.67382,6.30274L286.563,41.58594,275.61623,52.25586a11.5183,11.5183,0,0,0-3.312,10.19531l2.584,15.06641-13.52685-7.11133a11.51159,11.51159,0,0,0-10.72363-.00195l-13.52979,7.11328,2.584-15.06641a11.52067,11.52067,0,0,0-3.31348-10.19726l-10.94531-10.668Zm75.438,209.10839a7.5,7.5,0,0,0,0,15H382.335a7.5,7.5,0,1,0,0-15Zm-29.5,7.5a30.5,30.5,0,1,0-30.5,30.5A30.53471,30.53471,0,0,0,286.49807,255.99609Zm-30.5,15.5a15.5,15.5,0,1,1,15.5-15.5A15.51736,15.51736,0,0,1,255.99807,271.49609Zm37.123-52.623a7.5008,7.5008,0,0,0,10.60645,0l46.90771-46.90723a7.50023,7.50023,0,0,0-10.60644-10.60742l-46.90772,46.90722A7.50053,7.50053,0,0,0,293.12111,218.87305Zm2.57666,225.47168-20.29345-2.94922-9.07569-18.38867a11.52008,11.52008,0,0,0-20.66113,0l-9.07568,18.38867-20.292,2.94922a11.52014,11.52014,0,0,0-6.38575,19.65039l14.68457,14.3125-3.46679,20.21093a11.50491,11.50491,0,0,0,16.71484,12.14551l18.15137-9.542,18.15039,9.542a11.52054,11.52054,0,0,0,16.71582-12.14453l-3.4668-20.21191L302.083,463.99414a11.52031,11.52031,0,0,0-6.38526-19.64941Zm-20.08154,24.5a11.5183,11.5183,0,0,0-3.312,10.19531l2.584,15.06641-13.52685-7.11133a11.51159,11.51159,0,0,0-10.72363-.002l-13.52979,7.11329,2.584-15.06641a11.5207,11.5207,0,0,0-3.31348-10.19727l-10.94531-10.668,15.12695-2.19824a11.51717,11.51717,0,0,0,8.67334-6.30176l6.76465-13.707,6.76465,13.70606a11.516,11.516,0,0,0,8.67382,6.30273L286.563,458.1748ZM511.42971,243.88965a11.44919,11.44919,0,0,0-9.29932-7.83985l-20.29346-2.94921-9.07568-18.38868a11.52009,11.52009,0,0,0-20.66113,0l-9.07569,18.38868-20.29394,2.94921a11.52038,11.52038,0,0,0-6.38379,19.6504l14.68457,14.31347-3.4668,20.21094a11.50479,11.50479,0,0,0,16.71485,12.14453l18.15136-9.542,18.1504,9.542a11.52,11.52,0,0,0,16.71582-12.14355l-3.4668-20.21192,14.68555-14.31445A11.44976,11.44976,0,0,0,511.42971,243.88965Zm-29.3794,16.65918a11.51985,11.51985,0,0,0-3.31347,10.19726l2.584,15.06446L467.794,278.7002a11.51161,11.51161,0,0,0-10.72364-.002l-13.52978,7.11231,2.584-15.06543a11.52146,11.52146,0,0,0-3.31347-10.19629l-10.94532-10.66895,15.12744-2.19824a11.51951,11.51951,0,0,0,8.67286-6.30176l6.76464-13.707,6.76465,13.70606a11.51607,11.51607,0,0,0,8.67383,6.30273l15.12647,2.19824ZM357.6592,128.666l19.582,6.08691,6.08692,19.582a11.45156,11.45156,0,0,0,9.19921,7.959,11.6814,11.6814,0,0,0,1.83448.14453,11.43689,11.43689,0,0,0,9.373-4.87207l11.84034-16.74219,20.50439.26172A11.51933,11.51933,0,0,0,445.46,122.67773l-12.26416-16.43554,6.58545-19.41895.00049-.00195a11.52,11.52,0,0,0-14.61035-14.6084l-19.42041,6.585L389.3174,66.53418a11.52071,11.52071,0,0,0-18.41015,9.37891l.2622,20.50488-16.74218,11.84082A11.5203,11.5203,0,0,0,357.6592,128.666Zm23.66309-21.05567a11.51559,11.51559,0,0,0,4.86963-9.55371l-.19581-15.28418,12.252,9.14258a11.51141,11.51141,0,0,0,10.58838,1.67578l14.47509-4.9082-4.90918,14.47558a11.51857,11.51857,0,0,0,1.67774,10.58887l9.14111,12.25-15.28515-.19434a11.39183,11.39183,0,0,0-9.55127,4.86719l-8.82569,12.47949L391.022,128.55469a11.51444,11.51444,0,0,0-7.58154-7.583l-14.5957-4.53711ZM138.62307,400.81543l6.58545-19.4209h.00049a11.52056,11.52056,0,0,0-14.61036-14.60937l-19.41943,6.58593L94.74465,361.10645a11.52073,11.52073,0,0,0-18.41016,9.37988l.26221,20.50488L59.85451,402.83105A11.52018,11.52018,0,0,0,63.086,423.23828l19.58252,6.08789,6.08691,19.58106a11.44718,11.44718,0,0,0,9.19873,7.959,11.69906,11.69906,0,0,0,1.83545.14551,11.43669,11.43669,0,0,0,9.37256-4.87207L121.003,435.39648l20.50586.2627c.05029.001.1001.001.1499.001A11.51989,11.51989,0,0,0,150.88723,417.25ZM119.3633,420.375a11.39386,11.39386,0,0,0-9.55127,4.86816l-8.82568,12.4795-4.53711-14.59473a11.51474,11.51474,0,0,0-7.58106-7.583L74.272,411.00781l12.47754-8.82422a11.51972,11.51972,0,0,0,4.86963-9.55468l-.1958-15.28418,12.248,9.14062a11.52123,11.52123,0,0,0,10.59179,1.67871l14.47559-4.90918-4.90918,14.47657a11.51858,11.51858,0,0,0,1.67773,10.58886l9.14161,12.25ZM263.49807,195.99609V129.65918a7.5,7.5,0,1,0-15,0v66.33691a7.5,7.5,0,0,0,15,0Zm87.1372,144.03028-46.90771-46.90821a7.50024,7.50024,0,0,0-10.60645,10.60743l46.90772,46.9082a7.50023,7.50023,0,0,0,10.60644-10.60742ZM218.875,293.11816a7.502,7.502,0,0,0-10.60644,0l-46.90772,46.90821a7.50024,7.50024,0,0,0,10.60645,10.60742l46.90771-46.9082A7.50051,7.50051,0,0,0,218.875,293.11816Zm-139.02588,8.374a11.44769,11.44769,0,0,0,4.58252-11.2666l-3.4668-20.21192,14.68506-14.31445a11.52,11.52,0,0,0-6.38476-19.64942L68.9717,233.10059,59.896,214.71191a11.52009,11.52009,0,0,0-20.66114,0L30.1592,233.10059,9.86526,236.0498a11.52051,11.52051,0,0,0-6.38379,19.6504L18.166,270.01367l-3.4668,20.21192a11.50467,11.50467,0,0,0,16.71484,12.14355l18.15137-9.542,18.15039,9.542A11.44974,11.44974,0,0,0,79.84914,301.49219Zm-35.644-22.79395-13.52979,7.11231,2.584-15.06543a11.51888,11.51888,0,0,0-3.31348-10.19629L19,249.87988l15.12744-2.19824a11.51718,11.51718,0,0,0,8.67334-6.30176l6.76465-13.707,6.76465,13.70606a11.5183,11.5183,0,0,0,8.67383,6.30273l15.12646,2.19824-10.94678,10.6709a11.52012,11.52012,0,0,0-3.312,10.19531l2.584,15.06446L54.92873,278.7002A11.51159,11.51159,0,0,0,44.2051,278.69824Zm85.456-30.20215a7.5,7.5,0,0,0,0,15h66.33692a7.5,7.5,0,0,0,0-15Zm78.60743-29.623A7.50024,7.50024,0,1,0,218.875,208.26562L171.96731,161.3584a7.50024,7.50024,0,1,0-10.60645,10.60742ZM64.40285,129.98242l19.58252,6.08692,6.08692,19.583a11.44851,11.44851,0,0,0,9.19726,7.958,11.70674,11.70674,0,0,0,1.83643.14551,11.44341,11.44341,0,0,0,9.373-4.87207l11.83985-16.74317,20.50439.26172a11.51933,11.51933,0,0,0,9.38086-18.4082l-12.26465-16.43555,6.58545-19.41894v-.001A11.52,11.52,0,0,0,131.91555,73.5293l-19.4209,6.585L96.06106,67.85059A11.52073,11.52073,0,0,0,77.6509,77.23047l.26221,20.50488L61.17092,109.5752a11.52029,11.52029,0,0,0,3.23193,20.40722Zm23.667-21.05762a11.51852,11.51852,0,0,0,4.86573-9.55175l-.1958-15.28418,12.252,9.14258a11.517,11.517,0,0,0,10.58838,1.67578L130.0552,89.999,125.146,104.47461a11.51854,11.51854,0,0,0,1.67773,10.58887l9.1416,12.25-15.28515-.19434c-.04883-.001-.09668-.001-.145-.001a11.52042,11.52042,0,0,0-9.40674,4.86817l-8.8252,12.47949-4.53808-14.59961a11.52072,11.52072,0,0,0-7.58106-7.57812L75.5884,117.751ZM431.87893,399.499l6.58593-19.41992.00049-.001A11.52055,11.52055,0,0,0,423.855,365.46875l-19.41943,6.58594L388.001,359.79a11.52073,11.52073,0,0,0-18.41016,9.37988l.26221,20.50488-16.74219,11.83985a11.52043,11.52043,0,0,0,3.23145,20.40723l19.58252,6.08789,6.08691,19.58105a11.44715,11.44715,0,0,0,9.19873,7.959,11.699,11.699,0,0,0,1.83545.14551,11.43668,11.43668,0,0,0,9.37256-4.87207l11.84082-16.74316,20.50537.26269a11.52019,11.52019,0,0,0,9.37891-18.40918Zm-19.25928,19.55957a11.483,11.483,0,0,0-9.55127,4.86817l-8.82568,12.47949-4.53711-14.59473a11.51574,11.51574,0,0,0-7.58106-7.583l-14.59619-4.53711,12.48242-8.82813a11.52215,11.52215,0,0,0,4.86475-9.55078l-.1958-15.28418,12.248,9.14063a11.52129,11.52129,0,0,0,10.59179,1.67871l14.47559-4.90918L417.08547,396.416a11.5191,11.5191,0,0,0,1.67822,10.58789l9.1416,12.25Z"/></svg>