<svg xmlns="http://www.w3.org/2000/svg" data-name="Layer 1" viewBox="0 0 512 512"><circle cx="376.487" cy="167.38" r="16.391" fill="#fac600"/><path fill="#26a6fe" d="M119.57959,137.47346A17.89338,17.89338,0,1,1,137.473,119.58008,17.91341,17.91341,0,0,1,119.57959,137.47346Z"/><circle cx="176.332" cy="376.487" r="16.391" fill="#e53950"/><path fill="#282828" d="M150.61086,161.21582a7.49993,7.49993,0,0,0,10.64258-10.57031l-.0708-.07129a7.49993,7.49993,0,0,0-10.64258,10.57031Zm-38.5332,39.873a7.5,7.5,0,0,0,15,0v-.10059a7.5,7.5,0,0,0-15,0ZM155.86135,90.792a7.47833,7.47833,0,0,0,5.32129-2.21484l.0708-.07129a7.49993,7.49993,0,1,0-10.64258-10.57031l-.0708.07129A7.5,7.5,0,0,0,155.86135,90.792Zm-36.28369,87.64649a7.52495,7.52495,0,1,0-7.5-7.54981v.09961A7.4574,7.4574,0,0,0,119.57766,178.43848Zm62.87109-6.59864a7.50024,7.50024,0,0,0-10.60644,10.60743l.07031.07031a7.3978,7.3978,0,0,0,5.25146,2.17871,7.51762,7.51762,0,0,0,5.28467-12.85645Zm-11.5581-44.76367h.09961a7.4574,7.4574,0,0,0,7.45019-7.5,7.52494,7.52494,0,1,0-7.5498,7.5Zm-51.313-81.41308a7.49975,7.49975,0,0,0,7.5-7.5V38.0625a7.5,7.5,0,1,0-15,0v.10059A7.49975,7.49975,0,0,0,119.57766,45.66309Zm0,30.09961a7.49975,7.49975,0,0,0,7.5-7.5v-.09961a7.4574,7.4574,0,0,0-7.5-7.4502,7.52495,7.52495,0,0,0,0,15.04981Zm0,67.7041A23.89063,23.89063,0,1,0,95.687,119.57617,23.91736,23.91736,0,0,0,119.57766,143.4668Zm0-32.78125a8.89063,8.89063,0,1,1-8.89063,8.89062A8.90064,8.90064,0,0,1,119.57766,110.68555Zm0-95.12305a7.49974,7.49974,0,0,0,7.5-7.5V7.96289a7.45739,7.45739,0,0,0-7.5-7.45019,7.52494,7.52494,0,0,0,0,15.0498ZM103.3716,303.52344a7.5005,7.5005,0,0,0,0,10.60742l37.42041,37.4209a7.50024,7.50024,0,1,0,10.60645-10.60742l-37.42041-37.4209A7.502,7.502,0,0,0,103.3716,303.52344Zm8.70606-72.335a7.4574,7.4574,0,0,0,7.5,7.45019,7.52494,7.52494,0,1,0-7.5-7.5498Zm150.8208,66.22558a7.47791,7.47791,0,0,0,5.30273-2.19629l3.62061-3.62011a7.49989,7.49989,0,0,0-10.60547-10.60743l-3.62061,3.62012a7.5,7.5,0,0,0,5.30274,12.80371Zm-182.061-16.42285a7.49978,7.49978,0,0,0,.001,10.60645l3.62061,3.62011a7.49989,7.49989,0,1,0,10.60546-10.60742l-3.6206-3.62012A7.50022,7.50022,0,0,0,80.83742,280.99121Zm120.42383,59.95313a7.50024,7.50024,0,0,0,10.60645,10.60742l37.42089-37.4209a7.50023,7.50023,0,1,0-10.60644-10.60742Zm29.8291-213.86817h.1001a7.5,7.5,0,0,0,0-15h-.1001a7.5,7.5,0,0,0,0,15ZM176.3301,273.30371a7.49974,7.49974,0,0,0-7.5,7.5v52.9209a7.5,7.5,0,0,0,15,0v-52.9209A7.49974,7.49974,0,0,0,176.3301,273.30371ZM376.48488,116.18457a7.49974,7.49974,0,0,0,7.5-7.5V55.76367a7.5,7.5,0,1,0-15,0v52.9209A7.49974,7.49974,0,0,0,376.48488,116.18457ZM417.98635,133.375a7.47819,7.47819,0,0,0,5.30322-2.19629l37.4209-37.4209A7.50024,7.50024,0,0,0,450.104,83.15039l-37.42089,37.4209a7.5,7.5,0,0,0,5.30322,12.80371ZM264.87209,174.876H317.793a7.5,7.5,0,0,0,0-15h-52.9209a7.5,7.5,0,0,0,0,15Zm-63.88183-62.79981a7.5,7.5,0,0,0,0,15h.10009a7.5,7.5,0,0,0,0-15ZM177.14553,69.50781a7.47819,7.47819,0,0,0,5.30322-2.19629l.07031-.07031a7.45822,7.45822,0,0,0-.03515-10.57226,7.5251,7.5251,0,1,0-5.33838,12.83886Zm6.68457,179.42871a7.5,7.5,0,0,0-15,0v5.12012a7.5,7.5,0,1,0,15,0Zm9.38525-45.11718a7.39261,7.39261,0,0,0,5.23242,2.16113,7.55345,7.55345,0,1,0-5.30371-2.23145Zm5.21387-155.59571a7.47617,7.47617,0,0,0,5.28516-2.17871l.0708-.07031a7.45739,7.45739,0,0,0,.001-10.57129,7.52515,7.52515,0,1,0-5.35693,12.82031ZM211.8677,401.41309a7.50024,7.50024,0,0,0-10.60645,10.60742l37.4209,37.4209A7.50024,7.50024,0,0,0,249.28859,438.834Zm56.33447,56.335a7.49989,7.49989,0,1,0-10.60742,10.60547l3.6206,3.62109a7.49989,7.49989,0,1,0,10.60742-10.60547Zm3.80713-88.76563H219.0884a7.5,7.5,0,0,0,0,15h52.9209a7.5,7.5,0,0,0,0-15Zm31.86719,0h-5.12012a7.5,7.5,0,0,0,0,15h5.12012a7.5,7.5,0,0,0,0-15ZM176.3301,352.5918a23.89063,23.89063,0,1,0,23.89062,23.89062A23.91736,23.91736,0,0,0,176.3301,352.5918Zm0,32.78125a8.89063,8.89063,0,1,1,8.89062-8.89063A8.90065,8.90065,0,0,1,176.3301,385.37305Zm0,106.03613a7.49974,7.49974,0,0,0-7.5,7.5v5.12012a7.5,7.5,0,0,0,15,0v-5.12012A7.49974,7.49974,0,0,0,176.3301,491.40918Zm153.3501-287.835-37.4209,37.4209a7.50023,7.50023,0,0,0,10.60644,10.60742l37.4209-37.4209a7.50023,7.50023,0,1,0-10.60644-10.60742Zm-153.3501,208.167a7.49974,7.49974,0,0,0-7.5,7.5v52.9209a7.5,7.5,0,0,0,15,0v-52.9209A7.49974,7.49974,0,0,0,176.3301,411.74121Zm246.95947-208.167a7.50023,7.50023,0,0,0-10.60644,10.60742l37.42089,37.4209a7.50024,7.50024,0,1,0,10.60645-10.60742ZM488.09768,159.876h-52.9209a7.5,7.5,0,0,0,0,15h52.9209a7.5,7.5,0,0,0,0-15ZM302.86574,83.15039A7.50023,7.50023,0,0,0,292.2593,93.75781l37.4209,37.4209a7.50023,7.50023,0,1,0,10.60644-10.60742Zm73.61914,60.335A23.89063,23.89063,0,1,0,400.37551,167.376,23.91736,23.91736,0,0,0,376.48488,143.48535Zm0,32.78125a8.89063,8.89063,0,1,1,8.89063-8.89062A8.90064,8.90064,0,0,1,376.48488,176.2666Zm0,42.30176a7.49974,7.49974,0,0,0-7.5,7.5v52.9209a7.5,7.5,0,1,0,15,0v-52.9209A7.49974,7.49974,0,0,0,376.48488,218.56836ZM53.90383,368.98242H48.78371a7.5,7.5,0,1,0,0,15h5.12012a7.5,7.5,0,1,0,0-15ZM40.72609,48.22363a7.49976,7.49976,0,0,0,5.28516-12.82129L45.94,35.332a7.45842,7.45842,0,0,0-10.5708.07129,7.53552,7.53552,0,0,0,5.35693,12.82031Zm21.2837,21.28418A7.5,7.5,0,0,0,67.313,56.7041l-.07031-.07031a7.45968,7.45968,0,0,0-10.57129.03516,7.53521,7.53521,0,0,0,5.33838,12.83886ZM8.065,112.07617h-.1001a7.5,7.5,0,0,0,0,15H8.065a7.5,7.5,0,0,0,0-15Zm69.90772-23.499A7.49993,7.49993,0,0,0,88.61526,78.00684l-.07081-.07129A7.49993,7.49993,0,1,0,77.90188,88.50586Zm-9.80762,23.499a7.4574,7.4574,0,0,0-7.4502,7.5,7.52495,7.52495,0,1,0,7.54981-7.5Zm72.627,289.33692L103.3716,438.834a7.50024,7.50024,0,0,0,10.60645,10.60743l37.42041-37.4209A7.50024,7.50024,0,0,0,140.792,401.41309ZM38.16506,127.07617a7.5,7.5,0,0,0,0-15H38.065a7.5,7.5,0,0,0,0,15Zm7.88281,66.06641a7.50083,7.50083,0,0,0-10.60693-.03613l-.0708.07031a7.48242,7.48242,0,0,0,5.30371,12.76855,7.518,7.518,0,0,0,5.374-12.80273ZM133.5718,383.98242a7.5,7.5,0,0,0,0-15H80.6509a7.5,7.5,0,1,0,0,15ZM84.458,457.74805l-3.62061,3.62109a7.49989,7.49989,0,1,0,10.60742,10.60547l3.62061-3.62109A7.49989,7.49989,0,1,0,84.458,457.74805ZM56.70656,171.83984l-.07031.07032a7.48246,7.48246,0,0,0,5.32129,12.751,7.5075,7.5075,0,1,0-5.251-12.82129Zm31.83789-10.624.07081-.07129a7.49993,7.49993,0,0,0-10.64258-10.57031l-.0708.07129a7.49993,7.49993,0,1,0,10.64257,10.57031Z"/></svg>