<svg xmlns="http://www.w3.org/2000/svg" data-name="Layer 1" viewBox="0 0 512 512"><rect width="497" height="79" x="7.5" y="7.5" fill="#ecbba3" rx="15"/><path fill="#e8ad8c" d="M489.5,7.5h-30V20.2902A36.2098,36.2098,0,0,1,423.2902,56.5H7.5v15a15,15,0,0,0,15,15h467a15,15,0,0,0,15-15v-49A15,15,0,0,0,489.5,7.5Z"/><rect width="457" height="418" x="27.5" y="86.5" fill="#f4d7c8"/><rect width="90" height="418" x="394.5" y="86.5" fill="#e8ad8c"/><path fill="#c57a44" d="M394.5,504.5h-277V323.7081A138.49986,138.49986,0,0,1,255.99986,185.20824h.00038C332.13892,183.36462,394.48975,247.16309,394.5,323.70813Z"/><polygon fill="#e8ad8c" points="117.5 86.61 117.5 504.5 27.5 504.5 27.5 86.5 117.1 86.5 117.5 86.61"/><rect width="90" height="60.93" x="27.5" y="436.07" fill="#e19974"/><rect width="90" height="60.93" x="394.5" y="436.07" fill="#e19974"/><rect width="457" height="60.93" x="27.5" y="86.5" fill="#e19974"/><path fill="#e8ad8c" d="M504.5,39.5v15H466.87012a7.5,7.5,0,0,1,0-15Z"/><polygon fill="#883f2e" points="193.483 500.038 164.981 450.672 305.025 369.818 300.892 438.025 193.483 500.038"/><ellipse cx="176.005" cy="477.218" fill="#6d3326" rx="23.213" ry="28.501" transform="rotate(-30 176.005 477.218)"/><polygon fill="#883f2e" points="318.517 500.038 347.019 450.672 206.975 369.818 209.747 437.24 318.517 500.038"/><ellipse cx="335.995" cy="477.218" fill="#6d3326" rx="28.501" ry="23.213" transform="rotate(-60 335.995 477.218)"/><path fill="#fed402" d="M334.32622,382.01354c-2.0035,33.01108-32.65379,75.77069-76.86911,76.86912-35.43044.88019-66.04433-25.67508-75.90518-56.14295-.88347-2.73-12.14331-39.18211,6.90507-61.75311,13.9364-16.51357,31.58692-10.77446,43.695-25.83545,7.58665-9.43689,13.16155-27.24381,1.00431-64.189,8.98251,1.818,52.34252,11.57333,80.27047,53.17224C335.59128,337.14835,335.0061,370.81071,334.32622,382.01354Z"/><path fill="#fac600" d="M313.42676,304.1344c-19.34888-28.82019-46.09668-42.34949-63.69629-48.55054a122.27021,122.27021,0,0,1,33.69629,33.55054c22.16455,33.01392,21.57934,66.67627,20.89941,77.87915-2.00342,33.01111-32.65381,75.77063-76.86914,76.869a69.73293,69.73293,0,0,1-18.43213-2.03479c13.46729,10.75134,30.31568,17.485,48.43213,17.03479,44.21533-1.09839,74.86572-43.85791,76.86914-76.869C335.0061,370.81067,335.59131,337.14832,313.42676,304.1344Z"/><path fill="#fdb441" d="M295.7658,419.86709c-1.01717,16.75955-16.57815,38.46837-39.026,39.026-17.98785.44687-33.53035-13.0351-38.53666-28.50347-.44853-1.386-6.16509-19.89255,3.50567-31.35172,7.07543-8.38386,16.03651-5.47014,22.1837-13.11652,3.85171-4.79106,6.68205-13.83154.50989-32.58839,4.56037.923,26.574,5.87571,40.75288,26.99526A64.59247,64.59247,0,0,1,295.7658,419.86709Z"/><path fill="#fea613" d="M285.15527,380.32825a61.93621,61.93621,0,0,0-15.78564-16.1239c.26245.373.52808.74023.78564,1.1239a64.59329,64.59329,0,0,1,10.6106,39.53882c-1.01733,16.75964-16.57837,38.46838-39.02612,39.026a36.97008,36.97008,0,0,1-19.8086-5.34156c7.01123,11.74427,20.08936,20.70728,34.8086,20.34156,22.44775-.55762,38.00879-22.26636,39.02612-39.026A64.59329,64.59329,0,0,0,285.15527,380.32825Z"/><path fill="#a79ba7" d="M504.5,512H7.5a7.5,7.5,0,0,1,0-15h497a7.5,7.5,0,0,1,0,15Z"/><path fill="#282828" d="M511.99807,71.49609v-49a22.52586,22.52586,0,0,0-22.5-22.5h-467a22.52586,22.52586,0,0,0-22.5,22.5v49a22.5302,22.5302,0,0,0,20,22.35791V496.99609h-12.5a7.5,7.5,0,1,0,0,15H179.60818c.258.00684.5166.01856.77368.01856.196,0,.38989-.01465.58545-.01856H331.02883c.19531.00391.3894.01856.58545.01856.25659,0,.51465-.01172.77222-.01856H504.49807a7.5,7.5,0,0,0,0-15h-12.5V93.854A22.5302,22.5302,0,0,0,511.99807,71.49609Zm-402,425.5h-75V451.06152h75Zm0-320.62988H89.26272a7.5,7.5,0,1,0,0,15h20.73535v75H89.26272a7.5,7.5,0,0,0,0,15h20.73535v75H89.26272a7.5,7.5,0,0,0,0,15h20.73535v64.69531h-75V416.36621H55.73342a7.5,7.5,0,1,0,0-15H34.99807v-75H55.73342a7.5,7.5,0,1,0,0-15H34.99807v-75H55.73342a7.5,7.5,0,0,0,0-15H34.99807V154.93066h75Zm0-36.43555h-75V93.99609h75Zm82.89258,345.335c-.73926,4.585-3.00782,8.18458-6.38672,10.13575-3.37989,1.95117-7.63282,2.11621-11.97071.46289a25.79567,25.79567,0,0,1-15.418-26.70313c.73925-4.585,3.00781-8.18457,6.38769-10.13574a12.20056,12.20056,0,0,1,6.15723-1.59277,16.35713,16.35713,0,0,1,5.81347,1.12988,25.79519,25.79519,0,0,1,15.417,26.70312Zm9.71093-23.4082a40.26027,40.26027,0,0,0-15.46655-15.3208l9.64722-5.56982a93.46273,93.46273,0,0,0,8.53222,7.51953,84.43813,84.43813,0,0,0,34.34595,16.22607l-31.52466,18.20069A40.25408,40.25408,0,0,0,202.60158,461.85742Zm52.30176-97.25293a56.33928,56.33928,0,0,1,24.02344,19.90039,56.95494,56.95494,0,0,1,9.35058,34.90332v.001c-1.16943,19.28418-19.13452,31.57812-31.58593,31.97363-.51075.00928-1.021.00977-1.53125.00635-14.572-.37354-26.19019-12.08252-29.82325-23.312-.05078-.15625-4.99609-15.7959,2.10157-24.20606,2.22949-2.6416,4.75781-3.46972,8.25781-4.61523,4.28906-1.4043,9.62793-3.15137,14.04-8.63965C254.87307,384.22656,256.59084,375.65137,254.90334,364.60449Zm-41.16089,132.3916,42.25611-24.39648,42.25537,24.39648Zm95.6521-35.13867a40.25248,40.25248,0,0,0-5.53418,21.05518l-31.67993-18.29053c17.05664-3.73,31.23193-12.978,42.15747-24.16113l10.52344,6.07568A40.25586,40.25586,0,0,0,309.39455,461.85742Zm40.20606,23.21289a24.36836,24.36836,0,0,1-12.1377,10.79395c-4.33887,1.65332-8.59082,1.48926-11.9707-.46289-3.37891-1.95117-5.64746-5.55078-6.38672-10.13575a25.7952,25.7952,0,0,1,15.417-26.70312,16.3612,16.3612,0,0,1,5.81348-1.12988,12.20316,12.20316,0,0,1,6.15722,1.59277c3.37989,1.95117,5.64844,5.55078,6.3877,10.13574A24.37777,24.37777,0,0,1,349.60061,485.07031Zm37.39746,11.92578H359.65432a42.73213,42.73213,0,0,0,2.93652-4.42578,39.3877,39.3877,0,0,0,5.09863-25.79687c-1.47168-9.124-6.33593-16.48926-13.69629-20.73828-.70727-.40821-1.43164-.77149-2.1643-1.11084a7.481,7.481,0,0,0-1.06226-.75147l-26.62475-15.37207A100.78794,100.78794,0,0,0,334.541,410.834a7.50008,7.50008,0,1,0-13.71094-6.084A87.51764,87.51764,0,0,1,300.43,433.11572,44.44278,44.44278,0,0,0,303.25,420.31738a72.071,72.071,0,0,0-11.87012-44.17383c-14.69726-21.8916-36.71-28.38867-45.49218-30.165a7.49931,7.49931,0,0,0-8.61133,9.69433c2.82226,8.5791,5.24707,19.97461.76953,25.54492-1.54981,1.92676-3.47168,2.62207-7.0166,3.78321-4.25293,1.3916-10.07715,3.29882-15.05371,9.19629-12.2002,14.45507-5.69239,36.0791-4.91016,38.498q.2516.7771.53638,1.5542a79.15183,79.15183,0,0,1-7.79419-7.67822c-.02051-.02344-.04029-.04785-.061-.0708a74.31752,74.31752,0,0,1-15.061-26.07276c-.459-1.41992-11.05371-34.99218,5.501-54.60839,5.72364-6.78125,12.13672-8.88086,19.56153-11.31153,7.92578-2.59375,16.91015-5.53515,24.248-14.66113,10.5918-13.17676,12.60352-32.32031,6.06446-58.28418,17.64258,5.64746,44.125,18.42871,63.13769,46.748,19.21778,28.626,20.55371,58.17773,19.63965,73.24511a7.50009,7.50009,0,0,0,14.97266.90821c1.02832-16.957-.48242-50.22559-22.15918-82.51465-27.44238-40.875-68.59082-53.01856-85.00879-56.3418a7.49983,7.49983,0,0,0-8.61231,9.69531c8.90625,27.06543,8.999,46.293.27539,57.14551-4.54687,5.6543-10.1416,7.48633-17.22363,9.80469-8.38476,2.74414-17.88672,5.85449-26.3584,15.89258-21.49707,25.47168-9.72265,64.52832-8.30957,68.89941a88.01079,88.01079,0,0,0,12.44971,24.32813l-25.63428,14.7998a7.53744,7.53744,0,0,0-1.0625.75147c-.73242.33935-1.45678.70263-2.16406,1.11084-7.36035,4.249-12.22461,11.61425-13.69629,20.73828a39.38776,39.38776,0,0,0,5.09863,25.79687,42.73383,42.73383,0,0,0,2.93653,4.42578H124.99807V323.7041c0-72.2334,58.7666-131,131-131,.06054,0,.12109-.001.18164-.002,33.8418-.84766,66.07519,12.0293,90.81836,36.17773a133.30055,133.30055,0,0,1,40,94.82422Zm0-357.06543H376.18459a7.5,7.5,0,0,0,0,15h10.81348V259.12354a147.52,147.52,0,0,0-29.52246-40.979C329.83693,191.1709,293.8008,176.7998,255.90627,177.7041a146.1614,146.1614,0,0,0-130.9082,81.59082V154.93066H346.18459a7.5,7.5,0,0,0,0-15H124.99807V93.99609h262Zm90,357.06543h-75V451.06152h75Zm0-320.62988H456.26272a7.5,7.5,0,0,0,0,15h20.73535v75H456.26272a7.5,7.5,0,0,0,0,15h20.73535v75H456.26272a7.5,7.5,0,0,0,0,15h20.73535v64.69531h-75V416.36621h20.73535a7.5,7.5,0,0,0,0-15H401.99807v-75h20.73535a7.5,7.5,0,0,0,0-15H401.99807v-75h20.73535a7.5,7.5,0,0,0,0-15H401.99807V154.93066h75Zm0-36.43555h-75V93.99609h75Zm12.5-60.93457h-467a7.5082,7.5082,0,0,1-7.5-7.5v-17H45.13283a7.5,7.5,0,0,0,0-15H14.99807v-17a7.5082,7.5082,0,0,1,7.5-7.5h467a7.5082,7.5082,0,0,1,7.5,7.5v17H466.8633a7.5,7.5,0,0,0,0,15h30.13477v17A7.5082,7.5082,0,0,1,489.49807,78.99609Z"/></svg>