<svg xmlns="http://www.w3.org/2000/svg" data-name="Layer 1" viewBox="0 0 512 512"><path fill="#46cc8d" d="M187.79248,44.8479a830.93069,830.93069,0,0,1-77.7434,68.90283,4.01816,4.01816,0,0,1-5.82808-.97041A851.98466,851.98466,0,0,1,52.78613,22.3396,827.97647,827.97647,0,0,0,187.79248,44.8479Z"/><path fill="#00c27a" d="M160.9458,42.18237a830.03191,830.03191,0,0,1-64.917,57.76172q4.03565,6.43432,8.19238,12.83618a4.01766,4.01766,0,0,0,5.82764.97046A830.92152,830.92152,0,0,0,187.79248,44.8479Q174.35328,43.73718,160.9458,42.18237Z"/><path fill="#e53950" d="M324.20752,44.8479a842.00029,842.00029,0,0,1-65.24894,80.71518,4.018,4.018,0,0,1-5.91719,0A841.8624,841.8624,0,0,1,187.79248,44.8479,828.20719,828.20719,0,0,0,324.20752,44.8479Z"/><path fill="#ca2e43" d="M296.75586 46.65039a843.633 843.633 0 0 1-54.47168 66.9043q5.31446 6.0326 10.75732 12.0083a4.01768 4.01768 0 0 0 5.917 0 842.00493 842.00493 0 0 0 65.249-80.71509Q310.49438 45.98133 296.75586 46.65039zM248.50049 47.62256q-30.38232-.275-60.708-2.77466c.27295.38452.55615.76587.83057 1.15015Q218.5293 47.89318 248.50049 47.62256z"/><path fill="#46cc8d" d="M459.21387,22.3396A852.01081,852.01081,0,0,1,407.779,112.78027a4.01815,4.01815,0,0,1-5.82808.97045A830.86421,830.86421,0,0,1,324.20752,44.8479,828.04668,828.04668,0,0,0,459.21387,22.3396Z"/><path fill="#00c27a" d="M432.07178,28.718a855.39479,855.39479,0,0,1-43.1919,74.58642q6.47169,5.26466,13.0708,10.44629a4.01814,4.01814,0,0,0,5.82813-.97046A851.97223,851.97223,0,0,0,459.21387,22.3396Q445.68458,25.7644,432.07178,28.718Z"/><path fill="#fed402" d="M56.3912,348.80165l9.88512,20.02943a4.02019,4.02019,0,0,0,3.027,2.19922l22.10379,3.21187a4.02021,4.02021,0,0,1,2.22806,6.85724L77.64068,396.69015a4.0202,4.0202,0,0,0-1.1562,3.55842L80.26026,422.263a4.02021,4.02021,0,0,1-5.83313,4.238L54.6569,416.10723a4.0202,4.0202,0,0,0-3.74154,0L31.14513,426.50105a4.02021,4.02021,0,0,1-5.83312-4.238l3.77578-22.01447a4.02022,4.02022,0,0,0-1.1562-3.55842L11.93714,381.09941a4.0202,4.0202,0,0,1,2.22805-6.85724L36.269,371.0303a4.02021,4.02021,0,0,0,3.027-2.19922l9.88512-20.02943A4.0202,4.0202,0,0,1,56.3912,348.80165Z"/><path fill="#fac600" d="M77.64333,396.82368a4.0387,4.0387,0,0,0-1.16,3.56006l3.78,22.02a4.02007,4.02007,0,0,1-5.84,4.23l-19.77-10.39014a4.64348,4.64348,0,0,0-.94-.34985,58.02639,58.02639,0,0,0,13.24005-30.11988,56.73464,56.73464,0,0,0-.48-16.47021,3.97664,3.97664,0,0,0,2.83,1.8601l22.1,3.22a4.014,4.014,0,0,1,2.23,6.85009Z"/><path fill="#46cc8d" d="M174.33778,182.31728H201.247a10.33707,10.33707,0,0,1,10.33707,10.33707V225.733a0,0,0,0,1,0,0H164.00071a0,0,0,0,1,0,0V192.65435A10.33707,10.33707,0,0,1,174.33778,182.31728Z"/><path fill="#00c27a" d="M201.24707,182.31738h-15A10.33683,10.33683,0,0,1,196.584,192.6543v33.07861h15V192.6543A10.33683,10.33683,0,0,0,201.24707,182.31738Z"/><path fill="#e53950" d="M264.98,283.62012a76.98573,76.98573,0,0,1-4.16016,25.05981,75.78863,75.78863,0,0,1-7.00976,14.94019q-1.62012,2.6997-3.47022,5.23a77.191,77.191,0,0,1-125.08007.00976c-1.2295-1.68994-2.38965-3.43994-3.4795-5.23a77.0645,77.0645,0,0,1,0-80.00976c1.08985-1.8,2.25-3.54,3.4795-5.24024a77.191,77.191,0,0,1,125.08007.01026q1.845,2.53491,3.47022,5.23a76.77666,76.77666,0,0,1,11.16992,40Z"/><path fill="#ca2e43" d="M260.81982,258.57007A77.26053,77.26053,0,0,0,187.79,206.43994a77.69989,77.69989,0,0,0-12.34277.988,77.18519,77.18519,0,0,1,.00293,152.38452,77.25552,77.25552,0,0,0,74.88964-30.9624,77.29325,77.29325,0,0,0,10.48-70.28Z"/><path fill="#46cc8d" d="M264.98,283.62012a76.98573,76.98573,0,0,1-4.16016,25.05981,75.78863,75.78863,0,0,1-7.00976,14.94019c-.59033.03979-1.18994.0498-1.81983.0498A30.92438,30.92438,0,0,1,236.25,319.71c-2.25-1.16992-3.08984-1.6001-5.66992-1.6001-2.57031,0-3.3999.43018-5.64014,1.6001a33.30131,33.30131,0,0,1-31.5,0c-2.23974-1.16992-3.08008-1.6001-5.6499-1.6001-2.58008,0-3.41992.43018-5.66016,1.6001a33.28092,33.28092,0,0,1-31.48974,0c-2.24024-1.16992-3.08008-1.6001-5.64991-1.6001-2.58007,0-3.42041.43018-5.66015,1.6001a30.89311,30.89311,0,0,1-15.74024,3.96c-.62011,0-1.23-.01-1.80957-.04a77.0645,77.0645,0,0,1,0-80.00976c.58985-.04,1.18946-.05,1.81983-.05a31.00132,31.00132,0,0,1,15.75,3.96c2.23974,1.16992,3.08008,1.61011,5.64013,1.61011,2.57959,0,3.41993-.44019,5.65967-1.61011a33.28191,33.28191,0,0,1,31.49024,0c2.23974,1.16992,3.07959,1.61011,5.65966,1.61011,2.57032,0,3.41016-.44019,5.6504-1.61011a33.28092,33.28092,0,0,1,31.48974,0c2.24024,1.16992,3.08008,1.61011,5.66016,1.61011,2.56006,0,3.3999-.44019,5.6499-1.61011a30.92438,30.92438,0,0,1,15.74023-3.96c.62989,0,1.2295.01,1.81983.05a76.77666,76.77666,0,0,1,11.16992,40Z"/><path fill="#00c27a" d="M260.81982,258.57007c-.40283-1.17652-.84277-2.33618-1.30078-3.48682-.11621-.29223-.23584-.58276-.35547-.87353q-.63427-1.53846-1.32959-3.04566c-.05664-.12207-.10888-.24658-.166-.36816-.53516-1.13623-1.10156-2.25488-1.68994-3.35986-.1084-.20313-.22022-.40381-.33008-.606q-.83862-1.541-1.74121-3.04151c-.03369-.0559-.06641-.11279-.1001-.16845-.58935-.04-1.1875-.05-1.81641-.05A30.92438,30.92438,0,0,0,236.25,247.53a10.76455,10.76455,0,0,1-4.12207,1.53345,76.54523,76.54523,0,0,1,8.16455,34.55713,76.98577,76.98577,0,0,1-4.16016,25.05981,75.8667,75.8667,0,0,1-4.00586,9.50562A10.68443,10.68443,0,0,1,236.25,319.71a30.92438,30.92438,0,0,0,15.74023,3.96c.62891,0,1.22754-.01025,1.81739-.0498.02441-.04029.04785-.0813.07226-.12158.60987-1.00391,1.19141-2.02735,1.75586-3.06153.11719-.21557.23682-.42969.352-.64648q.87378-1.6388,1.67237-3.32276c.06738-.14306.1289-.2893.19531-.43286q.68407-1.47436,1.30322-2.98364.18384-.44495.36279-.89209c.457-1.14819.89649-2.30518,1.29834-3.47925a77.52784,77.52784,0,0,0,0-50.10986Z"/><circle cx="187.792" cy="283.621" r="7.5" fill="#fed402"/><circle cx="232.792" cy="283.621" r="7.5" fill="#fed402"/><circle cx="142.792" cy="283.621" r="7.5" fill="#fed402"/><path fill="#e8ad8c" d="M338.37012,461.03v38.45a5.02537,5.02537,0,0,1-5.03028,5.02h-18.27a5.02317,5.02317,0,0,1-5.02-5.02V461.03Z"/><polygon fill="#e19974" points="338.37 461.03 338.37 485.37 310.05 465.09 309.68 464.82 310.05 464.77 335.48 461.03 338.37 461.03"/><path fill="#46cc8d" d="M264.06824,453.2012l58.00064-74.1643a2.71535,2.71535,0,0,1,4.27785,0l58.00064,74.16429a2.71666,2.71666,0,0,1-1.43749,4.29611,224.91692,224.91692,0,0,1-117.41947-.00417A2.71379,2.71379,0,0,1,264.06824,453.2012Z"/><path fill="#00c27a" d="M384.34717,453.20117l-58.00049-74.1643a2.71531,2.71531,0,0,0-4.27783,0l-5.99365,7.66381,43.23379,55.282a7.157,7.157,0,0,1-3.99766,11.374,224.86152,224.86152,0,0,1-91.59649,2.55783,2.66483,2.66483,0,0,0,1.77539,1.57861,224.91557,224.91557,0,0,0,117.41993.00415A2.71654,2.71654,0,0,0,384.34717,453.20117Z"/><path fill="#46cc8d" d="M273.12493,416.83814l49.26537-62.99469a2.3064,2.3064,0,0,1,3.63358,0l49.26536,62.99467a2.30751,2.30751,0,0,1-1.221,3.64909,191.04308,191.04308,0,0,1-99.73534-.00354A2.30507,2.30507,0,0,1,273.12493,416.83814Z"/><path fill="#00c27a" d="M375.28909,416.83812l-49.26516-62.99461a2.30644,2.30644,0,0,0-3.63379,0l-5.41407,6.92309,35.44774,45.32678a6.659,6.659,0,0,1-3.715,10.59235,190.84966,190.84966,0,0,1-75.99352,2.12238,2.27064,2.27064,0,0,0,1.61768,1.67553,191.04451,191.04451,0,0,0,99.75479-.0016A2.30184,2.30184,0,0,0,375.28909,416.83812Z"/><path fill="#46cc8d" d="M284.71367,380.19466l38.08874-48.70334a1.78316,1.78316,0,0,1,2.80925,0l38.08874,48.70333a1.784,1.784,0,0,1-.944,2.82124,147.7021,147.7021,0,0,1-77.10881-.00274A1.78213,1.78213,0,0,1,284.71367,380.19466Z"/><path fill="#00c27a" d="M363.70022,380.19456l-38.0884-48.70335a1.78355,1.78355,0,0,0-2.80957,0l-5.19239,6.63965L341.4374,368.5986a5.95288,5.95288,0,0,1-3.36126,9.48013,147.6224,147.6224,0,0,1-53.289,2.02186l-.07324.094a1.78151,1.78151,0,0,0,.93161,2.81806,147.70034,147.70034,0,0,0,77.1258-.00082A1.779,1.779,0,0,0,363.70022,380.19456Z"/><circle cx="324.207" cy="329.542" r="15.8" fill="#e53950"/><path fill="#ca2e43" d="M332.21,315.93579a15.77553,15.77553,0,0,1-22.29736,20.303,15.78961,15.78961,0,1,0,22.29736-20.303Z"/><path fill="#e53950" d="M504.37988,306.43994a53.18865,53.18865,0,0,1-1.9497,11.24l-2.27,7.92993-6.12989,21.4502-1.69043,5.8999-4.02,14.05005-1.68994,5.8999-16.00976,55.98023a17.29526,17.29526,0,0,1-33.24024-9.57007L446,389.18994l5.68018-19.86987,6.1499-21.48023v-.00976l5.70019-19.91016,5.65967-19.7998a18.74963,18.74963,0,0,0,.21-9.57007v-.01a19.07831,19.07831,0,0,0-8.62988-11.8999,18.79252,18.79252,0,0,0-4.64014-2.04c-.17968-.05-.34961-.1001-.52978-.14014a18.84046,18.84046,0,0,0-7.53028-.3999,19.07373,19.07373,0,0,0-8.10986,3.25,17.77974,17.77974,0,0,0-2.46973,2.0498,18.9671,18.9671,0,0,1-2.86035,2.32007A17.29389,17.29389,0,0,1,420.21,294.02c-12.49023-3.59009-16.81982-19.27-7.73-28.57007a53.69818,53.69818,0,0,1,32.23-15.79c.41016-.05.83008-.08984,1.24024-.12988,1.75-.17017,5.5996-.22,5.75976-.22.62012.01,1.25.02978,1.87988.06006,2.18018.11987,4.37012,15.36987,6.5503,15.77.29.0498.57959.09985.86963.15991,1.54.28979,3.08007-14.34009,4.61035-13.90015.2998.09009.58984.17017.88965.27a53.86412,53.86412,0,0,1,30.43017,23.91992,54.83751,54.83751,0,0,1,3.37988,6.72022A53.27654,53.27654,0,0,1,504.37988,306.43994Z"/><path fill="#ca2e43" d="M500.31982,282.31006a53.79,53.79,0,0,0-33.81-30.64014c-.29981-.09985-.58985-.17993-.88965-.27-2.11084-.63428-3.7583,14.06275-4.61035,13.90015-3.75342-.71655-7.11573-15.90332-7.44-15.92017a61.0566,61.0566,0,0,0-7.61962.15015c-.63624.05737-1.24024.12988-1.24024.12988-.4624.05322-.9209.124-1.38086.189.604.08813,1.208.18188,1.811.29126.29.0498.57959.09985.86963.15991,1.54.28979,3.08007.65991,4.61035,1.09985.2998.09009.58984.17017.88965.27a53.60725,53.60725,0,0,1,35.92041,66.01l-2.27,7.92993-6.12989,21.4502-1.69043,5.8999-4.02,14.05005-1.68994,5.8999-16.00976,55.98023a17.151,17.151,0,0,1-9.08936,10.75488,17.18634,17.18634,0,0,0,24.08936-10.75488l16.00976-55.98023,1.68994-5.8999,4.02-14.05,1.69043-5.8999,6.12989-21.4502,2.27-7.92993a53.35864,53.35864,0,0,0-2.11036-35.36987Z"/><path fill="#685e68" d="M256,55.16113A834.58946,834.58946,0,0,1,5.25,16.64941,7.50006,7.50006,0,0,1,9.752,2.34082,819.61474,819.61474,0,0,0,256,40.16113,819.61474,819.61474,0,0,0,502.24805,2.34082a7.50006,7.50006,0,1,1,4.502,14.30859A834.58946,834.58946,0,0,1,256,55.16113Z"/><polygon fill="#fff" points="460.671 337.894 502.97 315.654 491.178 357.029 448.828 379.296 460.671 337.894"/><path fill="#dde8ef" d="M491.74268,355.04785l11.03857-38.73193c.05566-.2168.11426-.4336.167-.65039l-17.58886,9.2478-.19922.69653-6.12989,21.4502-1.69043,5.8999-3.8208,13.354,17.65625-9.28344Z"/><path fill="#fff" d="M496.93994,275.6001v.00976l-11.83008,6.22022L466.28027,291.73a19.15509,19.15509,0,0,0-5.51025-5.08984,18.79252,18.79252,0,0,0-4.64014-2.04c-.17968-.05-.34961-.1001-.52978-.14014a18.84046,18.84046,0,0,0-7.53028-.3999L451.25,264.03,453.12012,252.2c.02-.1499.0498-.3.06982-.43994l.37988-2.38013c.01026,0,.01026-.00976.02-.00976a52.14092,52.14092,0,0,1,6.5503.77.74485.74485,0,0,0,.17968.02978l.12012.03c.1001.02.24024.04.56983.1001,1.54.28979,3.08007.65991,4.61035,1.09985.2998.09009.58984.17017.88965.27a53.76463,53.76463,0,0,1,30.43017,23.93018Z"/><path fill="#dde8ef" d="M496.93994,275.6001v.00976l-11.83008,6.22022A53.71028,53.71028,0,0,0,453.12012,252.2c.02-.1499.0498-.3.06982-.43994.14014-.8.26026-1.6001.3999-2.38989a52.14092,52.14092,0,0,1,6.5503.77.74485.74485,0,0,0,.17968.02978c.04.01.07032.02.12012.03.1001.02.24024.04.56983.1001,1.54.28979,3.08007.65991,4.61035,1.09985.2998.09009.58984.17017.88965.27a53.76463,53.76463,0,0,1,30.43017,23.93018Z"/><path fill="#282828" d="M503.57229,272.11426a7.56434,7.56434,0,0,0-.40088-.67383,61.01515,61.01515,0,0,0-35.4751-27.251c-.32715-.09375-.65674-.165-.98438-.25293V28.13379q20.13135-5.24781,40.03614-11.48828a7.50006,7.50006,0,0,0-4.502-14.3086Q479.97317,9.344,457.395,15.061l-.02393.00439A822.96681,822.96681,0,0,1,323.84426,37.34668c-.23779.01953-.4751.03809-.71289.05762q-3.73169.30615-7.46924.57812-.56616.041-1.13281.08106-3.59179.25635-7.188.48144-.58374.03663-1.16748.07227-3.668.22411-7.34033.41552-.44972.02345-.89942.04737-3.91406.19922-7.832.3623c-.12549.00489-.25049.01074-.376.01563-22.45605.91992-44.98974.91992-67.4458.00049-.13769-.00538-.2749-.01172-.41259-.01758q-3.89722-.16113-7.791-.36035-.47022-.02418-.94043-.04932-3.64893-.18969-7.29346-.4126-.60717-.03735-1.21386-.07519-3.56836-.2234-7.13282-.478-.594-.04248-1.188-.085-3.70386-.26953-7.40235-.57276c-.25586-.021-.51172-.041-.76758-.0625A822.782,822.782,0,0,1,54.625,15.06543l-.02393-.00439Q32.03005,9.34375,9.75,2.33691a7.50006,7.50006,0,0,0-4.50195,14.3086Q25.14358,22.90478,45.2842,28.13379V341.82422a11.55837,11.55837,0,0,0-2.831,3.6543L33.378,363.86719l-20.292,2.94922a11.51962,11.51962,0,0,0-6.38574,19.64941l14.68457,14.31445L17.917,420.99219a11.52109,11.52109,0,0,0,16.7168,12.14355l18.15039-9.543,18.15137,9.543a11.52,11.52,0,0,0,16.71484-12.14453l-3.4668-20.21094,14.6836-14.31347a11.51977,11.51977,0,0,0-6.38379-19.65039l-20.293-2.94922-9.07519-18.38867a11.55854,11.55854,0,0,0-2.83106-3.6543V53.34473c12.24463,22.81933,25.65088,45.3291,40.06055,67.20215a7.50032,7.50032,0,0,0,10.85058,1.80761A846.03121,846.03121,0,0,0,180.291,62.68311V174.81348H174.336A17.85756,17.85756,0,0,0,156.499,192.65039V204.9502a84.68583,84.68583,0,0,0,51.68262,160.876,7.49968,7.49968,0,0,0-3.60156-14.56055,69.72,69.72,0,0,1-68.63526-21.15039c.1792.00391.35254.01368.53663.01368a19.86975,19.86975,0,0,0,13.07421-4.752c1.78711-1.35156,2.26758-1.71484,4.0254-1.71484,1.75976,0,2.24023.36328,4.02832,1.71582a20.36495,20.36495,0,0,0,26.14843,0c1.78809-1.35254,2.26856-1.71582,4.02832-1.71582,1.75879,0,2.23926.36328,4.02735,1.71484a20.36442,20.36442,0,0,0,26.15039,0c1.78808-1.35156,2.26855-1.71484,4.02734-1.71484,1.75977,0,2.24121.36328,4.0293,1.71582a19.87822,19.87822,0,0,0,13.07519,4.751c.1958,0,.38037-.01075.57129-.01465a69.57014,69.57014,0,0,1-11.35058,10.19629,7.50025,7.50025,0,1,0,8.73437,12.19531A84.6701,84.6701,0,0,0,219.08205,204.9502V192.65039a17.85756,17.85756,0,0,0-17.83691-17.83691H195.291V67.74121a858.037,858.037,0,0,0,55.19824,66.126,7.50069,7.50069,0,0,0,11.01758,0,857.85463,857.85463,0,0,0,55.19824-66.126V307.4834a23.27411,23.27411,0,0,0-11.93652,34.88281l-25.99707,33.23633a9.28547,9.28547,0,0,0,4.915,14.6416c.19678.05371.39551.09766.59278.15039l-17.06446,21.82031a9.805,9.805,0,0,0,5.15821,15.50489c.58105.15722,1.168.291,1.75049.44238l-15.96534,20.415a10.21443,10.21443,0,0,0,5.37305,16.15234,232.5336,232.5336,0,0,0,39.0166,7.04v27.70606a12.53409,12.53409,0,0,0,12.52051,12.5205h18.26953a12.5393,12.5393,0,0,0,12.53027-12.5205v-27.708a232.61128,232.61128,0,0,0,38.99708-7.03418,10.21713,10.21713,0,0,0,5.38867-16.15625l-15.96582-20.41406c.57812-.15137,1.15966-.28321,1.73632-.43946a9.8081,9.8081,0,0,0,5.1709-15.50976l-17.05859-21.8125c.20557-.05469.4126-.10059.61816-.15625a9.29247,9.29247,0,0,0,4.85157-14.67969L343.64406,342.3623a23.27391,23.27391,0,0,0-11.939-34.8789V62.7207c8.543,8.22559,17.30127,16.32227,26.19336,24.17578a7.49976,7.49976,0,1,0,9.92969-11.24218c-9.12745-8.061-18.123-16.374-26.87061-24.82666A833.86393,833.86393,0,0,0,445.23977,33.45215c-12.56934,24.43164-26.5376,48.57715-41.67237,72.03027-5.14453-4.05762-10.25586-8.18554-15.26172-12.32617a7.50008,7.50008,0,1,0-9.56054,11.55859c7.207,5.96192,14.62793,11.89649,22.05566,17.63965a7.49932,7.49932,0,0,0,10.85059-1.80761c14.40967-21.87305,27.81592-44.38282,40.06054-67.20215V241.832a61.03348,61.03348,0,0,0-44.5996,18.374,24.3473,24.3473,0,0,0-6.14942,23.43946,24.68822,24.68822,0,0,0,17.17285,17.57812v.001a25.22284,25.22284,0,0,0,24.626-6.53516,11.53936,11.53936,0,0,1,19.21484,11.35938L430.166,417.25293a24.804,24.804,0,0,0,35.8789,28.51758,24.559,24.559,0,0,0,11.78614-14.82422L509.6426,319.74121c.17334-.60547.31689-1.21191.4707-1.81836a7.61365,7.61365,0,0,0,.20557-.7959,60.89142,60.89142,0,0,0-6.72559-44.96777C503.58547,272.14453,503.5801,272.12891,503.57229,272.11426ZM68.22365,378.44824l15.125,2.19824-10.94336,10.668a11.51429,11.51429,0,0,0-3.31445,10.19727l2.584,15.0664-13.5293-7.11328a11.52091,11.52091,0,0,0-10.72266,0l-13.52929,7.11328,2.584-15.0664a11.5129,11.5129,0,0,0-3.3125-10.19531L22.21975,380.64648l15.126-2.19824a11.5215,11.5215,0,0,0,8.67383-6.30176l6.76465-13.707,6.76563,13.709A11.52042,11.52042,0,0,0,68.22365,378.44824Zm40.20508-272.96582C93.294,82.0293,79.3257,57.88379,66.75637,33.45215A833.86408,833.86408,0,0,0,171.03859,50.82764,830.74266,830.74266,0,0,1,108.42873,105.48242ZM252.69094,258.2959a69.34789,69.34789,0,0,1-.01123,50.64355,20.427,20.427,0,0,0-9.55469,4.47364c-1.78809,1.35253-2.26953,1.71582-4.0293,1.71582s-2.24023-.36329-4.02832-1.71582a20.36764,20.36764,0,0,0-26.15039,0c-1.78808,1.35253-2.26855,1.71582-4.02832,1.71582s-2.24023-.36329-4.02832-1.71582a20.3647,20.3647,0,0,0-26.14941.001c-1.78809,1.35156-2.26856,1.71485-4.02735,1.71485s-2.23925-.36329-4.02734-1.71485a20.36311,20.36311,0,0,0-26.14941,0c-1.78711,1.35156-2.26758,1.71485-4.02539,1.71485-1.75879,0-2.23926-.36329-4.02637-1.71485a20.41215,20.41215,0,0,0-9.56445-4.47558,69.41766,69.41766,0,0,1-.00049-50.64258,20.42114,20.42114,0,0,0,9.56494-4.47656c1.78906-1.35254,2.26953-1.71582,4.0293-1.71582s2.24023.36328,4.02929,1.71582a20.3658,20.3658,0,0,0,26.15137,0c1.78809-1.35254,2.26855-1.71582,4.02734-1.71582s2.23926.36328,4.02637,1.71582a20.3658,20.3658,0,0,0,26.15137,0c1.78808-1.35254,2.26855-1.71582,4.02734-1.71582s2.23926.36328,4.02637,1.71582a20.36311,20.36311,0,0,0,26.14941,0c1.78711-1.35254,2.26758-1.71582,4.02637-1.71582s2.23926.36328,4.02637,1.71582A20.43053,20.43053,0,0,0,252.69094,258.2959Zm-13.05469-21.17871c-.17969-.00391-.35254-.01367-.53662-.01367a19.87037,19.87037,0,0,0-13.0752,4.75293c-1.7871,1.35156-2.26757,1.71484-4.02539,1.71484-1.75878,0-2.23925-.36328-4.02636-1.71582a20.3658,20.3658,0,0,0-26.15137,0c-1.78711,1.35254-2.26758,1.71582-4.02637,1.71582s-2.23926-.36328-4.02734-1.71582a20.3658,20.3658,0,0,0-26.15137,0c-1.78711,1.35254-2.26758,1.71582-4.02637,1.71582-1.75976,0-2.24023-.36328-4.02929-1.71582a19.87368,19.87368,0,0,0-13.07617-4.75195c-.18506,0-.35938.00976-.53956.01464a69.56041,69.56041,0,0,1,103.69141-.001Zm-38.39111-47.30371a2.8399,2.8399,0,0,1,2.83691,2.83691v7.87109a84.31756,84.31756,0,0,0-32.583,0v-7.87109a2.83991,2.83991,0,0,1,2.83692-2.83691ZM255.99807,117.668c-18.70117-20.63281-36.35547-42.14551-52.669-64.17383.126.00781.252.0127.37793.021q12.84669.80346,25.731,1.21289c.10742.00342.21484.00732.32275.01074q6.45264.20215,12.91309.3042.17358.00293.34668.00488,6.48559.10035,12.97754.10938,6.50463,0,13.00195-.10938c.10352-.00195.20654-.00293.30957-.00488q6.47974-.10254,12.95166-.30469c.08692-.00293.17383-.00635.26026-.00879q12.90161-.40869,25.76855-1.21484c.12549-.00781.25146-.0127.377-.02051C292.35354,75.52246,274.69924,97.03516,255.99807,117.668Zm74.87011,379.32812H317.54787V472.6875c2.21729.06348,4.43653.10156,6.65625.10156.2793,0,.5625-.001.84278-.002,1.9414-.00684,3.88183-.0459,5.82128-.10156Zm-5.876-39.209q-.394.00147-.78906.002A217.45217,217.45217,0,0,1,274.5,452.03027l15.90723-20.34082a198.60234,198.60234,0,0,0,33.7998,2.915c.23828,0,.47852,0,.7168-.001a198.5616,198.5616,0,0,0,33.082-2.91114l15.90527,20.33789A217.58957,217.58957,0,0,1,324.99221,457.78711Zm39.44824-42.64746a183.64869,183.64869,0,0,1-39.57129,4.46387c-.2207.001-.44043.001-.66211.001a183.5902,183.5902,0,0,1-40.2373-4.46484l16.67871-21.32715a155.08575,155.08575,0,0,0,23.53125,1.81445q.29149,0,.583-.001a155.01769,155.01769,0,0,0,22.999-1.81348Zm-12.13672-37.35059A140.13306,140.13306,0,0,1,324.71,380.626a136.9682,136.9682,0,0,1-28.60254-2.84082l20.51123-26.22364a23.20276,23.20276,0,0,0,15.17627-.001Zm-19.79883-48.252a8.29981,8.29981,0,1,1-8.2998-8.29883A8.30966,8.30966,0,0,1,332.5049,329.53711Zm108.91162-51.43066a26.50643,26.50643,0,0,0-9.20751,5.92187,10.06922,10.06922,0,0,1-9.92481,2.78027,9.81318,9.81318,0,0,1-6.81836-6.99218,9.3508,9.3508,0,0,1,2.37109-9.12305,46.07934,46.07934,0,0,1,26.895-13.48145Zm16.7837-.72168c-.47266-.13575-.94873-.24707-1.42481-.35645l3.064-19.31055c1.24072.249,2.47851.53223,3.70849.88575A45.98381,45.98381,0,0,1,485.85061,272.958l-18.0625,9.49609A26.407,26.407,0,0,0,458.20022,277.38477Zm5.209,149.43652a9.74658,9.74658,0,0,1-12.085,6.66894,9.82015,9.82015,0,0,1-6.73633-12.11132l10.5669-36.94043,23.98632-12.61133Zm21.438-74.94238-23.98633,12.61132,6.13721-21.4541L490.9844,330.4248Zm11.49316-41.21778-23.63623,12.42676,3.69434-12.91406a26.32477,26.32477,0,0,0-.20313-15.19238l17.44532-9.17188A45.81188,45.81188,0,0,1,496.34035,310.66113Zm-263.5498-34.54492a7.5,7.5,0,1,0,7.5,7.5A7.50037,7.50037,0,0,0,232.79055,276.11621Zm-45,0a7.5,7.5,0,1,0,7.5,7.5A7.50037,7.50037,0,0,0,187.79055,276.11621Zm-45,0a7.5,7.5,0,1,0,7.5,7.5A7.50037,7.50037,0,0,0,142.79055,276.11621Z"/></svg>