<svg xmlns="http://www.w3.org/2000/svg" data-name="Layer 1" viewBox="0 0 512 512"><path fill="#e53950" d="M71.25054,71.90991A17.625,17.625,0,0,0,82.48052,57.98a19.52606,19.52606,0,0,1,.79-3.12,18.88548,18.88548,0,0,1,4.66-7.38,18.628,18.628,0,0,1,6.32-4.11c.17-.06995.34-.14.51-.20008a18.6318,18.6318,0,0,1,4.45-1.02991,19.0124,19.0124,0,0,1,19.94,12.37l7.06,19.36,7.11,19.48,7.65,20.97009,7.12006,19.5,10.71,29.34985a17.29907,17.29907,0,0,0,32.52-11.80993l-22.06-60.47-7.01-19.21008-7.76-21.24v-.01l-2.82-7.73a53.36729,53.36729,0,0,0-22.52-27.36,51.29424,51.29424,0,0,0-6.67-3.44007,54.15037,54.15037,0,0,0-7.12-2.5,53.49821,53.49821,0,0,0-32.44,1.33008c-1.5.55005-2.96,1.15-4.38,1.82007a53.17808,53.17808,0,0,0-6.55,3.61987v.01a50.25635,50.25635,0,0,0-6.08,4.6001,53.67191,53.67191,0,0,0-17.71,32.57C46.31054,66.2,59.03057,76.34,71.25054,71.90991Z"/><path fill="#fff" d="M71.99053,16.16992v.01L87.93053,47.48a18.628,18.628,0,0,1,6.32-4.11c.17-.06995.34-.14.51-.20008a18.6318,18.6318,0,0,1,4.45-1.02991,19.04114,19.04114,0,0,1,7.96.82q7.65006-15.54,15.31-31.06006a54.15037,54.15037,0,0,0-7.12-2.5,53.49821,53.49821,0,0,0-32.44,1.33008c-1.5.55005-2.96,1.15-4.38,1.82007A53.17808,53.17808,0,0,0,71.99053,16.16992Z"/><polygon fill="#fff" points="150.91 40.748 129.771 83.607 144.534 124.061 165.699 81.149 150.91 40.748"/><path fill="#e53950" d="M348.75,71.90991A17.625,17.625,0,0,1,337.52,57.98a19.52606,19.52606,0,0,0-.79-3.12,18.88548,18.88548,0,0,0-4.66-7.38,18.628,18.628,0,0,0-6.32-4.11c-.17-.06995-.34-.14-.51-.20008A18.6318,18.6318,0,0,0,320.79,42.14a19.0124,19.0124,0,0,0-19.94,12.37l-7.06,19.36-7.11,19.48-7.65,20.97009-7.12006,19.5L261.2,163.16992A17.29907,17.29907,0,0,1,228.68,151.36l22.06-60.47,7.01-19.21008,7.76-21.24v-.01l2.82-7.73a53.36729,53.36729,0,0,1,22.52-27.36,51.29424,51.29424,0,0,1,6.67-3.44007,54.15074,54.15074,0,0,1,7.12-2.5A53.49824,53.49824,0,0,1,337.08,10.73c1.5.55005,2.96,1.15,4.38,1.82007a53.17808,53.17808,0,0,1,6.55,3.61987v.01a50.25635,50.25635,0,0,1,6.08,4.6001A53.67191,53.67191,0,0,1,371.8,53.35C373.69,66.2,360.97,76.34,348.75,71.90991Z"/><path fill="#fff" d="M348.01,16.16992v.01L332.07,47.48a18.628,18.628,0,0,0-6.32-4.11c-.17-.06995-.34-.14-.51-.20008A18.6318,18.6318,0,0,0,320.79,42.14a19.04114,19.04114,0,0,0-7.96.82Q305.18,27.42,297.52,11.8999a54.15074,54.15074,0,0,1,7.12-2.5A53.49824,53.49824,0,0,1,337.08,10.73c1.5.55005,2.96,1.15,4.38,1.82007A53.17808,53.17808,0,0,1,348.01,16.16992Z"/><path fill="#ca2e43" d="M275.916,199.4917a7.5,7.5,0,0,1-5.251-12.856,119.894,119.894,0,0,1,73.61328-34.106,7.50015,7.50015,0,1,1,1.33887,14.94042A104.887,104.887,0,0,0,281.166,197.34766,7.47737,7.47737,0,0,1,275.916,199.4917Z"/><path fill="#ca2e43" d="M363.293,215.48877a7.46158,7.46158,0,0,1-3.84717-1.06738,117.09459,117.09459,0,0,0-79.937-15.03223,7.50014,7.50014,0,1,1-2.47363-14.79492,132.09149,132.09149,0,0,1,90.11963,16.96,7.5007,7.5007,0,0,1-3.86182,13.93457Z"/><path fill="#e53950" d="M393.94,503.6499c-.11.02-.21.04-.32.05a3.68856,3.68856,0,0,1-.46.08008,16.14217,16.14217,0,0,1-2.42.17993H23.51A15.98866,15.98866,0,0,1,8.83,481.62988L14.27,469.03a317.1855,317.1855,0,0,0,12.06-32.78,318.42691,318.42691,0,0,0,14.02-92.69995A166.813,166.813,0,0,1,250.1795,182.83191l-.03949-.03186c1.11.29993,2.22.59985,3.32.91992q4.965,1.40991,9.79,3.16a161.7953,161.7953,0,0,1,18.73,8.0199c3.02,1.51,6,3.12012,8.91,4.82007.97.57007,1.93,1.14,2.89,1.73.96.58008,1.91,1.17005,2.86,1.78.94.6,1.88,1.21,2.81,1.83008,2.77,1.82995,5.47,3.76,8.12,5.76a1.33705,1.33705,0,0,0,.19.13989c.73.56006,1.46,1.12,2.19,1.68994.17.14014.33.27.49.39014q1.26.98986,2.49,2.01c.05.03992.09.07.14.10986q1.23,1.00508,2.43,2.04c.85.73,1.69,1.46,2.52,2.2q3.54,3.15015,6.88995,6.49011c.14.14.28.27991.41.42005.79.78992,1.57,1.58984,2.34,2.38989.01.02.03.03.04.04.76.8,1.51,1.6,2.25,2.40991q2.27994,2.46021,4.44,5.02c.72.8501,1.43,1.71008,2.14,2.58008.55.67993,1.1,1.37,1.65,2.06006.88,1.12988,1.76,2.26,2.62,3.40991q1.95,2.595,3.78,5.27c.61.89,1.21,1.78,1.81,2.67993a.87179.87179,0,0,0,.06.1001q.87,1.31982,1.71,2.63989c.13.21009.27.43006.4.64014q2.535,4.04992,4.85,8.26c.54.99,1.07,1.98,1.59,2.98,1.05,1.99,2.06,4.02,3.02,6.05994.48,1.02.95,2.04992,1.41,3.07995.42.94007.84,1.88013,1.24,2.83008.07.16992.14.34.21.5.41.97.81,1.95,1.2,2.92993q.63,1.59009,1.23,3.18006c.36.95007.71,1.91,1.05,2.87l.21.6c.35.99.68,1.99,1.01,2.9801.34,1.03992.68,2.08984,1,3.12988a2.76554,2.76554,0,0,1,.07995.27c.32,1.06006.63,2.11.93006,3.17.3,1.04993.59,2.1.86,3.15.04.12988.08.27.11.40991.25.97.49,1.94006.73,2.91.03.14.07.28991.1.43.19.82.38,1.63989.56,2.47.09.38.18.77.25,1.15991.22.97009.42,1.96008.61,2.94007.22,1.14.43,2.28991.63,3.43.2,1.1499.39,2.29993.56,3.46.18,1.15991.34,2.31006.49,3.48.16,1.16.3,2.33008.42,3.5.11005.96.2,1.92993.29,2.9a.48591.48591,0,0,1,.01.12c.04.41992.08.85.11,1.27q.24,2.86487.38,5.76c.02.33.03.65991.04.99.06,1.18994.1,2.37988.12,3.58.02,1.05993.04,2.13.04,3.20007a319.09227,319.09227,0,0,0,26.09,125.48l5.44,12.59985A16.005,16.005,0,0,1,393.94,503.6499Z"/><path fill="#ca2e43" d="M275.91547,191.99176a198.79633,198.79633,0,0,1-137.57563,0q-13.70391-21.75563-27.40781-43.51127a6.39839,6.39839,0,0,1,5.41385-9.80859H297.90952a6.39839,6.39839,0,0,1,5.41387,9.80859Z"/><path fill="#fed402" d="M251.46,374.27a7.18,7.18,0,0,0-2.06,6.35l6.74,39.27A7.17412,7.17412,0,0,1,245.73,427.45l-35.27-18.54a7.15418,7.15418,0,0,0-6.67,0l-35.26,18.54A7.17237,7.17237,0,0,1,158.12,419.89l2.15-12.53,4.59-26.74a7.214,7.214,0,0,0-2.07-6.35L134.26,346.46a7.17478,7.17478,0,0,1,3.98-12.23l39.43-5.73a7.14773,7.14773,0,0,0,5.39-3.92l17.64-35.73a7.17011,7.17011,0,0,1,12.86,0l17.63,35.73a7.12016,7.12016,0,0,0,4.35,3.68,6.16045,6.16045,0,0,0,1.05.24l39.43,5.73a7.16945,7.16945,0,0,1,3.97,12.23Z"/><path fill="#fac600" d="M251.46,374.27a7.18,7.18,0,0,0-2.06,6.35l6.74,39.27A7.17412,7.17412,0,0,1,245.73,427.45l-35.27-18.54a7.15418,7.15418,0,0,0-6.67,0l-35.26,18.54A7.17237,7.17237,0,0,1,158.12,419.89l2.15-12.53c12.42-2.87,33.03-10.01,50.4-28.42005C225.85,362.86,232.71,344.38,235.54,328.26a6.16045,6.16045,0,0,0,1.05.24l39.43,5.73a7.16945,7.16945,0,0,1,3.97,12.23Z"/><path fill="#ca2e43" d="M477.94,389.18994v97.77a16.68994,16.68994,0,0,1-16.68994,16.68994H393.94c-.11.02-.21.04-.32.05a3.68856,3.68856,0,0,1-.46.08008,16.14217,16.14217,0,0,1-2.42.17993H23.51A15.99042,15.99042,0,0,1,8.82945,481.63119L14.27,469.03a317.1855,317.1855,0,0,0,12.06-32.78c35.45,40.2,119.99,46.25,129.86,46.96,42.42733,3.03993,79.741-5.61561,109.32683-17.00282A82.48152,82.48152,0,0,0,318.27,389.19v-.00005h4.88a318.15161,318.15161,0,0,1-6.92-37.49,313.189,313.189,0,0,1-2.33-38.1499,166.47083,166.47083,0,0,0-63.76-130.75c1.11.29993,2.22.59985,3.32.91992q4.965,1.42493,9.79,3.16a166.12282,166.12282,0,0,1,18.73,8.0199q4.53,2.28,8.91,4.82007c.97.57007,1.93,1.14,2.89,1.73.96.58008,1.91,1.17005,2.86,1.78.94.6,1.88,1.21,2.81,1.83008q4.15494,2.75976,8.12,5.76a1.33705,1.33705,0,0,0,.19.13989c.73.56006,1.46,1.12,2.19,1.68994.17.14014.33.27.49.39014q1.26.98986,2.49,2.01c.05.03992.09.07.14.10986q1.23,1.00508,2.43,2.04c.85.73,1.69,1.46,2.52,2.2q3.75,3.34515,7.3,6.91016c.79.78992,1.57,1.58984,2.34,2.38989.01.02.03.03.04.04.76.8,1.51,1.6,2.25,2.40991,1.51,1.64014,2.99,3.32007,4.44,5.02.72.8501,1.43,1.71008,2.14,2.58008.55.67993,1.1,1.37,1.65,2.06006.88,1.12988,1.76,2.26,2.62,3.40991q1.93506,2.595,3.78,5.27c.61.89,1.21,1.78,1.81,2.67993a.87179.87179,0,0,0,.06.1001q.87,1.31982,1.71,2.63989c.13.21009.27.43006.4.64014q2.535,4.04992,4.85,8.26c.54.99,1.07,1.98,1.59,2.98,1.05,1.99,2.05,4.01,3.02,6.05994.48,1.02.95,2.04992,1.41,3.07995.42.94007.84,1.88013,1.24,2.83008.07.16992.14.34.21.5.41.97.81,1.95,1.2,2.92993q.63,1.59009,1.23,3.18006c.36.95007.71,1.91,1.05,2.87l.21.6c.35.99.68,1.99,1.01,2.9801.34,1.03992.68,2.08984,1,3.12988a2.76554,2.76554,0,0,1,.07995.27c.32,1.06006.63,2.11.93006,3.17.3,1.04993.59,2.1.86,3.15.04.12988.08.27.11.40991.25.97.49,1.94006.73,2.91.03.14.07.28991.1.43.19.82.38,1.63989.56,2.47.09.38.18.77.25,1.15991.22.97009.42,1.96008.61,2.94007.22,1.14.43,2.28991.63,3.43.2,1.1499.39,2.29993.56,3.46.18,1.15991.34,2.31006.49,3.48.16,1.16.3,2.33008.42,3.5.11005.96.2,1.92993.29,2.9a.48591.48591,0,0,1,.01.12c.04.41992.08.85.11,1.27q.24,2.86487.38,5.76c.02.33.03.65991.04.99.06,1.18994.1,2.37988.12,3.58.02,1.05993.04,2.13.04,3.20007a314.73258,314.73258,0,0,0,3.35,45.63989Z"/><path fill="#ca2e43" d="M483.33594,389.1851H312.87624a6.15643,6.15643,0,0,1-6.16406-6.14877V349.21808a6.15643,6.15643,0,0,1,6.16406-6.14877h170.4597A6.15643,6.15643,0,0,1,489.5,349.21808v33.81825A6.15643,6.15643,0,0,1,483.33594,389.1851Z"/><path fill="#fed402" d="M492.94,389.18994v97.77a16.687,16.687,0,0,1-16.69,16.68994H349.96A16.68692,16.68692,0,0,1,333.27,486.96v-97.77Z"/><path fill="#fac600" d="M333.27,389.18994v15H440.74331A22.19669,22.19669,0,0,1,462.94,426.38663V486.96a16.687,16.687,0,0,1-16.69,16.68994h30a16.69,16.69,0,0,0,16.69-16.69v-97.77Z"/><path fill="#fed402" d="M498.33594,389.1851H327.87624a6.15643,6.15643,0,0,1-6.16406-6.14877V349.21808a6.15643,6.15643,0,0,1,6.16406-6.14877h170.4597A6.15643,6.15643,0,0,1,504.5,349.21808v33.81825A6.15643,6.15643,0,0,1,498.33594,389.1851Z"/><path fill="#fac600" d="M498.33594,343.06934h-15A6.15645,6.15645,0,0,1,489.5,349.218v33.81836a6.15645,6.15645,0,0,1-6.16406,6.14868h15A6.15645,6.15645,0,0,0,504.5,383.03638V349.218A6.15645,6.15645,0,0,0,498.33594,343.06934Z"/><polygon fill="#fff" points="269.09 40.748 290.229 83.607 275.467 124.061 254.302 81.149 269.09 40.748"/><path fill="#282828" d="M498.334,335.56543H465.48946a32.40761,32.40761,0,0,0-27.32782-49.86719h-.124a32.37687,32.37687,0,0,0-24.93347,11.71729,32.3762,32.3762,0,0,0-24.93323-11.71729h-.124a32.22805,32.22805,0,0,0-15.32294,3.85694,175.53928,175.53928,0,0,0-58.13849-82.812q-6.07718-4.76513-12.55237-8.96972A116.76031,116.76031,0,0,1,359.44387,214.417a7.49988,7.49988,0,0,0,7.709-12.86719,131.83164,131.83164,0,0,0-67.39758-18.81054,104.502,104.502,0,0,1,45.8595-15.27344,7.49962,7.49962,0,1,0-1.33789-14.93945,119.96705,119.96705,0,0,0-31.93848,7.33593q-5.16055,1.96143-10.0849,4.38135l7.41351-11.769A13.89845,13.89845,0,0,0,297.90774,131.168H280.849l1.68805-4.62451c.01221-.03467.02618-.06885.0379-.104l25.31915-69.36328a11.54271,11.54271,0,0,1,22.22071,2.09961A25.22013,25.22013,0,0,0,346.19729,78.959a24.78069,24.78069,0,0,0,27.34082-7.166,24.429,24.429,0,0,0,5.68066-19.5332A61.01073,61.01073,0,0,0,352.10506,9.894l-.05-.03222a61.07915,61.07915,0,0,0-57.124-5.00391,7.651,7.651,0,0,0-.73474.314c-.02.00976-.03778.022-.05756.03222a60.89479,60.89479,0,0,0-31.8739,32.4292,7.5364,7.5364,0,0,0-.28711.72852c-.23456.58593-.47711,1.1665-.695,1.76318l-33.22223,91.043H191.93563L158.71731,40.13574c-.28321-.78027-.58008-1.5498-.86768-2.22949-.02338-.05713-.05054-.1123-.0741-.16943-.01733-.03955-.034-.07959-.052-.11866a61.179,61.179,0,0,0-89.75836-27.77c-.03082.01954-.06183.03907-.09229.05909a61.05682,61.05682,0,0,0-27.095,42.34863A24.43135,24.43135,0,0,0,46.458,71.793,24.78085,24.78085,0,0,0,73.815,78.95312,25.20867,25.20867,0,0,0,89.87942,59.1875a11.62254,11.62254,0,0,1,3.30517-6.3623c.0625-.06153.12354-.123.18359-.18653a11.28261,11.28261,0,0,1,3.95362-2.4248,11.55363,11.55363,0,0,1,14.78076,6.86328L139.13814,131.168H116.34377A13.89833,13.89833,0,0,0,104.584,152.47363l22.94012,36.41748a174.428,174.428,0,0,0-94.676,154.63721A309.36664,309.36664,0,0,1,7.38234,466.05371L1.94289,478.65234a23.48839,23.48839,0,0,0,21.56494,32.80371H360.03811a7.489,7.489,0,0,0,2.11535-.30761H476.24611a24.22172,24.22172,0,0,0,24.19434-24.19434V396.50146a13.66324,13.66324,0,0,0,11.55762-13.46923V349.21387A13.67211,13.67211,0,0,0,498.334,335.56543ZM350.55434,27.71143a46.06117,46.06117,0,0,1,13.82312,26.72412A9.3175,9.3175,0,0,1,362.187,61.9873,9.89914,9.89914,0,0,1,351.315,64.85938a10.08719,10.08719,0,0,1-6.39648-8.10254,26.53315,26.53315,0,0,0-3.97022-10.1875Zm-16.03576-9.936c1.202.43652,2.369.93457,3.51776,1.46191l-8.87616,17.4253c-.44684-.19092-.896-.37744-1.356-.54444a26.3869,26.3869,0,0,0-10.74359-1.54394l-9.02606-18.30029A45.98937,45.98937,0,0,1,334.51858,17.77539Zm-259.44385,39a10.07269,10.07269,0,0,1-6.37744,8.07813A9.8656,9.8656,0,0,1,57.8091,61.9873a9.31977,9.31977,0,0,1-2.19043-7.55371A46.12884,46.12884,0,0,1,69.446,27.71973l9.60962,18.86474A26.66941,26.66941,0,0,0,75.07473,56.77539Zm27.86584-22.21191a26.28924,26.28924,0,0,0-10.72278,1.5459q-.70348.25341-1.38623.54443L81.9601,19.23828c1.15412-.53076,2.32251-1.03027,3.517-1.46289A45.9769,45.9769,0,0,1,111.957,16.2832ZM294.17733,22.08936l8.71765,17.6748a26.32765,26.32765,0,0,0-9.09222,12.17041l-4.6073,12.62207L277.38119,40.603A45.81557,45.81557,0,0,1,294.17733,22.08936ZM270.0934,59.73828l11.98847,24.30664-7.65088,20.96L262.44387,80.70117Zm-14.7619,40.45361,11.9859,24.30127-2.43646,6.67481H244.028Zm-90.66681-.00048L175.96822,131.168H155.10567l-2.43194-6.66455ZM126.19338,51.93457a26.31873,26.31873,0,0,0-9.088-12.17871l8.71539-17.67041a45.592,45.592,0,0,1,16.78766,18.53076L130.79976,64.55859ZM137.912,84.04932l11.9909-24.31153,7.64948,20.96289-11.99091,24.31153ZM325.76809,396.50146V486.9541a24.05645,24.05645,0,0,0,1.94659,9.502H23.50783a8.48822,8.48822,0,0,1-7.79394-11.85742l5.44043-12.60058A324.28539,324.28539,0,0,0,47.84817,343.56348a159.42539,159.42539,0,0,1,90.87255-143.479,205.60451,205.60451,0,0,0,68.39258,11.68408c.47363,0,.94971-.00195,1.42383-.00488a206.90657,206.90657,0,0,0,25.76025-1.79492,7.5,7.5,0,0,0-1.97754-14.86914,191.85717,191.85717,0,0,1-23.88525,1.66406,190.79389,190.79389,0,0,1-65.12451-10.9541L118.33986,146.168H295.91164l-24.97021,39.64062c-3.95606,1.39844-7.98926,2.67774-12.022,3.81153a7.49963,7.49963,0,1,0,4.05957,14.43945c4.202-1.18066,8.401-2.51416,12.52942-3.96338a159.39473,159.39473,0,0,1,85.02271,100.895,32.32562,32.32562,0,0,0,.18793,34.57422H327.87453a13.6721,13.6721,0,0,0-13.66406,13.64844v33.81836A13.66324,13.66324,0,0,0,325.76809,396.50146Zm79.83593,99.647h-55.6416a9.205,9.205,0,0,1-9.19433-9.19434V396.68066H405.604Zm0-114.46778H329.21047V350.56543H405.604Zm0-46.11523H388.0469a17.4336,17.4336,0,0,1,0-34.86719h.124a17.45276,17.45276,0,0,1,17.4331,17.4336Zm15-17.43359a17.45319,17.45319,0,0,1,17.4336-17.4336h.124a17.4336,17.4336,0,0,1,0,34.86719H420.604Zm76.394,63.54882H473.7466a7.5,7.5,0,1,0,0,15h11.69385V486.9541a9.205,9.205,0,0,1-9.19434,9.19434H420.604V396.68066H443.7466a7.5,7.5,0,0,0,0-15H420.604V350.56543h76.394Zm-219.90332-54.874-39.25684-5.70508L220.28176,285.5293a14.67128,14.67128,0,0,0-26.312,0l-17.55616,35.57226-39.25634,5.70508a14.67124,14.67124,0,0,0-8.13184,25.02441l28.40674,27.68946-6.70557,39.09863A14.67118,14.67118,0,0,0,172.01369,434.085l35.11182-18.46,35.11279,18.46a14.67141,14.67141,0,0,0,21.28711-15.46582l-6.70605-39.09863,28.40625-27.68946a14.67086,14.67086,0,0,0-8.13086-25.02441Zm-30.86866,42.09277a14.668,14.668,0,0,0-4.22021,12.98633l6.62256,38.61231-34.67481-18.23047a14.67108,14.67108,0,0,0-13.65527,0l-34.6748,18.22949,6.62207-38.61133a14.67012,14.67012,0,0,0-4.21924-12.98633l-28.05274-27.34472,38.76612-5.63379a14.66413,14.66413,0,0,0,11.04834-8.02539L207.126,292.76562l17.33691,35.12891a14.66476,14.66476,0,0,0,11.04688,8.02637l38.76806,5.63379Z"/></svg>