<svg xmlns="http://www.w3.org/2000/svg" data-name="Layer 1" viewBox="0 0 512 512"><path fill="#e53950" d="M485,157.5v317a29.99824,29.99824,0,0,1-30,30H57a29.99824,29.99824,0,0,1-30-30v-317Z"/><path fill="#ca2e43" d="M440,157.5v235a82,82,0,0,1-82,82H27a30.00012,30.00012,0,0,0,30,30H455a30,30,0,0,0,30-30v-317Z"/><rect width="497" height="75.51" x="7.5" y="81.99" fill="#fed402" rx="15"/><path fill="#fac600" d="M489.5,81.99048h-15A45.50959,45.50959,0,0,1,428.99072,127.5H402.11063a17.04027,17.04027,0,0,1-17.04582-17.13123c.14048-26.11308.21546-72.85876.21546-72.85876a14.999,14.999,0,0,0-19.36035-14.35l-85.98,26.14A31.3105,31.3105,0,0,1,287.5,69.77v3.44l2.48-1.65a5.00668,5.00668,0,0,1,6.93994,1.39l36.32471,54.55H7.5v15a15,15,0,0,0,15,15h467a15,15,0,0,0,15-15V96.99048A15,15,0,0,0,489.5,81.99048Z"/><rect width="79" height="347" x="216.5" y="157.5" fill="#fed402"/><rect width="79" height="30.327" x="216.5" y="474.173" fill="#fac600"/><path fill="#fac600" d="M216.5,81.99048v113.4801l17.40468-26.137A26.54807,26.54807,0,0,1,256.00181,157.5h0a26.54808,26.54808,0,0,1,22.09777,11.83451L295.5,195.46753V81.99048Z"/><path fill="#ca2e43" d="M216.5,194.78431,193.6001,229.86a5.00206,5.00206,0,0,1-8.49024-.27l-11.71-20.23a5.01179,5.01179,0,0,0-3.68017-2.45l-23.17969-3a4.99767,4.99767,0,0,1-3.52-7.73l25.76134-38.69762,47.737,22.96066Z"/><path fill="#46cc8d" d="M265.66992,106.63l-.70019,1.06L256,121.15l-1.39014,2.09L193.6001,214.86a5.00206,5.00206,0,0,1-8.49024-.27l-11.71-20.23a5.01179,5.01179,0,0,0-3.68017-2.45l-23.17969-3a4.99767,4.99767,0,0,1-3.52-7.73l34.94971-52.5,37.11035-55.73A5.00668,5.00668,0,0,1,222.02,71.56l2.48,1.65,12.78027,8.51L256,94.18l8.28027,5.51a5.0238,5.0238,0,0,1,1.38965,6.94Z"/><path fill="#ca2e43" d="M365.46,203.91l-23.17969,3a5.01179,5.01179,0,0,0-3.68017,2.45l-11.71,20.23a5.00206,5.00206,0,0,1-8.49024.27L295.5,195.46751l0-22.528L280.5,157.5h62.73l25.75,38.68A4.99767,4.99767,0,0,1,365.46,203.91Z"/><polygon fill="#fac600" points="295.5 157.5 285.22 157.5 295.5 172.94 295.5 157.5"/><path fill="#46cc8d" d="M365.46,188.91l-23.17969,3a5.01179,5.01179,0,0,0-3.68017,2.45l-11.71,20.23a5.00206,5.00206,0,0,1-8.49024.27l-61.00976-91.62L256,121.15l-8.96973-13.46-.70019-1.06a5.0238,5.0238,0,0,1,1.38965-6.94L256,94.18l18.71973-12.46L287.5,73.21l2.48-1.65a5.00668,5.00668,0,0,1,6.93994,1.39l37.11035,55.73L368.98,181.18A4.99767,4.99767,0,0,1,365.46,188.91Z"/><path fill="#fac600" d="M232.06006,49.3A31.3105,31.3105,0,0,0,224.5,69.77v3.44l-2.48-1.65a5.00668,5.00668,0,0,0-6.93994,1.39l-37.11035,55.73-31.88965,9.7a14.999,14.999,0,0,1-19.36035-14.35V37.51a14.999,14.999,0,0,1,19.36035-14.35Z"/><path fill="#00c27a" d="M274.71973,62.27v37L266.1001,101.89,256,104.96l-8.96973,2.73-14.97021,4.55-54.09033,16.44,37.11035-55.73A5.00668,5.00668,0,0,1,222.02,71.56l2.48,1.65V69.77a31.3105,31.3105,0,0,1,7.56006-20.47L256,56.58Z"/><path fill="#00c27a" d="M337.83511,134.39546,264.93994,112.24l-14.97021-4.55L241,104.96,230.8999,101.89,222.28027,99.27v-37L241,56.58l23.93994-7.28A31.3105,31.3105,0,0,1,272.5,69.77v3.44l2.48-1.65c2.30029-1.53,20.41016-.91,21.93994,1.39Z"/><path fill="#00c27a" d="M287.5,69.77v22a31.50568,31.50568,0,0,1-30.10986,31.47h-2.78028A31.50568,31.50568,0,0,1,224.5,91.77v-22A31.50177,31.50177,0,0,1,278.28027,47.5c.57959.58,1.12989,1.18,1.65967,1.8A31.3105,31.3105,0,0,1,287.5,69.77Z"/><path fill="#46cc8d" d="M232,97.25966l-85.91877,26.124a15,15,0,0,1-19.36356-14.35128V22.51A15,15,0,0,1,146.08123,8.15875l85.94529,26.132,42.69115,12.98041"/><path fill="#46cc8d" d="M237.28233,84.27118l128.63644,39.11243a15,15,0,0,0,19.36356-14.35128V22.51A15,15,0,0,0,365.91877,8.15875L237.28233,47.27118Z"/><path fill="#00c27a" d="M327.252 73.271H287.5a7.5 7.5 0 0 1 0-15h39.752a7.5 7.5 0 0 1 0 15zM224.5 73.271H184.74805a7.5 7.5 0 0 1 0-15H224.5a7.5 7.5 0 0 1 0 15z"/><rect width="63" height="85" x="224.5" y="23.271" fill="#08b865" rx="31.5"/><path fill="#09a755" d="M269.47559,26.29559A31.37185,31.37185,0,0,1,272.5,39.77112V61.77118a31.5,31.5,0,0,1-31.5,31.5h0a31.37164,31.37164,0,0,1-13.47559-3.02441A31.49967,31.49967,0,0,0,256,108.27118h0a31.5,31.5,0,0,0,31.5-31.5V54.77112A31.49988,31.49988,0,0,0,269.47559,26.29559Z"/><path fill="#282828" d="M489.49807,74.48633H392.78029V22.50586A22.4995,22.4995,0,0,0,363.73537.97852L282.086,25.80518a38.91741,38.91741,0,0,0-52.17578,0L148.26076.97852a22.49951,22.49951,0,0,0-29.04492,21.52734V74.48633H22.49807a22.52586,22.52586,0,0,0-22.5,22.5v45.50976a22.52961,22.52961,0,0,0,19.5,22.29395V474.49609a37.54225,37.54225,0,0,0,37.5,37.5h398a37.54226,37.54226,0,0,0,37.5-37.5V164.79a22.52961,22.52961,0,0,0,19.5-22.29395V96.98633A22.52586,22.52586,0,0,0,489.49807,74.48633Zm-196.18164,34.6582A7.50009,7.50009,0,1,0,297.67971,94.793l-6.19336-1.8833a38.7582,38.7582,0,0,0,3.51172-16.14209v-3.501H327.25a7.5,7.5,0,0,0,0-15h-32.252v-3.5a38.75577,38.75577,0,0,0-3.51123-16.1416l76.61181-23.29492a7.50022,7.50022,0,0,1,9.68164,7.17578V80.78174a6.93229,6.93229,0,0,0,0,2.40918v25.8374a7.50022,7.50022,0,0,1-9.68164,7.17578l-44.4082-13.50342a7.46236,7.46236,0,0,0-.73242-.18213c-.07276-.01464-.145-.021-.21729-.0332-.16894-.02832-.33789-.05664-.5083-.07324-.10205-.00977-.20312-.01074-.30517-.0166-.14307-.0083-.28565-.01856-.42871-.01856-.09913,0-.19678.0083-.29541.01221-.147.00586-.29346.01025-.44043.02441-.08448.00879-.168.02393-.252.03516-.15918.02148-.31884.04248-.47754.07422-.06689.01318-.13183.03271-.19873.04785-.17138.03906-.34277.07959-.5122.13135-.05567.0166-.10889.03906-.16407.05713-.1748.05761-.34863.1167-.5205.188-.06348.02636-.12354.05908-.186.08691-.15771.07031-.31494.13965-.46875.22217q-.32373.17211-.62939.37451l-.00293.002c-.02051.01367-.03858.02979-.05909.04395-.185.12549-.36523.25732-.53857.39941-.06738.05518-.12842.11572-.19336.17285-.12012.105-.24023.209-.35351.32178-.07666.07617-.14551.15772-.21778.23682-.09326.10107-.188.1997-.27539.30664-.07422.09033-.14062.18554-.21045.27881-.07666.103-.15576.20361-.22754.31054-.06982.104-.13037.21289-.19482.31983-.06152.10254-.126.20263-.18262.30859-.06933.12988-.1289.26465-.19043.39795-.041.08936-.08691.17529-.125.26709-.084.20215-.15625.40869-.22217.61719-.00879.02734-.0205.05273-.0288.08008l-.001.0039q-.10694.35231-.17871.71485c-.02735.1372-.04248.27441-.062.41162-.01465.103-.03467.20556-.04493.30908-.01513.15381-.019.30664-.0249.45947-.0039.09033-.01172.18018-.01172.27051-.00049.14551.00977.28906.01758.43359.00586.10059.00733.20118.01709.30176.01221.127.03369.252.05225.37744.01758.11817.03174.23633.05517.354.021.10693.05078.21191.07666.31787.03223.13232.06153.26513.10157.39648.0288.09522.06543.1875.09814.28174.04736.13623.0918.27295.14746.40772.04346.10546.09619.20654.14453.31005.05469.1167.10449.23536.166.3501q.17358.32666.37793.63526l.00146.00244,31.583,47.4331c.08154.13086.166.25879.25586.38428l13.40527,20.13281-21.63965,2.80469a7.49844,7.49844,0,0,0-5.52636,3.67969l-10.9336,18.88379-20.67285-31.04786c-.01172-.0166-.02246-.03369-.03369-.05029L265.00881,121.145l5.43115-8.15674a39.09925,39.09925,0,0,0,11.645-7.25928ZM231.99807,54.7666a24,24,0,1,1,48,0v22.001A24.03634,24.03634,0,0,1,264.41994,99.2373a7.53562,7.53562,0,0,0-2.08008.67237,23.9875,23.9875,0,0,1-30.34179-23.14209ZM134.21584,22.50586a7.50022,7.50022,0,0,1,9.68164-7.17578L220.5093,38.625a38.75562,38.75562,0,0,0-3.51123,16.1416v3.5h-32.252a7.5,7.5,0,0,0,0,15h32.252v3.501a38.7582,38.7582,0,0,0,3.51172,16.14209l-32.18848,9.78711-.00928.00293L143.89748,116.2041a7.50022,7.50022,0,0,1-9.68164-7.17578ZM22.49807,149.99609a7.5082,7.5082,0,0,1-7.5-7.5V96.98633a7.5082,7.5082,0,0,1,7.5-7.5h96.71777v19.542a22.53644,22.53644,0,0,0,22.43359,22.51856,22.71631,22.71631,0,0,0,6.61133-.99122l24.38575-7.41455-17.88086,26.855Zm186.50049,347H56.99807a22.52586,22.52586,0,0,1-22.5-22.5v-309.5H144.77785l-12.4624,18.7168a7.49958,7.49958,0,0,0,5.2793,11.59375l29.93359,3.87988,15.124,26.12207a7.49758,7.49758,0,0,0,6.25586,3.73829c.07813.00292.15625.0039.23536.0039a7.50106,7.50106,0,0,0,6.24218-3.34375l13.6294-20.46924Zm1.28027-320.7207-20.69092,31.0752L178.65432,188.4668a7.49848,7.49848,0,0,0-5.52637-3.67969l-21.63965-2.80469,13.50049-20.27588c.00928-.01318.01807-.02734.02734-.041L195.24172,116.271l34.66992-10.54151a38.87533,38.87533,0,0,0,20.89112,9.68555l-.51856.77881a7.44329,7.44329,0,0,0-1.03076,1.54785L210.314,176.22314Zm267.21924,298.2207a22.52586,22.52586,0,0,1-22.5,22.5h-152V442.93555a7.5,7.5,0,0,0-15,0v54.06054H223.99856l.01806-314.28808,31.981-48.03028,32.00049,48.0586V412.93555a7.5,7.5,0,1,0,15,0V205.26367l13.6123,20.44336a7.50109,7.50109,0,0,0,6.24219,3.34375c.07812,0,.15723-.001.23633-.0039a7.49941,7.49941,0,0,0,6.25488-3.73829l15.124-26.12207,29.9336-3.87988a7.49958,7.49958,0,0,0,5.27929-11.59375l-12.4624-18.7168H477.49807Zm19.5-332a7.5082,7.5082,0,0,1-7.5,7.5H357.231l-17.88135-26.85547,24.38574,7.415a22.72122,22.72122,0,0,0,6.61133.99122,22.53643,22.53643,0,0,0,22.43359-22.51856v-19.542h96.71778a7.5082,7.5082,0,0,1,7.5,7.5Z"/></svg>