<svg xmlns="http://www.w3.org/2000/svg" data-name="Layer 1" viewBox="0 0 512 512"><path fill="#fed402" d="M472.90508,277.06285,276.55076,93.562a30,30,0,0,0-39.10152,0L40.147,278.657l216.379,104.20293Z"/><path fill="#eaf6ff" d="M140.5,7.5h231a30,30,0,0,1,30,30v343a0,0,0,0,1,0,0h-291a0,0,0,0,1,0,0V37.5A30,30,0,0,1,140.5,7.5Z"/><path fill="#fac600" d="M445.5,504.5H68.5a30,30,0,0,1-30-30V285.50779a15,15,0,0,1,19.86984-14.18748L257,339.5l198.63016-68.17969A15,15,0,0,1,475.5,285.50779V474.5A30,30,0,0,1,445.5,504.5Z"/><path fill="#e8b800" d="M455.62988,271.32031,430.5,279.94629V444.5a30.00008,30.00008,0,0,1-30,30H38.5a30.00008,30.00008,0,0,0,30,30h377a30.00008,30.00008,0,0,0,30-30V285.50781A15,15,0,0,0,455.62988,271.32031Z"/><rect width="35.846" height="48.352" x="238.076" y="268.148" fill="#d88a55"/><polygon fill="#c57a44" points="238.076 273.546 238.076 268.148 273.921 268.148 273.921 310.344 238.076 273.546"/><path fill="#46cc8d" d="M179.87073,258.23992l73.42045-93.88132a3.43724,3.43724,0,0,1,5.41514,0l73.42045,93.88131a3.4389,3.4389,0,0,1-1.81965,5.43825,284.87876,284.87876,0,0,1-73.27863,9.86617,284.89712,284.89712,0,0,1-75.35751-9.87145A3.43526,3.43526,0,0,1,179.87073,258.23992Z"/><path fill="#00c27a" d="M332.12682,258.23991,258.7064,164.35858a3.43734,3.43734,0,0,0-5.41529,0l-8.08569,10.339L299.13816,243.66a8.32609,8.32609,0,0,1-4.58919,13.2253,284.84784,284.84784,0,0,1-65.897,7.97667,284.4642,284.4642,0,0,1-49.49292-4.16382,3.41522,3.41522,0,0,0,2.512,2.97473,284.89445,284.89445,0,0,0,75.35743,9.87134,284.874,284.874,0,0,0,73.29139-9.86957A3.43491,3.43491,0,0,0,332.12682,258.23991Z"/><path fill="#46cc8d" d="M191.33519,212.20952,253.698,132.46733a2.91959,2.91959,0,0,1,4.5996,0l62.36285,79.74218a2.921,2.921,0,0,1-1.5456,4.61921,241.97379,241.97379,0,0,1-62.2424,8.38026,241.98947,241.98947,0,0,1-64.00817-8.38474A2.91789,2.91789,0,0,1,191.33519,212.20952Z"/><path fill="#00c27a" d="M320.6605,212.20952l-62.3628-79.74218a2.91958,2.91958,0,0,0-4.59961,0L245.50791,142.94l41.87146,53.54037a8.94928,8.94928,0,0,1-5.091,14.23657,241.93473,241.93473,0,0,1-52.9807,6.07218,241.60588,241.60588,0,0,1-38.56909-2.96252,2.89617,2.89617,0,0,0,2.12573,2.99768,241.99235,241.99235,0,0,0,64.00806,8.38477,241.97816,241.97816,0,0,0,62.24243-8.38038A2.92085,2.92085,0,0,0,320.6605,212.20952Z"/><path fill="#46cc8d" d="M206.00486,165.82416l48.21486-61.65142a2.25722,2.25722,0,0,1,3.5561,0l48.21486,61.65141a2.25831,2.25831,0,0,1-1.195,3.57128,187.07855,187.07855,0,0,1-48.12173,6.47906,187.09049,187.09049,0,0,1-49.48691-6.48253A2.25592,2.25592,0,0,1,206.00486,165.82416Z"/><path fill="#00c27a" d="M305.99059,165.82414l-48.21488-61.65151a2.25722,2.25722,0,0,0-3.55613,0l-8.19068,10.47363L272.5724,148.587a9.56459,9.56459,0,0,1-5.57668,15.26786,187.00978,187.00978,0,0,1-36.70729,3.775,186.89971,186.89971,0,0,1-24.45508-1.51806,2.24411,2.24411,0,0,0,1.35376,3.28,187.09492,187.09492,0,0,0,49.48681,6.48266,187.08265,187.08265,0,0,0,48.14108-6.48434A2.25268,2.25268,0,0,0,305.99059,165.82414Z"/><path fill="#fed402" d="M273.16016,100.80005a2.77358,2.77358,0,0,0-.79,2.46l2.59961,15.21a2.77549,2.77549,0,0,1-4.02979,2.92L257.29,114.21a2.79957,2.79957,0,0,0-2.58008,0l-1.66016.87-12,6.31005a2.77909,2.77909,0,0,1-4.02978-2.92l2.60986-15.21a2.75315,2.75315,0,0,0-.7998-2.46L227.79,90.04a2.77814,2.77814,0,0,1,1.54-4.74L244.58984,83.08a2.75566,2.75566,0,0,0,2.09034-1.5199L253.50977,67.73a2.77934,2.77934,0,0,1,4.98046,0l6.82959,13.83008a2.60919,2.60919,0,0,0,.71045.8999,2.6434,2.6434,0,0,0,1.37989.62l15.25976,2.22009a2.77814,2.77814,0,0,1,1.54,4.74Z"/><path fill="#fac600" d="M273.16016,100.80005a2.77358,2.77358,0,0,0-.79,2.46l2.59961,15.21a2.77549,2.77549,0,0,1-4.02979,2.92L257.29,114.21a2.79957,2.79957,0,0,0-2.58008,0l-1.66016.87a44.94022,44.94022,0,0,0,11.79-21,43.64611,43.64611,0,0,0,1.19043-11.62,2.6434,2.6434,0,0,0,1.37989.62l15.25976,2.22009a2.77814,2.77814,0,0,1,1.54,4.74Z"/><path fill="#fed402" d="M277.78809,314.47961a29.99957,29.99957,0,0,0-41.57618,0L47.46533,495.8833A29.8982,29.8982,0,0,0,68.5,504.5h377a29.8982,29.8982,0,0,0,21.03467-8.6167Z"/><path fill="#fac600" d="M447.627,504.4165c.30762-.02148.6167-.03906.92188-.07006.26318-.02662.52295-.06519.78418-.09864.23486-.03.47119-.05395.7041-.08935.31348-.04761.62305-.10791.9331-.165.17627-.03247.355-.05908.53028-.09473.34765-.07056.69043-.15356,1.0332-.23608.13428-.03223.27-.05908.40332-.09326.36914-.09424.7334-.20044,1.09717-.30811.10352-.03076.209-.05713.312-.08887.39063-.12036.77588-.25219,1.15967-.38818.07226-.02539.146-.04761.21826-.07373.40674-.14746.80811-.30615,1.20654-.4707.04639-.019.09375-.03589.13965-.05518q.62256-.26075,1.229-.54932c.02832-.01342.05713-.02539.08545-.03857q.62694-.29919,1.2373-.62671c.01416-.00732.02881-.01416.04248-.02173a30.12151,30.12151,0,0,0,6.87012-5.06494l-39.30225-37.77319A29.99116,29.99116,0,0,1,400.5,474.5H69.71436l-22.249,21.3833a30.12151,30.12151,0,0,0,6.87012,5.06494c.01367.00757.02832.01441.04248.02173q.61011.327,1.2373.62647c.02832.01367.05762.02563.08643.03906q.60645.2871,1.22754.54883c.04785.02.09717.03735.145.05737.39648.16357.79687.32178,1.20166.46875.07226.02612.146.04834.21826.07373.38379.136.769.26782,1.15967.38818.103.03174.20849.05811.312.08887.36377.10767.728.21387,1.09717.30811.1333.03418.269.061.40332.09326.34277.08252.68555.16552,1.0332.23608.17529.03565.354.06226.53028.09473.31005.05713.61962.11743.9331.165.23291.0354.46924.05932.7041.08935.26123.03345.521.072.78418.09864.30518.031.61426.04858.92188.07006.19775.01392.39355.03467.59228.04468q.76245.03846,1.53467.03882h377q.772,0,1.53467-.03882C447.2334,504.45117,447.4292,504.43042,447.627,504.4165Z"/><circle cx="340.51" cy="74.724" r="19.227" fill="#e53950" transform="rotate(-80.783 340.51 74.724)"/><path fill="#ca2e43" d="M349.71338,57.84119a19.22771,19.22771,0,0,1-26.05811,26.13134,19.22658,19.22658,0,1,0,26.05811-26.13134Z"/><circle cx="169.602" cy="131.346" r="19.227" fill="#e53950"/><path fill="#ca2e43" d="M178.805,114.46374a19.22772,19.22772,0,0,1-26.05811,26.13135A19.22658,19.22658,0,1,0,178.805,114.46374Z"/><path fill="#282828" d="M356.92287,148.47559a14.96512,14.96512,0,0,1-1.82031-4.35547,28.005,28.005,0,0,0-4.48047-9.43262A30.15282,30.15282,0,0,0,335.125,124.19238a7.5,7.5,0,1,0-4.53223,14.29883,15.54093,15.54093,0,0,1,8.01954,5.18457,13.90809,13.90809,0,0,1,2.14453,4.82715,28.78949,28.78949,0,0,0,3.749,8.38769c3.97559,5.86524,10.4209,9.97071,19.1582,12.20411a7.50024,7.50024,0,0,0,3.71485-14.53321C362.29787,153.26367,358.78029,151.21484,356.92287,148.47559Zm-16.415-47.0293a26.72657,26.72657,0,1,0-26.72656-26.72656A26.75654,26.75654,0,0,0,340.50783,101.44629Zm0-38.45313a11.72657,11.72657,0,1,1-11.72656,11.72657A11.74015,11.74015,0,0,1,340.50783,62.99316Zm24.33985,140.71192a21.17488,21.17488,0,0,0-3.38867,7.082,7.833,7.833,0,0,1-.90333,2.25391c-1.11523,1.64648-3.64648,2.5791-5.57324,3.07128a7.50024,7.50024,0,1,0,3.71485,14.53321c6.46-1.65137,11.26269-4.74317,14.27539-9.1875a21.71329,21.71329,0,0,0,2.831-6.28809,7.16544,7.16544,0,0,1,1.05274-2.47656,8.0486,8.0486,0,0,1,4.14257-2.59863,7.50011,7.50011,0,1,0-4.5332-14.29883A22.62179,22.62179,0,0,0,364.84768,203.70508ZM136.35256,215.22266a8.03409,8.03409,0,0,1,4.14062,2.59863,7.15539,7.15539,0,0,1,1.05176,2.47461A21.7178,21.7178,0,0,0,144.375,226.583c3.01367,4.44531,7.81543,7.53711,14.27539,9.18847a7.50023,7.50023,0,0,0,3.71485-14.5332c-1.92676-.49219-4.457-1.4248-5.57325-3.07226a7.84485,7.84485,0,0,1-.90234-2.25293,21.17681,21.17681,0,0,0-3.3877-7.08106,22.61954,22.61954,0,0,0-11.62207-7.91015,7.50015,7.50015,0,1,0-4.52734,14.30078Zm343.105,58.19238a7.4333,7.4333,0,0,0-.67822-1.00342,22.42322,22.42322,0,0,0-5.207-5.21924c-.2793-.19922-.56592-.38525-.85254-.5708l-63.72168-59.5498V37.49609a37.54227,37.54227,0,0,0-37.5-37.5h-231a37.54288,37.54288,0,0,0-37.5,37.50293l.06445,171.84473L43.18264,265.52a22.1437,22.1437,0,0,0-9.41358,9.19727,7.42375,7.42375,0,0,0-.55322,1.08105,22.47116,22.47116,0,0,0-2.21777,9.70557V474.49609A37.38193,37.38193,0,0,0,42.01125,501.0166c.06494.06934.124.14258.1919.209A37.28058,37.28058,0,0,0,60.94192,511.231l.00976.00244c.55225.1123,1.1084.21045,1.667.29834.06934.01074.1377.0249.207.03564.5044.07617,1.01221.1377,1.521.19336.12158.01367.24121.03223.36328.04444.48145.04834.96631.08105,1.45166.11084.14746.00927.293.02441.44092.03222q.94409.04688,1.89551.04785h377q.95141,0,1.89551-.04785c.14794-.00781.29345-.02295.44091-.03222.48535-.02979.97022-.0625,1.45166-.11084.12207-.01221.2417-.03077.36328-.04444.50879-.05566,1.01661-.11719,1.521-.19336.06934-.01074.1377-.0249.207-.03564.5586-.08789,1.11475-.186,1.667-.29834l.00977-.00244A37.28058,37.28058,0,0,0,471.793,501.22559c.06787-.06641.127-.13965.19189-.209a37.38189,37.38189,0,0,0,11.01319-26.52051V285.50391A22.51483,22.51483,0,0,0,479.45754,273.415Zm-70.45947-45.8125,40.53125,37.87793-40.53125,13.91211Zm-268.5-212.60645h231a22.52586,22.52586,0,0,1,22.5,22.5V284.5415l-100.604,34.53272-10.41064-10.00586c-.51123-.49121-1.03467-.96094-1.56543-1.41748V279.92871a292.39026,292.39026,0,0,0,50.84473-9.01465,10.939,10.939,0,0,0,5.77148-17.29883l-22.07959-28.23291c1.709-.42334,3.41553-.85839,5.11572-1.31787a10.42073,10.42073,0,0,0,5.498-16.47949L303.086,177.55859c1.22363-.30566,2.44971-.59863,3.668-.92773a9.75867,9.75867,0,0,0,5.14453-15.43066L281.79641,122.709a10.264,10.264,0,0,0,.56689-5.5166l-2.18847-12.75488,9.26757-9.0332a10.27649,10.27649,0,0,0-5.69433-17.5293l-12.80762-1.86133L265.21291,64.4082a10.27651,10.27651,0,0,0-18.43066,0l-5.72852,11.60547L228.24611,77.875a10.27737,10.27737,0,0,0-5.69531,17.5293l9.26856,9.0332-2.1875,12.75391a10.25611,10.25611,0,0,0,.5664,5.51806l-30.09863,38.48682a9.756,9.756,0,0,0,5.12988,15.43164c1.22217.33057,2.45264.62353,3.68018.92969L185.42678,207.585a10.41813,10.41813,0,0,0,5.47949,16.47559c1.70361.46045,3.42334.88769,5.14258,1.313l-22.08692,28.24169a10.936,10.936,0,0,0,5.752,17.29395,292.39624,292.39624,0,0,0,50.86426,9.0166v29.56006l-9.97608,9.58838-102.51123-35.1875-.09277-246.39063A22.52586,22.52586,0,0,1,140.49807,14.99609ZM257.001,266.04q-.50244.00147-1.00586.002-8.56714,0-17.11182-.53174c-.07275-.00781-.147-.00927-.22021-.01513a277.4134,277.4134,0,0,1-49.06543-7.52344L212.377,228.84521c1.915.34083,3.83155.67188,5.74805.96631a7.5,7.5,0,1,0,2.27734-14.82617c-6.30273-.96875-12.61328-2.20508-18.835-3.68945L225.32375,180.919a194.4641,194.4641,0,0,0,30.67041,2.45214c.23535,0,.47168,0,.707-.001a194.43626,194.43626,0,0,0,29.96826-2.45313l23.75928,30.37989a234.49449,234.49449,0,0,1-53.584,6.4082c-3.51856.01562-7.084-.05469-10.59864-.20117a7.49967,7.49967,0,1,0-.625,14.98632c3.44043.14356,6.92774.2168,10.37891.2168q.44971,0,.89941-.00195a249.37868,249.37868,0,0,0,42.72461-3.85449l22.77442,29.12109a277.41677,277.41677,0,0,1-48.84033,7.51221c-.14649.00732-.29346.01025-.4375.02539Q265.07424,266.00733,257.001,266.04Zm9.417,14.81445v18.92627a37.40463,37.40463,0,0,0-20.83984.58057V280.85059q5.20458.186,10.417.1914c.35156,0,.708-.001,1.06054-.002Q261.73952,281.0232,266.418,280.85449ZM264.9717,104.52637l.98926,5.76953-5.17774-2.72168a10.26457,10.26457,0,0,0-9.56836-.00293l-5.18164,2.72461.99024-5.77246a10.27791,10.27791,0,0,0-2.95606-9.09473L239.875,91.34277l5.79688-.84179a10.2755,10.2755,0,0,0,7.73437-5.62207l2.59082-5.25L258.586,84.875a10.27729,10.27729,0,0,0,7.74023,5.626l5.793.84179-4.1914,4.08594A10.27555,10.27555,0,0,0,264.9717,104.52637Zm-19.51123,23.01709,10.53662-5.53955,10.5376,5.54,28.5581,36.5166c-1.855.41406-3.71777.78906-5.58447,1.14355a7.44917,7.44917,0,0,0-2.15039.38965,179.53924,179.53924,0,0,1-30.71142,2.77637,178.72029,178.72029,0,0,1-39.74415-4.30957ZM103.07033,229.9043l.01856,48.833L64.96682,265.65137ZM45.99807,474.49609V285.50391a7.55143,7.55143,0,0,1,.40869-2.44043l5.12109-4.80469a7.43032,7.43032,0,0,1,4.40576.15137l152.50977,52.34912L48.39455,484.58154A22.34927,22.34927,0,0,1,45.99807,474.49609Zm422,0a22.34915,22.34915,0,0,1-2.39649,10.08545l-33.17382-31.88232a7.5,7.5,0,1,0-10.39454,10.81445l32.74561,31.47071c-.502.22851-1.01074.44433-1.53174.63574-.01758.00683-.03564.01318-.05371.01953q-.47973.175-.96924.32861c-.0459.01416-.09131.02735-.13721.04151q-.45409.13915-.91552.26074c-.07813.02-.15723.03808-.23584.05713-.28076.07031-.5625.1372-.84717.19629-.11475.02392-.231.04345-.34619.06494-.25342.04883-.50733.09717-.76367.1372-.16016.02491-.32227.043-.4834.06446-.21778.02929-.43457.06054-.65381.08349-.21924.02246-.44043.03614-.66113.05274-.167.0122-.33252.02929-.5.03808-.39258.02-.78662.03125-1.18213.03125h-377c-.39551,0-.78955-.01123-1.18213-.03125-.168-.00879-.334-.02588-.501-.03808-.22021-.0166-.44092-.03028-.66015-.05274-.22071-.02295-.439-.05468-.65772-.084-.15967-.02149-.31982-.03955-.479-.064-.25879-.04052-.51465-.08886-.77051-.13818-.11279-.02148-.22607-.04053-.33838-.06348-.2876-.06-.57275-.12744-.85644-.19824-.0752-.01855-.1504-.03564-.22559-.05517q-.46656-.12159-.92481-.26319c-.04248-.01318-.085-.02539-.127-.03857q-.49439-.15454-.978-.33154l-.04492-.01612c-.522-.19189-1.03222-.4082-1.53515-.6372L227.564,333.1875c.01513-.01367.0288-.02832.04345-.042l13.79981-13.2627a22.43895,22.43895,0,0,1,31.18164,0l125.85449,120.959a7.5,7.5,0,0,0,10.39453-10.81446L305.55276,330.75977,458.0635,278.41016a7.3913,7.3913,0,0,1,5.65527.33056l3.33106,3.1128a7.45751,7.45751,0,0,1,.94824,3.65039ZM153.26174,77.96582a7.51988,7.51988,0,0,0,1.86328-.23535c8.73926-2.23438,15.18555-6.34082,19.1582-12.20508a28.79592,28.79592,0,0,0,3.75-8.38769,13.91647,13.91647,0,0,1,2.14356-4.82715,15.552,15.552,0,0,1,8.02051-5.18457,7.5,7.5,0,1,0-4.53223-14.29883A30.14926,30.14926,0,0,0,168.168,43.32227a28.03988,28.03988,0,0,0-4.48047,9.43164,14.95692,14.95692,0,0,1-1.82129,4.35644c-1.85644,2.74024-5.374,4.78809-10.45605,6.08692a7.50123,7.50123,0,0,0,1.85156,14.76855Zm16.33789,80.10352a26.72706,26.72706,0,1,0-26.72656-26.72754A26.75738,26.75738,0,0,0,169.59963,158.06934Zm0-38.45411a11.72706,11.72706,0,1,1-11.72656,11.72657A11.74014,11.74014,0,0,1,169.59963,119.61523Z"/></svg>