<svg xmlns="http://www.w3.org/2000/svg" data-name="Layer 1" viewBox="0 0 512 512"><polygon fill="#e5eef9" points="443.38 154.02 443.38 504.5 68.38 504.5 68.38 154.02 256 49.02 443.38 154.02"/><path fill="#7a6d79" d="M430.52551,144.69388l-72.8302-15V21.95552A14.45552,14.45552,0,0,1,372.15083,7.5H416.07a14.45552,14.45552,0,0,1,14.45552,14.45552Z"/><path fill="#f1f6f9" d="M436.62049,18.26l.2667,35.40977A16.20121,16.20121,0,0,1,420.68644,69.993h0a16.2012,16.2012,0,0,1-16.2012-16.20121V44.367a13.605,13.605,0,0,0-13.605-13.60495h0a13.605,13.605,0,0,0-13.605,13.605V46.6314a12.58084,12.58084,0,0,1-12.58084,12.58084h0A12.58085,12.58085,0,0,1,352.11408,46.7459l-.25763-28.30559A10.84165,10.84165,0,0,1,362.69765,7.5h63.0815A10.84165,10.84165,0,0,1,436.62049,18.26Z"/><path fill="#dde8ef" d="M375.88025 30.762a13.60505 13.60505 0 0 0-13.605 13.605v2.26441a12.54878 12.54878 0 0 1-5.08093 10.084 12.50988 12.50988 0 0 0 7.50006 2.49683h.00006a12.58078 12.58078 0 0 0 12.58081-12.58081V44.36694a13.58737 13.58737 0 0 1 6.105-11.34619A13.53529 13.53529 0 0 0 375.88025 30.762zM436.62048 18.26A10.84153 10.84153 0 0 0 425.77917 7.5h-15a10.84153 10.84153 0 0 1 10.84131 10.76l.26673 35.40967A16.18944 16.18944 0 0 1 413.18506 68.144a16.11716 16.11716 0 0 0 7.50134 1.84888h.00006a16.20123 16.20123 0 0 0 16.20075-16.32324z"/><path fill="#d5e3f4" d="M256,49.02417l-15.0094,8.40015,172.39191,96.59985v23.17017L255.88,82.12988,144.3,134.48,68.38,190.35986v65.71021L251.57,139.02a9.97867,9.97867,0,0,1,8.62.02l100.57667,65.40581a115.68239,115.68239,0,0,1,52.61584,96.97951V504.5h30V154.02417Z"/><path fill="#e53950" d="M480.7,187.83008V234.01a9.9954,9.9954,0,0,1-15.45,8.38013L260.19,109.04a9.97867,9.97867,0,0,0-8.62-.02L46.45,240.08008a10.00173,10.00173,0,0,1-15.39-8.42017V187.83008l98.21-72.29L144.3,104.48l15.76-7.39014,95.82-44.96Z"/><path fill="#ca2e43" d="M480.7,187.83008v36.2998a16.22556,16.22556,0,0,1-16.32-5.98A49.426,49.426,0,0,0,448.46,205c-.44-.23-.86-.48-1.28-.73-12.39-7.43994-18.76-26.66016-32.16-34.71-12.91-7.76-32.85-4.3501-45.74-12.1001-13.42-8.06982-19.78-27.28-32.14-34.71-14.33-8.60986-34.38-5.27-45.74-12.1001C267.87,96.51,276.18,69.48,254.19,75.2c-22.01,5.73-14.44,23.75-33.93,35.47-19.5,11.71-26.3.40015-45.79,12.12012-19.5,11.71-12.7,23.02-32.19995,34.74-19.5,11.71-26.29.3999-45.79,12.11011-19.49,11.71972-12.7,23.02978-32.19,34.73974-.77.46-1.53.88013-2.27,1.27A53.50684,53.50684,0,0,0,45.9,218.78a16.17234,16.17234,0,0,1-12.43,5.72,14.70933,14.70933,0,0,1-2.41-.2v-36.47l98.21-72.29,30.79-18.4502,95.82-44.96Z"/><path fill="#d88a55" d="M222.1257,289.03281h67.51387a30,30,0,0,1,30,30V504.5a0,0,0,0,1,0,0H192.1257a0,0,0,0,1,0,0V319.03281A30,30,0,0,1,222.1257,289.03281Z"/><path fill="#c57a44" d="M289.63959,289.03271H222.12567a29.98054,29.98054,0,0,0-25.97656,15h63.49048a30.00012,30.00012,0,0,1,30,30V504.5h30V319.03271A30.00012,30.00012,0,0,0,289.63959,289.03271Z"/><circle cx="255.883" cy="203.963" r="27.5" fill="#7a6d79"/><path fill="#685e68" d="M268.44775,179.50366a27.49807,27.49807,0,0,1-37.4616,36.14185,27.50012,27.50012,0,1,0,37.4616-36.14185Z"/><path fill="#d5e3f4" d="M148.48,400.76a134.04406,134.04406,0,0,1-56.92,13.54,126.56482,126.56482,0,0,1-23.18-2.01v-101.99L77.94,288.71c7.05-15.92993,18.59-15.92993,25.65,0L149.9,393.30005C151.07,395.96,150.33,399.87988,148.48,400.76Z"/><polyline fill="#d88a55" points="51.965 454.448 51.965 402.504 85.802 402.504 85.802 454.448"/><path fill="#46cc8d" d="M9.75043,386.61224l46.30964-104.5909c7.05257-15.92831,18.59313-15.92831,25.6457,0L128.0154,386.61221c1.17918,2.66318.43441,6.57892-1.41341,7.46108a133.94568,133.94568,0,0,1-56.91922,13.536,133.65213,133.65213,0,0,1-58.534-13.54325C9.30751,393.18679,8.57542,389.266,9.75043,386.61224Z"/><path fill="#f1f6f9" d="M504.5 493.52037V494.5a10 10 0 0 1-10 10H17.5a10 10 0 0 1-10-10v-.45689c0-30.46032 27.62778-53.062 57.62463-47.7686a85.34042 85.34042 0 0 0 16.00468 1.307c31.41688-.42212 40.04251-18.20385 73.99652-18.81274 38.36546-.688 41.6927 21.75732 82.14866 25.08374 43.6637 3.59009 48.88968-21.80737 97.8259-21.94824 42.09982-.1211 51.48456 18.63769 89.67508 16.9414a116.33911 116.33911 0 0 0 20.09117-2.67158C475.42173 439.3869 504.5 462.22052 504.5 493.52037zM260.453 27.408a10.75532 10.75532 0 0 0-9.178 0L30.953 159.481A28.11611 28.11611 0 0 0 17.29279 183.5962v9.1746c0 9.02647 7.15288 16.693 16.17927 16.72906a16.1741 16.1741 0 0 0 12.42549-5.71847A53.6365 53.6365 0 0 1 62.0161 190.64906q1.11757-.57613 2.2723-1.26844c19.49487-11.71314 12.69946-23.0232 32.19433-34.73658 19.4961-11.71386 26.29151-.40381 45.78736-12.11767 19.49512-11.71363 12.69971-23.02344 32.19507-34.73706 19.4978-11.71509 26.29321-.40528 45.79126-12.12036s11.92309-29.74073 33.93652-35.46973c21.98535-5.72168 13.68018 21.30786 37.20312 35.44824 11.36377 6.83106 31.41651 3.49048 45.739 12.09937 12.36218 7.43066 18.72241 26.6477 32.14453 34.7146 12.89453 7.74951 32.83008 4.33667 45.74365 12.09668 13.40064 8.05249 19.76319 27.26855 32.15332 34.71191q.63125.37925 1.27871.72877a49.5118 49.5118 0 0 1 15.92822 13.156A16.187 16.187 0 0 0 477.25043 209.5h.00013a16.2456 16.2456 0 0 0 16.2456-16.24561v-9.69971A28.11474 28.11474 0 0 0 479.89 159.47194C440.16363 135.53838 323.19233 65.07905 260.453 27.408z"/><path fill="#dde8ef" d="M239.19293 60.19922c-22.01343 5.729-14.4386 23.75464-33.93652 35.46973s-26.29346.40527-45.79126 12.12036c-19.49536 11.71362-12.7 23.02343-32.19507 34.73706-19.49585 11.71386-26.29126.40381-45.78735 12.11767-19.49488 11.71338-12.69947 23.02344-32.19434 34.73658q-1.15512.694-2.27228 1.26831a53.64161 53.64161 0 0 0-16.11859 13.13232 16.27119 16.27119 0 0 1-4.80505 3.82959 15.65869 15.65869 0 0 0 7.37958 1.88892 16.17287 16.17287 0 0 0 12.42547-5.71851 53.64161 53.64161 0 0 1 16.11859-13.13232q1.11759-.57606 2.27228-1.26831c19.49487-11.71314 12.69946-23.0232 32.19434-34.73658 19.49609-11.71386 26.2915-.40381 45.78735-12.11767 19.49512-11.71363 12.69971-23.02344 32.19507-34.73706 19.4978-11.71509 26.29321-.40528 45.79126-12.12036C238.68591 84.5957 232.943 67.89111 250.846 61.25488 248.17816 59.374 244.60614 58.79053 239.19293 60.19922zM479.89 159.47192c-39.72631-23.93359-156.69763-94.39282-219.437-132.064a10.75532 10.75532 0 0 0-9.178 0l-2.91357 1.74658C311.74274 67.21777 425.76947 135.90332 464.89 159.47192a28.11482 28.11482 0 0 1 13.6062 24.08277v9.6997a16.23434 16.23434 0 0 1-8.74884 14.40381 16.13709 16.13709 0 0 0 7.50312 1.8418h.00012a16.2456 16.2456 0 0 0 16.2456-16.24561v-9.6997A28.11482 28.11482 0 0 0 479.89 159.47192z"/><path fill="#282828" d="M255.88088,168.959a35,35,0,1,0,35,35A35.03963,35.03963,0,0,0,255.88088,168.959Zm0,55a20,20,0,1,1,20-20A20.0226,20.0226,0,0,1,255.88088,223.959Zm235.21387,225.96a56.36256,56.36256,0,0,0-40.21436-12.22022v-195.71l10.27539,6.68213a17.4954,17.4954,0,0,0,27.04248-14.665v-19.6958A23.76439,23.76439,0,0,0,500.99416,193.25v-9.69922A35.80181,35.80181,0,0,0,483.75832,153.044c-9.76953-5.88575-26.01263-15.6709-45.73486-27.54883V69.9375a23.52171,23.52171,0,0,0,6.36181-16.32812l-.2666-35.41016A18.39139,18.39139,0,0,0,425.77736-.00391H362.69582A18.3406,18.3406,0,0,0,344.355,18.50488l.25781,28.30567a19.97,19.97,0,0,0,5.2793,13.31933l-.09631,12.24658c-31.50318-18.959-62.31525-37.49072-85.48377-51.40185a7.40059,7.40059,0,0,0-.66113-.35352,18.2035,18.2035,0,0,0-15.57764,0,7.28882,7.28882,0,0,0-.65625.35059L166.81643,69.28809a7.49979,7.49979,0,1,0,7.71191,12.86523L254.71682,34.084a3.24078,3.24078,0,0,1,2.28857-.001c63.49219,38.124,183.63916,110.498,219.0127,131.80859a20.72577,20.72577,0,0,1,9.97607,17.65918V193.25a8.73647,8.73647,0,0,1-15.666,5.33008,56.82962,56.82962,0,0,0-18.30469-15.18067c-.33106-.17968-.65918-.36621-.98633-.5625-4.73828-2.84668-8.83594-8.58593-13.17432-14.66211-5.31543-7.44433-10.81152-15.14257-18.97851-20.0498-7.79395-4.68359-16.93067-5.8916-25.76612-7.05957-7.6455-1.01074-14.86718-1.96582-19.97705-5.03711-5.51367-3.31348-9.8916-9.44727-14.52636-15.94043-5.02881-7.0459-10.22852-14.33105-17.61768-18.77246-8.91162-5.35742-19.20361-6.71484-28.28369-7.91309-6.91064-.91113-13.43848-1.77246-17.45508-4.18652-8.69775-5.22852-12.01514-12.57031-15.22363-19.6709-4.06494-8.99707-9.63184-21.31738-27.73242-16.60742-15.26563,3.97168-19.87842,13.49414-23.585,21.14648-2.84082,5.86329-5.29395,10.92774-12.32569,15.15235-8.019,4.81836-12.93066,4.89355-19.14844,4.98926-7.10791.11035-15.16406.23437-26.64257,7.13086-11.47754,6.89648-15.36914,13.95117-18.80225,20.1748-3.00342,5.44434-5.37549,9.74512-13.39307,14.5625-8.01806,4.81738-12.92871,4.89258-19.1455,4.98828-7.10791.10938-15.16358.23242-26.64161,7.12891-11.47753,6.89648-15.36865,13.95117-18.80175,20.1748-3.00293,5.44434-5.375,9.74512-13.38623,14.5586-.62549.375-1.248.72265-1.853,1.03418a60.97332,60.97332,0,0,0-18.39649,14.9414,8.70665,8.70665,0,0,1-6.646,3.07617h-.03418A9.01532,9.01532,0,0,1,24.791,192.7666v-9.1748a20.72016,20.72016,0,0,1,10.01611-17.68262L145.95608,99.28027A7.4998,7.4998,0,1,0,138.24416,86.415L27.09524,153.044A35.79344,35.79344,0,0,0,9.791,183.5918v9.1748a24.31246,24.31246,0,0,0,13.76709,21.97315v16.9165a17.50191,17.50191,0,0,0,26.92822,14.74023l10.39453-6.6416v24.94287c-3.891,2.14649-8.1582,6.32862-11.68066,14.2837L2.89065,383.57227C.32131,389.374,1.753,397.8877,7.91506,400.8291A146.6495,146.6495,0,0,0,44.4634,412.84229v26.43212A56.53263,56.53263,0,0,0,19.93947,451.252,55.71719,55.71719,0,0,0-.00193,494.03906v.457a17.52,17.52,0,0,0,17.5,17.5h477a17.52,17.52,0,0,0,17.5-17.5v-.97949A55.62139,55.62139,0,0,0,491.09475,449.919ZM423.02346,116.46143c-18.04938-10.86963-38.08978-22.936-58.29743-35.09913l.1153-14.6621A20.09952,20.09952,0,0,0,384.77346,46.627V44.36328a6.105,6.105,0,1,1,12.21,0v9.42481a23.72773,23.72773,0,0,0,23.70117,23.70117q1.17948,0,2.33887-.11377ZM426.86037,59.917a8.70079,8.70079,0,0,1-14.87695-6.1289V44.36328a21.105,21.105,0,1,0-42.21,0V46.627a5.08092,5.08092,0,0,1-10.16162.04688L359.354,18.36816a3.34187,3.34187,0,0,1,3.3418-3.37207h63.08154a3.35018,3.35018,0,0,1,3.34131,3.31641l.2666,35.41016A8.63779,8.63779,0,0,1,426.86037,59.917ZM42.40725,233.75781a2.50137,2.50137,0,0,1-3.84912-2.10156V216.458a23.67255,23.67255,0,0,0,13.05175-7.82324A46.07807,46.07807,0,0,1,65.44826,197.3125c.88721-.457,1.79395-.96289,2.70117-1.50684,11.47706-6.89648,15.36817-13.95117,18.80127-20.1748,3.00293-5.44434,5.375-9.74512,13.39307-14.5625s12.92871-4.89258,19.146-4.98828c7.10742-.10938,15.16357-.23242,26.64111-7.12891,11.47705-6.89648,15.36865-13.95019,18.80176-20.1748,3.00342-5.44434,5.37549-9.74512,13.39355-14.5625,8.019-4.81836,12.93018-4.89356,19.148-4.98926,7.10791-.11035,15.16406-.23438,26.64307-7.13086,10.85888-6.52441,14.87353-14.81152,18.09912-21.4707,3.30566-6.82325,5.30029-10.94141,13.86377-13.16993,5.44775-1.416,5.96387-1.29687,10.28564,8.26758,3.56739,7.89649,8.45313,18.71,21.16455,26.35059,6.69,4.02246,15.09424,5.13086,23.22168,6.20312,8.00342,1.05567,16.2793,2.14747,22.51758,5.89649,4.71778,2.83594,8.80713,8.56543,13.13623,14.63086,5.32129,7.45508,10.82324,15.165,19.0083,20.084,7.78125,4.67578,16.90967,5.88281,25.73828,7.04981,7.65332,1.01269,14.88282,1.96777,20.00586,5.04687,5.49561,3.30274,9.86817,9.42578,14.49707,15.90918,5.03809,7.05567,10.24707,14.35156,17.65332,18.80078q.77637.46729,1.57911.90137a41.98278,41.98278,0,0,1,13.54687,11.12695,23.54511,23.54511,0,0,0,14.76367,8.93262v17.35254a2.49506,2.49506,0,0,1-3.86181,2.0918L264.27688,102.749a7.58884,7.58884,0,0,0-.833-.46972,17.39652,17.39652,0,0,0-15.1001-.03516,7.59729,7.59729,0,0,0-.814.45117Zm277.231,176.6377a7.49974,7.49974,0,0,0,7.5-7.5V319.02637a37.54225,37.54225,0,0,0-37.5-37.5H222.128a37.54226,37.54226,0,0,0-37.5,37.5V426.17725c-7.78851-3.03223-17.05554-5.12647-29.63867-4.91163-18.77832.33692-30.78223,5.65626-41.37256,10.34864-6.71918,2.97754-12.83124,5.67627-20.31689,7.19238V412.84473a146.72411,146.72411,0,0,0,36.53076-12.00684c6.1709-2.94531,7.60937-11.46289,5.041-17.26562L88.56154,278.98145c-3.827-8.644-8.533-12.832-12.68066-14.79493V230.1709l179.20068-114.5a2.44482,2.44482,0,0,1,1.55371.001l179.24512,116.5625V440.19824a108.088,108.088,0,0,1-11.43994,1.15137c-17.66748.78613-28.292-3.0459-40.59619-7.47949-12.32178-4.44141-26.27442-9.47071-48.34815-9.47071-.13818,0-.28027.001-.41894.001-25.75049.07422-40.46729,6.83789-53.45166,12.80566-12.64014,5.80957-23.55713,10.82715-43.73828,9.168-17.91162-1.47265-27.53028-6.832-37.71387-12.50683q-.27237-.15162-.54541-.30371V319.02637a22.52554,22.52554,0,0,1,22.5-22.5H289.6382a22.52554,22.52554,0,0,1,22.5,22.5v83.86914A7.49974,7.49974,0,0,0,319.6382,410.39551ZM17.08938,388.55371l45.82666-103.5c2.50341-5.65332,5.09961-7.48242,5.96484-7.48242s3.46191,1.8291,5.96484,7.48242l45.82715,103.501a125.25246,125.25246,0,0,1-51.04,11.55078,116.37568,116.37568,0,0,1-16.25818-1.00733,7.4082,7.4082,0,0,0-.75634-.104A129.12833,129.12833,0,0,1,17.08938,388.55371Zm61.21045,26.20947v25.28321a79.00815,79.00815,0,0,1-11.87354-1.16162,57.83031,57.83031,0,0,0-6.96289-.78321V414.76025c3.13641.22266,6.27679.34815,9.42041.34815.28076,0,.564-.001.84473-.00293C72.58828,415.0874,75.44564,414.96631,78.29983,414.76318Zm418.69824,79.73291a2.50263,2.50263,0,0,1-2.5,2.5h-477a2.50263,2.50263,0,0,1-2.5-2.5v-.457a40.74816,40.74816,0,0,1,14.58252-31.29492,41.6597,41.6597,0,0,1,26.83105-9.73828,42.64948,42.64948,0,0,1,7.40723.65039,92.07966,92.07966,0,0,0,17.40918,1.41992c1.75183-.02344,3.42444-.10693,5.05359-.22363.11218-.00684.22534-.01025.33618-.022,13.98157-1.05567,23.67682-5.33789,33.07556-9.50245,10.19287-4.5166,19.82031-8.78222,35.56494-9.06445,17.82764-.333,26.99561,4.79,37.61377,10.707,10.61133,5.91211,22.63867,12.61426,43.78565,14.35254,24.10009,1.98731,37.89355-4.35742,51.23193-10.4873,12.1626-5.59082,24.73975-11.3711,47.23047-11.43555.13232,0,.26172-.001.39306-.001,19.43262,0,31.00293,4.16993,43.24561,8.582,12.64453,4.55664,25.7207,9.27441,46.34814,8.35253a124.34444,124.34444,0,0,0,21.38428-2.84277,41.57958,41.57958,0,0,1,35.2168,8.12793,40.69436,40.69436,0,0,1,15.29,31.89746Z"/></svg>