<svg xmlns="http://www.w3.org/2000/svg" data-name="Layer 1" viewBox="0 0 512 512"><path fill="#fac600" d="M243.88536,256.13487,330.573,451.374h86l86.68767-195.23916a15,15,0,0,0-1.41259-14.486L431.573,161.5h-116L245.298,241.64887A15,15,0,0,0,243.88536,256.13487Z"/><path fill="#fedf30" d="M504.40234,248.5a14.98439,14.98439,0,0,0-2.5542-6.85107L431.57324,161.5h-116l-70.27539,80.14893A14.98387,14.98387,0,0,0,242.74414,248.5Z"/><line x1="345.072" x2="327.074" y1="161.5" y2="248.5" fill="#fed402"/><line x1="402.074" x2="420.072" y1="161.5" y2="248.5" fill="#c4e2ff"/><path fill="#fedf30" d="M242.74414,248.5a14.985,14.985,0,0,0,1.14111,7.63477l86.688,195.23925h25.81153L327.07422,248.5Z"/><path fill="#554e56" d="M408.24478,121.84556H338.9013l22.75642-23.79613a16.48679,16.48679,0,0,1,23.83064,0Z"/><path fill="#433f43" d="M385.48828,98.04932a16.48247,16.48247,0,0,0-19.415-3.27588,16.43443,16.43443,0,0,1,4.415,3.27588l22.75635,23.79614h15Z"/><path fill="#fedf30" d="M503.26074,256.13477a14.98521,14.98521,0,0,0,1.1416-7.63477h-84.332L390.75977,451.374h25.81347Z"/><path fill="#fac600" d="M504.40234 248.5a14.98439 14.98439 0 0 0-2.5542-6.85107L431.57324 161.5h-29.499l17.99609 87zM315.57324 161.5l-70.27539 80.14893A14.98387 14.98387 0 0 0 242.74414 248.5h84.33008l17.99756-87z"/><path fill="#685e68" d="M330.56415,121.84556h86.01777a15,15,0,0,1,15,15V161.5a0,0,0,0,1,0,0H315.56415a0,0,0,0,1,0,0V136.84556A15,15,0,0,1,330.56415,121.84556Z"/><path fill="#554e56" d="M416.582,121.84546h-30a15.00012,15.00012,0,0,1,15,15V161.5h30V136.84546A15.00012,15.00012,0,0,0,416.582,121.84546Z"/><path fill="#685e68" d="M430.06982,460.37012v8.68994a9.0014,9.0014,0,0,1-4.81982,7.97l-48.25,25.28a9.03394,9.03394,0,0,1-4.98.99,8.89751,8.89751,0,0,1-3.37012-.99l-48.25-25.28a9.011,9.011,0,0,1-4.83008-7.97v-8.68994a9.00076,9.00076,0,0,1,9-9h96.5A9.00044,9.00044,0,0,1,430.06982,460.37012Z"/><path fill="#554e56" d="M430.06982,460.37012v8.68994a9.0014,9.0014,0,0,1-4.81982,7.97l-48.25,25.28a9.03394,9.03394,0,0,1-4.98.99c9.33984-7.04,21.94971-19.90015,22.83984-38.46021a44.01563,44.01563,0,0,0-1.46-13.46972h27.66992A9.00044,9.00044,0,0,1,430.06982,460.37012Z"/><path fill="#0182fc" d="M8.73929,256.13487,95.427,451.374h86l86.68768-195.23916a15,15,0,0,0-1.41259-14.486L196.427,161.5h-116L10.15188,241.64887A15,15,0,0,0,8.73929,256.13487Z"/><path fill="#26a6fe" d="M269.25627,248.5a14.98462,14.98462,0,0,0-2.5542-6.85107L196.42717,161.5h-116L10.15178,241.64893A14.98365,14.98365,0,0,0,7.59807,248.5Z"/><line x1="109.926" x2="91.928" y1="161.5" y2="248.5" fill="#fed402"/><line x1="166.928" x2="184.926" y1="161.5" y2="248.5" fill="#c4e2ff"/><path fill="#26a6fe" d="M7.59807,248.5a14.98488,14.98488,0,0,0,1.14111,7.63477L95.42717,451.374h25.81152L91.92814,248.5Z"/><path fill="#554e56" d="M173.0987,121.84556H103.75522l22.75642-23.79613a16.48679,16.48679,0,0,1,23.83064,0Z"/><path fill="#26a6fe" d="M268.11467,256.13477a14.98531,14.98531,0,0,0,1.1416-7.63477h-84.332L155.61369,451.374h25.81348Z"/><path fill="#0182fc" d="M269.25627 248.5a14.98462 14.98462 0 0 0-2.5542-6.85107L196.42717 161.5h-29.499l17.9961 87zM80.42717 161.5L10.15178 241.64893A14.98365 14.98365 0 0 0 7.59807 248.5H91.92814l17.99756-87z"/><path fill="#685e68" d="M95.41808,121.84556h86.01777a15,15,0,0,1,15,15V161.5a0,0,0,0,1,0,0H80.41808a0,0,0,0,1,0,0V136.84556A15,15,0,0,1,95.41808,121.84556Z"/><path fill="#433f43" d="M150.34221,98.04932a16.48247,16.48247,0,0,0-19.415-3.27588,16.43459,16.43459,0,0,1,4.415,3.27588l22.75634,23.79614h15Z"/><path fill="#554e56" d="M181.436,121.84546h-30a15.00012,15.00012,0,0,1,15,15V161.5h30V136.84546A15.00012,15.00012,0,0,0,181.436,121.84546Z"/><path fill="#685e68" d="M190.10433,477.02715l-48.25,25.28384a9,9,0,0,1-8.35473,0l-48.25-25.28384a9,9,0,0,1-4.82264-7.97181V460.374a9,9,0,0,1,9-9h96.5a9,9,0,0,1,9,9v8.68131A9,9,0,0,1,190.10433,477.02715Z"/><path fill="#554e56" d="M194.927,460.37012v8.68994a9.00142,9.00142,0,0,1-4.81982,7.97l-48.25,25.28a9.034,9.034,0,0,1-4.98.99c9.33984-7.04,21.9497-19.90015,22.83984-38.46021a44.01594,44.01594,0,0,0-1.46-13.46972H185.927A9.00044,9.00044,0,0,1,194.927,460.37012Z"/><path fill="#282828" d="M508.01955,237.38574a7.54271,7.54271,0,0,0-.53418-.68554L439.0801,158.68359V136.8418a22.52586,22.52586,0,0,0-22.5-22.5h-5.13135L390.90627,92.86133a23.8288,23.8288,0,0,0-9.835-6.2168V7.49609a7.5,7.5,0,1,0-15,0V86.64453a23.829,23.829,0,0,0-9.83594,6.2168l-20.5415,21.48047h-5.13135a22.52586,22.52586,0,0,0-22.5,22.5v21.84179L255.99807,218.0625l-52.06348-59.37793V136.8418a22.52586,22.52586,0,0,0-22.5-22.5h-5.13232L155.76076,92.86133a23.8289,23.8289,0,0,0-9.83593-6.2168V7.49609a7.5,7.5,0,0,0-15,0V86.64453a23.83207,23.83207,0,0,0-9.83594,6.2168l-20.541,21.48047H95.416a22.52586,22.52586,0,0,0-22.5,22.5v21.84179L4.51076,236.7002a7.54449,7.54449,0,0,0-.53418.68554A22.3997,22.3997,0,0,0,1.88283,259.1748L84.26125,444.71a16.52114,16.52114,0,0,0-11.33642,15.66016v8.68066A16.45532,16.45532,0,0,0,81.76662,483.667l48.25,25.28223a16.49908,16.49908,0,0,0,15.31739.001l48.25-25.28321a16.45628,16.45628,0,0,0,8.84082-14.61621v-8.68066a16.52273,16.52273,0,0,0-10.04834-15.1836l63.62207-143.28906L319.40774,444.71a16.52115,16.52115,0,0,0-11.33643,15.66016v8.68066a16.45628,16.45628,0,0,0,8.84082,14.61621l48.25,25.28223a16.49906,16.49906,0,0,0,15.31738.001l48.25-25.28321a16.45533,16.45533,0,0,0,8.8418-14.61621v-8.68066a16.52271,16.52271,0,0,0-10.04834-15.1836L445.82815,403.958a7.5,7.5,0,0,0-13.709-6.08789l-20.42383,46H399.419l27.14355-187.874h68.55029L444.66408,369.61621a7.5,7.5,0,1,0,13.709,6.08789l51.76562-116.58789A22.36772,22.36772,0,0,0,508.01955,237.38574ZM367.07717,103.22852a8.9855,8.9855,0,0,1,12.98828,0l10.62744,11.11328H356.44973ZM323.06252,136.8418a7.5082,7.5082,0,0,1,7.5-7.5H416.5801a7.5082,7.5082,0,0,1,7.5,7.5v17.15429H323.06252Zm87.79736,104.15429H336.28274l14.895-72h44.7871Zm-91.89013-72h16.89013l-14.895,72h-46.062a22.77493,22.77493,0,0,0-2.02881-3.61035,7.54094,7.54094,0,0,0-.53418-.68554l-6.36669-7.26075Zm-62.8125,72h-65.126l-14.894-72H193.0259Zm-119.72364,0H101.13723l14.894-72h44.78809l14.894,72h-9.27979a7.5,7.5,0,0,0,0,15h9.82813l-27.14453,187.874H127.73147l-27.14356-187.874h35.8457a7.5,7.5,0,0,0,0-15Zm-4.5039-137.76757a8.98778,8.98778,0,0,1,12.99023,0l10.62793,11.11328H121.30276ZM87.916,136.8418a7.50819,7.50819,0,0,1,7.5-7.5h86.01855a7.5082,7.5082,0,0,1,7.5,7.5v17.15429H87.916Zm-4.09229,32.15429H100.7134l-14.894,72h-65.125Zm-66.94043,87H85.43264l27.14355,187.874H100.3008ZM187.42483,469.05078a1.49376,1.49376,0,0,1-.80372,1.3291l-48.25,25.28418a1.49811,1.49811,0,0,1-1.3916-.001l-48.25-25.28321a1.49689,1.49689,0,0,1-.80468-1.3291v-8.68066a1.50164,1.50164,0,0,1,1.5-1.5h5.97656l.02734.002c.0127,0,.02539-.002.03809-.002h25.73926l.02148.001.01367-.001h34.36621l.01367.001.02149-.001h25.74023c.0127,0,.02539.002.03809.002l.02734-.002h4.47657a1.50164,1.50164,0,0,1,1.5,1.5Zm-10.876-25.18066H164.27248l27.14453-187.874h68.5503ZM264.20461,283.416l10.78955-24.30079a22.85611,22.85611,0,0,0,1.084-3.11914h44.5l27.14355,187.874H335.44729Zm152.32471,175.4541c.01269,0,.02539.002.03808.002l.02735-.002h4.47656a1.50164,1.50164,0,0,1,1.5,1.5v8.68066a1.49688,1.49688,0,0,1-.80469,1.3291l-48.25,25.28418a1.49811,1.49811,0,0,1-1.3916-.001l-48.25-25.28321a1.49377,1.49377,0,0,1-.80371-1.3291v-8.68066a1.50164,1.50164,0,0,1,1.5-1.5h5.97656l.02735.002c.01269,0,.02539-.002.03808-.002h25.73828l.02149.001.01367-.001h34.36719l.01367.001.02148-.001Zm-32.26563-15H362.877l-27.14355-187.874h75.67383Zm41.91407-202.874-14.895-72h16.89013l63.12989,72Z"/></svg>