<svg xmlns="http://www.w3.org/2000/svg" data-name="Layer 1" viewBox="0 0 512 512"><ellipse cx="256" cy="159.456" fill="#e53950" rx="30" ry="47.956"/><ellipse cx="102.556" cy="136.589" fill="#26a6fe" rx="30" ry="47.956"/><ellipse cx="409.239" cy="136.589" fill="#fed402" rx="30" ry="47.956"/><ellipse cx="256" cy="407.956" fill="#e53950" rx="30" ry="47.956"/><path fill="#ca2e43" d="M263.68555,361.595C268.23877,370.00409,271,380.96112,271,392.95581c0,26.48529-13.43164,47.95587-30,47.95587a19.64053,19.64053,0,0,1-7.68555-1.595c5.501,10.15894,13.62061,16.595,22.68555,16.595,16.56836,0,30-21.47058,30-47.95587C286,385.71808,276.52979,367.02185,263.68555,361.595Z"/><path fill="#685e68" d="M278.96033,375H233.03967a5,5,0,0,1-4.721-6.64686l11.51163-33A5,5,0,0,1,244.5513,332h22.8974a5,5,0,0,1,4.721,3.35314l11.51163,33A5,5,0,0,1,278.96033,375Z"/><path fill="#554e56" d="M283.68127,368.35347l-11.51135-33.00032A4.99993,4.99993,0,0,0,267.449,332h-9.75365l4.26674,12.2309a15,15,0,0,1-14.16295,19.94073H229.77734l-1.45865,4.182A4.99979,4.99979,0,0,0,233.03955,375h45.9209A4.99979,4.99979,0,0,0,283.68127,368.35347Z"/><ellipse cx="102.556" cy="385.089" fill="#26a6fe" rx="30" ry="47.956"/><path fill="#0593fc" d="M110.2417,338.72821c4.55322,8.40906,7.31445,19.36615,7.31445,31.36084,0,26.48529-13.43164,47.95581-30,47.95581a19.64049,19.64049,0,0,1-7.68554-1.595c5.501,10.15893,13.6206,16.595,22.68554,16.595,16.56836,0,30-21.47052,30-47.95581C132.55615,362.85132,123.08594,344.15509,110.2417,338.72821Z"/><path fill="#685e68" d="M125.51647,352.13321H79.59581a5,5,0,0,1-4.721-6.64686l11.51163-33a5,5,0,0,1,4.721-3.35314h22.8974a5,5,0,0,1,4.721,3.35314l11.51163,33A5,5,0,0,1,125.51647,352.13321Z"/><ellipse cx="409.239" cy="385.089" fill="#fed402" rx="30" ry="47.956"/><path fill="#fac600" d="M416.9248,338.72821c4.55323,8.40906,7.31446,19.36615,7.31446,31.36084,0,26.48529-13.43164,47.95581-30,47.95581a19.6405,19.6405,0,0,1-7.68555-1.595c5.501,10.15893,13.62061,16.595,22.68555,16.595,16.56836,0,30-21.47052,30-47.95581C439.23926,362.85132,429.76855,344.15509,416.9248,338.72821Z"/><path fill="#ca2e43" d="M263.68555,113.86682C268.23877,122.27588,271,133.23291,271,145.2276c0,26.48529-13.43164,47.95587-30,47.95587a19.64053,19.64053,0,0,1-7.68555-1.595c5.501,10.15894,13.62061,16.595,22.68555,16.595,16.56836,0,30-21.47058,30-47.95587C286,137.98987,276.52979,119.29364,263.68555,113.86682Z"/><path fill="#0593fc" d="M110.2417,91c4.55322,8.40906,7.31445,19.36615,7.31445,31.36084,0,26.48529-13.43164,47.95581-30,47.95581a19.64049,19.64049,0,0,1-7.68554-1.595c5.501,10.15893,13.6206,16.595,22.68554,16.595,16.56836,0,30-21.47052,30-47.95581C132.55615,115.12311,123.08594,96.42688,110.2417,91Z"/><path fill="#fac600" d="M416.9248,91c4.55323,8.40906,7.31446,19.36615,7.31446,31.36084,0,26.48529-13.43164,47.95581-30,47.95581a19.6405,19.6405,0,0,1-7.68555-1.595c5.501,10.15893,13.62061,16.595,22.68555,16.595,16.56836,0,30-21.47052,30-47.95581C439.23926,115.12311,429.76855,96.42688,416.9248,91Z"/><path fill="#685e68" d="M432.1995,352.13321H386.27885a5,5,0,0,1-4.721-6.64686l11.51162-33a5,5,0,0,1,4.721-3.35314h22.8974a5,5,0,0,1,4.721,3.35314l11.51163,33A5,5,0,0,1,432.1995,352.13321Z"/><path fill="#554e56" d="M436.92044 345.48669L425.4091 312.48636a5 5 0 0 0-4.721-3.35315h-9.75364l4.26673 12.2309a15 15 0 0 1-14.16295 19.94073H383.01652l-1.45866 4.182a4.99979 4.99979 0 0 0 4.72086 6.6464h45.9209A4.99978 4.99978 0 0 0 436.92044 345.48669zM130.23742 345.48669l-11.51135-33.00033a4.99993 4.99993 0 0 0-4.721-3.35315h-9.75365l4.26674 12.2309a15 15 0 0 1-14.16295 19.94073H76.3335l-1.45866 4.182a4.99978 4.99978 0 0 0 4.72086 6.6464h45.9209A4.99979 4.99979 0 0 0 130.23742 345.48669z"/><path fill="#685e68" d="M278.96033 126.5H233.03967a5 5 0 0 1-4.721-6.64686l11.51163-33A5 5 0 0 1 244.5513 83.5h22.8974a5 5 0 0 1 4.721 3.35314l11.51163 33A5 5 0 0 1 278.96033 126.5zM125.51647 103.63321H79.59581a5 5 0 0 1-4.721-6.64686l11.51163-33a5 5 0 0 1 4.721-3.35314h22.8974a5 5 0 0 1 4.721 3.35314l11.51163 33A5 5 0 0 1 125.51647 103.63321zM432.1995 103.63321H386.27885a5 5 0 0 1-4.721-6.64686l11.51162-33a5 5 0 0 1 4.721-3.35314h22.8974a5 5 0 0 1 4.721 3.35314l11.51163 33A5 5 0 0 1 432.1995 103.63321z"/><path fill="#554e56" d="M283.68127 119.85356L272.16992 86.85324a4.99993 4.99993 0 0 0-4.721-3.35315h-9.75365L261.962 95.731a15 15 0 0 1-14.16295 19.94073H229.77734l-1.45865 4.182a4.99979 4.99979 0 0 0 4.72086 6.6464h45.9209A4.99979 4.99979 0 0 0 283.68127 119.85356zM436.92044 96.98678L425.4091 63.98645a5 5 0 0 0-4.721-3.35315h-9.75364l4.26673 12.2309a15 15 0 0 1-14.16295 19.94073H383.01652l-1.45866 4.182a4.99979 4.99979 0 0 0 4.72086 6.6464h45.9209A4.99979 4.99979 0 0 0 436.92044 96.98678zM130.23742 96.98678L118.72607 63.98645a4.99993 4.99993 0 0 0-4.721-3.35315h-9.75365l4.26674 12.2309A15 15 0 0 1 94.35525 92.80493H76.3335l-1.45866 4.182a4.99978 4.99978 0 0 0 4.72086 6.6464h45.9209A4.99979 4.99979 0 0 0 130.23742 96.98678z"/><path fill="#282828" d="M281.28811,231.57031a7.50085,7.50085,0,0,0-1.127,10.54688l15,18.58886a7.50022,7.50022,0,1,0,11.67383-9.41992l-15-18.58886A7.501,7.501,0,0,0,281.28811,231.57031Zm92.1123-22.82519-15,18.58886a7.50022,7.50022,0,0,0,11.67383,9.41993l15-18.58887a7.50022,7.50022,0,1,0-11.67383-9.41992ZM248.49807,237.40723v18.58886a7.5,7.5,0,1,0,15,0V237.40723a7.5,7.5,0,1,0-15,0Zm153.23926-23.95215V232.044a7.5,7.5,0,0,0,15,0V213.45508a7.5,7.5,0,0,0-15,0ZM220.16115,232.69727l-15,18.58886a7.50022,7.50022,0,0,0,11.67383,9.41992l15-18.58886a7.50022,7.50022,0,1,0-11.67383-9.41992Zm214.36621-25.07911a7.50086,7.50086,0,0,0-1.12695,10.54688l15,18.58887a7.50022,7.50022,0,0,0,11.67383-9.41993l-15-18.58886A7.50085,7.50085,0,0,0,434.52736,207.61816ZM5.69924,14.77734q44.24634,10.92993,89.35449,17.9502V53.12891H91.10549a12.51023,12.51023,0,0,0-11.80176,8.38281l-11.51172,33a12.31169,12.31169,0,0,0,2.80664,12.77344,77.32843,77.32843,0,0,0-5.54492,29.2998c0,31.09668,16.47168,55.45606,37.5,55.45606s37.5-24.35938,37.5-55.45606a77.33877,77.33877,0,0,0-5.54443-29.29932,12.31154,12.31154,0,0,0,2.80713-12.77392l-11.51075-32.999A12.512,12.512,0,0,0,114.003,53.12891h-3.94922V34.96a1042.49255,1042.49255,0,0,0,118.251,9.93652c6.73535.17872,13.46289.26905,20.19336.31641v30.7832h-3.94824a12.511,12.511,0,0,0-11.80274,8.38184l-11.51172,33a12.52026,12.52026,0,0,0,1.61133,11.35645,12.36846,12.36846,0,0,0,1.19629,1.418,77.32833,77.32833,0,0,0-5.54492,29.29981c0,31.09668,16.47168,55.45508,37.5,55.45508s37.5-24.3584,37.5-55.45508a77.3322,77.3322,0,0,0-5.54492-29.29981,12.31421,12.31421,0,0,0,2.80761-12.77441L279.25,84.37891a12.51272,12.51272,0,0,0-11.80371-8.38282h-3.94824V45.23291a1043.82443,1043.82443,0,0,0,138.23926-10.2373v18.1333h-3.94922a12.51023,12.51023,0,0,0-11.80176,8.38281l-11.51172,33a12.5213,12.5213,0,0,0,1.61035,11.35547,12.38076,12.38076,0,0,0,1.19727,1.41845,77.31268,77.31268,0,0,0-5.54492,29.29932c0,31.09668,16.47168,55.45606,37.5,55.45606s37.5-24.35938,37.5-55.45606a77.32763,77.32763,0,0,0-5.54493-29.29932,12.38076,12.38076,0,0,0,1.19727-1.41845A12.52127,12.52127,0,0,0,444,94.51172L432.4883,61.50977a12.5157,12.5157,0,0,0-11.80273-8.38086h-3.94824V32.76709q45.082-7.032,89.55664-17.98975a7.49946,7.49946,0,1,0-3.5918-14.5625,1030.59382,1030.59382,0,0,1-273.999,29.6875A1030.47435,1030.47435,0,0,1,9.2969.21484a7.50016,7.50016,0,0,0-3.59766,14.5625ZM431.73733,136.585c0,21.55176-10.51368,40.45606-22.5,40.45606s-22.5-18.9043-22.5-40.45606a60.79457,60.79457,0,0,1,5.231-25.456h34.5376A60.795,60.795,0,0,1,431.73733,136.585Zm-12.82715-68.456,9.76758,28H389.7969l9.76757-28ZM278.49807,159.45215c0,21.55078-10.51367,40.45508-22.5,40.45508s-22.5-18.9043-22.5-40.45508a60.79516,60.79516,0,0,1,5.23095-25.45606h34.53809A60.80585,60.80585,0,0,1,278.49807,159.45215ZM265.6719,90.99609l9.76757,28H236.55666l9.76758-28ZM125.05373,136.585c0,21.55176-10.51367,40.45606-22.5,40.45606s-22.5-18.9043-22.5-40.45606a60.795,60.795,0,0,1,5.23145-25.456h34.53759A60.79656,60.79656,0,0,1,125.05373,136.585Zm-12.82715-68.456,9.76758,28H83.11428l9.76758-28Zm26.16407,389.11621a7.50022,7.50022,0,1,0-11.67383,9.41992l15,18.58887a7.50022,7.50022,0,0,0,11.67383-9.41993Zm117.60742,21.16211a7.49943,7.49943,0,0,0-7.5,7.5v18.58886a7.5,7.5,0,1,0,15,0V485.90723A7.49943,7.49943,0,0,0,255.99807,478.40723ZM127.84377,207.61816a7.50085,7.50085,0,0,0-1.127,10.54688l15,18.58887a7.50022,7.50022,0,0,0,11.67383-9.41993l-15-18.58886A7.501,7.501,0,0,0,127.84377,207.61816ZM291.835,481.19727a7.50022,7.50022,0,1,0-11.67383,9.41992l15,18.58886a7.50022,7.50022,0,1,0,11.67383-9.41992Zm117.40235-26.74219a7.49943,7.49943,0,0,0-7.5,7.5V480.544a7.5,7.5,0,0,0,15,0V461.95508A7.49944,7.49944,0,0,0,409.23733,454.45508Zm93.46484-205.74024a1030.63415,1030.63415,0,0,1-273.999,29.6875A1030.47435,1030.47435,0,0,1,9.2969,248.71484a7.50016,7.50016,0,0,0-3.59766,14.5625q44.24634,10.92993,89.35449,17.9502v20.40137H91.10549a12.51023,12.51023,0,0,0-11.80176,8.38281l-11.51172,33a12.31169,12.31169,0,0,0,2.80664,12.77344,77.32843,77.32843,0,0,0-5.54492,29.2998c0,31.09668,16.47168,55.45606,37.5,55.45606s37.5-24.35938,37.5-55.45606a77.33877,77.33877,0,0,0-5.54443-29.29932,12.31154,12.31154,0,0,0,2.80713-12.77392l-11.51075-32.999a12.512,12.512,0,0,0-11.80273-8.38379h-3.94922V283.46a1042.49255,1042.49255,0,0,0,118.251,9.93652c6.73535.17872,13.46289.269,20.19336.31641v30.7832h-3.94824a12.511,12.511,0,0,0-11.80274,8.38184l-11.51172,33a12.52026,12.52026,0,0,0,1.61133,11.35645,12.36846,12.36846,0,0,0,1.19629,1.418,77.32833,77.32833,0,0,0-5.54492,29.29981c0,31.09668,16.47168,55.45508,37.5,55.45508,12.49414,0,23.68652-8.499,30.707-23.31739a7.4995,7.4995,0,1,0-13.55469-6.42187c-4.37305,9.22949-10.78515,14.73926-17.15234,14.73926-11.98633,0-22.5-18.9043-22.5-40.45508a60.79516,60.79516,0,0,1,5.23095-25.45606h34.53809a60.80585,60.80585,0,0,1,5.231,25.45606,7.5,7.5,0,0,0,15,0,77.3322,77.3322,0,0,0-5.54492-29.29981,12.31421,12.31421,0,0,0,2.80761-12.77441L279.25,332.87891a12.51272,12.51272,0,0,0-11.80371-8.38282h-3.94824V293.73291a1043.82443,1043.82443,0,0,0,138.23926-10.2373v18.1333h-3.94922a12.51023,12.51023,0,0,0-11.80176,8.38281l-11.51172,33a12.5213,12.5213,0,0,0,1.61035,11.35547,12.38076,12.38076,0,0,0,1.19727,1.41845,77.31268,77.31268,0,0,0-5.54492,29.29932c0,31.09668,16.47168,55.45606,37.5,55.45606s37.5-24.35938,37.5-55.45606a77.32763,77.32763,0,0,0-5.54493-29.29932,12.38076,12.38076,0,0,0,1.19727-1.41845A12.52127,12.52127,0,0,0,444,343.01172l-11.51172-33.002a12.5157,12.5157,0,0,0-11.80273-8.38086h-3.94824V281.26709q45.082-7.032,89.55664-17.98975a7.49946,7.49946,0,1,0-3.5918-14.5625ZM125.05373,385.085c0,21.55176-10.51367,40.45606-22.5,40.45606s-22.5-18.9043-22.5-40.45606a60.795,60.795,0,0,1,5.23145-25.45605h34.53759A60.79656,60.79656,0,0,1,125.05373,385.085Zm-12.82715-68.456,9.76758,28H83.11428l9.76758-28ZM265.6719,339.49609l9.76757,28H236.55666l9.76758-28ZM431.73733,385.085c0,21.55176-10.51368,40.45606-22.5,40.45606s-22.5-18.9043-22.5-40.45606a60.79457,60.79457,0,0,1,5.231-25.45605h34.5376A60.795,60.795,0,0,1,431.73733,385.085Zm-12.82715-68.456,9.76758,28H389.7969l9.76757-28Zm26.16406,140.61621a7.50022,7.50022,0,1,0-11.67383,9.41992l15,18.58887a7.50022,7.50022,0,1,0,11.67383-9.41993Zm-61.12695-1.127a7.4995,7.4995,0,0,0-10.54688,1.127l-15,18.58886a7.50022,7.50022,0,0,0,11.67383,9.41993l15-18.58887A7.50085,7.50085,0,0,0,383.94729,456.11816ZM66.71682,208.74512l-15,18.58886a7.50022,7.50022,0,0,0,11.67383,9.41993l15-18.58887a7.50022,7.50022,0,1,0-11.67383-9.41992Zm28.33691,4.71V232.044a7.5,7.5,0,0,0,15,0V213.45508a7.5,7.5,0,0,0-15,0Zm7.5,241a7.49943,7.49943,0,0,0-7.5,7.5V480.544a7.5,7.5,0,0,0,15,0V461.95508A7.49943,7.49943,0,0,0,102.55373,454.45508ZM230.708,480.07031a7.49959,7.49959,0,0,0-10.54688,1.127l-15,18.58886a7.50022,7.50022,0,0,0,11.67383,9.41992l15-18.58886A7.50085,7.50085,0,0,0,230.708,480.07031ZM77.26369,456.11816a7.49949,7.49949,0,0,0-10.54687,1.127l-15,18.58886a7.50022,7.50022,0,0,0,11.67383,9.41993l15-18.58887A7.50085,7.50085,0,0,0,77.26369,456.11816Z"/></svg>