<svg xmlns="http://www.w3.org/2000/svg" data-name="Layer 1" viewBox="0 0 512 512"><path fill="#685e68" d="M221,131.60046h70a10,10,0,0,1,10,10v33a0,0,0,0,1,0,0H211a0,0,0,0,1,0,0v-33A10,10,0,0,1,221,131.60046Z"/><path fill="#554e56" d="M291,131.60059h-8.73145v4.46377a17.03622,17.03622,0,0,1-17.03622,17.03623H211v21.5h90v-33A10,10,0,0,0,291,131.60059Z"/><path fill="#01c0fa" d="M179.62012,181.72c-4.34009,8.61011-8.76026,18.36011-12.93018,29.17993q-12.67493-1.34985-25.27-3.08984A170.69064,170.69064,0,0,1,179.62012,181.72Z"/><path fill="#fd544d" d="M191.32007,493.12988a171.15816,171.15816,0,0,1-54.02-35.23q18.98987,3.22523,38.15991,5.46A325.55312,325.55312,0,0,0,191.32007,493.12988Z"/><path fill="#fe6c55" d="M208.01,498.97a7.48875,7.48875,0,0,0-.21-7.67993C202.99,483.7,197.95,474.97,193.01,465.16992q14.265,1.30518,28.57007,2.04,3.78,18.43506,8.65991,36.66016A168.74475,168.74475,0,0,1,208.01,498.97Z"/><path fill="#fe7c66" d="M264.12988,503.08008a7.36535,7.36535,0,0,0-.25976,2.54q-3.91516.1798-7.87012.17993-7.18506,0-14.23-.59009,1.95007.15015,3.8999.27a7.70721,7.70721,0,0,0-.22-2.77q-4.73987-17.32507-8.40991-34.87012,9.375.27027,18.74.33008h2.86011q7.13964,0,14.28979-.1499Q269.03016,485.66,264.12988,503.08008Z"/><path fill="#fe8f83" d="M304.2,491.29a7.48875,7.48875,0,0,0-.21,7.67993,168.42246,168.42246,0,0,1-24.61987,5.24q5.0548-18.20984,9.02-36.65991Q303.585,466.9198,318.75,465.6499C313.87988,475.26,308.92993,483.83008,304.2,491.29Z"/><path fill="#ffa799" d="M373.58008,458.97a170.83,170.83,0,0,1-52.89014,34.15015A327.169,327.169,0,0,0,336.25,463.99Q354.985,461.96521,373.58008,458.97Z"/><path fill="#2ed1e2" d="M370.2,207.47q-12.46472,1.75526-25,3.13013c-4.13989-10.7002-8.52-20.3501-12.82007-28.88013A170.47387,170.47387,0,0,1,370.2,207.47Z"/><path fill="#07b2cd" d="M234.28,165.10986q-7.26013,24.6753-12.45,49.82007-19.83033-.78-39.62012-2.52A305.77859,305.77859,0,0,1,195.95,182.78a7.51236,7.51236,0,0,0-.59009-7.96A169.92675,169.92675,0,0,1,234.28,165.10986Z"/><path fill="#03bed7" d="M276.68994,215.28q-10.36486.28491-20.69995.3-9.45007.03-18.91992-.18994,5.12988-24.33033,12.24-48.25a7.40042,7.40042,0,0,0,.22-3.26026c2.1499-.08984,4.3-.12988,6.47-.12988,3.07007,0,6.12988.08008,9.15991.24a7.68136,7.68136,0,0,0,.24,2.55Q272.03015,190.69019,276.68994,215.28Z"/><path fill="#02c7dd" d="M329.68994,212.15991q-18.88476,1.71021-37.83008,2.57007-4.61975-24.795-11.2-49.21a168.81656,168.81656,0,0,1,35.97,9.31006,7.51532,7.51532,0,0,0-.57983,7.95A306.03289,306.03289,0,0,1,329.68994,212.15991Z"/><path fill="#f99675" d="M415.39014,396.87012A169.85457,169.85457,0,0,1,387.41992,444.22a7.42671,7.42671,0,0,0-6.21-1.73q-18.90015,3.31494-38,5.61011A321.11957,321.11957,0,0,0,356.87988,406.72,590.24108,590.24108,0,0,0,415.39014,396.87012Z"/><path fill="#fec165" d="M427.03,334.78a170.67366,170.67366,0,0,1-6.42017,46.55005,7.41652,7.41652,0,0,0-3.91992-.14014,553.04659,553.04659,0,0,1-56.23,9.98A319.07575,319.07575,0,0,0,366.53,343.54a540.9945,540.9945,0,0,0,60.46-11.41016c-.02-1.27-.05-2.5498-.09009-3.81982C426.99,330.46,427.03,332.60986,427.03,334.78Z"/><path fill="#fef48b" d="M426.10986,317a6.87152,6.87152,0,0,0-1.25976.2A517.231,517.231,0,0,1,366.95,328.3501a318.89283,318.89283,0,0,0-3.1499-46.40015c17.77-2.32007,34.66992-5.24,50.40991-8.74a6.894,6.894,0,0,0,1.24-.38989,167.93486,167.93486,0,0,1,5.82007,17.78A170.44582,170.44582,0,0,1,426.10986,317Z"/><path fill="#57be92" d="M409.32007,258.91992c-14.84009,3.24-30.96021,5.99-47.97,8.18994a324.53418,324.53418,0,0,0-10.94019-42Q364.375,223.52015,378.24,221.47a7.41108,7.41108,0,0,0,4.07007-2A170.86721,170.86721,0,0,1,409.32007,258.91992Z"/><path fill="#46cc8d" d="M161.49,225.41992a324.35123,324.35123,0,0,0-10.84009,41.68994c-17.00976-2.2-33.12988-4.95-47.97-8.18994a170.707,170.707,0,0,1,26.66016-39.06982,7.48334,7.48334,0,0,0,4.07983,1.98Q147.4,223.85486,161.49,225.41992Z"/><path fill="#fee903" d="M148.2,281.95a318.89283,318.89283,0,0,0-3.1499,46.40015A517.231,517.231,0,0,1,87.1499,317.2a6.87152,6.87152,0,0,0-1.25976-.2,169.30372,169.30372,0,0,1,10.65991-44.17993,6.894,6.894,0,0,0,1.24.38989C113.53,276.71,130.42993,279.62988,148.2,281.95Z"/><path fill="#f68157" d="M151.54,391.16992a553.04659,553.04659,0,0,1-56.23-9.98,7.52084,7.52084,0,0,0-3.91992.13013A170.98868,170.98868,0,0,1,84.97,334.78c0-2.17017.04-4.32007.13013-6.47-.04,1.27-.07007,2.5498-.09009,3.81982A540.9945,540.9945,0,0,0,145.47,343.54,319.07575,319.07575,0,0,0,151.54,391.16992Z"/><path fill="#fd5426" d="M168.5,447.3999q-19.43994-2.50488-38.67993-6.0498a7.48912,7.48912,0,0,0-6.23,1.66992,170.5355,170.5355,0,0,1-26.98023-46.1499A590.24108,590.24108,0,0,0,155.12012,406.72,321.81352,321.81352,0,0,0,168.5,447.3999Z"/><path fill="#22b37f" d="M346.40991,268.87988c-15,1.63013-30.56982,2.8501-46.47,3.64014q-2.02477-21.52515-5.49-42.89014,20.3551-.95983,40.67017-2.90991A307.15718,307.15718,0,0,1,346.40991,268.87988Z"/><path fill="#fd6930" d="M218.65991,452.03q-16.545-.9452-33.05981-2.65015A308.22605,308.22605,0,0,1,171.10986,408.47c13.52,1.34009,27.46021,2.36011,41.66016,3.04Q215.05005,431.8501,218.65991,452.03Z"/><path fill="#ffa799" d="M211.27,396.41992c-15.05-.76-29.78-1.90991-44.01-3.40991a305.92376,305.92376,0,0,1-6.65015-47.6001c15.55005,1.76,31.72022,3.09009,48.31006,3.95Q209.22022,372.94019,211.27,396.41992Z"/><path fill="#fef6ad" d="M211.22,287.52q-2.02478,23.34009-2.32007,46.81982C192.09009,333.45,175.73,332.08008,160.06006,330.26a303.81043,303.81043,0,0,1,3.03-46.5C178.59009,285.45,194.68994,286.71,211.22,287.52Z"/><path fill="#6ed5a1" d="M218.95,229.82007q-3.8551,21.23987-6.25,42.73c-16.11987-.79-31.90991-2.02-47.10986-3.67017A307.97671,307.97671,0,0,1,176.79,226.97Q197.82007,228.92,218.95,229.82007Z"/><path fill="#7acaa6" d="M284.92993,273.14014c-9.57007.30981-19.23.46972-28.92993.46972q-14.22,0-28.28-.45,2.43018-21.52478,6.38013-42.83984,10.25976.25488,20.52.26H256.01q11.655-.015,23.34009-.36011Q282.88989,251.56494,284.92993,273.14014Z"/><path fill="#fdb441" d="M287.76,334.60986V335.02c-10.46.37012-21.07007.56006-31.76.56006q-16.21509,0-32.10986-.58008v-.28q.26989-23.3551,2.33984-46.59009,14.70007.46509,29.77.48,15.2699,0,30.16992-.48974Q287.82007,311.31006,287.76,334.60986Z"/><path fill="#fe8f83" d="M282.66992,412.1499q-2.625,20.50525-6.58984,40.80005-10.125.25525-20.24.22-10.89-.04467-21.8-.43994-3.735-20.205-6.1001-40.62012c9.28.29,18.65015.43018,28.06006.43018C264.93994,412.54,273.8501,412.40991,282.66992,412.1499Z"/><path fill="#f99675" d="M287.5,350.03q-.65991,23.595-3.08008,47.05981C275.03,397.39014,265.54,397.54,256,397.54c-9.95,0-19.84009-.16016-29.62012-.49q-2.1449-23.4452-2.45-47.04c10.57007.36987,21.28.57007,32.07007.57007Q271.90015,350.58008,287.5,350.03Z"/><path fill="#fd4755" d="M340.89014,408.47a309.24472,309.24472,0,0,1-14.73023,41.47q-17.32508,1.66517-34.68994,2.46,3.8551-20.31006,6.40991-40.82983C312.54,410.89014,326.93994,409.8501,340.89014,408.47Z"/><path fill="#fea95c" d="M351.39014,345.40991A305.92376,305.92376,0,0,1,344.74,393.01c-14.59985,1.54-29.72,2.71-45.18994,3.47q2.3551-23.46021,2.97-47.08984C319.31006,348.52,335.66992,347.18994,351.39014,345.40991Z"/><path fill="#fed402" d="M351.93994 330.26c-15.78 1.82983-32.25 3.21-49.17993 4.09985q.07508-23.47485-1.59009-46.85986c16.39014-.81006 32.36011-2.06006 47.74-3.74A303.81043 303.81043 0 0 1 351.93994 330.26zM459.5 102.80005a57.30154 57.30154 0 0 0-35.3 35.30005A57.15514 57.15514 0 0 0 414.33008 120.52c-1.17017-1.43018-2.42017-2.81006-3.73-4.12012a57.33009 57.33009 0 0 0-21.7002-13.59985A57.25334 57.25334 0 0 0 424.2 67.5a57.38066 57.38066 0 0 0 10.94019 18.8501c.84985.98 1.73974 1.92993 2.65991 2.84985A57.33276 57.33276 0 0 0 459.5 102.80005zM123.10046 162.80023h0a57.30774 57.30774 0 0 0-35.30019 35.30019v0A57.30774 57.30774 0 0 0 52.5 162.80024h0A57.30776 57.30776 0 0 0 87.80022 127.5v0a57.30776 57.30776 0 0 0 35.30019 35.30019z"/><path fill="#fac600" d="M459.5 102.80005a57.30154 57.30154 0 0 0-35.3 35.30005A57.15514 57.15514 0 0 0 414.33008 120.52a58.14473 58.14473 0 0 0 19.04-27.22 55.44988 55.44988 0 0 0 1.77-6.95c.84985.98 1.73974 1.92993 2.65991 2.84985A57.33276 57.33276 0 0 0 459.5 102.80005zM123.10046 162.80041a57.30154 57.30154 0 0 0-35.3 35.30005 57.15514 57.15514 0 0 0-9.86987-17.58008 58.14473 58.14473 0 0 0 19.04-27.22 55.44988 55.44988 0 0 0 1.77-6.95c.84985.98 1.73974 1.92993 2.65991 2.84985A57.33276 57.33276 0 0 0 123.10046 162.80041z"/><path fill="#282828" d="M434.17141,323.67627a177.21168,177.21168,0,0,0-14.42578-59.99365,7.46667,7.46667,0,0,0-.70215-1.60254,179.2209,179.2209,0,0,0-35.82764-52.42529,7.53534,7.53534,0,0,0-1.65356-1.66407,178.72214,178.72214,0,0,0-73.06421-43.8667V141.59668a17.52,17.52,0,0,0-17.5-17.5h-27.5V7.49609a7.5,7.5,0,1,0-15,0V124.09668h-27.5a17.52,17.52,0,0,0-17.5,17.5V164.124a178.74138,178.74138,0,0,0-73.438,44.23145,7.52781,7.52781,0,0,0-1.66431,1.69287A179.20872,179.20872,0,0,0,92.95315,262.0791a7.45781,7.45781,0,0,0-.70289,1.604,177.20867,177.20867,0,0,0-14.42553,59.99316c-.02344.22021-.03809.43945-.042.65771-.2002,3.45459-.313,6.93262-.313,10.43653a177.82619,177.82619,0,0,0,8.80322,55.377,7.48407,7.48407,0,0,0,.416,1.27832,178.58327,178.58327,0,0,0,35.47168,61.35645,7.51592,7.51592,0,0,0,1.53759,1.73291,178.25415,178.25415,0,0,0,263.46411,1.23,7.50974,7.50974,0,0,0,1.58155-1.73291,178.63332,178.63332,0,0,0,36.56421-62.58887,7.50331,7.50331,0,0,0,.41455-1.27441,177.82873,177.82873,0,0,0,8.80371-55.37842c0-3.50391-.1128-6.98194-.313-10.43653C434.20949,324.11572,434.19484,323.89648,434.17141,323.67627Zm-15.4336-4.95752c-15.85669,3.83594-33.25732,7.062-51.7893,9.63037a320.13365,320.13365,0,0,0-3.14673-46.39892c15.46582-2.02832,30.26147-4.50586,44.22388-7.42334A162.24517,162.24517,0,0,1,418.73781,318.71875Zm-17.05932-58.19287c-12.6792,2.55029-26.198,4.752-40.33545,6.5835a323.80277,323.80277,0,0,0-10.93286-42.00293q12.00036-1.36963,23.93017-3.08155A164.32241,164.32241,0,0,1,401.67849,260.52588Zm-49.73755,69.73291c-15.781,1.83105-32.25391,3.20557-49.18067,4.09766q.06666-23.4712-1.59643-46.85889c16.39526-.811,32.36255-2.061,47.74536-3.74658A305.16065,305.16065,0,0,1,351.94094,330.25879Zm8.23633-121.44238q-7.47657.96019-14.98023,1.78418c-2.36279-6.11231-4.80346-11.89063-7.26489-17.30567A164.3029,164.3029,0,0,1,360.17727,208.81641Zm-13.7666,60.064c-15,1.62158-30.57251,2.84033-46.47461,3.63379q-2.02113-21.52954-5.48853-42.8833,20.358-.9668,40.67163-2.919A308.97463,308.97463,0,0,1,346.41067,268.88037Zm-30.42383-86.2417c.023.04541.04.0918.064.13672a306.87321,306.87321,0,0,1,13.637,29.38037q-18.8811,1.71753-37.8269,2.57324-3.87671-20.77368-9.1167-41.28759A162.12453,162.12453,0,0,1,315.98684,182.63867ZM255.99807,335.57422q-16.21875,0-32.1062-.57471c.001-.09326-.00025-.18652.00073-.27978.17676-15.4917.967-31.08692,2.32983-46.59619q14.70739.47094,29.77564.48388,15.26476,0,30.17138-.4956,1.64685,23.19213,1.59229,46.49658c-.00049.13476-.00415.269-.00488.40381Q272.06253,335.56666,255.99807,335.57422Zm31.50024,14.45557q-.65918,23.59423-3.07617,47.05712c-9.41309.29688-18.908.45411-28.42407.45411q-14.92091,0-29.62354-.49414-2.13207-23.44336-2.44238-47.0376,15.85547.55737,32.06592.56494Q271.89638,350.57422,287.49831,350.02979ZM218.49807,141.59668a2.50231,2.50231,0,0,1,2.5-2.5h70a2.50232,2.50232,0,0,1,2.5,2.5v18.62061a177.5261,177.5261,0,0,0-19.85108-3.103c-.15747-.02149-.31738-.03125-.47705-.04248-5.65283-.54248-11.37915-.82959-17.17187-.82959a178.53138,178.53138,0,0,0-37.5,3.9751ZM276.688,215.27539q-10.36085.27833-20.70264.30176-9.44824.02271-18.91943-.18555c3.12622-14.79394,6.80469-29.49219,10.99756-43.9541q3.94446-.189,7.93457-.19531c3.61133,0,7.19238.13037,10.74634.3623Q272.49757,193.27319,276.688,215.27539Zm-80.74268-32.5c.02393-.04492.041-.09131.064-.13672a162.16178,162.16178,0,0,1,36.00049-9.63281c-3.86328,13.81982-7.25513,27.83545-10.16919,41.92334q-19.82959-.78735-39.63086-2.52539A306.89165,306.89165,0,0,1,195.94533,182.77539Zm22.99707,47.03613c-.46753,2.57129-.9292,5.14307-1.36328,7.71582a7.50008,7.50008,0,1,0,14.791,2.4961q.81885-4.85376,1.72241-9.70459,10.27295.252,20.52856.25927c.46094,0,.92774,0,1.38965-.001q11.6554-.019,23.34156-.36621,3.53173,21.35742,5.57934,42.92187-14.3606.468-28.93359.47461-14.22071,0-28.28516-.45361.45666-4.051.96289-8.0874a7.49963,7.49963,0,0,0-14.88086-1.88086q-.59033,4.66992-1.10742,9.36035c-16.12012-.79248-31.90478-2.02246-47.10205-3.66553a309.01028,309.01028,0,0,1,11.20215-41.9126Q197.82131,228.91455,218.9424,229.81152Zm-10.02172,119.5459q.28893,23.58544,2.34741,47.0586c-15.05274-.76221-29.783-1.90723-44.00708-3.41309a305.19506,305.19506,0,0,1-6.65137-47.59229C176.15969,347.16553,192.33156,348.49121,208.92068,349.35742ZM160.0552,330.25879a305.1594,305.1594,0,0,1,3.03173-46.50781c15.50367,1.69873,31.59937,2.95654,48.12989,3.76709-1.3523,15.58545-2.13721,31.25293-2.32031,46.81933C192.08913,333.44531,175.73049,332.07764,160.0552,330.25879ZM174.064,193.29492c-2.50049,5.501-4.97925,11.37891-7.377,17.59961q-7.63-.81445-15.23413-1.76855A164.25078,164.25078,0,0,1,174.064,193.29492ZM137.32985,222.375q12.03846,1.68969,24.15528,3.03564a323.78073,323.78073,0,0,0-10.832,41.69874c-14.13745-1.83155-27.65625-4.03321-40.33545-6.5835A164.305,164.305,0,0,1,137.32985,222.375Zm-33.35937,52.15186c13.9624,2.91748,28.75806,5.395,44.22388,7.42334a320.13223,320.13223,0,0,0-3.14673,46.39892c-18.532-2.56836-35.93262-5.79443-51.78931-9.63037A162.24518,162.24518,0,0,1,103.97048,274.52686ZM92.46975,334.77051c0-.271.009-.54.01025-.811,16.2898,3.82715,34.0957,7.03369,52.98706,9.57959a320.17613,320.17613,0,0,0,6.06812,47.62549c-18.551-2.38184-36.06031-5.40088-52.05786-9.01562A162.9973,162.9973,0,0,1,92.46975,334.77051Zm13.05957,64.022c15.4541,3.16846,32.10351,5.82129,49.58594,7.92725a323.13032,323.13032,0,0,0,13.37841,40.67285q-18.09558-2.32106-36.019-5.57422A163.893,163.893,0,0,1,105.52932,398.79248Zm45.5708,61.32373q12.14319,1.8252,24.35693,3.23731c3.10767,6.64209,6.29126,12.88037,9.47363,18.67871A164.02217,164.02217,0,0,1,151.10012,460.11621Zm20.0061-51.647c13.52417,1.335,27.45874,2.35254,41.657,3.03564q2.283,20.34741,5.89771,40.5166-16.55237-.93969-33.06226-2.64746A308.67668,308.67668,0,0,1,171.10622,408.46924Zm36.51,82.52295c-4.7522-7.51807-9.73144-16.15283-14.60791-25.82813q14.26758,1.30152,28.57153,2.03906,2.95094,14.42139,6.56519,28.71241A162.0858,162.0858,0,0,1,207.61623,490.99219Zm57.89478,7.02295c-3.14917.18164-6.31909.28369-9.51294.28369q-5.96669,0-11.82862-.43115-3.94848-14.93628-7.135-30.03516,9.37391.282,18.74.32959c.95411.00391,1.90137.00586,2.85547.00586q7.14624,0,14.30005-.14893Q269.59341,483.09741,265.511,498.01514Zm-9.676-44.853q-10.89111-.04395-21.79761-.43359-3.73352-20.20606-6.09545-40.62061,13.91931.43066,28.05615.43311c8.92358,0,17.831-.13672,26.67236-.39307q-2.62391,20.4983-6.58935,40.79834Q265.95278,453.19531,255.835,453.16211Zm48.54492,37.83008a162.19266,162.19266,0,0,1-22.85522,5.31006q3.77307-14.30421,6.86548-28.75733,15.18712-.62769,30.353-1.89551C313.94509,475.12891,309.05276,483.59961,304.3799,490.99219Zm-12.91626-38.59326q3.85841-20.30348,6.41016-40.81739,6.60058-.30468,13.11841-.70166a7.50044,7.50044,0,1,0-.91992-14.97265c-3.481.21386-6.99927.39062-10.52027.563q2.34852-23.46459,2.97071-47.08544c16.78222-.86573,33.14135-2.2002,48.86377-3.97413A305.19914,305.19914,0,0,1,344.731,393.022q-5.15808.54566-10.41944,1.03174a7.50012,7.50012,0,0,0,.67774,14.96875c.22949,0,.46191-.00976.69531-.03125q2.61291-.24024,5.19849-.49707A308.77016,308.77016,0,0,1,326.15359,449.939Q308.841,451.59864,291.46364,452.39893Zm35.60181,29.6333c3.082-5.61573,6.16553-11.64356,9.17993-18.05078q11.79456-1.27149,23.533-2.92676A163.99654,163.99654,0,0,1,327.06545,482.03223ZM378.52981,442.936q-17.56714,3.01756-35.31739,5.15771a322.95408,322.95408,0,0,0,13.66236-41.35059c17.55395-2.11425,34.13916-4.77,49.59008-7.94677A163.92122,163.92122,0,0,1,378.52981,442.936Zm33.9895-60.78858c-16.02124,3.624-33.44727,6.645-52.062,9.03467a320.18371,320.18371,0,0,0,6.07177-47.64307c18.89136-2.5459,36.69727-5.75244,52.98706-9.57959.00122.271.01026.54.01026.811A162.99552,162.99552,0,0,1,412.51931,382.14746ZM461.96193,95.71191a49.53153,49.53153,0,0,1-30.67968-30.67968,7.50034,7.50034,0,0,0-14.168,0,49.53536,49.53536,0,0,1-30.68067,30.67968,7.50035,7.50035,0,0,0,0,14.168,49.53457,49.53457,0,0,1,30.68067,30.68067,7.50035,7.50035,0,0,0,14.168,0,49.53074,49.53074,0,0,1,30.67968-30.68067,7.50034,7.50034,0,0,0,0-14.168Zm-37.76367,25.52344a64.175,64.175,0,0,0-18.43945-18.43945,64.175,64.175,0,0,0,18.43945-18.43945,64.1595,64.1595,0,0,0,18.43848,18.43945A64.1595,64.1595,0,0,0,424.19826,121.23535ZM87.79787,205.59668a7.49992,7.49992,0,0,0,7.084-5.03613,49.53453,49.53453,0,0,1,30.68066-30.68067,7.50035,7.50035,0,0,0,0-14.168,49.53533,49.53533,0,0,1-30.68066-30.67968,7.50034,7.50034,0,0,0-14.168,0A49.53155,49.53155,0,0,1,50.0342,155.71191a7.50035,7.50035,0,0,0,0,14.168,49.53075,49.53075,0,0,1,30.67969,30.68067A7.49991,7.49991,0,0,0,87.79787,205.59668ZM69.3594,162.7959a64.15959,64.15959,0,0,0,18.43847-18.43945,64.17507,64.17507,0,0,0,18.43946,18.43945,64.17507,64.17507,0,0,0-18.43946,18.43945A64.15959,64.15959,0,0,0,69.3594,162.7959Z"/></svg>