<svg xmlns="http://www.w3.org/2000/svg" data-name="Layer 1" viewBox="0 0 512 512"><path fill="#46cc8d" d="M352.46 137.53c-7.34 4.94-17.02 13.7-21.80994 27.68-6.4 18.7-1.69006 39.92 11.97 55.61005a3.9889 3.9889 0 0 1-.75 5.85c-6.16 4.38-12.65 8.76-19.30994 13.13-21.41 14.08-44.58008 28.16-64.23 42.24a3.99452 3.99452 0 0 1-4.66016 0C234.22 268.1 211.32 254.17 190.1 240.24c-6.89-4.52-13.6-9.05-19.97-13.57a3.98886 3.98886 0 0 1-.75-5.85c13.66-15.69 18.37-36.91 11.97-55.61-4.79-13.98-14.47-22.74-21.81-27.68a3.991 3.991 0 0 1 1.06-7.12c9.52-2.89 23.56-9.59 32.88-24.93 10.72-17.65 8.39-35.56 6.23-44.28a3.99206 3.99206 0 0 1 3.85-4.95c8.45-.1 24.58-2.16 37.51007-15.16a50.76066 50.76066 0 0 0 11.23-17.23 3.98941 3.98941 0 0 1 7.3999 0 50.76066 50.76066 0 0 0 11.23 17.23c12.93006 13 29.06006 15.06 37.51 15.16A3.99217 3.99217 0 0 1 312.29 61.2c-2.16 8.72-4.49 26.63 6.23 44.28 9.32007 15.34 23.36 22.04 32.88 24.93A3.991 3.991 0 0 1 352.46 137.53zM226.18 408.31c-20.75 1.44-39.07 13.11-47.78 30.86-6.5 13.27-5.85 26.31-4.15 34.99a3.98913 3.98913 0 0 1-5.81 4.27c-8.79-4.68-23.44-9.85-40.85-5.6-20.06 4.9-31.08 19.2-35.72 26.91a3.99027 3.99027 0 0 1-6.22.77c-6.04-5.9-18.91-15.85-37.24-15.81A50.79021 50.79021 0 0 0 28.28 488.95a3.98978 3.98978 0 0 1-5.23-5.23 50.79156 50.79156 0 0 0 4.25-20.13c.04-18.33-9.91-31.2-15.81-37.24a3.99026 3.99026 0 0 1 .77-6.22c7.71-4.64 22.01-15.66 26.91-35.72 4.25-17.41-.92-32.06-5.6-40.85a3.98912 3.98912 0 0 1 4.27-5.81c8.68 1.7 21.72 2.35 34.99-4.15 17.75-8.71 29.42-27.03 30.86-47.78a3.97265 3.97265 0 0 1 4.66-3.61005c14.69 2.48 30.29 5.87 45.93005 9.3 17.8 3.91 35.66 7.87 52.3 10.62a3.96973 3.96973 0 0 1 3.29 3.29c4.7 28.43 12.93 60.4 18.38 89.59q.825 4.365 1.54 8.63995A3.97269 3.97269 0 0 1 226.18 408.31zM500.51 426.35c-5.9 6.04-15.8501 18.91-15.81006 37.24a50.79469 50.79469 0 0 0 4.25 20.13 3.98973 3.98973 0 0 1-5.23 5.23 50.79014 50.79014 0 0 0-20.12988-4.25C445.26 484.66 432.39 494.61 426.35 500.51a3.99026 3.99026 0 0 1-6.22-.77c-4.64-7.71-15.66-22.01-35.72009-26.91-17.40991-4.25-32.05993.92-40.84985 5.6a3.98917 3.98917 0 0 1-5.81006-4.27c1.7-8.68 2.35-21.72-4.15-34.99-8.71-17.75-27.02991-29.42-47.77991-30.86a3.97277 3.97277 0 0 1-3.61011-4.66q.72-4.305 1.55-8.72c5.45-29.17 13.66992-61.11 18.37-89.51a3.96967 3.96967 0 0 1 3.28992-3.29c16.76-2.77 34.76-6.77 52.69007-10.71 15.51-3.4 30.97009-6.75 45.54-9.21a3.97276 3.97276 0 0 1 4.66 3.61005c1.43994 20.75 13.10986 39.07 30.85986 47.78 13.27 6.5 26.31006 5.85 34.99 4.15a3.98909 3.98909 0 0 1 4.27 5.81c-4.67993 8.79-9.84985 23.44-5.59985 40.85 4.8999 20.06 19.2 31.08 26.90991 35.72A3.99026 3.99026 0 0 1 500.51 426.35z"/><path fill="#00c27a" d="M421.60693 501.14636A3.99384 3.99384 0 0 0 426.35 500.51c.11511-.11249.23754-.22907.35766-.34442A49.29786 49.29786 0 0 0 421.60693 501.14636zM228.25 395.01a68.51832 68.51832 0 0 1-73.97-103.5c17.8 3.91 35.66 7.87 52.3 10.62a3.96973 3.96973 0 0 1 3.29 3.29C214.57 333.85 222.8 365.82 228.25 395.01z"/><circle cx="211.975" cy="328.463" r="49.5" fill="#e53950"/><path fill="#ca2e43" d="M229.85376,282.30548a49.4989,49.4989,0,0,1-57.63281,75.65088,49.49969,49.49969,0,1,0,57.63281-75.65088Z"/><path fill="#00c27a" d="M369,328.5a68.52448,68.52448,0,0,1-85.24,66.43c5.45-29.17,13.66992-61.11,18.37-89.51a3.96967,3.96967,0,0,1,3.28992-3.29c16.76-2.77,34.76-6.77,52.69007-10.71A68.17079,68.17079,0,0,1,369,328.5Z"/><circle cx="300.025" cy="328.463" r="49.5" fill="#e53950"/><path fill="#ca2e43" d="M323.64978,284.95465a49.509,49.509,0,0,1-67.9248,65.5907,49.50148,49.50148,0,1,0,67.9248-65.5907Z"/><path fill="#00c27a" d="M322.56006,239.8c-21.41,14.08-44.58008,28.16-64.23,42.24a3.99452,3.99452,0,0,1-4.66016,0C234.22,268.1,211.32,254.17,190.1,240.24a68.51148,68.51148,0,0,1,132.46008-.44Z"/><circle cx="256.389" cy="257.537" r="49.5" fill="#e53950"/><path fill="#ca2e43" d="M285.57019,217.56079a49.4931,49.4931,0,0,1-75.15094,58.3302,49.498,49.498,0,1,0,75.15094-58.3302Z"/><path fill="#282828" d="M508.47951,422.13477a12.42243,12.42243,0,0,0-5.73047-8.96094c-6.69775-4.21192-18.54492-13.78223-22.63818-30.55078a49.77374,49.77374,0,0,1,4.19824-34.10743,12.48253,12.48253,0,0,0-13.25439-17.834,47.46912,47.46912,0,0,1-28.58154-3.82324c-14.87208-7.29-25.06739-22.85254-26.6084-40.61524a12.48877,12.48877,0,0,0-14.5503-11.25195c-15.29443,2.623-31.70361,6.22461-47.57226,9.708q-6.947,1.52564-13.8645,3.021a56.60044,56.60044,0,0,0-28.526-15.12109,56.83676,56.83676,0,0,0,2.036-15.06592c0-.938-.02588-1.87011-.07105-2.79736,10.71289-6.88281,21.80713-14.11377,32.00415-21.32568a12.49015,12.49015,0,0,0,2.332-18.24512c-11.47021-13.64942-15.26513-31.86328-9.90381-47.5332a47.44615,47.44615,0,0,1,17.50733-22.915,12.488,12.488,0,0,0-3.28516-21.99707,49.7847,49.7847,0,0,1-27.04-21.13379c-8.96338-14.75293-7.353-29.89649-5.59521-37.60938a12.49064,12.49064,0,0,0-11.82276-15.2539C300.417,48.5,286.91848,46.52637,276.24514,35.80078a43.09367,43.09367,0,0,1-8.83838-12.95117,12.47982,12.47982,0,0,0-22.81738-.001,43.09361,43.09361,0,0,1-8.83789,12.95215C225.07766,46.52637,211.57912,48.5,204.481,48.72266a12.49041,12.49041,0,0,0-11.8208,15.25293c1.75781,7.71386,3.36816,22.85742-5.59522,37.61035a49.78549,49.78549,0,0,1-27.03955,21.13379,12.48765,12.48765,0,0,0-3.28515,21.99707,47.44857,47.44857,0,0,1,17.50683,22.915c5.36133,15.66992,1.56641,33.88378-9.90381,47.5332a12.491,12.491,0,0,0,2.33252,18.24609c10.37421,7.33545,21.41541,14.52735,32.77155,21.81836-.03015.76612-.05963,1.53223-.05963,2.30371a56.84359,56.84359,0,0,0,1.9967,14.92774,56.97348,56.97348,0,0,0-29.20294,15.27344q-6.946-1.49855-13.931-3.03516c-15.86768-3.4834-32.27539-7.085-47.56885-9.708a12.48951,12.48951,0,0,0-14.55078,11.25195c-1.54053,17.7627-11.73584,33.3252-26.60742,40.61524a47.46721,47.46721,0,0,1-28.58106,3.82324,12.48269,12.48269,0,0,0-13.25586,17.833,49.77432,49.77432,0,0,1,4.19873,34.1084C27.792,399.3916,15.94484,408.96191,9.24856,413.17285a12.49159,12.49159,0,0,0-2.42725,19.14649c4.86084,5.17578,13.00977,16.11718,12.97266,31.24707a43.082,43.082,0,0,1-2.90772,15.40722A12.48022,12.48022,0,0,0,33.021,495.1084a43.06734,43.06734,0,0,1,15.40674-2.9082h.10253c15.07471,0,25.98145,8.123,31.145,12.97168a12.49028,12.49028,0,0,0,19.14551-2.42579c4.21143-6.69726,13.78027-18.54394,30.54981-22.63769A49.77235,49.77235,0,0,1,163.48,484.30762a12.4821,12.4821,0,0,0,17.83252-13.25489,47.45354,47.45354,0,0,1,3.82373-28.582c7.28955-14.87109,22.85205-25.06738,40.61377-26.6084A12.48948,12.48948,0,0,0,237.003,401.3125c-1.02722-5.98877-2.25342-12.45068-3.78418-19.94434a56.69681,56.69681,0,0,0,22.80835-16.71777,57.2696,57.2696,0,0,0,22.75732,16.68408c-1.53418,7.50977-2.76269,13.98145-3.79126,19.977a12.48982,12.48982,0,0,0,11.25245,14.55078,51.511,51.511,0,0,1,31.459,14.042,7.49966,7.49966,0,1,0,10.4502-10.75977,66.328,66.328,0,0,0-37.91651-17.93848c.86878-4.90185,1.88172-10.18554,3.09448-16.145a56.93536,56.93536,0,0,0,54.89234-26.231l85.40478,85.4043A7.50024,7.50024,0,0,0,444.23635,433.627L354.801,344.19238a56.91921,56.91921,0,0,0-4.8772-43.30127q3.51544-.7683,7.03467-1.54052c14.78222-3.24512,30.03759-6.59375,44.25-9.11426,2.76709,21.84765,15.86572,40.87695,34.66259,50.09082a61.40542,61.40542,0,0,0,33.07081,5.748,63.8301,63.8301,0,0,0-3.40333,40.10449c4.86524,19.93066,17.9336,31.96289,26.74366,38.05371-6.39453,7.46094-15.125,21.0166-15.08008,39.37012a57.70476,57.70476,0,0,0,2.26465,15.86132,57.69152,57.69152,0,0,0-15.86133-2.26464h-.1416c-18.27686,0-31.78565,8.70117-39.228,15.0791-6.08984-8.8086-18.12207-21.877-38.05371-26.74317a63.83128,63.83128,0,0,0-40.1001,3.40235,63.14788,63.14788,0,0,0-1.18115-20.08594,7.49981,7.49981,0,1,0-14.63281,3.29687,49.27152,49.27152,0,0,1,.41552,18.90332,12.48251,12.48251,0,0,0,17.8335,13.25489A49.768,49.768,0,0,1,382.625,480.1084c16.77,4.09375,26.33887,15.94043,30.54981,22.63672a12.4924,12.4924,0,0,0,19.145,2.42773c5.165-4.84961,16.06983-12.97265,31.146-12.97265h.103a43.06037,43.06037,0,0,1,15.40771,2.90918,12.48063,12.48063,0,0,0,16.13379-16.13477,43.08115,43.08115,0,0,1-2.9082-15.4082c-.03711-15.12989,8.11182-26.07129,12.97314-31.24805A12.50273,12.50273,0,0,0,508.47951,422.13477Zm-336.812,13.73339a61.43419,61.43419,0,0,0-5.74853,33.07227,63.825,63.825,0,0,0-40.10547-3.4043c-19.93116,4.86621-31.96289,17.9336-38.05274,26.74317-7.44238-6.37793-20.94873-15.0791-39.228-15.0791h-.14161a57.68962,57.68962,0,0,0-15.86181,2.26464A57.70514,57.70514,0,0,0,34.794,463.60352c.04492-18.35352-8.68555-31.91016-15.08008-39.37012,8.80908-6.08985,21.87793-18.1211,26.74365-38.05371a63.83017,63.83017,0,0,0-3.40332-40.10449,61.4666,61.4666,0,0,0,33.07129-5.748c18.79639-9.21387,31.895-28.24414,34.66211-50.09082,14.21142,2.52051,29.46582,5.86914,44.24658,9.11426q3.54483.77783,7.08472,1.55127a56.68269,56.68269,0,0,0-4.92389,43.29052L67.75979,433.627a7.50024,7.50024,0,0,0,10.60644,10.60743l85.40485-85.4043a56.99734,56.99734,0,0,0,48.1972,26.626,57.7101,57.7101,0,0,0,6.69525-.395c1.21265,5.95849,2.22577,11.24169,3.09479,16.145C199.90969,403.97363,180.88039,417.07227,171.6675,435.86816Zm40.30078-65.41211a42.00008,42.00008,0,0,1-4.52783-83.75537,57.1655,57.1655,0,0,0,37.605,26.6958,57.05915,57.05915,0,0,0,2.52173,37.3418A41.84674,41.84674,0,0,1,211.96828,370.45605Zm2.41944-112.92285a41.66714,41.66714,0,0,1,3.66748-17.19433,7.50029,7.50029,0,0,0-13.68262-6.14844c-.75086,1.67139-1.40619,3.37109-1.98846,5.09033-8.5846-5.54394-16.934-11.04-24.85431-16.57568,13.4917-17.40528,17.68554-40.12305,10.90966-59.92871a61.43092,61.43092,0,0,0-19.31982-27.4502A63.84053,63.84053,0,0,0,199.8843,109.375c10.65332-17.53516,9.92041-35.2832,7.99756-45.81934,9.79687-.75293,25.55517-4.165,38.502-17.1748a57.70971,57.70971,0,0,0,9.61426-12.81738,57.69642,57.69642,0,0,0,9.61474,12.81738c12.94727,13.01074,28.70606,16.42285,38.501,17.1748-1.92236,10.53516-2.65527,28.28418,7.998,45.81934a63.84048,63.84048,0,0,0,30.76465,25.95117,61.43093,61.43093,0,0,0-19.31983,27.4502c-6.77588,19.80566-2.58252,42.52246,10.90967,59.92871-7.76148,5.42285-16.04,10.876-24.23047,16.17187a57.13838,57.13838,0,0,0-46.73779-37.88427V90.88574a7.5,7.5,0,1,0-15,0V201.08545a56.45508,56.45508,0,0,0-14.34473,3.94971,7.49959,7.49959,0,1,0,5.85645,13.80859,41.69024,41.69024,0,0,1,15.94665-3.2998c.014,0,.02759.00195.04163.00195.04077,0,.08008-.00537.1206-.00586.09-.001.179-.00684.269-.00684a42,42,0,1,1-42,42Zm85.64013,112.92285a42.0475,42.0475,0,0,1-42-42,41.629,41.629,0,0,1,2.4187-14.08349,57.0468,57.0468,0,0,0,44.83179-27.57373,41.99293,41.99293,0,0,1-5.25049,83.65722Z"/></svg>