<svg xmlns="http://www.w3.org/2000/svg" data-name="Layer 1" viewBox="0 0 512 512"><path fill="#f1f6f9" d="M407.58248,317.1249,372.61871,488.29429A20.40879,20.40879,0,0,1,352.5497,504.5H159.4503a20.40879,20.40879,0,0,1-20.069-16.20571L104.41752,317.1249Z"/><path fill="#dde8ef" d="M373.47705,317.125,352.45952,420.01874a65.35529,65.35529,0,0,1-58.85837,52.07038q-77.50752,6.15624-155.015,12.31249l.79511,3.89258A20.40869,20.40869,0,0,0,159.45032,504.5H352.54968a20.40858,20.40858,0,0,0,20.069-16.20581L407.58252,317.125Z"/><path fill="#fed402" d="M440.03,263.8999a60.116,60.116,0,0,1-32.44995,53.22022,61.37125,61.37125,0,0,1-28.64014,7.02H133.06A61.39451,61.39451,0,0,1,89.85,306.49c-.67-.66992-1.33-1.34985-1.97-2.04a59.57342,59.57342,0,0,1-15.91-40.55c0-33.25,27.34-60.23,61.09-60.23h3.15c-.08-1.49-.15-3-.15-4.52978,0-42.74024,35.16-77.40015,78.51-77.40015q3.105,0,6.17.24h70.52q3.06006-.23986,6.17993-.24c43.34009,0,78.5,34.65991,78.5,77.40015,0,1.52978-.06994,3.03979-.1499,4.52978h3.1499A61.339,61.339,0,0,1,422.15,221.32007,59.6541,59.6541,0,0,1,440.03,263.8999Z"/><path fill="#fac600" d="M440.03,263.8999a60.116,60.116,0,0,1-32.44995,53.22022,61.37125,61.37125,0,0,1-28.64014,7.02H133.06A61.39451,61.39451,0,0,1,89.85,306.49c-.67-.66992-1.33-1.34985-1.97-2.04q117.045.88513,234.08-.17993,20.19668-.17909,40.38592-.42377c27.53906-.33371,47.52836-27.21987,38.9436-53.3888q-.2729-.83184-.57952-1.6574A46.64389,46.64389,0,0,0,365.05179,219.354a14.38585,14.38585,0,0,1-11.54617-11.78351A97.05133,97.05133,0,0,0,333.6,163.2c-28.5199-35.26-71.75-36.25-78.06995-36.29,1.37-1.07007,3.62-2.78979,6.68994-4.92993h29.04q3.06006-.23986,6.17993-.24c43.34009,0,78.5,34.65991,78.5,77.40015,0,1.52978-.06994,3.03979-.1499,4.52978h3.1499A61.339,61.339,0,0,1,422.15,221.32007,59.6541,59.6541,0,0,1,440.03,263.8999Z"/><ellipse cx="256" cy="112.337" fill="#e53950" rx="36.556" ry="36.485"/><path fill="#ca2e43" d="M273.25964,80.17139a36.54019,36.54019,0,0,1-49.51922,49.332,36.53711,36.53711,0,1,0,49.51922-49.332Z"/><polygon fill="#e53950" points="382.318 440.813 394.573 380.813 117.427 380.813 129.682 440.813 382.318 440.813"/><path fill="#ca2e43" d="M361.50952,380.8125l-3.18471,15.59114a36.76713,36.76713,0,0,1-36.0233,29.40886h-195.683l3.064,15h252.6352l12.25573-60Z"/><circle cx="257.821" cy="410.813" r="55.51" fill="#fed402"/><path fill="#fac600" d="M295.176,369.75269a55.51138,55.51138,0,0,1-89.71045,59.51586A55.51148,55.51148,0,1,0,295.176,369.75269Z"/><path fill="#282828" d="M158.46828,245.82129a7.50071,7.50071,0,0,0-10.48,1.63379l-17.76806,24.332a7.5,7.5,0,1,0,12.11425,8.8457l17.76807-24.332A7.49978,7.49978,0,0,0,158.46828,245.82129Zm155.62207-71.0332a7.49582,7.49582,0,0,0-9.47656-4.76465l-28.83057,9.53906a7.49978,7.49978,0,1,0,4.71192,14.24023l28.83056-9.53906A7.49971,7.49971,0,0,0,314.09035,174.78809ZM368.7969,259.001l-22.99463,19.62109a7.49979,7.49979,0,1,0,9.73632,11.41016l22.99463-19.6211A7.49979,7.49979,0,1,0,368.7969,259.001Zm58.61621-43.02832a68.493,68.493,0,0,0-44.02588-19.666c-1.48755-44.66406-38.10059-80.68359-83.38257-82.00586.029-.65332.05-1.30762.05-1.96777a44.07573,44.07573,0,0,0-37.4281-43.48584c-.72022-9.01416-.11914-26.792,13.037-40.33936A49.5171,49.5171,0,0,1,301.168,14.83887,7.50034,7.50034,0,0,0,298.1094.15332a64.47212,64.47212,0,0,0-33.20655,17.9043c-16.82666,17.32715-18.16345,39.03759-17.311,51.10351a44.07143,44.07143,0,0,0-35.6499,43.17188c0,.66015.02105,1.31445.05,1.96777-45.28222,1.32227-81.8955,37.34375-83.383,82.00684-35.75879,2.2705-64.145,31.71972-64.145,67.59277A66.90129,66.90129,0,0,0,84.583,311.82812,68.79818,68.79818,0,0,0,97.75136,321.9707L110.07277,382.291l.01172.05761,12.244,59.94141.01215.05957,9.69061,47.44141a27.99178,27.99178,0,0,0,27.417,22.20507H352.54787a27.99177,27.99177,0,0,0,27.417-22.20507l9.68873-47.43262c.00549-.02539.01074-.05176.016-.07813l12.24206-59.93164.01172-.05761,12.32-60.31348a67.23861,67.23861,0,0,0,13.1698-106.00488Zm-171.415-132.624A28.985,28.985,0,1,1,226.94192,112.333,29.05315,29.05315,0,0,1,255.99807,83.34863Zm-129.38666,304.96h72.36542a63.1524,63.1524,0,0,0-.04816,45h-63.1253Zm238.65717,98.48047a12.94123,12.94123,0,0,1-12.72071,10.207H159.44826a12.94123,12.94123,0,0,1-12.7207-10.207l-7.86023-38.48047h68.31189a64.10317,64.10317,0,0,0,7.03027,7.98145,7.50015,7.50015,0,0,0,10.38282-10.82617,48.5477,48.5477,0,0,1-7.20087-8.74024c-.03607-.05566-.07117-.11133-.10864-.166a48.02,48.02,0,1,1,40.53607,22.26074,48.26745,48.26745,0,0,1-10.95606-1.25391,7.5,7.5,0,1,0-3.40918,14.60743,63.04311,63.04311,0,0,0,64.96656-23.86329H373.1288Zm10.92419-53.48047H316.66091a62.81161,62.81161,0,0,0,0-45h68.72388Zm27.90491-122.83007a54.36271,54.36271,0,0,1-25.15967,6.15527h-8.93262a7.5,7.5,0,1,0,0,15H378.938a69.74819,69.74819,0,0,0,18.53711-2.51563l-9.02637,44.19043H308.42043a62.94054,62.94054,0,0,0-101.20319,0H123.54745L114.521,329.11816a69.74852,69.74852,0,0,0,18.53717,2.51563H340.00539a7.5,7.5,0,0,0,0-15H133.05813a53.81038,53.81038,0,0,1-37.94092-15.48438,52.00468,52.00468,0,0,1-15.65332-37.249c0-29.07715,24.04248-52.7334,53.59424-52.7334h3.1538a7.49944,7.49944,0,0,0,7.48877-7.91113c-.07226-1.31055-.13867-2.7168-.13867-4.124,0-38.54,31.85108-69.89454,71.001-69.89454.25867,0,.51483.0127.77319.01465a44.07673,44.07673,0,0,0,81.32422,0c.25818-.00195.51416-.01465.77271-.01465,39.1499,0,71.001,31.3545,71.001,69.89454,0,1.40722-.0664,2.81347-.13867,4.124a7.49944,7.49944,0,0,0,7.48877,7.91113H378.938a53.69039,53.69039,0,0,1,37.94092,15.48438,52.00468,52.00468,0,0,1,15.65332,37.249A52.58072,52.58072,0,0,1,404.09768,310.47852Zm-157.51319-37.502-23.11377-19.48437a7.5,7.5,0,1,0-9.668,11.46875l23.11376,19.48437a7.5,7.5,0,1,0,9.668-11.46875Zm67.37012-46.81543a7.49974,7.49974,0,1,0-13.66113,6.19336l12.41064,27.37207a7.49974,7.49974,0,1,0,13.66114-6.19336ZM216.8301,203.2627a7.50095,7.50095,0,0,0,2.19678-14.67188l-29.03809-8.90527a7.49962,7.49962,0,1,0-4.39844,14.33984l29.03809,8.90527A7.47286,7.47286,0,0,0,216.8301,203.2627Z"/></svg>