<svg xmlns="http://www.w3.org/2000/svg" data-name="Layer 1" viewBox="0 0 512 512"><path fill="#7c4b37" d="M467.24951,13.58887,345.2334,129.1189,330.16748,383.3252l116.583-79.29639A132.01988,132.01988,0,0,0,504.5,194.8623V29.64307C504.5,10.24927,481.3252.26123,467.24951,13.58887ZM447.14893,194.8623a74.52643,74.52643,0,0,1-32.63257,61.68482l-67.011,44.42578,10.89111-105.29614,88.75245-84.03491Z"/><path fill="#aa6a51" d="M263.21818,504.5h-143.62a72.30043,72.30043,0,0,1-71.90566-64.8706L4.9285,26.41811A17.14927,17.14927,0,0,1,21.98249,7.5H360.83384a17.14927,17.14927,0,0,1,17.054,18.91811l-42.764,413.21129A72.30043,72.30043,0,0,1,263.21818,504.5Z"/><ellipse cx="191.408" cy="406.364" fill="#e53950" rx="56.007" ry="56.029"/><path fill="#ca2e43" d="M223.90381,360.74414a56.00064,56.00064,0,0,1-83.75293,68.20093,56.00965,56.00965,0,1,0,83.75293-68.20093Z"/><path fill="#bc7c63" d="M369.42652,108.17637q-54.03609,23.64987-108.07162,47.29974a62.99471,62.99471,0,0,0-37.72267,58.68123q.20637,13.42579.413,26.85215a63.00378,63.00378,0,0,0,21.64267,46.56638l96.48581,83.93322"/><ellipse cx="290.219" cy="226.641" fill="#554e56" rx="24.036" ry="24.045"/><path fill="#433f43" d="M301.78711,205.562a24.0411,24.0411,0,0,1-33.31934,31.3147,24.03942,24.03942,0,1,0,33.31934-31.3147Z"/><path fill="#bc7c63" d="M13.39558,108.17637q54.03609,23.64987,108.07162,47.29974a62.9947,62.9947,0,0,1,37.72267,58.68123q-.20636,13.42579-.413,26.85215a63.00382,63.00382,0,0,1-21.64268,46.56638L40.64838,371.50909Z"/><ellipse cx="92.603" cy="226.641" fill="#554e56" rx="24.036" ry="24.045"/><path fill="#433f43" d="M104.17126,205.562a24.04109,24.04109,0,0,1-33.31933,31.3147,24.03942,24.03942,0,1,0,33.31933-31.3147Z"/><path fill="#282828" d="M92.60158,195.0918a31.54541,31.54541,0,1,0,31.53516,31.54492A31.57675,31.57675,0,0,0,92.60158,195.0918Zm0,48.09082a16.54541,16.54541,0,1,1,16.53516-16.5459A16.55993,16.55993,0,0,1,92.60158,243.18262ZM290.21682,195.0918A31.54541,31.54541,0,1,0,321.753,226.63672,31.57676,31.57676,0,0,0,290.21682,195.0918Zm0,48.09082a16.54541,16.54541,0,1,1,16.53613-16.5459A16.55993,16.55993,0,0,1,290.21682,243.18262ZM494.10647,2.44629a29.175,29.175,0,0,0-32.01465,5.69336L421.77639,46.31152a7.49993,7.49993,0,1,0,10.3125,10.89258l40.31543-38.17187a14.5744,14.5744,0,0,1,24.59375,10.60351V194.85547A124.42043,124.42043,0,0,1,442.53029,297.8252l-91.644,62.332,5.82617-56.29688,62.02393-41.11328a82.04085,82.04085,0,0,0,35.91211-67.8916V111.63574a7.49983,7.49983,0,0,0-12.65723-5.44531l-71.86474,68.05273,6.69726-64.71289L412.14846,76.084A7.49993,7.49993,0,1,0,401.836,65.19141L379.19387,86.62988l6.15185-59.44433A24.64977,24.64977,0,0,0,360.83205-.00391H21.98049A24.64992,24.64992,0,0,0-2.53318,27.18652L40.23049,440.39746a79.6038,79.6038,0,0,0,79.36621,71.59863H263.21584a79.6038,79.6038,0,0,0,79.36621-71.59863l6.28467-60.72754,102.1001-69.44238a139.4061,139.4061,0,0,0,61.03125-115.37207V29.63574A29.197,29.197,0,0,0,494.10647,2.44629Zm-54.458,126.62109v65.78809A67.01617,67.01617,0,0,1,410.374,250.29492L358.71193,284.54l9.04444-87.39356ZM22.17287,120.20117l96.28516,42.1416a55.36809,55.36809,0,0,1,33.23047,51.69629l-.41211,26.85156A55.572,55.572,0,0,1,132.209,281.91309l-85.59449,74.46ZM334.284,374.86914l-6.62183,63.9834a64.64148,64.64148,0,0,1-64.44629,58.14355H119.5967a64.64149,64.64149,0,0,1-64.44629-58.14355L48.502,374.6123l93.55176-81.38183a70.5939,70.5939,0,0,0,24.2207-52.10938l.41211-26.85254a70.33308,70.33308,0,0,0-42.21484-65.668L20.39773,103.0498l-8.011-77.40722a9.64987,9.64987,0,0,1,9.59375-10.64649H360.83205A9.64971,9.64971,0,0,1,370.4258,25.6416l-8.01147,77.41113L258.34572,148.60059a70.33614,70.33614,0,0,0-42.21484,65.668l.41309,26.85254a70.59173,70.59173,0,0,0,24.21875,52.1084l93.54663,81.376C334.29958,374.69336,334.29055,374.78125,334.284,374.86914Zm1.91455-18.501-85.59009-74.45507A55.57452,55.57452,0,0,1,231.542,240.89062l-.41308-26.85253a55.37075,55.37075,0,0,1,33.23047-51.69532l96.28-42.13867-7.50953,72.56152-.002.02051ZM191.40627,342.83105a63.52881,63.52881,0,1,0,51.48828,100.72657,7.50037,7.50037,0,0,0-12.15625-8.78907,48.53772,48.53772,0,1,1,9.17578-28.4082,7.5,7.5,0,0,0,15,0A63.59028,63.59028,0,0,0,191.40627,342.83105Z"/></svg>