<svg xmlns="http://www.w3.org/2000/svg" data-name="Layer 1" viewBox="0 0 512 512"><path fill="#bc7c63" d="M337.78166,195.65l126.12977-31.23c8.839-2.18854,16.9323,4.72385,13.53,11.55575L457.14365,216.734c-7.68932,15.44026-25.74187,26.09116-46.594,27.49022l-85.447,5.733Z"/><path fill="#aa6a51" d="M463.91144,164.41992l-20.743,5.13623-16.02472,32.17774c-7.68933,15.44043-25.74189,26.09131-46.59406,27.49023l-51.41186,3.44946L325.1026,249.957l85.447-5.73291c20.85217-1.39892,38.90473-12.0498,46.59406-27.49023l20.29773-40.7583C480.84375,169.1438,472.75043,162.23145,463.91144,164.41992Z"/><path fill="#bc7c63" d="M174.21834,195.65,48.08857,164.42c-8.839-2.18854-16.9323,4.72385-13.53,11.55575L54.85635,216.734c7.68932,15.44026,25.74187,26.09116,46.594,27.49022l85.447,5.733Z"/><path fill="#aa6a51" d="M374.83,215.67993V275.8501a92.34992,92.34992,0,0,1-3.97,26.72L331.65,432.68994l-9.08,30.13013C315.21,487.26,287.67,504.5,256,504.5s-59.21-17.24-66.57007-41.67993L180.28,432.46,141.14,302.57007a92.34985,92.34985,0,0,1-3.97-26.72V215.67993c0-21.28979,21.75989-38.55,48.6-38.55H326.23C353.07,177.12988,374.83,194.39014,374.83,215.67993Z"/><path fill="#bc7c63" d="M331.65,432.68994l-9.08,30.13013a50.30759,50.30759,0,0,1-12.28,20.45,65.50507,65.50507,0,0,1-18.61011,13.26H291.67a83.93867,83.93867,0,0,1-69.87.7,67.12106,67.12106,0,0,1-18.42005-12.3,51.04507,51.04507,0,0,1-13.95007-22.10986L180.28,432.46l48.75-14.47a94.515,94.515,0,0,1,53.13,0Z"/><circle cx="256" cy="417.585" r="25.775" fill="#87523e"/><path fill="#7c4b37" d="M264.27356,393.17456a25.77,25.77,0,0,1-27.71643,41.32056,25.77154,25.77154,0,1,0,27.71643-41.32056Z"/><path fill="#282828" d="M504.49807-.00391a7.49975,7.49975,0,0,0-7.5,7.5V50.08984a55.0514,55.0514,0,0,1-54.98926,54.98926h-4.08612a63.42276,63.42276,0,0,0,22.61005-48.55078V46.68848a7.5,7.5,0,0,0-15,0v9.83984a48.60045,48.60045,0,0,1-48.54541,48.5459c-.03266,0-.06415.00439-.09675.00488h-5.36834a49.40442,49.40442,0,0,0,12.96509-33.34863V64.36133a7.5,7.5,0,0,0-15,0v7.36914a34.507,34.507,0,0,1-30.1211,34.2041,7.55788,7.55788,0,0,0-.97381.1958A70.11039,70.11039,0,0,0,300.63161,169.624H211.36452a70.11039,70.11039,0,0,0-57.76074-63.49365,7.563,7.563,0,0,0-.97388-.1958,34.507,34.507,0,0,1-30.12109-34.2041V64.36133a7.5,7.5,0,0,0-15,0v7.36914A49.40471,49.40471,0,0,0,120.4739,105.0791h-5.36841c-.03247-.00049-.064-.00488-.09668-.00488A48.60044,48.60044,0,0,1,66.4634,56.52832V46.68848a7.5,7.5,0,1,0-15,0v9.83984A63.42278,63.42278,0,0,0,74.07351,105.0791H69.98733A55.0514,55.0514,0,0,1,14.99807,50.08984V7.49609a7.5,7.5,0,0,0-15,0V50.08984A70.06874,70.06874,0,0,0,69.98733,120.0791h71.61279A55.06372,55.06372,0,0,1,196.31789,169.624H185.76711A63.16983,63.16983,0,0,0,148.232,181.48535l-29.24414-7.24121a7.50015,7.50015,0,0,0-3.60547,14.56055l20.91773,5.17969a39.4443,39.4443,0,0,0-6.63013,21.69335v22.91846l-27.71972-1.85986c-18.0708-1.21192-33.92139-10.377-40.38233-23.35059L41.34133,172.76367a5.11393,5.11393,0,0,1,4.94238-1.06738l38.8999,9.63183a7.50015,7.50015,0,1,0,3.60547-14.56054l-38.8999-9.63184c-7.605-1.88281-15.74805.63965-20.26514,6.27344a14.52787,14.52787,0,0,0-1.78076,15.90625l20.29785,40.75781c8.92627,17.92383,29.16016,30.04395,52.80518,31.62988l28.72363,1.92725v22.21338a100.084,100.084,0,0,0,4.28858,28.88574L182.2466,464.98438c8.34033,27.67968,38.668,47.01171,73.75147,47.01171s65.41113-19.332,73.75146-47.01171L351.148,393.96973a7.50014,7.50014,0,0,0-14.3623-4.32813L326.6216,423.37305l-37.7998-11.227a33.26831,33.26831,0,0,0-65.60169-.25586L185.30593,423.145,148.32082,300.40137a85.09149,85.09149,0,0,1-3.65088-24.55762v-60.166c0-17.123,18.436-31.05371,41.09717-31.05371h122.101c.01306,0,.02564.002.0387.002s.02563-.002.0387-.002H326.229c12.03309,0,22.87452,3.92823,30.39728,10.17627a7.52705,7.52705,0,0,0,1.05866.92237c6.01086,5.40088,9.64123,12.3623,9.64123,19.95507v29.3086a7.234,7.234,0,0,0,0,3.26172v27.5957a85.09115,85.09115,0,0,1-3.65088,24.55762l-17.334,57.52636a7.50014,7.50014,0,0,0,14.3623,4.32813l17.334-57.52637a100.08436,100.08436,0,0,0,4.28857-28.88574V253.63037l28.72364-1.92725c23.645-1.58593,43.8789-13.70605,52.80517-31.62988l20.29785-40.75781a14.52785,14.52785,0,0,0-1.78076-15.90625c-4.51709-5.63379-12.66064-8.15625-20.26514-6.27344l-98.34277,24.34961A63.16954,63.16954,0,0,0,326.229,169.624H315.67824A55.06378,55.06378,0,0,1,370.396,120.0791h71.61279a70.06874,70.06874,0,0,0,69.98926-69.98926V7.49609A7.49975,7.49975,0,0,0,504.49807-.00391Zm-248.5,497a75.778,75.778,0,0,1-23.55689-3.73144,54.89839,54.89839,0,0,0,23.8982-22.64307,55.24681,55.24681,0,0,0,24.58471,22.18994A75.64275,75.64275,0,0,1,255.99807,496.99609Zm31.771-69.51513,34.52491,10.2539-6.90674,22.92139c-2.56861,8.5249-8.19287,16.10205-15.83814,22.10352a41.64945,41.64945,0,0,1-24.06567-11.71485,41.1372,41.1372,0,0,1-11.213-21.231A33.40951,33.40951,0,0,0,287.76906,427.481Zm-31.771-28.1753a18.27491,18.27491,0,1,1-18.2749,18.27539A18.29591,18.29591,0,0,1,255.99807,399.30566Zm-31.8357,27.95069A33.40038,33.40038,0,0,0,247.917,449.8584a41.00637,41.00637,0,0,1-9.54443,20.36719,41.93679,41.93679,0,0,1-24.7605,13.41406c-8.23535-6.13379-14.3064-14.03369-17.00317-22.9834l-6.97559-23.1499ZM465.71242,171.69629a5.1165,5.1165,0,0,1,4.94434,1.07031l-20.22852,40.61914c-6.46093,12.97364-22.31152,22.13867-40.38232,23.35059l-27.71973,1.85986V215.67773a39.44671,39.44671,0,0,0-6.63012-21.69335ZM201.75734,261.13281V284.8877a7.5,7.5,0,0,0,15,0V261.13281a7.5,7.5,0,0,0-15,0Zm99.79493,0V284.8877a7.5,7.5,0,0,0,15,0V261.13281a7.5,7.5,0,1,0-15,0Z"/></svg>