<svg xmlns="http://www.w3.org/2000/svg" data-name="Layer 1" viewBox="0 0 512 512"><path fill="#e53950" d="M437.71,109.31006l-10.03,49.63989L350.73,126.72a4.00258,4.00258,0,0,0-5.52,3.17017,4.39694,4.39694,0,0,0-.03.51977V282.08984H166.82007V130.40991a3.99954,3.99954,0,0,0-5.55-3.68994L84.32007,158.95,74.29,109.31006l134.28-67.41016L256,35.21l47.42993,6.68994Z"/><path fill="#ca2e43" d="M345.21,129.89014a4.39694,4.39694,0,0,0-.03.51977v108.76l-27.983.04V156.576a26.71727,26.71727,0,0,1,28.01295-26.68584Z"/><path fill="#e53950" d="M121.81641,130.40649a3.9998,3.9998,0,0,0-5.54541-3.6892L80.80908,141.57275l3.51245,17.37989,37.49488-15.70728Z"/><path fill="#ca2e43" d="M303.42847,41.89917,256,35.21045l-22.5,3.17309,24.92847,3.51563L370.33415,98.07449A32.76734,32.76734,0,0,1,387.75163,133.85l-1.56071,7.7228,41.48755,17.37989,10.033-49.645Z"/><rect width="86" height="44" x="37.658" y="108.335" fill="#f1f6f9" rx="9" transform="rotate(-107.499 80.658 130.335)"/><rect width="86" height="44" x="384.809" y="109.013" fill="#f1f6f9" rx="9" transform="rotate(-72.501 427.81 131.013)"/><path fill="#dde8ef" d="M453.13733,93.91231l-9.3617-2.95162-17.00171,53.92562a19.66238,19.66238,0,0,1-24.6649,12.8401l-5.26576-1.66025-.23926.75855a8.99892,8.99892,0,0,0,5.87618,11.28939l24.7979,7.81852a9,9,0,0,0,11.28973-5.87726l20.44684-64.85321A9.00014,9.00014,0,0,0,453.13733,93.91231Z"/><rect width="44" height="192" x="234" y="60.5" fill="#f1f6f9"/><polygon fill="#685e68" points="345.184 171.218 345.184 200.847 166.816 201.218 166.816 171.588 345.184 171.218"/><polygon fill="#554e56" points="345.184 171.218 345.184 200.847 317.197 201.218 317.197 171.588 345.184 171.218"/><path fill="#ca2e43" d="M270.37913,71.18363h0a50.49988,50.49988,0,0,1-28.75816,0h-.00005c-2.60329-.77326-5.10719,13.25674-7.49743,12.10913A50.50717,50.50717,0,0,1,205.5,37.77405v0a8.46927,8.46927,0,0,1,6.05777-8.11869l4.57939-1.36022a140.0001,140.0001,0,0,1,79.72568,0l4.57939,1.36022A8.46927,8.46927,0,0,1,306.5,37.774v0a50.5074,50.5074,0,0,1-28.41692,45.419C275.63066,84.38426,273.0575,70.38807,270.37913,71.18363Z"/><path fill="#dde8ef" d="M234,83.2312a50.5913,50.5913,0,0,0,7.62085,2.95239h0a50.5014,50.5014,0,0,0,28.7583,0h0A50.5913,50.5913,0,0,0,278,83.2312V60.5H234Z"/><path fill="#f1f6f9" d="M270.37913,71.18363h0a50.49988,50.49988,0,0,1-28.75816,0h-.00005A50.5,50.5,0,0,1,205.5,22.77405v0a8.46927,8.46927,0,0,1,6.05777-8.11869l4.57939-1.36022a140.0001,140.0001,0,0,1,79.72568,0l4.57939,1.36022A8.46927,8.46927,0,0,1,306.5,22.774v0A50.5,50.5,0,0,1,270.37913,71.18363Z"/><path fill="#e53950" d="M345,466.82533H301.5L262.67005,351.61557a7,7,0,0,0-13.27416.0221L211,466.82533H167v-197H345Z"/><path fill="#ca2e43" d="M315,269.8252V413.21413a23.61107,23.61107,0,0,1-23.61106,23.61107h0l10.11108,30H345v-197Z"/><path fill="#f1f6f9" d="M360.5,248.16354V274.5a9,9,0,0,1-8.98406,9l-190,.33641a9,9,0,0,1-9.01594-9V248.5a9,9,0,0,1,8.98406-9l190-.33641A9,9,0,0,1,360.5,248.16354Z"/><path fill="#dde8ef" d="M351.48413,239.16357l-5.98413.0105v9.3454a20,20,0,0,1-19.9646,20L152.5,268.82568v6.01075a9,9,0,0,0,9.016,9l190-.33643a9,9,0,0,0,8.98408-9V248.16364A9.00008,9.00008,0,0,0,351.48413,239.16357Z"/><rect width="71" height="44" x="154.5" y="460.5" fill="#f1f6f9" rx="9"/><rect width="71" height="44" x="287.5" y="460.5" fill="#f1f6f9" rx="9"/><path fill="#dde8ef" d="M349.5 460.5h-6v7.73329A21.26671 21.26671 0 0 1 322.23329 489.5H287.5v6a9 9 0 0 0 9 9h53a9 9 0 0 0 9-9v-26A9 9 0 0 0 349.5 460.5zM216.5 460.5h-6v7.73329A21.26671 21.26671 0 0 1 189.23329 489.5H154.5v6a9 9 0 0 0 9 9h53a9 9 0 0 0 9-9v-26A9 9 0 0 0 216.5 460.5z"/><rect width="100.564" height="27.725" x="7.5" y="287.395" fill="#f1f6f9" rx="5.545"/><path fill="#dde8ef" d="M102.51855,287.39478H94.3667v6.78748a11.80138,11.80138,0,0,1-11.80139,11.80138H7.5v3.59082a5.54492,5.54492,0,0,0,5.54492,5.54492h89.47363a5.54492,5.54492,0,0,0,5.54493-5.54492V292.9397A5.54492,5.54492,0,0,0,102.51855,287.39478Z"/><path fill="#e53950" d="M102.51862,287.39471H13.045c1.0743-5.90332,8.46155-42.96895,43.85666-64.53753,29.15269-17.76468,58.40171-13.49735,65.94734-12.16053-22.87618,4.52623-38.75126,23.0085-38.82008,42.5617C83.95839,273.29833,100.521,285.92161,102.51862,287.39471Z"/><path fill="#ca2e43" d="M84.02881,253.2583c.06885-19.55322,15.94385-38.0354,38.82031-42.56152a97.3285,97.3285,0,0,0-24.09619-1.13867,91.58672,91.58672,0,0,1,9.09619,1.13867c-22.87646,4.52612-38.75146,23.0083-38.82031,42.56152-.07031,20.04,16.49219,32.66333,18.48974,34.13648h15C100.521,285.92163,83.9585,273.29834,84.02881,253.2583Z"/><circle cx="122.046" cy="210.276" r="15" fill="#f1f6f9"/><path fill="#dde8ef" d="M129.67627,197.37842a14.97288,14.97288,0,0,1-22.11548,16.7373,14.99116,14.99116,0,1,0,22.11548-16.7373Z"/><path fill="#282828" d="M455.39065,86.75488l-24.7959-7.8164a16.50737,16.50737,0,0,0-19.76319,8.4873L311.97487,37.794a57.17038,57.17038,0,0,0,2.0232-15.02442A16.06458,16.06458,0,0,0,302.57619,7.46191l-4.5791-1.36035a147.16828,147.16828,0,0,0-83.99805,0l-4.5791,1.36035a16.06457,16.06457,0,0,0-11.42187,15.30762A57.17038,57.17038,0,0,0,200.02126,37.794L98.46975,88.76953A16.4797,16.4797,0,0,0,77.86916,78.25879L53.07131,86.07715A16.5203,16.5203,0,0,0,42.2969,106.77441l20.44726,64.85352A16.49618,16.49618,0,0,0,83.4424,182.40332l24.79493-7.81836a16.4999,16.4999,0,0,0,10.77734-20.69726l-.37354-1.18555,40.68409-17.043.0581,34.96191a6.77921,6.77921,0,0,0,.00342,1.95118l.04541,27.35449a7.0958,7.0958,0,0,0,.00439,2.59765l.04932,29.60645a16.5222,16.5222,0,0,0-14.48779,16.36523V274.832a16.47537,16.47537,0,0,0,14.5,16.36719V453.50684a16.51539,16.51539,0,0,0-12.5,15.98925v26a16.51929,16.51929,0,0,0,16.5,16.5h53a16.5193,16.5193,0,0,0,16.5-16.5v-26a16.51964,16.51964,0,0,0-9.93994-15.13183l32.981-98.9336,33.42481,99.16211a16.50749,16.50749,0,0,0-9.46582,14.90332v26a16.51929,16.51929,0,0,0,16.5,16.5h53a16.5193,16.5193,0,0,0,16.5-16.5v-26a16.51741,16.51741,0,0,0-13.5-16.21289V290.94531a16.51288,16.51288,0,0,0,15.5-16.44922V248.15918a16.48738,16.48738,0,0,0-15.02124-16.42773l-.27564-96.05957,37.72315,15.80273-.97412,3.08984a16.49823,16.49823,0,0,0,10.77441,20.69922l24.79688,7.81836a16.50039,16.50039,0,0,0,20.69726-10.77637l20.44629-64.85156A16.51966,16.51966,0,0,0,455.39065,86.75488ZM213.69143,21.84082l4.5791-1.36035a132.19194,132.19194,0,0,1,75.45508,0l4.5791,1.36035a.97453.97453,0,0,1,.69336.92871,43.25861,43.25861,0,0,1-30.75684,41.2207,42.89875,42.89875,0,0,1-24.48633,0,43.25861,43.25861,0,0,1-30.75683-41.2207A.97451.97451,0,0,1,213.69143,21.84082ZM104.60842,159.541a1.472,1.472,0,0,1-.87988.7373l-24.79493,7.81836a1.50271,1.50271,0,0,1-1.88281-.97852L56.60354,102.26465a1.50132,1.50132,0,0,1,.97851-1.88184L82.3799,92.56445a1.51533,1.51533,0,0,1,.45508-.07129,1.48771,1.48771,0,0,1,.68848.17188,1.47258,1.47258,0,0,1,.7373.87891L104.708,158.39746A1.47267,1.47267,0,0,1,104.60842,159.541Zm9.50317-21.20411-11.06079-35.083L205.80471,51.6748a58.63836,58.63836,0,0,0,20.69336,20.999v68.77051a7.5,7.5,0,0,0,15,0V78.92822a57.80528,57.80528,0,0,0,29,0v84.94092l-96.12525.19922-.05835-35.169a10.49948,10.49948,0,0,0-14.55664-9.68457ZM278,193.48242h-.00391l-103.574.21582-.02441-14.62988,163.427-.33887.04175,14.62891Zm59.90967,14.876.06689,23.32422-52.47851.09375V208.4668Zm-67.41162.13965v23.30468l-29,.05176v-23.2959Zm-44,.09179v23.291l-52.01245.0918-.03858-23.27442Zm-8.5,286.90625a1.50164,1.50164,0,0,1-1.5,1.5h-53a1.50164,1.50164,0,0,1-1.5-1.5v-26a1.50164,1.50164,0,0,1,1.5-1.5h49.59912l.01221.001.01245-.001h3.37622a1.50164,1.50164,0,0,1,1.5,1.5Zm133,0a1.50164,1.50164,0,0,1-1.5,1.5h-53a1.50164,1.50164,0,0,1-1.5-1.5v-26a1.50164,1.50164,0,0,1,1.5-1.5h53a1.50164,1.50164,0,0,1,1.5,1.5Zm2-247.33691v26.33691a1.50373,1.50373,0,0,1-1.50391,1.5l-33.08594.085a7.5,7.5,0,0,0,.01954,15h.01953l19.05078-.04882V452.99609H304.75539l-34.978-103.76855a14.29662,14.29662,0,0,0-13.73828-9.87988h-.02246a14.29706,14.29706,0,0,0-13.7334,9.915L207.70241,452.99609H174.49807V291.30859l113.94336-.20312a7.5,7.5,0,0,0-.01367-15h-.01368L161.5,276.332h-.00293a1.50039,1.50039,0,0,1-1.499-1.5V248.49609a1.50249,1.50249,0,0,1,1.498-1.5l5.50733-.00976h.00757l110.9768-.19629h.01026l.01074-.001,67.4873-.11914h.02637l5.97363-.01074h.00293a1.50039,1.50039,0,0,1,1.499,1.5ZM394.95339,137.1084l-42.71411-17.89258a10.49892,10.49892,0,0,0-14.55762,9.70508l.09985,34.80859-52.28344.1084V72.67383a58.6396,58.6396,0,0,0,20.69287-20.99854l99.88623,50.14893Zm56.906-34.165-20.44727,64.85352a1.49843,1.49843,0,0,1-1.88086.97851L404.7344,160.957a1.49892,1.49892,0,0,1-.97852-1.88183l20.44629-64.85254a1.5,1.5,0,0,1,1.88184-.97852l24.79589,7.81641A1.50253,1.50253,0,0,1,451.8594,102.94336ZM122.044,187.77246a22.53136,22.53136,0,0,0-20.87574,14.12207,101.72363,101.72363,0,0,0-48.17114,14.55469C20.78713,236.07715,9.971,267.38086,6.6028,281.60547A13.04517,13.04517,0,0,0-.00193,292.93555v16.63476A13.05922,13.05922,0,0,0,13.043,322.61523h89.47363a13.05922,13.05922,0,0,0,13.04492-13.04492V292.93555a13.05609,13.05609,0,0,0-9.956-12.66016c-3.91626-3.26758-14.12744-13.12109-14.07813-26.99512.03614-10.29687,5.50806-20.24316,14.59424-27.12695A22.49515,22.49515,0,1,0,122.044,187.77246ZM100.56154,294.89062v12.72461H14.99807V294.89062ZM76.52736,253.22754a46.48563,46.48563,0,0,0,8.613,26.66308H22.57619c4.04468-13.49218,14.11035-35.9375,38.22657-50.63281a85.389,85.389,0,0,1,31.96679-11.47754C82.57107,227.249,76.57424,239.97754,76.52736,253.22754ZM122.044,217.77246a7.5,7.5,0,1,1,7.5-7.5A7.5082,7.5082,0,0,1,122.044,217.77246Z"/></svg>