<svg xmlns="http://www.w3.org/2000/svg" data-name="Layer 1" viewBox="0 0 512 512"><rect width="420.18" height="131.16" x="7.5" y="339.69" fill="#f1f6f9" rx="30"/><path fill="#dde8ef" d="M397.67847,339.68506h-15V367.1576a73.69385,73.69385,0,0,1-73.69385,73.69384H7.5a30,30,0,0,0,30,30H397.67847a30,30,0,0,0,30-30V369.68506A30,30,0,0,0,397.67847,339.68506Z"/><path fill="#e53950" d="M309.74,182.33l93.40991,157.36h-370.79L190.80005,61.12a39.34716,39.34716,0,0,1,55.49-13.73L421.3999,159.82007l39.77,25.53992Z"/><path fill="#ca2e43" d="M288.9627,153.17211a23.41128,23.41128,0,0,0-20.59991,35.35682L306.107,252.11357c15.08332,25.4097-3.2294,57.57637-32.77869,57.57637H49.42285l-17.063,30h370.79L309.74,182.33l151.42993,3.03-45.88871-29.46928Z"/><ellipse cx="461.175" cy="184.05" fill="#f1f6f9" rx="43.325" ry="43.518"/><path fill="#dde8ef" d="M483.32129,146.648a43.55847,43.55847,0,0,1-37.14673,65.92065,42.96954,42.96954,0,0,1-22.14648-6.116A43.3901,43.3901,0,1,0,483.32129,146.648Z"/><path fill="#282828" d="M291.16945,420.69727a7.5,7.5,0,1,0,7.5,7.5A7.50006,7.50006,0,0,0,291.16945,420.69727Zm-140.30761-1.18946a7.5,7.5,0,1,0,7.5,7.5A7.49974,7.49974,0,0,0,150.86184,419.50781Zm56.136-37.17676a7.5,7.5,0,1,0,7.5-7.5A7.4999,7.4999,0,0,0,206.99782,382.33105ZM71.21535,381.14111a7.5,7.5,0,1,0,7.5-7.5A7.50006,7.50006,0,0,0,71.21535,381.14111ZM461.17287,133.02832a50.66094,50.66094,0,0,0-39.01416,18.36328L250.34279,41.07715a46.84969,46.84969,0,0,0-66.06543,16.333L162.98049,94.85449a7.50024,7.50024,0,1,0,13.03906,7.416l21.29688-37.44434a31.84771,31.84771,0,0,1,44.92285-11.126L414.34939,164.20361a50.74271,50.74271,0,0,0-3.48584,12.64112l-96.81348-1.938-24.4895-41.16455a7.49993,7.49993,0,0,0-12.89063,7.66992l26.61914,44.74414.001.00146L389.9717,332.18066H360.31252a7.5,7.5,0,1,0,0,15h37.36426a22.52586,22.52586,0,0,1,22.5,22.5v21.31006c-14.14307.86377-22.34741,4.12891-30.30078,7.30908-8.31446,3.32422-16.168,6.46387-32.2334,6.46387-16.06445,0-23.918-3.13965-32.23242-6.46387-9.2666-3.70507-18.84864-7.53613-37.80078-7.53613s-28.53321,3.83106-37.79981,7.53613c-8.31445,3.32422-16.167,6.46387-32.23047,6.46387s-23.916-3.13965-32.23047-6.46387c-9.26562-3.70507-18.84765-7.53613-37.79785-7.53613s-28.53125,3.83106-37.79687,7.53613c-8.31348,3.32422-16.166,6.46387-32.22852,6.46387-16.06348,0-23.916-3.13965-32.22949-6.46387-7.95264-3.18017-16.15576-6.44531-30.29785-7.30908V369.68066a22.52586,22.52586,0,0,1,22.5-22.5H330.31252a7.5,7.5,0,0,0,0-15H45.25637L161.625,127.58008a7.50024,7.50024,0,0,0-13.03906-7.416L27.17043,333.63867a37.55837,37.55837,0,0,0-27.17236,36.042v71.167a37.54226,37.54226,0,0,0,37.5,37.5H397.67678a37.54227,37.54227,0,0,0,37.5-37.5v-71.167a37.56118,37.56118,0,0,0-26.84033-35.94775l-85.269-143.64307,87.87452,1.75879a50.84308,50.84308,0,1,0,50.231-58.82031ZM420.17678,440.84766a22.52586,22.52586,0,0,1-22.5,22.5H37.49807a22.52586,22.52586,0,0,1-22.5-22.5V406.02734c11.22729.81446,17.82788,3.44043,24.72949,6.2002,9.26562,3.70508,18.84668,7.53613,37.79785,7.53613,18.9502,0,28.53125-3.83105,37.79688-7.53613,8.31347-3.32422,16.166-6.46387,32.22851-6.46387s23.915,3.13965,32.22949,6.46387c9.26563,3.70508,18.84766,7.53613,37.79883,7.53613s28.53321-3.83105,37.79883-7.53613c8.31445-3.32422,16.167-6.46387,32.23145-6.46387s23.918,3.13965,32.23242,6.46387c9.2666,3.70508,18.84863,7.53613,37.80078,7.53613s28.53516-3.83105,37.80176-7.53613c6.90258-2.75977,13.50341-5.38574,24.73242-6.2002Zm40.99609-220.78321a36.01858,36.01858,0,1,1,35.8252-36.01855A35.96328,35.96328,0,0,1,461.17287,220.06445ZM364.17092,383.52051a7.5,7.5,0,1,0-7.5,7.5A7.50006,7.50006,0,0,0,364.17092,383.52051Z"/></svg>