<svg xmlns="http://www.w3.org/2000/svg" data-name="Layer 1" viewBox="0 0 512 512"><path fill="#e53950" d="M464.5,428.18V502c0,5.52,10.52,10,5,10l-47.57471-15L393.62,512H291l-41.08013-15L221,512H118.38L88.327,497,42.5,512c-5.53,0,5-4.48,5-10V428.18c0-22.3-9.81006-43.39-.58-62.13A140.68659,140.68659,0,0,1,173.17993,287.5H338.82a140.68653,140.68653,0,0,1,126.25361,78.55311C474.31057,384.78857,464.5,405.87793,464.5,428.18Z"/><path fill="#ca2e43" d="M464.5,428.18V502c0,5.52,10.52,10,5,10H429.72c20.09-23.26,26.54-52.41,16.75-75.18-4.96-11.53-17.77-30.01-35.83-31.92005-25.09-2.67-34.27,29.37-71.29,35.89-6.31,1.11-18.03,2.29-32.31,9.28-11.33008,5.54-12.97,9.21-16.04,8.85-15.62-1.81-45.73-104.8-23.27-171.42h71.09a140.68653,140.68653,0,0,1,126.25361,78.55311C474.31057,384.78857,464.5,405.87793,464.5,428.18Z"/><rect width="70" height="85.5" x="221" y="426.5" fill="#f1f6f9"/><path fill="#ffcebf" d="M344.72068,185.09451V213.08a297.91071,297.91071,0,0,0,24.42456,118.136l0,.00009a71.15926,71.15926,0,0,1-2.78594,62.16633l0,.00006a71.15929,71.15929,0,0,1-44.83844,34.97434L300.069,433.86614a76.89953,76.89953,0,0,0-29.15145,14.6279l-.4958.39992a22.97068,22.97068,0,0,1-28.84356,0l-.49574-.39987A76.90087,76.90087,0,0,0,211.93058,433.866l-21.45144-5.50919a71.15932,71.15932,0,0,1-44.83844-34.97434l0-.00006a71.15926,71.15926,0,0,1-2.78594-62.16633l0-.00009A297.91071,297.91071,0,0,0,167.27932,213.08v-27.9855Z"/><path fill="#ced9e1" d="M221,458.92194a57.74762,57.74762,0,0,1,7.58789,5.18695l.42871.34277a42.96073,42.96073,0,0,0,53.89551.05713l.55957-.44775A57.17594,57.17594,0,0,1,291,458.91913V426.5H221Z"/><path fill="#f1f6f9" d="M374.98,359.43a71.16945,71.16945,0,0,1-53.46,68.93l-21.44995,5.51a76.87165,76.87165,0,0,0-29.15,14.62l-.5.4a22.96219,22.96219,0,0,1-28.84,0l-.5-.4a76.87215,76.87215,0,0,0-29.15015-14.62L190.48,428.36a71.16763,71.16763,0,0,1-47.62988-97.14q5.1449-11.925,9.22-24.22A296.57811,296.57811,0,0,0,160.2,277.51H351.8A296.595,296.595,0,0,0,359.93,307q4.065,12.285,9.22,24.22A71.06938,71.06938,0,0,1,374.98,359.43Z"/><path fill="#ffb09e" d="M293.56816,241.34128a39.41988,39.41988,0,0,1,1.73161,13.31517q-.0576,1.42537-.2175,2.82555a39.33623,39.33623,0,1,1-76.93456-15.183,14.5855,14.5855,0,0,1,13.8599-10.65564l47.51911-.51127A14.53585,14.53585,0,0,1,293.56816,241.34128Z"/><path fill="#dde8ef" d="M369.15,331.22q-5.145-11.925-9.22-24.22a296.595,296.595,0,0,1-8.13-29.49H160.2A296.57811,296.57811,0,0,1,152.07007,307q4.3949,3.27,9.08,6.09c14.85,8.94,38.69007,18.5,61.03992,18.5,13.25,0,24.84009-3.46,33.81006-10.05,8.97,6.59,20.56006,10.04,33.81006,10.05a86.58455,86.58455,0,0,0,9.446-.53459c29.91251-3.28685,53.33129,26.10282,41.9391,53.95563A34.84883,34.84883,0,0,1,336.36,393.38c-17.33942,22.12922-57.48243,17.70069-77.78638,51.34351a55.42043,55.42043,0,0,0-4.44007,9.1814A22.92942,22.92942,0,0,0,270.42,448.89l.5-.4a76.87165,76.87165,0,0,1,29.15-14.62l21.45-5.51a71.16775,71.16775,0,0,0,47.63-97.14Z"/><path fill="#ffb09e" d="M310.94458,266.76007q19.68092,1.869,39.36176,3.738a297.90291,297.90291,0,0,1-5.58564-57.418V185.09448H167.2793v15H309.01007a20.873,20.873,0,0,1,20.80549,22.69694c-.96246,10.85148-2.90822,22.91-6.81672,29.63387A55.73883,55.73883,0,0,1,310.94458,266.76007Z"/><path fill="#fe99a0" d="M280.71883,280.76155a29.80946,29.80946,0,1,1-49.79125.5357"/><path fill="#f1f6f9" d="M372.42334,246.7019c-16.60463,15.38989-30.65908,19.3141-41.13843,19.63453-24.3999.746-40.48047-17.70728-59.22485-8.1048-6.47363,3.31634-12.88074,9.78729-15.17066,17.91046h-1.7788c-2.2898-8.12317-8.697-14.59412-15.17054-17.91046-18.7445-9.60248-34.82507,8.85083-59.225,8.1048-10.47929-.32043-24.5338-4.24464-41.13837-19.63453a4.42458,4.42458,0,0,0-7.03018,5.11972c6.88147,14.434,18.75315,31.9964,38.91269,44.13126,20.26245,12.19678,57.06738,23.82837,74.72436,7.82282a31.37134,31.37134,0,0,0,7.07774-9.674A3.03168,3.03168,0,0,1,256,292.35834h0a3.03167,3.03167,0,0,1,2.73873,1.74343,31.37,31.37,0,0,0,7.07764,9.67393c17.657,16.00555,54.462,4.374,74.72442-7.82282,20.15941-12.13485,32.03114-29.69721,38.91268-44.13123A4.42459,4.42459,0,0,0,372.42334,246.7019Z"/><path fill="#dde8ef" d="M216.9231,257.48242a39.32643,39.32643,0,0,0,78.14843-.00165c-7.74231-2.36126-15.14282-3.28009-23.01147.75086-6.47363,3.31634-12.88074,9.78729-15.17066,17.91046h-1.7788c-2.2898-8.12317-8.697-14.59412-15.17054-17.91046C232.06958,254.19971,224.66736,255.11987,216.9231,257.48242Z"/><path fill="#ffcebf" d="M280.71883,231.03431a29.80946,29.80946,0,1,1-49.79125.5357Z"/><path fill="#e53950" d="M447.89,37.02c-.18,1.87-.39,3.67-.62,5.4-3.55,25.88-13.22,37.3-21.24,42.99-22.86,16.2-58.3,4.19-72.6,22.63a45.01609,45.01609,0,0,0-8.06,16.48c-.88,4.22-.82,8.67-.71,17.57.06,4.94.24,9.03.4,11.86q-14.64.10493-29.29.2-71.055.48-142.09009.97C171.52,149.65,152.21,98.27,180.91,58c24.39-34.2,67.34-37.86,73.85-38.31,63.16-4.41,91.61,51.78,146.87,41.77C423.43,57.5,439.2,45.1,447.89,37.02Z"/><path fill="#ca2e43" d="M447.27,42.42c-3.55,25.88-13.22,37.3-21.24,42.99-22.86,16.2-58.3,4.19-72.6,22.63a45.01609,45.01609,0,0,0-8.06,16.48c-.88,4.22-.82,8.67-.71,17.57.06,4.94.24,9.03.4,11.86q-14.64.10493-29.29.2a39.84885,39.84885,0,0,1-5.26-12.06c-4.85-19.61,6.12-42.31,21.05-53.62,26.76-20.26,55.46,4.27,87.33-13.49C432.95,67.14,441.7,54.38,447.27,42.42Z"/><circle cx="451.5" cy="31.992" r="26.5" fill="#f1f6f9"/><path fill="#dde8ef" d="M460.3125,6.99878A26.498,26.498,0,0,1,431.597,49.47833,26.49746,26.49746,0,1,0,460.3125,6.99878Z"/><rect width="207" height="43" x="152.5" y="142.095" fill="#f1f6f9" rx="10"/><path fill="#dde8ef" d="M349.5,142.09448h-30a10,10,0,0,1,10,10v23a10,10,0,0,1-10,10h30a10,10,0,0,0,10-10v-23A10,10,0,0,0,349.5,142.09448Z"/><path fill="#f1f6f9" d="M42.5 512a10 10 0 0 1-10-10V428.18a140.228 140.228 0 0 1 14.42-62.13l36.75 21.16a69.27029 69.27029 0 0 1 34.71 60.03V512zM479.5 428.18V502a10.00366 10.00366 0 0 1-10 10H393.62V447.24a69.30029 69.30029 0 0 1 34.71-60.03l36.74-21.15.01-.01c0 .01.01.01.01.02A140.27248 140.27248 0 0 1 479.5 428.18z"/><path fill="#dde8ef" d="M479.5,428.18V502a10.00366,10.00366,0,0,1-10,10H429.72c20.09-23.26,26.54-52.41,16.75-75.18-4.96-11.53-17.77-30.01-35.83-31.92005-.83-.09-1.65-.13-2.45-.15a69.66347,69.66347,0,0,1,20.14-17.54l36.74-21.15a.035.035,0,0,0,.02.01A140.27248,140.27248,0,0,1,479.5,428.18Z"/><path fill="#282828" d="M304.54738,220.4126a7.5,7.5,0,1,0-7.5-7.5A7.50006,7.50006,0,0,0,304.54738,220.4126Zm167.44672,142.748a7.57388,7.57388,0,0,0-.35718-.74072,148.41179,148.41179,0,0,0-103.7146-79.56006A117.04678,117.04678,0,0,0,386.22268,255.043a11.92455,11.92455,0,0,0-18.89844-13.84766,84.42542,84.42542,0,0,1-12.60925,9.76758,291.32676,291.32676,0,0,1-2.49622-37.88672V192.35742a17.51255,17.51255,0,0,0,14.7793-17.2666v-23a17.51234,17.51234,0,0,0-14.90338-17.28564,43.71154,43.71154,0,0,1,.6065-8.72022,38.058,38.058,0,0,1,6.65576-13.4541c5.51954-7.11914,16.81739-8.21387,29.89942-9.48145,13.41553-1.2998,28.62158-2.77343,41.11328-11.6289,7.72925-5.479,13.773-13.43018,18.03467-23.67139,1.01977.09229,2.05029.147,3.09375.147A34.01307,34.01307,0,1,0,420.248,47.38086a75.01,75.01,0,0,1-19.95643,6.69043c-25.187,4.56738-44.08447-5.99317-65.96386-18.2207C312.5259,23.668,287.82082,9.84668,254.23586,12.2002c-12.31543.85839-54.43994,6.38378-79.43066,41.44335-19.74512,27.70166-18.57373,59.96338-14.57544,81.11133a17.51455,17.51455,0,0,0-15.23169,17.33594v23a17.51254,17.51254,0,0,0,14.77929,17.2666v20.71875a291.353,291.353,0,0,1-2.49633,37.88721,84.47994,84.47994,0,0,1-12.61011-9.76807A11.92414,11.92414,0,0,0,125.77346,255.043a117.036,117.036,0,0,0,18.312,27.82959A148.04458,148.04458,0,0,0,24.99807,428.17578v76.32031a7.5,7.5,0,0,0,15,0V428.17578a131.9988,131.9988,0,0,1,10.32287-51.51562l29.60535,17.04589A61.9274,61.9274,0,0,1,110.878,447.23633v57.25976a7.5,7.5,0,0,0,15,0V447.23633a76.96767,76.96767,0,0,0-38.46777-66.53028L56.92946,363.15576a133.15757,133.15757,0,0,1,90.28687-65.6123,291.47276,291.47276,0,0,1-11.249,30.69482,78.66047,78.66047,0,0,0,52.644,107.37891L210.063,441.127q1.73621.44606,3.43506.979v62.39013a7.5,7.5,0,0,0,15,0V448.84863a69.77659,69.77659,0,0,1,7.87646,5.48145l.49268.39746a30.64036,30.64036,0,0,0,38.25879.002l.498-.40137a69.78526,69.78526,0,0,1,7.874-5.47949v55.64746a7.5,7.5,0,0,0,15,0V442.106q1.7-.52954,3.43457-.979l21.45215-5.50976a7.5004,7.5004,0,0,0-3.73145-14.5293l-21.45215,5.50977a85.02321,85.02321,0,0,0-9.66491,3.12793q-.35175.12231-.68641.27783a83.82224,83.82224,0,0,0-21.64038,12.647l-.49853.40137a15.55324,15.55324,0,0,1-19.42871-.002l-.49317-.39746a83.8423,83.8423,0,0,0-21.64123-12.64843,7.39349,7.39349,0,0,0-.69141-.2793,84.97308,84.97308,0,0,0-9.662-3.12695l-21.45166-5.50977a63.6584,63.6584,0,0,1-42.60449-86.90234,306.57454,306.57454,0,0,0,12.68054-35.16114c1.68958,1.16163,3.40589,2.28809,5.17054,3.35059,14.001,8.42773,35.42236,16.666,54.60058,16.665,1.11658,0,2.223-.03613,3.32251-.09326a37.328,37.328,0,0,0,60.97144.00049c1.09936.05712,2.20581.09277,3.32226.09277,19.17676-.001,40.60108-8.23828,54.60108-16.665,1.76263-1.061,3.47687-2.18652,5.16467-3.34668a306.44419,306.44419,0,0,0,12.6864,35.15723,63.66325,63.66325,0,0,1-17.021,73.58691,7.49967,7.49967,0,1,0,9.75878,11.39063,78.65843,78.65843,0,0,0,21.03223-90.92481,291.31817,291.31817,0,0,1-11.243-30.71,133.38708,133.38708,0,0,1,90.28125,65.62744l-30.48016,17.55029a76.96711,76.96711,0,0,0-38.46827,66.53028v57.25976a7.5,7.5,0,0,0,15,0V447.23633a61.92685,61.92685,0,0,1,30.95215-53.53028L461.656,376.6709a133.09345,133.09345,0,0,1,10.342,51.50488v76.32031a7.5,7.5,0,0,0,15,0V428.17578A147.97734,147.97734,0,0,0,471.9941,363.16064Zm-20.496-348.16455a19,19,0,1,1-19,19A19.02162,19.02162,0,0,1,451.49807,14.99609ZM187.02,62.35059c21.72314-30.47559,60.67188-34.65821,68.25879-35.1875,29.12646-2.03028,50.78223,10.07617,71.73144,21.78222,18.70313,10.45117,37.93457,21.2002,61.57129,21.19824a80.48317,80.48317,0,0,0,14.38526-1.3125A90.59892,90.59892,0,0,0,429.1935,59.625a34.17428,34.17428,0,0,0,4.90405,3.56641c-3.1087,7.09863-7.19531,12.40088-12.40271,16.09277-9.23583,6.54687-21.7666,7.76074-33.88525,8.93457-15.15283,1.46875-30.82178,2.9873-40.30713,15.22168a51.7915,51.7915,0,0,0-9.47656,19.54,55.18948,55.18948,0,0,0-.93164,11.61035h-161.605C171.6238,116.25928,169.57424,86.82568,187.02,62.35059Zm-27.022,89.74023a2.50263,2.50263,0,0,1,2.5-2.5h7.01611l.02344.00195c.01025,0,.02063-.00195.03076-.00195H349.49807a2.50263,2.50263,0,0,1,2.5,2.5v23a2.50263,2.50263,0,0,1-2.5,2.5H315.80813a7.5,7.5,0,0,0,0,15h21.41064v20.48535a306.3731,306.3731,0,0,0,3.23316,44.312,40.2823,40.2823,0,0,1-9.3982,1.44776c-9.14209.2666-17.2793-2.68848-25.15137-5.5586a116.43856,116.43856,0,0,0-12.63281-4.05761c.02039-.50586.03858-1.01172.03858-1.52246a37.1335,37.1335,0,0,0-6.37647-20.86524,7.5,7.5,0,1,0-12.42969,8.39649,22.30945,22.30945,0,1,1-37.27246.40039,7.49991,7.49991,0,1,0-12.60742-8.127,37.191,37.191,0,0,0-5.93408,20.19532c0,.5083.01831,1.0122.03845,1.51513a116.473,116.473,0,0,0-12.63367,4.06494c-7.87109,2.86914-16.00244,5.82325-25.15087,5.5586a40.27777,40.27777,0,0,1-9.39759-1.44776,306.43706,306.43706,0,0,0,3.233-44.312V192.59082H285.80813a7.5,7.5,0,0,0,0-15H162.49807a2.50263,2.50263,0,0,1-2.5-2.5Zm81.14648,146.124c-13.98584,12.67676-47.54443,2.3086-65.81933-8.6914a89.27588,89.27588,0,0,1-28.30909-27.32324,75.9313,75.9313,0,0,0,12.72132,6.93945,7.522,7.522,0,0,0,1.0924.44531,57.2118,57.2118,0,0,0,19.65406,4.24316c12.02636.36622,21.97217-3.25781,30.74707-6.458a102.472,102.472,0,0,1,11.10254-3.59912,37.44681,37.44681,0,0,0,26.072,20.45752A22.9986,22.9986,0,0,1,241.14455,298.21484Zm14.85352,21.51954a22.24316,22.24316,0,0,1-13.62085-4.63917,34.16052,34.16052,0,0,0,8.84155-5.76709,36.874,36.874,0,0,0,4.7793-5.32519,36.874,36.874,0,0,0,4.77929,5.32519,34.17093,34.17093,0,0,0,8.84082,5.76758A22.24473,22.24473,0,0,1,255.99807,319.73438Zm92.82623-39.0669c-.0387.03467-.07733.06934-.11523.105a86.27738,86.27738,0,0,1-12.03766,8.751c-18.27588,11.001-51.834,21.36816-65.81983,8.6914a22.99864,22.99864,0,0,1-7.261-13.98632,37.44508,37.44508,0,0,0,26.0686-20.4502,103.02278,103.02278,0,0,1,11.105,3.5918c8.77637,3.19824,18.73047,6.82422,30.748,6.458a57.1859,57.1859,0,0,0,19.64056-4.23779,7.47334,7.47334,0,0,0,1.11225-.45361,75.89934,75.89934,0,0,0,12.715-6.93652A92.24539,92.24539,0,0,1,348.8243,280.66748ZM207.44875,205.4126a7.5,7.5,0,1,0,7.5,7.5A7.50006,7.50006,0,0,0,207.44875,205.4126Z"/></svg>