<svg xmlns="http://www.w3.org/2000/svg" data-name="Layer 1" viewBox="0 0 512 512"><path fill="#ca2e43" d="M475.02,131.42993,256,151.98l-219.02-20.55L140.66992,19.45a1.76334,1.76334,0,0,1,.13013-.13989c.03-.04.07007-.07007.09985-.11011A37.228,37.228,0,0,1,168.02,7.5H343.98A37.20157,37.20157,0,0,1,371.2,19.31006a1.76334,1.76334,0,0,1,.13013.13989Z"/><path fill="#e53950" d="M474.4502,171.31006l-90.52027,91.46L374.79,272.01l-109.6499,110.79L256,392.04l-41.06006,41.49-38.31006,38.71L147.79,441.37,118.96,410.49,90.12012,379.62,61.28,348.74,99.58008,310.04,137.21,272.01l9.14014-9.24L256,151.98l9.14014-9.24,11.2-11.31006L359.60986,47.29a28.78506,28.78506,0,0,0,5.07007-33.52,37.28368,37.28368,0,0,1,6.52,5.54,1.76334,1.76334,0,0,1,.13013.13989L475.02,131.42993A29.09449,29.09449,0,0,1,474.4502,171.31006Z"/><polygon fill="#f1f6f9" points="176.633 472.242 61.279 348.741 99.582 310.038 214.935 433.538 176.633 472.242"/><polygon fill="#ca2e43" points="383.93 262.77 374.79 272.01 247.039 401.119 128.249 281.089 256 151.98 265.14 142.74 375.45 254.2 383.93 262.77"/><path fill="#e53950" d="M450.72,348.74l-28.84009,30.88L393.04,410.49,364.21,441.37l-28.83984,30.87-38.31006-38.71L256,392.04,137.21,272.01l-99.65991-100.7A29.09449,29.09449,0,0,1,36.98,131.42993L140.66992,19.45a1.76334,1.76334,0,0,1,.13013-.13989c.03-.04.07007-.07007.09985-.11011A37.18531,37.18531,0,0,1,147.32007,13.77a28.78506,28.78506,0,0,0,5.07007,33.52l83.26977,84.13989L256,151.98,374.79,272.01l37.62988,38.03Z"/><polygon fill="#f1f6f9" points="335.367 472.242 450.721 348.741 412.418 310.038 297.065 433.538 335.367 472.242"/><path fill="#dde8ef" d="M412.41846,310.0376l-14.56641,15.59521,0,0a33.81488,33.81488,0,0,1,.67683,46.86748l-78.59555,84.14641,15.43359,15.59521L450.7207,348.74121Z"/><path fill="#fed402" d="M406.81006 154.2a2.80858 2.80858 0 0 0-.8 2.46L408.62012 171.86a2.77805 2.77805 0 0 1-4.03 2.93l-13.65015-7.18a2.81882 2.81882 0 0 0-2.58984 0L374.7 174.79a2.778 2.778 0 0 1-4.03-2.93l1.92017-11.20008.68994-4a2.81 2.81 0 0 0-.8-2.46l-11.05-10.77a2.77718 2.77718 0 0 1 1.54-4.73l15.27-2.22a2.78936 2.78936 0 0 0 2.09009-1.52l6.82983-13.83a2.76506 2.76506 0 0 1 4.97 0l6.12012 12.4.71 1.42993a2.78936 2.78936 0 0 0 2.09009 1.52l15.27 2.22a2.777 2.777 0 0 1 1.53979 4.73zM124.73324 121.128l6.82685 13.83272a2.77645 2.77645 0 0 0 2.09048 1.51883l15.26532 2.21818a2.77644 2.77644 0 0 1 1.53874 4.73575l-11.04609 10.76727a2.77641 2.77641 0 0 0-.79849 2.45751l2.60762 15.20363a2.77643 2.77643 0 0 1-4.02846 2.92685l-13.65372-7.17818a2.77646 2.77646 0 0 0-2.584 0l-13.65371 7.17818a2.77644 2.77644 0 0 1-4.02847-2.92685l2.60763-15.20363a2.77644 2.77644 0 0 0-.79849-2.45751L94.03238 143.43345a2.77644 2.77644 0 0 1 1.53874-4.73575l15.26531-2.21818a2.77645 2.77645 0 0 0 2.09049-1.51883l6.82685-13.83272A2.77645 2.77645 0 0 1 124.73324 121.128z"/><path fill="#fac600" d="M406.81006 154.2a2.80858 2.80858 0 0 0-.8 2.46L408.62012 171.86a2.77805 2.77805 0 0 1-4.03 2.93l-13.65015-7.18a2.81882 2.81882 0 0 0-2.58984 0L374.7 174.79a2.778 2.778 0 0 1-4.03-2.93l1.92017-11.20008A44.78811 44.78811 0 0 0 386.95 151.31006a45.80525 45.80525 0 0 0 11.3-17.78l.71 1.42993a2.78936 2.78936 0 0 0 2.09009 1.52l15.27 2.22a2.777 2.777 0 0 1 1.53979 4.73zM139.7219 154.36285a2.80863 2.80863 0 0 0-.8 2.46l2.61011 15.20007a2.778 2.778 0 0 1-4.03 2.93005l-13.65014-7.18005a2.8189 2.8189 0 0 0-2.58985 0l-13.65014 7.18005a2.778 2.778 0 0 1-4.03-2.93005l1.92016-11.20007A44.78812 44.78812 0 0 0 119.8618 151.473a45.80519 45.80519 0 0 0 11.3-17.78l.71 1.42994a2.78942 2.78942 0 0 0 2.09009 1.52l15.27 2.22a2.77705 2.77705 0 0 1 1.5398 4.73z"/><path fill="#282828" d="M365.46486,157.834l-2.18847,12.75684a10.2635,10.2635,0,0,0,14.91113,10.832l11.45508-6.02246,11.45508,6.02149a10.27558,10.27558,0,0,0,14.91113-10.832l-2.1875-12.75683,9.26953-9.03321a10.27723,10.27723,0,0,0-5.69726-17.52832L404.586,129.41016l-5.72754-11.60547a10.2765,10.2765,0,0,0-18.43066,0l-5.72754,11.60547-12.8086,1.86132a10.27737,10.27737,0,0,0-5.69531,17.5293Zm13.85352-13.93652a10.2771,10.2771,0,0,0,7.7334-5.62109l2.59082-5.251,2.5918,5.25a10.27571,10.27571,0,0,0,7.7373,5.62207l5.79395.8418-4.19239,4.08594a10.27129,10.27129,0,0,0-2.95508,9.09668l.98926,5.7705-5.18457-2.72558a10.2828,10.2828,0,0,0-9.5625.001l-5.18164,2.72461.99024-5.77148a10.27367,10.27367,0,0,0-2.95606-9.0957l-4.19238-4.08594ZM487.97365,375.71973l-31.92382-32.25782-.001-.001-70.71192-71.45166L479.77834,176.582a36.59712,36.59712,0,0,0,.74219-50.252L376.89748,14.42188c-.09277-.1045-.18652-.20508-.27637-.29786a44.90136,44.90136,0,0,0-7.77148-6.59082l-.00415-.00244-.0105-.00732A44.69676,44.69676,0,0,0,343.97854-.00391H168.0176a44.72269,44.72269,0,0,0-32.58008,14.0586c-.03027.03222-.05957.06445-.08984.09765-.08106.085-.165.17578-.249.26954L31.49807,126.30566a36.60436,36.60436,0,0,0,.71875,50.27539l94.43921,95.4253L55.94729,343.46094l-.00049.00049-.00049.00048L24.02248,375.71973a7.5,7.5,0,1,0,10.66211,10.55078l26.43628-26.71289,18.59155,19.90429L52.86135,406.59473a7.5,7.5,0,1,0,10.66211,10.55078L89.959,390.43262,108.5508,410.3374,81.69924,437.46973a7.5,7.5,0,1,0,10.66211,10.55078l26.436-26.71289,11.36329,12.166,7.22851,7.73926L110.53811,468.3457a7.5,7.5,0,1,0,10.66211,10.55078l26.43554-26.71289,18.59156,19.90479L139.376,499.2207a7.5,7.5,0,1,0,10.66211,10.55078l31.92382-32.25781c.01612-.0166.02955-.03467.04541-.05078l73.99024-74.76416,73.99121,74.76416c.01587.01611.0293.03418.04541.05078L361.958,509.77148a7.5,7.5,0,1,0,10.66211-10.55078l-26.85132-27.13232,18.59155-19.90479,26.43555,26.71289A7.5,7.5,0,1,0,401.458,468.3457L374.607,441.21289l7.22852-7.73926,11.36328-12.166,26.436,26.71289a7.5,7.5,0,0,0,10.66211-10.55078L403.44533,410.3374l18.5918-19.90478,26.43555,26.71289a7.5,7.5,0,0,0,10.66211-10.55078l-26.85108-27.13282,18.59155-19.90429,26.43628,26.71289a7.5,7.5,0,0,0,10.66211-10.55078Zm-334.8059-356.752a29.72089,29.72089,0,0,1,14.84985-3.97168H343.97854a29.7184,29.7184,0,0,1,14.84863,3.97071,21.18,21.18,0,0,1-4.55078,23.04394l-83.26953,84.13965A7.5,7.5,0,1,0,281.669,136.70117l83.26855-84.13769A36.2253,36.2253,0,0,0,374.75,34.18066L469.53713,136.5459a21.46576,21.46576,0,0,1-.41992,29.48437l-94.33228,95.31641L157.71877,42.00977A21.18131,21.18131,0,0,1,153.16775,18.96777ZM176.78518,461.416l-56.26807-60.24268L71.68166,348.88672l27.74121-28.03418,105.10572,112.5293Zm38.303-38.70411L109.982,310.18213,137.208,282.669,245.44558,392.03662Zm185.93627-31.7583-65.813,70.46192-27.7439-28.03369L373.1758,363.0332a7.50012,7.50012,0,0,0-10.96289-10.23828l-65.30493,69.917L261.2759,386.708l-.00244-.00293-.002-.002L142.48391,266.67529l-.00049-.00049-.00049-.00048L42.878,166.0293a21.47306,21.47306,0,0,1-.39648-29.50782L137.24611,34.18066a36.21016,36.21016,0,0,0,9.81153,18.38086L402.01247,310.18408,379.84377,333.919a7.50012,7.50012,0,0,0,10.96289,10.23828L412.572,320.854l27.74243,28.03272ZM310.61818,278.36328l-6.44433-1.82715,4.32324-2.41308a7.50036,7.50036,0,1,0-7.3125-13.09766L283.76467,270.75l-16.51733-4.68262L279.562,254.10352l19.94873.28808c.03711.001.07422.001.11035.001a7.49991,7.49991,0,0,0,.10645-14.999l-4.9502-.07128,4.80372-4.667A7.50067,7.50067,0,1,0,289.128,223.89551l-4.80395,4.667.07153-4.9502a7.49981,7.49981,0,0,0-14.99805-.21679l-.28808,19.94824-12.928,12.55957-4.62134-18.30176,10.22412-17.13281a7.50024,7.50024,0,1,0-12.88086-7.6875l-2.53711,4.25146-1.63965-6.49365a7.49968,7.49968,0,0,0-14.543,3.67188l1.6399,6.49414-4.25122-2.53711a7.50024,7.50024,0,0,0-7.6875,12.88086l17.13232,10.22461,4.4126,17.47412-17.34082-4.916-9.72363-17.41943a7.49988,7.49988,0,1,0-13.09766,7.31055l2.41308,4.32275-4.80078-1.36084a7.50025,7.50025,0,1,0-4.09179,14.43164l4.801,1.36133-4.32348,2.41308a7.50036,7.50036,0,1,0,7.3125,13.09766l17.41992-9.72461,18.16064,5.14844-13.54,13.1543-19.94775-.28809c-.03711-.001-.07422-.001-.11035-.001a7.49991,7.49991,0,0,0-.10645,14.999l4.94947.07129-3.57837,3.47656A7.50032,7.50032,0,1,0,216.27834,315.583l3.57861-3.47656-.07177,4.95019a7.49917,7.49917,0,0,0,7.39062,7.60742c.03711.001.07324.001.11035.001a7.50025,7.50025,0,0,0,7.49707-7.3916l.28907-19.94824,12.92724-12.5586,4.20337,16.646-10.22436,17.13232a7.50024,7.50024,0,1,0,12.88086,7.6875l2.53711-4.25195,1.22167,4.83789a7.49968,7.49968,0,1,0,14.543-3.67188l-1.22192-4.83935,4.2522,2.5376a7.50024,7.50024,0,0,0,7.6875-12.88086l-17.1333-10.22412-4.41236-17.47413,17.34009,4.916,9.7251,17.4209a7.50035,7.50035,0,1,0,13.09765-7.3125l-2.41284-4.32178,6.44312,1.82666a7.50025,7.50025,0,1,0,4.09179-14.43164Zm-160.626-147.0918-12.80762-1.86132-5.72754-11.60547a10.2765,10.2765,0,0,0-18.43066,0l-5.72754,11.60547-12.80859,1.86132a10.27737,10.27737,0,0,0-5.69532,17.5293l9.26856,9.0332L95.876,170.58789a10.26317,10.26317,0,0,0,14.91015,10.835l11.45508-6.02246,11.45508,6.02149a10.27557,10.27557,0,0,0,14.91113-10.832l-2.1875-12.75683,9.26953-9.03321a10.27722,10.27722,0,0,0-5.69726-17.52832ZM134.1719,148.8252a10.27123,10.27123,0,0,0-2.95508,9.09668l.98926,5.7705-5.18457-2.72558a10.2828,10.2828,0,0,0-9.5625.001l-5.18165,2.72461.99024-5.77148a10.278,10.278,0,0,0-2.95606-9.0957l-4.19238-4.08594,5.79785-.8418a10.27709,10.27709,0,0,0,7.7334-5.62109l2.59082-5.251,2.5918,5.25a10.27573,10.27573,0,0,0,7.7373,5.62207l5.79395.8418Z"/></svg>