<svg xmlns="http://www.w3.org/2000/svg" data-name="Layer 1" viewBox="0 0 512 512"><path fill="#f1f6f9" d="M406.9762,504.5H105.0238a30,30,0,0,1-29.9024-32.418l26.26342-324.791A15,15,0,0,1,116.336,133.5H395.664a15,15,0,0,1,14.9512,13.791L436.8786,472.082A30,30,0,0,1,406.9762,504.5Z"/><path fill="#dde8ef" d="M436.87866,472.082,410.61523,147.291A15,15,0,0,0,395.66406,133.5H366.92578l24.95288,308.582A30.00025,30.00025,0,0,1,361.97607,474.5H75.03271a29.99555,29.99555,0,0,0,29.99122,30H406.97607A30.00025,30.00025,0,0,0,436.87866,472.082Z"/><circle cx="162.427" cy="220.614" r="19.5" fill="#685e68"/><circle cx="349.573" cy="220.614" r="19.5" fill="#685e68"/><path fill="#554e56" d="M358.35205 203.219a19.48156 19.48156 0 0 1-26.77246 24.91455A19.49772 19.49772 0 1 0 358.35205 203.219zM171.20557 203.219a19.48156 19.48156 0 0 1-26.77246 24.91455A19.49772 19.49772 0 1 0 171.20557 203.219z"/><rect width="35.846" height="48.352" x="245.576" y="397.182" fill="#d88a55"/><polygon fill="#c57a44" points="245.576 402.58 245.576 397.182 281.421 397.182 281.421 439.378 245.576 402.58"/><path fill="#46cc8d" d="M187.37073,387.27374l73.42045-93.88133a3.43724,3.43724,0,0,1,5.41514,0l73.42045,93.88131a3.43891,3.43891,0,0,1-1.81965,5.43826,284.71256,284.71256,0,0,1-148.63614-.00529A3.43525,3.43525,0,0,1,187.37073,387.27374Z"/><path fill="#00c27a" d="M339.62682,387.27372,266.2064,293.39239a3.43734,3.43734,0,0,0-5.41529,0l-8.08569,10.339,53.93274,68.96245a8.32609,8.32609,0,0,1-4.58919,13.2253A284.40458,284.40458,0,0,1,186.659,389.732a3.41523,3.41523,0,0,0,2.512,2.97473,284.71448,284.71448,0,0,0,148.64882.00176A3.4349,3.4349,0,0,0,339.62682,387.27372Z"/><path fill="#46cc8d" d="M198.83519,341.24333,261.198,261.50114a2.91959,2.91959,0,0,1,4.5996,0l62.36285,79.74218a2.921,2.921,0,0,1-1.5456,4.61922,241.83282,241.83282,0,0,1-126.25057-.00449A2.91789,2.91789,0,0,1,198.83519,341.24333Z"/><path fill="#00c27a" d="M328.1605,341.24334l-62.3628-79.74219a2.91958,2.91958,0,0,0-4.59961,0l-8.19018,10.47266,41.87146,53.54037a8.94927,8.94927,0,0,1-5.091,14.23656,241.544,241.544,0,0,1-91.54979,3.10966,2.89616,2.89616,0,0,0,2.12573,2.99768,241.8307,241.8307,0,0,0,126.25049.0044A2.92085,2.92085,0,0,0,328.1605,341.24334Z"/><path fill="#46cc8d" d="M213.50486,294.858l48.21486-61.65142a2.25722,2.25722,0,0,1,3.5561,0l48.21486,61.6514a2.25831,2.25831,0,0,1-1.195,3.57128,186.96943,186.96943,0,0,1-97.60864-.00347A2.25591,2.25591,0,0,1,213.50486,294.858Z"/><path fill="#00c27a" d="M313.49059,294.858l-48.21488-61.65151a2.25723,2.25723,0,0,0-3.55613,0l-8.19068,10.47364,26.5435,33.94074a9.56458,9.56458,0,0,1-5.57668,15.26785,186.89683,186.89683,0,0,1-61.16237,2.257,2.24411,2.24411,0,0,0,1.35376,3.28A186.96646,186.96646,0,0,0,312.315,298.424,2.25269,2.25269,0,0,0,313.49059,294.858Z"/><circle cx="263.498" cy="230.738" r="20" fill="#e53950"/><path fill="#ca2e43" d="M269.52182,211.66576A19.99947,19.99947,0,0,1,247.00473,242.043a19.99819,19.99819,0,1,0,22.51709-30.37726Z"/><path fill="#e53950" d="M105.02393,504.5H406.97607a30.00025,30.00025,0,0,0,29.90259-32.418L434.64819,444.5H77.35181l-2.23047,27.582A30.00025,30.00025,0,0,0,105.02393,504.5Z"/><path fill="#ca2e43" d="M436.87866,472.082,434.64819,444.5H391.96753a29.996,29.996,0,0,1-29.99146,30H75.03271a29.88615,29.88615,0,0,0,7.65967,20.02124c.03125.03467.061.07068.09229.10522.26709.29517.54223.58228.82055.86646.06788.06934.134.14026.2024.20886.25683.25733.521.50745.78711.7555.09619.08947.19091.18042.28808.26879.25.22705.50611.44764.76392.66626.12085.10254.24072.20581.363.3064.24511.20142.49511.3971.74682.59082.14209.10938.28394.21887.428.32568.24268.17994.489.35511.73731.52784.16015.11157.3208.22229.48315.33068q.36108.241.72974.47107.267.167.53735.329.35778.21387.72217.41809.29114.163.58691.31934.35632.18933.71826.37036c.20825.10352.41895.20337.63013.30213.23706.111.47485.2207.71533.32556.2229.09717.44824.18945.67383.28149.23584.096.47168.19165.71045.28186.23682.08924.47632.17273.71582.25623.23437.08178.46875.1643.70581.24023.25024.08032.50391.15344.75708.2273.23242.06775.46387.1372.69849.19946.2644.07019.53247.13184.7998.195.22925.05407.45728.111.68872.15979.28076.0592.56519.10864.84912.15991.22266.04028.44385.08471.66822.12.30346.04773.61059.08435.917.12293.20971.02637.41772.0581.62866.08032.34741.03626.69873.05957,1.04932.084.17431.012.34643.03064.52148.0398q.79212.04139,1.59522.04248H406.97607A30.00025,30.00025,0,0,0,436.87866,472.082Z"/><path fill="#282828" d="M444.35256,471.47363l-26.26367-324.791a22.62148,22.62148,0,0,0-22.42676-20.68653H357.07131V101.06934a101.07324,101.07324,0,1,0-202.14648,0v24.92675H116.334a22.62148,22.62148,0,0,0-22.42676,20.68653L91.792,172.84473a7.5,7.5,0,0,0,14.95117,1.209l2.11524-26.16211a7.541,7.541,0,0,1,7.47559-6.89551h38.59082v53.68213a27,27,0,1,0,15,0V140.99609H342.07131v53.68213a27,27,0,1,0,15,0V140.99609h38.59082a7.541,7.541,0,0,1,7.47559,6.89551l23.37793,289.10449H370.35842a7.5,7.5,0,0,0,0,15h57.37012l1.67285,20.68653a22.50134,22.50134,0,0,1-22.42676,24.31347H105.02151a22.50134,22.50134,0,0,1-22.42676-24.31347l1.67285-20.68653H340.35842a7.5,7.5,0,0,0,0-15h-51.4375V407.92871a292.45414,292.45414,0,0,0,50.8418-9.01465,10.939,10.939,0,0,0,5.77148-17.29883l-22.07959-28.23291c1.709-.42334,3.41528-.85839,5.11572-1.31787a10.42073,10.42073,0,0,0,5.498-16.47949L310.586,305.55859c1.22363-.30566,2.45-.59863,3.668-.92773a9.75867,9.75867,0,0,0,5.14453-15.43066l-33.7771-43.18995a27.50013,27.50013,0,1,0-44.24829,0l-33.77344,43.186a9.756,9.756,0,0,0,5.12988,15.43164c1.22217.33057,2.45264.62353,3.68018.92969L192.92678,335.585a10.41784,10.41784,0,0,0,5.48047,16.47559c1.70678.46142,3.41943.898,5.13427,1.32275l-22.07959,28.23193a10.936,10.936,0,0,0,5.752,17.29395,292.40862,292.40862,0,0,0,50.86133,9.01611v29.0708H85.48049l18.665-230.81933a7.5,7.5,0,0,0-14.95117-1.209L67.64358,471.47363a37.49933,37.49933,0,0,0,37.37793,40.52246H406.97463a37.49934,37.49934,0,0,0,37.37793-40.52246ZM174.42483,220.61035a12,12,0,1,1-12-12A12.01312,12.01312,0,0,1,174.42483,220.61035Zm-4.5-94.61426V101.06934a86.07324,86.07324,0,1,1,172.14648,0v24.92675Zm191.64648,94.61426a12,12,0,1,1-12-12A12.01312,12.01312,0,0,1,361.57131,220.61035ZM273.92092,436.99609h-20.8457v-28.1455q5.20605.186,10.41992.1914c.35156,0,.708-.001,1.06054-.002q4.68531-.01684,9.36524-.18555ZM263.49709,217.2002a12.5,12.5,0,1,1-12.5,12.5A12.51408,12.51408,0,0,1,263.49709,217.2002Zm-10.27051,38.00292a27.40551,27.40551,0,0,0,20.54126-.00048l28.825,36.85791a179.43753,179.43753,0,0,1-78.19043,0ZM232.82375,308.919a194.46182,194.46182,0,0,0,30.67041,2.45214c.23535,0,.47168,0,.707-.001A194.442,194.442,0,0,0,294.1697,308.917l23.759,30.37989a234.3183,234.3183,0,0,1-108.8623,0Zm-35.72607,77.05273,22.77417-29.12012A249.36589,249.36589,0,0,0,263.501,360.707c.2998,0,.59863-.001.89843-.00195a249.38086,249.38086,0,0,0,42.72461-3.85449l22.77442,29.12109A277.391,277.391,0,0,1,264.501,394.04q-.50244.00147-1.00586.002A277.32193,277.32193,0,0,1,197.09768,385.97168Z"/></svg>