<svg xmlns="http://www.w3.org/2000/svg" data-name="Layer 1" viewBox="0 0 512 512"><rect width="103.615" height="74.465" x="133.96" y="105.94" fill="#fee903"/><rect width="118.615" height="30" x="126.46" y="75.94" fill="#26a6fe" rx="4"/><path fill="#26a6fe" d="M185.76758,187.90527a7.49974,7.49974,0,0,1-7.5-7.5V105.93994a7.5,7.5,0,0,1,15,0v74.46533A7.49974,7.49974,0,0,1,185.76758,187.90527Z"/><path fill="#e53950" d="M286.40991,322.03a57.25221,57.25221,0,0,1-46.30981,44.38,309.99625,309.99625,0,0,1-104.82007,0,57.15987,57.15987,0,0,1-45.65991-71.16l32.81982-76.2,3.27-7.59,3.23-7.5-5.52-7.5-12.77-17.34A15.00128,15.00128,0,0,1,122.72,155.22H252.6499A15.00488,15.00488,0,0,1,264.73,179.12l-12.77,17.34-5.53,7.5,3.23,7.5L285.75,295.25A56.98823,56.98823,0,0,1,286.40991,322.03Z"/><path fill="#ca2e43" d="M286.40991,322.03a57.25221,57.25221,0,0,1-46.30981,44.38,309.99625,309.99625,0,0,1-104.82007,0,57.15987,57.15987,0,0,1-45.65991-71.16l32.81982-76.2h94.47a29.99808,29.99808,0,0,1,30,30v10.34a69.48251,69.48251,0,0,0,39.5,62.64Z"/><polygon fill="#ca2e43" points="246.43 203.96 249.66 211.46 125.71 211.46 128.94 203.96 123.42 196.46 251.96 196.46 246.43 203.96"/><rect width="103.62" height="74.46" x="275.19" y="285.99" fill="#26a6fe"/><rect width="118.615" height="30" x="267.692" y="255.987" fill="#fee903" rx="4"/><rect width="45" height="67.431" x="92.709" y="401.069" fill="#f1f6f9"/><rect width="45" height="67.38" x="314.29" y="401.07" fill="#f1f6f9"/><polygon fill="#e8edf2" points="314.29 410.92 359.29 409.03 359.29 446.91 314.29 416.1 314.29 410.92"/><polygon fill="#e8edf2" points="92.709 410.92 137.709 409.03 137.709 446.91 92.709 416.1 92.709 410.92"/><path fill="#e53950" d="M424.68994,270.99V386.07a30.0045,30.0045,0,0,1-30,30H359.2907l-26.8776-15-18.1224,15H137.7093l-27.00423-15-17.99577,15H85.24a77.72934,77.72934,0,0,1-70.61011-45.2h-.00976A77.42743,77.42743,0,0,1,7.5,338.33V186.69a6.99985,6.99985,0,0,1,12.29-4.58L45.74,212A64.05391,64.05391,0,0,0,94.1001,234.05H201.90991a29.99808,29.99808,0,0,1,30,30v10.34a69.4,69.4,0,0,0,138.80005,0v-3.4a14.99266,14.99266,0,0,1,15-15h23.98A14.99906,14.99906,0,0,1,424.68994,270.99Z"/><path fill="#ca2e43" d="M15.74 182a64.013 64.013 0 0 0 14.87573 12.57953L19.79 182.11a6.82211 6.82211 0 0 0-6.01416-2.3722zM409.68994 255.99h-15V356.07a30.0045 30.0045 0 0 1-30 30H329.29077l-26.87768-15-18.12232 15H107.70923l-27.00415-15-17.99585 15H55.24a77.37563 77.37563 0 0 1-37.87134-9.83771A77.69266 77.69266 0 0 0 85.24 416.07h7.46924l17.99585-15 27.00415 15H314.29077l18.12232-15 26.87768 15h35.39917a30.0045 30.0045 0 0 0 30-30V270.99A14.99906 14.99906 0 0 0 409.68994 255.99z"/><path fill="#fed402" d="M424.68994,370.87v15.2a30.0045,30.0045,0,0,1-30,30H85.24a77.72934,77.72934,0,0,1-70.61011-45.2Z"/><path fill="#fac600" d="M394.68994,370.87l-3.97974.00248a30.2,30.2,0,0,1-30.2,30.2L55.24,401.07a77.85583,77.85583,0,0,1-18.92944-2.33332A77.40939,77.40939,0,0,0,85.24,416.07H394.68994a30,30,0,0,0,30-30v-15.2Z"/><path fill="#fed402" d="M428.608,504.5H26.01024a18.29246,18.29246,0,1,1,0-36.58232H428.608c21.4341,0,38.87151-17.23147,38.87151-38.41144a18.51155,18.51155,0,0,1,37.02048,0C504.5,470.85784,470.45489,504.5,428.608,504.5Z"/><path fill="#282828" d="M485.9883,403.71094a25.931,25.931,0,0,0-26.01074,25.791c0,17.04493-14.07324,30.91211-31.37109,30.91211H366.78908V423.56445h27.89453a37.54225,37.54225,0,0,0,37.5-37.5V270.9834a22.52586,22.52586,0,0,0-22.5-22.5H385.70705c-.73633,0-1.46411.03808-2.18262.10742a7.53569,7.53569,0,0,0-1.21875-.10742H365.27077a23.70355,23.70355,0,0,0-38.2727-26.00488,23.70431,23.70431,0,0,0-38.27271,26.00488H271.69045a11.51341,11.51341,0,0,0-11.5,11.5v22a11.50978,11.50978,0,0,0,7.5,10.76806v33.5669a61.88652,61.88652,0,0,1-28.28223-51.93457V264.04688a37.54225,37.54225,0,0,0-37.5-37.5h-74.5288l6.49731-15.08594H241.492L252.333,236.627a7.49948,7.49948,0,0,0,13.77539-5.93359l-11.0918-25.749,15.7461-21.38477a22.50009,22.50009,0,0,0-18.11817-35.84082h-7.57129V112.70361a11.50979,11.50979,0,0,0,7.5-10.76806v-22a11.51341,11.51341,0,0,0-11.5-11.5H224.03835a23.70335,23.70335,0,0,0-38.2727-26.00391,23.70355,23.70355,0,0,0-38.27173,26.00391H130.458a11.51341,11.51341,0,0,0-11.5,11.5v22a11.50979,11.50979,0,0,0,7.5,10.76806v35.01514h-3.73535a22.499,22.499,0,0,0-18.11719,35.84082l15.74512,21.38477-9.304,21.60254h-16.948a56.51813,56.51813,0,0,1-42.69531-19.47071l-25.957-29.89355a14.37945,14.37945,0,0,0-16.02246-4.0752,14.379,14.379,0,0,0-9.42578,13.583V338.32324a84.70461,84.70461,0,0,0,7.53125,34.96289,7.45142,7.45142,0,0,0,.59546,1.31543,85.34183,85.34183,0,0,0,77.08227,48.96192v36.85058H26.00783a25.79193,25.79193,0,1,0,0,51.582H428.60647c45.98242,0,83.3916-37.00683,83.3916-82.49414A25.93077,25.93077,0,0,0,485.9883,403.71094ZM334.49807,239.76367a8.72022,8.72022,0,1,1,8.71972,8.71973h-8.71972Zm0,23.71973h29.999a22.39335,22.39335,0,0,0-1.29,7.5v3.40039c0,1.37891-.06152,2.74316-.15088,4.09961h-28.5581Zm0,30h25.67969a62.17172,62.17172,0,0,1-25.67969,33.10889ZM310.77834,231.043a8.7304,8.7304,0,0,1,8.71973,8.7207v8.71973h-8.71973a8.72022,8.72022,0,1,1,0-17.44043ZM275.19045,263.4834h44.30762v15H275.19045Zm44.30762,30v40.06836a61.92128,61.92128,0,0,1-36.80762-.13428V293.4834ZM193.26565,59.71582a8.72022,8.72022,0,1,1,8.7207,8.71973h-8.7207Zm0,23.71973h44.30761v15H193.26565Zm0,30h36.80761v34.2832H193.26565ZM169.54592,50.99609a8.73019,8.73019,0,0,1,8.71973,8.71973v8.71973h-8.71973a8.71973,8.71973,0,1,1,0-17.43946ZM133.958,83.43555h44.30762v15H133.958Zm44.30762,30v34.2832H141.458v-34.2832Zm-61.582,61.22949a7.5,7.5,0,0,1,6.03907-11.94629H252.64455a7.5,7.5,0,0,1,6.04,11.94629l-16.04907,21.7959H132.732ZM19.62966,363.36719a69.86317,69.86317,0,0,1-4.63159-25.04395V188.0293l25.0791,28.88086a71.51037,71.51037,0,0,0,54.02148,24.63672H115.96l.01953.001.01343-.001h85.91528a22.52585,22.52585,0,0,1,22.5,22.5v10.33691a77.01131,77.01131,0,0,0,47.47144,71.03467,7.3968,7.3968,0,0,0,1.18091.46631,76.60752,76.60752,0,0,0,56.02221.18652,7.42171,7.42171,0,0,0,1.29786-.5127,77.13387,77.13387,0,0,0,46.63671-57.793,7.44288,7.44288,0,0,0,.18384-1.02636,77.09928,77.09928,0,0,0,1.00586-12.35547V270.9834a7.5082,7.5082,0,0,1,7.5-7.5h23.97656a7.5082,7.5082,0,0,1,7.5,7.5v92.38379Zm7.94946,15H417.18361v7.69726a22.52586,22.52586,0,0,1-22.5,22.5h-132.665a7.5,7.5,0,0,0,0,15h44.7705l-.001,36.84961H145.20705V423.56445h84.86621a7.5,7.5,0,0,0,0-15H85.24026A70.20065,70.20065,0,0,1,27.57912,378.36719Zm324.21,45.19726v36.84961h-30.001l.001-36.84961Zm-221.582,0v36.84961h-30V423.56445Zm298.39942,73.43164H26.00783a10.79319,10.79319,0,1,1,0-21.582H428.60647c25.56933,0,46.37109-20.5957,46.37109-45.91211a11.01248,11.01248,0,0,1,22.02051,0C496.99807,466.71875,466.3174,496.99609,428.60647,496.99609Z"/></svg>