<svg xmlns="http://www.w3.org/2000/svg" data-name="Layer 1" viewBox="0 0 512 512"><path fill="#f1f6f9" d="M398.12988,363.15c0,78.07-63.73,141.35-142.33984,141.35C177.17993,504.5,113.45,441.22,113.45,363.15a140.51713,140.51713,0,0,1,46.02-104.07,142.86736,142.86736,0,0,1,192.63989,0A140.51713,140.51713,0,0,1,398.12988,363.15Z"/><ellipse cx="255.79" cy="161.957" fill="#f1f6f9" rx="88.616" ry="87.999"/><path fill="#dde8ef" d="M279.87158 77.2486a87.63622 87.63622 0 0 1 34.53394 69.70825c0 48.6004-39.67456 87.99878-88.616 87.99878a89.261 89.261 0 0 1-24.08179-3.29047 88.622 88.622 0 0 0 54.08179 18.29047c48.94141 0 88.616-39.39838 88.616-87.99878C344.40552 121.64581 317.10986 87.6673 279.87158 77.2486zM181.97168 410.13672a7.49974 7.49974 0 0 1-7.5-7.5V366.77783a7.5 7.5 0 0 1 15 0v35.85889A7.49974 7.49974 0 0 1 181.97168 410.13672zM204.47168 410.13672a7.49974 7.49974 0 0 1-7.5-7.5V378.14941a7.5 7.5 0 0 1 15 0v24.48731A7.49974 7.49974 0 0 1 204.47168 410.13672zM227.55859 410.13672a7.49975 7.49975 0 0 1-7.5-7.5V365.96338a7.5 7.5 0 0 1 15 0v36.67334A7.49974 7.49974 0 0 1 227.55859 410.13672z"/><path fill="#dde8ef" d="M352.10986,259.08923V259.08c-.22973-.21009-.46533-.41382-.69653-.62238-.41187-.371-.82373-.74152-1.24-1.10779q-.62769-.55315-1.26367-1.09729-.52223-.44879-1.04737-.894-.7196-.60728-1.44824-1.20386-.45666-.37481-.916-.74652-.791-.63894-1.59229-1.26636-.40648-.31851-.81494-.63415-.8529-.65891-1.71582-1.30524-.36585-.27374-.73389-.54474-.90893-.67154-1.82861-1.32971c-.21973-.1568-.44043-.312-.66064-.46753q-.958-.6762-1.92676-1.33832c-.20264-.138-.40674-.2741-.60987-.41113q-1.00194-.67493-2.01391-1.33508c-.18335-.11908-.36841-.236-.55225-.35431q-1.04772-.67374-2.10669-1.33167c-.16284-.10076-.32715-.19915-.49072-.29931q-1.09644-.672-2.2041-1.32733c-.13574-.08-.27319-.15753-.40943-.23706q-1.15612-.67521-2.325-1.33185c-.08935-.05-.17993-.09821-.26953-.148A142.31717,142.31717,0,0,0,308.33008,231.74h-.02051a142.1106,142.1106,0,0,0-30.33594-8.22949A142.5259,142.5259,0,0,1,291.51221,231.74H203.25a142.36663,142.36663,0,0,0-28.47046,15.17H174.47v.21308a142.36487,142.36487,0,0,0-15,11.95691v25.09a7.74,7.74,0,0,0,7.74,7.74h7.26v78.5a7.74,7.74,0,0,0,7.74,7.74h45.11011a7.74,7.74,0,0,0,7.74-7.74V310.01109A18.10112,18.10112,0,0,1,253.16118,291.91h43.738c30.8252,0,56.10229,24.815,56.23145,55.6399q.00109.29946.00122.59936c0,78.06586-63.72876,141.35077-142.34229,141.35077a144.373,144.373,0,0,1-22.18384-1.712A142.49322,142.49322,0,0,0,255.78955,504.5c78.61353,0,142.34229-63.28491,142.34229-141.35077A140.51592,140.51592,0,0,0,352.10986,259.08923Z"/><path fill="#e53950" d="M220.06006,246.91v123.5a7.746,7.746,0,0,1-7.74,7.74H167.21a7.746,7.746,0,0,1-7.74-7.74V246.91Z"/><path fill="#ca2e43" d="M220.06006,231.91v60H167.21a7.746,7.746,0,0,1-7.74-7.74V239.48a7.74377,7.74377,0,0,1,6.13013-7.57Z"/><path fill="#554e56" d="M209.58529,7.5H301.9941a15,15,0,0,1,15,15V84.4325a0,0,0,0,1,0,0H194.58529a0,0,0,0,1,0,0V22.5a15,15,0,0,1,15-15Z"/><path fill="#433f43" d="M301.99414,7.5h-15v0a34.64321,34.64321,0,0,1-34.64321,34.64322H194.58521V84.4325H316.99414V22.5A15,15,0,0,0,301.99414,7.5Z"/><rect width="169.014" height="30" x="171.493" y="58.958" fill="#685e68" rx="7"/><path fill="#554e56" d="M333.50708,58.95813h-30a7,7,0,0,1,7,7v16a7,7,0,0,1-7,7h30a7,7,0,0,0,7-7v-16A7,7,0,0,0,333.50708,58.95813Z"/><path fill="#fed402" d="M270.64746,148.6395,259.62438,185.773a4,4,0,0,1-7.66922,0L240.93188,148.6395a23.56493,23.56493,0,0,1,29.71558,0Z"/><rect width="192.636" height="60.165" x="159.472" y="216.744" fill="#e53950" rx="7.74"/><path fill="#ca2e43" d="M344.36694,216.744H322.10742V229.4135a32.49551,32.49551,0,0,1-32.4955,32.4955h-130.14v7.25952a7.74048,7.74048,0,0,0,7.74048,7.74048H344.36694a7.74048,7.74048,0,0,0,7.74048-7.74048V224.48444A7.74048,7.74048,0,0,0,344.36694,216.744Z"/><path fill="#282828" d="M275.37111,142.81152a31.26789,31.26789,0,0,0-19.32421-6.94922c-.08887,0-.17579-.001-.26368-.001a31.245,31.245,0,0,0-19.57617,6.94824,7.49912,7.49912,0,0,0-2.46679,7.96094l11.02343,37.13281a11.49953,11.49953,0,0,0,22.04785,0L277.835,150.77051A7.50088,7.50088,0,0,0,275.37111,142.81152Zm-19.584,29.51953-6.01953-20.27734a15.93154,15.93154,0,0,1,6.02344-1.19238c.043,0,.08691,0,.13086.001a15.91467,15.91467,0,0,1,5.88574,1.19043Zm-18.80078-48.10888a7.50018,7.50018,0,1,0-7.5,7.44775A7.474,7.474,0,0,0,236.98635,124.22217ZM255.99807,357.7373a7.44794,7.44794,0,1,0,7.5,7.44776A7.474,7.474,0,0,0,255.99807,357.7373Zm0-30a7.44794,7.44794,0,1,0,7.5,7.44776A7.474,7.474,0,0,0,255.99807,327.7373Zm0,90a7.44794,7.44794,0,1,0,7.5,7.44776A7.474,7.474,0,0,0,255.99807,417.7373Zm248.5-163.332H477.03151l17.38257-17.26172A7.50028,7.50028,0,1,0,483.84377,226.5l-18.321,18.19385-1.10865-23.25733a7.49973,7.49973,0,1,0-14.98242.71485l1.75342,36.78027-54.38867,54.01074a149.10994,149.10994,0,0,0-37.19092-57.1167V224.48047a15.25772,15.25772,0,0,0-15.24023-15.24024H339.273A94.95008,94.95008,0,0,0,325.73708,96.4541h7.76782a14.51669,14.51669,0,0,0,14.5-14.5v-16a14.51669,14.51669,0,0,0-14.5-14.5h-9.01269v-28.958a22.52586,22.52586,0,0,0-22.5-22.5H209.583a22.52586,22.52586,0,0,0-22.5,22.5v28.958h-8.5918a14.51669,14.51669,0,0,0-14.5,14.5v16a14.51669,14.51669,0,0,0,14.5,14.5h7.35083a95.06994,95.06994,0,0,0-26.17016,65.499,93.97825,93.97825,0,0,0,12.59082,47.28711H167.211a15.25793,15.25793,0,0,0-15.24121,15.24024v31.34326a149.10945,149.10945,0,0,0-37.07959,56.81152l-54.0791-53.70361,1.75341-36.78027a7.49973,7.49973,0,1,0-14.98242-.71485l-1.10864,23.25733L28.15236,226.5a7.50028,7.50028,0,1,0-10.57031,10.64355l17.38257,17.26172H7.49807a7.5,7.5,0,0,0,0,15H50.06984l59.92066,59.50391a147.28079,147.28079,0,0,0-4.04517,34.23633c0,82.07617,67.21875,148.85058,149.84278,148.85058a150.20708,150.20708,0,0,0,52.10547-9.249,7.49956,7.49956,0,0,0-5.18555-14.07422,135.29335,135.29335,0,0,1-46.91992,8.32324c-74.35254,0-134.84278-60.04492-134.84278-133.85058a132.36207,132.36207,0,0,1,4.02222-32.30078,7.48454,7.48454,0,0,0,1.1228-4.17969,134.21012,134.21012,0,0,1,25.8794-48.90772V402.63281a7.5,7.5,0,0,0,15,0V385.6333c.08105.00147.15967.01221.24121.01221h14.75879v16.9873a7.5,7.5,0,0,0,15,0v-16.9873h15.34668c.08105,0,.15942-.01074.24023-.01221v16.99951a7.5,7.5,0,0,0,15,0V284.40527h59.72949a7.5,7.5,0,0,0,0-15H167.211a.24173.24173,0,0,1-.24121-.24121V224.48047a.2409.2409,0,0,1,.24121-.24024h19.2146l.01782.001.01172-.001H323.56838a7.01178,7.01178,0,0,0,2.9353,0h17.86158a.24007.24007,0,0,1,.24023.24024v44.68359a.24089.24089,0,0,1-.24023.24121H317.28615a7.5,7.5,0,0,0,0,15h27.07911a15.24326,15.24326,0,0,0,13.65283-8.51025,133.20489,133.20489,0,0,1-26.77,198.1958l-4.14551,2.67383a7.50015,7.50015,0,1,0,8.13086,12.60547l4.2041-2.71192c.03809-.02441.0752-.0498.11328-.07422a148.048,148.048,0,0,0,62.11084-157.33349l60.26465-59.84522h42.57178a7.5,7.5,0,1,0,0-15Zm-337.28711,30h45.3457v85.999a.2409.2409,0,0,1-.24023.24121H167.211a.24173.24173,0,0,1-.24121-.24121V284.39307C167.0508,284.39453,167.12942,284.40527,167.211,284.40527ZM202.083,22.49609a7.5082,7.5082,0,0,1,7.5-7.5h92.40918a7.5082,7.5082,0,0,1,7.5,7.5v28.958H202.083Zm-23.0918,58.958v-15H333.0049v15Zm142.449,127.78613H190.13576a79.16274,79.16274,0,0,1-15.46386-47.28711A80.28306,80.28306,0,0,1,208.628,96.4541h94.324a80.2841,80.2841,0,0,1,33.95629,65.502A79.1665,79.1665,0,0,1,321.44021,209.24023ZM255.99807,387.7373a7.44794,7.44794,0,1,0,7.5,7.44776A7.474,7.474,0,0,0,255.99807,387.7373Zm30.07251-270.96289a7.44794,7.44794,0,1,0,7.5,7.44776A7.474,7.474,0,0,0,286.07058,116.77441Z"/></svg>