<svg xmlns="http://www.w3.org/2000/svg" data-name="Layer 1" viewBox="0 0 512 512"><circle cx="256" cy="228.489" r="220.989" fill="#c4e2ff"/><rect width="35.846" height="63.352" x="238.077" y="314.538" fill="#e8ad8c"/><polygon fill="#e19974" points="238.077 319.936 238.077 314.538 273.923 314.538 273.923 356.734 238.077 319.936"/><path fill="#91deb6" d="M179.87234,304.62977l73.42045-93.88133a3.43725,3.43725,0,0,1,5.41515,0l73.42044,93.88131a3.43889,3.43889,0,0,1-1.81965,5.43825,284.71238,284.71238,0,0,1-148.63613-.00528A3.43526,3.43526,0,0,1,179.87234,304.62977Z"/><path fill="#6ed5a1" d="M332.12843,304.62975,258.708,210.74842a3.43734,3.43734,0,0,0-5.41529,0l-8.08569,10.339,53.93275,68.96246a8.32609,8.32609,0,0,1-4.5892,13.2253,284.84777,284.84777,0,0,1-65.897,7.97667,284.46428,284.46428,0,0,1-49.49292-4.16382,3.41523,3.41523,0,0,0,2.512,2.97473,284.71434,284.71434,0,0,0,148.64882.00177A3.4349,3.4349,0,0,0,332.12843,304.62975Z"/><path fill="#91deb6" d="M191.3368,258.59936l62.36286-79.74219a2.91958,2.91958,0,0,1,4.59959,0l62.36285,79.74218a2.921,2.921,0,0,1-1.5456,4.61921,241.833,241.833,0,0,1-126.25057-.00448A2.91789,2.91789,0,0,1,191.3368,258.59936Z"/><path fill="#6ed5a1" d="M320.66211,258.59937l-62.36279-79.74219a2.91958,2.91958,0,0,0-4.59961,0l-8.19019,10.47265L287.381,242.87021a8.94927,8.94927,0,0,1-5.091,14.23656,241.93526,241.93526,0,0,1-52.98069,6.07219,241.60711,241.60711,0,0,1-38.5691-2.96253,2.89617,2.89617,0,0,0,2.12574,2.99768,241.8307,241.8307,0,0,0,126.25049.0044A2.92085,2.92085,0,0,0,320.66211,258.59937Z"/><path fill="#91deb6" d="M206.00647,212.214l48.21486-61.65141a2.25721,2.25721,0,0,1,3.5561,0l48.21486,61.6514a2.25832,2.25832,0,0,1-1.195,3.57128,186.96946,186.96946,0,0,1-97.60865-.00347A2.25593,2.25593,0,0,1,206.00647,212.214Z"/><path fill="#6ed5a1" d="M305.9922,212.214l-48.21488-61.65151a2.25722,2.25722,0,0,0-3.55613,0l-8.19067,10.47363,26.5435,33.94074a9.56459,9.56459,0,0,1-5.57669,15.26786,186.89683,186.89683,0,0,1-61.16237,2.257,2.24412,2.24412,0,0,0,1.35376,3.28,186.9666,186.9666,0,0,0,97.62789-.00168A2.25267,2.25267,0,0,0,305.9922,212.214Z"/><circle cx="255.999" cy="148.095" r="20" fill="#f07281"/><path fill="#eb5569" d="M262.02344,129.02179a19.99947,19.99947,0,0,1-22.51709,30.37726,19.99819,19.99819,0,1,0,22.51709-30.37726Z"/><path fill="#f1f6f9" d="M95.99536,380.918a220.98821,220.98821,0,0,0,320.00928,0,1101.79162,1101.79162,0,0,0-320.00928,0Z"/><path fill="#7a6d79" d="M440,504.5H72l26.58114-79.74342A15,15,0,0,1,112.81139,414.5H399.18861a15,15,0,0,1,14.23025,10.25658Z"/><path fill="#685e68" d="M413.419,424.7568A15.0003,15.0003,0,0,0,399.18848,414.5H375l5.96024,17.88071A32,32,0,0,1,350.60237,474.5H82l-10,30H440Z"/><rect width="198" height="30" x="157" y="444.5" fill="#cbc4cc" rx="6"/><path fill="#eaf6ff" d="M390.30023 131.12854h0A57.30771 57.30771 0 0 0 355 166.42874v0a57.30771 57.30771 0 0 0-35.30019-35.30019h0A57.30775 57.30775 0 0 0 355 95.82833v0a57.30775 57.30775 0 0 0 35.30019 35.3002zM159.07806 236.57289h0a44.06694 44.06694 0 0 0-27.1442 27.14419v0a44.06693 44.06693 0 0 0-27.14419-27.14419h0a44.067 44.067 0 0 0 27.14419-27.14419v0a44.067 44.067 0 0 0 27.1442 27.14419z"/><path fill="#282828" d="M289.32009,84.273a7.5,7.5,0,1,0-7.5-7.5A7.50006,7.50006,0,0,0,289.32009,84.273ZM317.2344,138.208a49.53533,49.53533,0,0,1,30.67968,30.68066,7.50035,7.50035,0,0,0,14.168,0A49.53534,49.53534,0,0,1,392.76174,138.208a7.50035,7.50035,0,0,0,0-14.168,49.53157,49.53157,0,0,1-30.67969-30.67969,7.50035,7.50035,0,0,0-14.168,0A49.53155,49.53155,0,0,1,317.2344,124.04a7.50034,7.50034,0,0,0,0,14.168Zm37.76367-25.52246A64.15946,64.15946,0,0,0,373.43752,131.124a64.17494,64.17494,0,0,0-18.43945,18.43946A64.175,64.175,0,0,0,336.55861,131.124,64.1595,64.1595,0,0,0,354.99807,112.68555ZM179.40725,171.3667a7.5,7.5,0,1,0,7.5,7.5A7.50006,7.50006,0,0,0,179.40725,171.3667Zm245.24023,19.08691a7.5,7.5,0,1,0-7.5-7.5A7.50006,7.50006,0,0,0,424.64748,190.45361ZM371.938,208.74414a7.5,7.5,0,1,0,7.5,7.5A7.50006,7.50006,0,0,0,371.938,208.74414Zm37.70947,89.626a7.5,7.5,0,1,0-7.5-7.5A7.50006,7.50006,0,0,0,409.64748,298.37012Zm-298.77759-3.12451a7.5,7.5,0,1,0,7.5,7.5A7.4999,7.4999,0,0,0,110.86989,295.24561ZM72.59279,174.5957a7.49969,7.49969,0,0,0-9.10449,5.44239c-1.49219,5.92773-2.72265,12.00488-3.65722,18.06152a7.50052,7.50052,0,0,0,6.26757,8.55664,7.59981,7.59981,0,0,0,1.1543.08887,7.50208,7.50208,0,0,0,7.40234-6.35645c.86426-5.59765,2.001-11.21289,3.37989-16.68847A7.50105,7.50105,0,0,0,72.59279,174.5957ZM504.49807,496.99609h-59.094l-24.87182-74.61523a22.47141,22.47141,0,0,0-21.34571-15.38477h-.53515a228.48706,228.48706,0,1,0-285.311,0h-.53076a22.47139,22.47139,0,0,0-21.3457,15.38477L66.59206,496.99609H7.49807a7.5,7.5,0,1,0,0,15H439.97219l.0249.002.02442-.002h64.47656a7.5,7.5,0,0,0,0-15ZM42.50881,228.48535c0-117.71875,95.77051-213.48926,213.48926-213.48926S469.48733,110.7666,469.48733,228.48535a212.67608,212.67608,0,0,1-56.23267,144.4624,1113.78388,1113.78388,0,0,0-131.83374-10.9082v-35.7207a292.44972,292.44972,0,0,0,50.8418-9.01514,10.93757,10.93757,0,0,0,5.77148-17.29785l-22.07959-28.2334c1.71-.42383,3.41724-.8584,5.11865-1.31836a10.4213,10.4213,0,0,0,5.49512-16.47851L303.09987,223.9668q1.83033-.4563,3.65015-.94434a9.75964,9.75964,0,0,0,5.14844-15.43262L278.1216,164.40039a27.5,27.5,0,1,0-44.249,0l-33.77393,43.1875a9.755,9.755,0,0,0,5.12989,15.42969c1.21923.32959,2.44555.63623,3.67187.94189l-23.47265,30.01514a10.41773,10.41773,0,0,0,5.47949,16.47559c1.70678.46142,3.41943.89794,5.13452,1.32275l-22.07886,28.23193a10.93468,10.93468,0,0,0,5.75,17.29395,292.31356,292.31356,0,0,0,50.86231,9.0166V362.04a1113.87521,1113.87521,0,0,0-131.83741,10.9082A212.59911,212.59911,0,0,1,42.50881,228.48535ZM257.001,312.42969a277.64534,277.64534,0,0,1-67.40332-8.06836l22.77392-29.12012a249.37085,249.37085,0,0,0,43.6294,3.85547c.2998,0,.59863-.001.89843-.00195a249.41312,249.41312,0,0,0,42.72461-3.8545l22.77442,29.1211A277.37756,277.37756,0,0,1,257.001,312.42969Zm9.41992,14.81494v34.53955q-4.98341-.04761-9.96191-.0498h-.46094q-5.20862,0-10.42285.05078V327.24023q5.20532.186,10.41894.19141c.35254,0,.709-.001,1.06152-.002Q261.741,327.41284,266.42092,327.24463ZM245.59084,214.459a179.89432,179.89432,0,0,1-28.68848-4.00878l28.82373-36.85694a27.40436,27.40436,0,0,0,20.542,0l28.8247,36.85694a180.13241,180.13241,0,0,1-22.49316,3.541,7.50051,7.50051,0,0,0,.68555,14.96875c.23242,0,.46679-.01172.70312-.0332q6.35889-.59107,12.69141-1.60645l23.748,30.36621a234.50512,234.50512,0,0,1-53.583,6.40821c-.28223.001-.56153.00195-.84375.00195a234.457,234.457,0,0,1-54.4336-6.41016l23.74976-30.36914a194.73144,194.73144,0,0,0,19.40259,2.11621c.14843.00879.2959.0127.44238.0127a7.5,7.5,0,0,0,.42871-14.98731Zm-2.09375-66.36816a12.5,12.5,0,1,1,12.5,12.5A12.51408,12.51408,0,0,1,243.49709,148.09082Zm-131.3645,238.1543A1098.34317,1098.34317,0,0,1,255.999,376.73438h.45411a1098.2495,1098.2495,0,0,1,143.408,9.51025,216.06713,216.06713,0,0,1-26.76049,20.75146H138.90139A216.10663,216.10663,0,0,1,112.13259,386.24512Zm-29.72852,110.751L105.69436,427.125a7.48978,7.48978,0,0,1,7.11523-5.12891H135.573a6.72327,6.72327,0,0,0,2.44751,0h261.166a7.48979,7.48979,0,0,1,7.11524,5.12891l23.29028,69.87109Zm77.18335-388.51074a7.5,7.5,0,1,0,7.5,7.5A7.50037,7.50037,0,0,0,159.58742,108.48535ZM348.99807,436.99609h-186a13.51476,13.51476,0,0,0-13.5,13.5v18a13.51476,13.51476,0,0,0,13.5,13.5H298.50881a7.5,7.5,0,0,0,0-15H164.49807v-15h183v15H328.50881a7.5,7.5,0,1,0,0,15h20.48926a13.51476,13.51476,0,0,0,13.5-13.5v-18A13.51477,13.51477,0,0,0,348.99807,436.99609Zm-187.458-207.51171a36.36317,36.36317,0,0,1-22.52441-22.52344,7.50034,7.50034,0,0,0-14.168,0,36.36171,36.36171,0,0,1-22.52344,22.52344,7.50034,7.50034,0,0,0,0,14.168,36.36319,36.36319,0,0,1,22.52344,22.52442,7.50035,7.50035,0,0,0,14.168,0,36.36927,36.36927,0,0,1,22.52441-22.52442,7.50034,7.50034,0,0,0,0-14.168Zm-29.6084,18.21972a51.00808,51.00808,0,0,0-11.13476-11.13574,51.02509,51.02509,0,0,0,11.13476-11.13477,51.02492,51.02492,0,0,0,11.13477,11.13477A51.05078,51.05078,0,0,0,131.93166,247.7041ZM201.19631,53.35156a7.49987,7.49987,0,0,0-4.48828-14.3125A199.74182,199.74182,0,0,0,77.26858,142.18164a7.50013,7.50013,0,1,0,13.498,6.543A184.6869,184.6869,0,0,1,201.19631,53.35156Z"/></svg>