<svg xmlns="http://www.w3.org/2000/svg" data-name="Layer 1" viewBox="0 0 512 512"><path fill="#c4e2ff" d="M471.7002,380.17993A19.02723,19.02723,0,0,1,445.75,387.12L405.6001,364,412.04,387.96a18.99914,18.99914,0,0,1-36.71,9.81006l-16.27-60.56006-46.87012-26.98-26.69971-15.37A6.99713,6.99713,0,0,0,275,300.91992V385.6l44.46,44.34a18.97179,18.97179,0,0,1-26.87012,26.79L275,439.18994v46.23a19.00009,19.00009,0,0,1-38,0v-46.23l-17.27,17.23c-7.02,6.99-18.31982,7.82007-25.91992,1.46008a18.89807,18.89807,0,0,1-1.27-27.94006L237,385.6V300.91992A6.99713,6.99713,0,0,0,226.50977,294.86l-73.56983,42.35-16.27,60.56006A18.99914,18.99914,0,0,1,99.96,387.96L106.3999,364,66.25,387.12a18.96148,18.96148,0,1,1-19-32.82l40.1499-23.11011L63.37012,324.77A18.94992,18.94992,0,1,1,73.21,288.16992l60.73,16.22009,73.52-42.31994a7.00355,7.00355,0,0,0,0-12.14014l-73.52-42.31994L73.21,223.83a18.94986,18.94986,0,1,1-9.83984-36.6l24.02978-6.41992L47.25,157.7a18.96148,18.96148,0,1,1,19-32.82L106.3999,148,99.96,124.04a18.99913,18.99913,0,0,1,36.71-9.81l16.27,60.56006,73.56983,42.35A6.99718,6.99718,0,0,0,237,211.08V126.4L192.54,82.06a18.898,18.898,0,0,1,1.27-27.94c7.6001-6.36,18.8999-5.53,25.91992,1.46L237,72.81V26.58a19.0001,19.0001,0,0,1,38,0V72.81l17.27-17.23c7.02-6.99,18.31982-7.81995,25.91992-1.46a18.898,18.898,0,0,1,1.27,27.94L275,126.4v84.68a6.99718,6.99718,0,0,0,10.49023,6.06l73.56983-42.35,16.27-60.56006a18.99913,18.99913,0,0,1,36.71,9.81L405.6001,148,445.75,124.88a18.96148,18.96148,0,1,1,19,32.82l-40.1499,23.11011L448.62988,187.23a18.94986,18.94986,0,1,1-9.83984,36.6l-60.73-16.22-4.6001,2.65L304.54,249.92993a7.00355,7.00355,0,0,0,0,12.14014l31.66992,18.23,41.8501,24.09,60.73-16.22009a18.95,18.95,0,1,1,9.83984,36.6001l-24.02978,6.41992L464.75,354.30005A18.9095,18.9095,0,0,1,471.7002,380.17993Z"/><path fill="#b3dafe" d="M433.62988 202.23a18.9307 18.9307 0 0 1 13.71533 21.8783 18.92378 18.92378 0 0 0 1.28467-36.8783l-16.47607-4.40186-10.59847 6.10049a5.69726 5.69726 0 0 0 1.37161 10.44192zM195.63184 268.87866L133.93994 304.39 73.21 288.16992a18.99907 18.99907 0 0 0-23.27 13.40015c-.11865.44018-.19922.881-.28515 1.32153a18.947 18.947 0 0 1 8.55517.27832l60.73 16.22009 73.52-42.31994A6.98118 6.98118 0 0 0 195.63184 268.87866zM241 22.64a18.97226 18.97226 0 0 1 19 18.94V73.61759a5.88832 5.88832 0 0 0 10.04717 4.1685L277.27 70.58c7.02-6.99 18.31982-7.81995 25.91992-1.46a18.88378 18.88378 0 0 1 1.63477 27.53558L319.46 82.06a18.898 18.898 0 0 0-1.27-27.94c-7.6001-6.36-18.8999-5.53-25.91992 1.46L275 72.81V26.58a19.00131 19.00131 0 0 0-37.6499-3.58228A19.12177 19.12177 0 0 1 241 22.64zM379.37012 115.2A18.99818 18.99818 0 0 1 397.04 139.04l-2.87157 10.68377a5.69726 5.69726 0 0 0 8.345 6.416L430.75 139.88a19.02718 19.02718 0 0 1 25.9502 6.94007 18.8337 18.8337 0 0 1 1.88574 14.42785L464.75 157.7a18.96148 18.96148 0 1 0-19-32.82L405.6001 148 412.04 124.04a18.99914 18.99914 0 0 0-36.71-9.81l-.35987 1.33887A18.94467 18.94467 0 0 1 379.37012 115.2zM266.4874 134.93A22.07721 22.07721 0 0 0 260 150.56208V226.08a6.99718 6.99718 0 0 0 10.49023 6.06l67.64517-38.93948a16.48956 16.48956 0 0 0 7.69836-10.01253l.24925-.92775L285.49023 217.14A6.99718 6.99718 0 0 1 275 211.08V126.44043zM448.62988 324.77a18.94992 18.94992 0 1 0-9.83984-36.6001l-60.73 16.22009-41.8501-24.09-31.66992-18.23a6.89912 6.89912 0 0 1-3.17188-3.94837L289.54 264.92993a7.00355 7.00355 0 0 0 0 12.14014l31.66992 18.23 35.09 20.19869a18.88706 18.88706 0 0 0 14.296 1.87855L423.79 303.16992a18.99907 18.99907 0 0 1 23.27 13.40015 18.77575 18.77575 0 0 1 .2793 8.5448zM51.25 139.88l19.21316 11.06374a10.01243 10.01243 0 0 0 14.66565-11.27556L84.96 139.04a18.975 18.975 0 0 1-.61377-3.73944L66.25 124.88a18.96252 18.96252 0 0 0-28.14062 12.83368A18.95321 18.95321 0 0 1 51.25 139.88zM275 385.6V312.45605L270.49023 309.86A6.99713 6.99713 0 0 0 260 315.91992v74.737a23.95875 23.95875 0 0 0 7.04027 16.96428L304.46 444.93994a18.87585 18.87585 0 0 1 5.2207 16.98657 18.93858 18.93858 0 0 0 9.7793-31.98657zM222 400.55957l-29.46 29.38037c-.13037.12964-.23926.272-.36475.40442L222 400.6zM135.78477 360.232l-13.75254 51.19013A18.96872 18.96872 0 0 0 136.66992 397.77L150.917 344.73975l-5.77812 3.32616A20.03614 20.03614 0 0 0 135.78477 360.232zM266.23657 460.40885A3.65545 3.65545 0 0 0 260 462.99731v37.42261a18.94921 18.94921 0 0 1-.3501 3.5824A18.95839 18.95839 0 0 0 275 485.41992V469.14746zM204.73 70.58l7.22285 7.20613A5.88832 5.88832 0 0 0 222 73.61759V57.84473L219.73 55.58c-7.02-6.99-18.31982-7.81995-25.91992-1.46a18.84493 18.84493 0 0 0-6.47949 11.01965A19.70252 19.70252 0 0 1 204.73 70.58zM121.66992 129.23l16.27 60.56006 73.56983 42.35A6.99718 6.99718 0 0 0 222 226.08V214.544L152.93994 174.79l-16.27-60.56006a19.00455 19.00455 0 0 0-37.00049 1.33624A18.99844 18.99844 0 0 1 121.66992 129.23zM464.75 354.30005l-27.57227-15.87048a19.16427 19.16427 0 0 1-3.54785 1.34045l-11.1794 2.98675a5.49353 5.49353 0 0 0-1.32255 10.06854L449.75 369.30005a18.90988 18.90988 0 0 1 9.14062 19.9862 18.9207 18.9207 0 0 0 5.85938-34.9862z"/><path fill="#282828" d="M282.49807,382.48633V367.24316a7.5,7.5,0,0,0-15,0v18.35645a7.49881,7.49881,0,0,0,2.2041,5.31055l44.458,44.33105a11.473,11.473,0,0,1-16.27735,16.17285L280.294,433.876a7.5001,7.5001,0,0,0-12.7959,5.31054v46.22559a11.50013,11.50013,0,0,1-23,0V439.18652a7.5001,7.5001,0,0,0-12.7959-5.31054l-17.27441,17.22461a11.838,11.838,0,0,1-15.81055,1.02734,11.413,11.413,0,0,1-.78125-16.88672l44.458-44.33105a7.49881,7.49881,0,0,0,2.2041-5.31055V300.918a14.50013,14.50013,0,0,0-21.73438-12.56641l-73.57031,42.35352a7.50328,7.50328,0,0,0-3.501,4.55371l-16.27246,60.55762a11.51992,11.51992,0,0,1-21.08008,2.74609,11.325,11.325,0,0,1-1.13867-8.66016l6.4375-23.957a7.50056,7.50056,0,0,0-10.98535-8.44629L62.50588,380.6123A11.53808,11.53808,0,0,1,46.7842,376.419a11.41613,11.41613,0,0,1,4.20606-15.62207l40.14746-23.11329a7.50031,7.50031,0,0,0-1.80567-13.74609l-24.02734-6.41992a11.44909,11.44909,0,1,1,5.96484-22.10742L132,311.63672a7.50676,7.50676,0,0,0,5.67774-.7461l73.52441-42.32812a14.50005,14.50005,0,0,0,0-25.13281l-73.52441-42.32813A7.49791,7.49791,0,0,0,132,200.35547L71.26858,216.58105a11.51032,11.51032,0,0,1-14.09082-8.09667,11.44035,11.44035,0,0,1,8.127-14.01075l24.02637-6.41894a7.5,7.5,0,0,0,1.80664-13.7461L50.99026,151.19531a11.41756,11.41756,0,0,1-4.20606-15.623,11.53824,11.53824,0,0,1,15.72168-4.19239l40.14746,23.11328a7.50056,7.50056,0,0,0,10.98535-8.44628l-6.4375-23.958a11.44034,11.44034,0,0,1,8.127-14.01075,11.51038,11.51038,0,0,1,14.09179,8.09766l16.27246,60.55664a7.50328,7.50328,0,0,0,3.501,4.55371l24.91406,14.34278a7.50027,7.50027,0,0,0,7.48438-13l-22.21973-12.791L143.90627,112.2832a26.51986,26.51986,0,0,0-48.55762-6.35351,26.22819,26.22819,0,0,0-2.63379,20.05176l1.74219,6.48437L69.99026,118.37988a26.56173,26.56173,0,0,0-36.18653,9.67676,26.41658,26.41658,0,0,0,9.70215,36.13867L67.918,178.249l-6.48438,1.73243a26.4493,26.4493,0,1,0,13.707,51.09179l57.73828-15.42578,70.08593,40.34863-70.08593,40.34864L75.14162,280.918a26.53649,26.53649,0,0,0-32.45019,18.69726,26.44111,26.44111,0,0,0,18.74121,32.39454l6.48633,1.73242L43.50588,347.79688a26.41656,26.41656,0,0,0-9.70312,36.13769,26.56034,26.56034,0,0,0,36.1875,9.67676l24.46679-14.08594-1.74219,6.48438a26.4407,26.4407,0,0,0,18.74122,32.3955A26.54053,26.54053,0,0,0,143.90627,399.709l15.46582-57.55566,70.126-40.37012v80.70313l-42.25391,42.13379a26.41252,26.41252,0,0,0,1.75,39.01367c10.40137,8.69824,26.22559,7.86035,36.02539-1.91211l4.47852-4.46582v28.15625a26.50005,26.50005,0,0,0,53,0V457.25586l4.793,4.7793a26.47269,26.47269,0,1,0,37.46093-37.415Zm185.99219-34.68945-24.41309-14.05469,6.48535-1.73242a26.44931,26.44931,0,1,0-13.707-51.0918l-57.73828,15.42676-70.08594-40.34864,70.08594-40.34863,57.7373,15.42578a26.54,26.54,0,0,0,32.4502-18.69629,26.43941,26.43941,0,0,0-18.74219-32.3955l-6.48437-1.73243,24.41211-14.05371a26.41658,26.41658,0,0,0,9.70214-36.13867,26.56085,26.56085,0,0,0-36.18652-9.67676l-24.4668,14.08594,1.74219-6.48437a26.43941,26.43941,0,0,0-18.74219-32.39551,26.54218,26.54218,0,0,0-32.44922,18.69726L352.624,169.83789l-70.126,40.37109v-80.7041L324.751,87.37207a26.41147,26.41147,0,0,0-1.749-39.01367c-10.40136-8.69922-26.22558-7.86035-36.02539,1.91211l-4.47851,4.46582V26.5791a26.50006,26.50006,0,0,0-53,0V54.73633l-4.47852-4.46582c-9.80078-9.77246-25.625-10.61231-36.02539-1.91211a26.41145,26.41145,0,0,0-1.75,39.01269l42.25391,42.13379V210.209l-21.09278-12.14355a7.50026,7.50026,0,0,0-7.48437,13l21.84277,12.57519a14.50013,14.50013,0,0,0,21.73438-12.5664V126.3916a7.49881,7.49881,0,0,0-2.2041-5.31055L197.835,76.749a11.41188,11.41188,0,0,1,.78223-16.88476,11.83824,11.83824,0,0,1,15.81055,1.02734l17.27441,17.22461a7.5001,7.5001,0,0,0,12.7959-5.31055V26.5791a11.50013,11.50013,0,0,1,23,0V72.80566a7.5001,7.5001,0,0,0,12.7959,5.31055L297.56838,60.8916a11.84025,11.84025,0,0,1,15.81055-1.02734A11.41191,11.41191,0,0,1,314.16018,76.75l-44.458,44.33105a7.49881,7.49881,0,0,0-2.2041,5.31055v84.68262a14.50013,14.50013,0,0,0,21.73437,12.5664l73.57032-42.35449a7.50326,7.50326,0,0,0,3.501-4.55371l16.27246-60.55664a11.51924,11.51924,0,0,1,21.08008-2.74609,11.32193,11.32193,0,0,1,1.13867,8.65918l-6.4375,23.958a7.50056,7.50056,0,0,0,10.98535,8.44628l40.14747-23.11328a11.53932,11.53932,0,0,1,15.72167,4.19239,11.41755,11.41755,0,0,1-4.20605,15.623l-40.14746,23.11328a7.5,7.5,0,0,0,1.80664,13.7461l24.02637,6.41894a11.44909,11.44909,0,1,1-5.96485,22.10742l-60.73047-16.22558a7.49614,7.49614,0,0,0-5.67773.74609L300.794,243.42969a14.5,14.5,0,0,0,0,25.13281l73.52441,42.32812a7.505,7.505,0,0,0,5.67773.7461l60.73145-16.22656a11.5117,11.5117,0,0,1,14.09082,8.0957,11.44018,11.44018,0,0,1-8.12793,14.01172l-24.02637,6.41992a7.5003,7.5003,0,0,0-1.80566,13.74609l40.14746,23.11329A11.41468,11.41468,0,0,1,465.211,376.419a11.54124,11.54124,0,0,1-15.7207,4.19238L409.34279,357.499a7.50057,7.50057,0,0,0-10.98535,8.44629l6.4375,23.957a11.43875,11.43875,0,0,1-8.12793,14.01075,11.51322,11.51322,0,0,1-14.09082-8.09668l-16.27246-60.55762a7.50326,7.50326,0,0,0-3.501-4.55371l-73.57032-42.35352A14.50013,14.50013,0,0,0,267.49807,300.918v34.33789a7.5,7.5,0,0,0,15,0V301.7832l70.126,40.3711L368.08986,399.709a26.52053,26.52053,0,0,0,48.55762,6.35352,26.23051,26.23051,0,0,0,2.63379-20.05273l-1.74219-6.48438,24.4668,14.085a26.55779,26.55779,0,0,0,36.18652-9.67578,26.41514,26.41514,0,0,0-9.70214-36.13769Z"/></svg>