<svg xmlns="http://www.w3.org/2000/svg" data-name="Layer 1" viewBox="0 0 512 512"><path fill="#46cc8d" d="M472.25977,300.98c.80029-7.64,11.18017-14.88,11.18017-22.74,0-7.85-10.37988-15.09-11.18017-22.74-.80957-7.79,7.85009-17.02,6.25-24.55-1.61963-7.65-13.26954-12.58-15.65967-19.92-2.41016-7.42,4.11963-18.26.98-25.32-3.18018-7.12-15.61011-9.5-19.49-16.19995-3.89014-6.73.23-18.69-4.33008-24.96-3.24-4.45-10.53-5.63-16.3501-7.98a16.20606,16.20606,0,0,1-6.06982-3.82c-5.2-5.77-3.63013-18.33-9.40015-23.53-4.83984-4.36-14.2998-3.04-20.92993-5.21a12.31755,12.31755,0,0,1-3.45-1.69C377.54,97.75,376.48,85.14,369.74,81.24c-6.7-3.87-18.15991,1.49-25.28-1.69-7.06006-3.15-10.73-15.26-18.15991-17.67C318.96,59.5,308.87988,67.13,301.23,65.51c-4.08984-.86005-7.75-4.51-11.5-7.8-3.16992-2.78-6.38989-5.3-9.96-5.68-7.64014-.79-15.91992,8.78-23.77,8.78s-16.12988-9.57-23.77-8.78c-7.8.81-13.91992,11.89-21.46,13.48-7.6499,1.62-17.73-6.01-25.07007-3.63C178.28,64.29,174.6001,76.4,167.54,79.55c-7.12012,3.17-18.58008-2.18-25.28,1.69-6.73,3.9-7.8,16.51-14.07007,21.07-6.29,4.58-18.60986,1.72-24.37988,6.91-5.77,5.2-4.2002,17.76-9.40015,23.53C89.22,138.51,76.56006,138.26,71.99,144.55c-4.56006,6.26-.42993,18.23-4.33008,24.96-3.87988,6.7-16.30981,9.08-19.49,16.2-3.13989,7.06,3.39014,17.9.98,25.32C46.76,218.37,35.10986,223.3,33.49,230.95c-1.59985,7.53,7.06006,16.76,6.25,24.55-.8,7.65-11.17993,14.89-11.17993,22.74,0,7.86,10.37988,15.1,11.17993,22.74.81006,7.8-7.84985,17.02-6.25,24.56,1.61987,7.65,13.27,12.58,15.65991,19.92,2.41016,7.42-4.11987,18.25-.98,25.31,3.18018,7.12,15.61011,9.5,19.49,16.2,3.89014,6.74-.23,18.7,4.33008,24.97,4.57007,6.28,17.22,6.03,22.41992,11.8s3.63013,18.32,9.40015,23.52,18.08984,2.34,24.37988,6.91c6.27,4.56,7.33008,17.17,14.07007,21.07,6.7,3.88,18.15991-1.48,25.28,1.7,7.06006,3.14,10.73,15.26,18.15991,17.67,7.34009,2.38,17.42017-5.26,25.07007-3.64,7.54,1.6,13.65991,12.67,21.46,13.48,7.64014.8,15.91992-8.77,23.77-8.77,5.7,0,11.62012,5.04,17.35986,7.49a12.87043,12.87043,0,0,0,6.41016,1.28c7.8-.81,13.91992-11.88,21.46-13.48,7.6499-1.62,17.73,6.02,25.07007,3.64C333.72,492.2,337.3999,480.08,344.46,476.94c7.12012-3.18,18.58008,2.18,25.28-1.7,6.73-3.9,7.8-16.51,14.07007-21.07,6.29-4.57,18.60986-1.71,24.37988-6.91,5.77-5.19,4.2002-17.75,9.40015-23.52,5.18994-5.77,17.84985-5.52,22.41992-11.8,4.56006-6.27.42993-18.23,4.33008-24.97,3.87988-6.7,16.30981-9.08,19.49-16.2,3.13965-7.06-3.39014-17.89-.98-25.31,2.39013-7.34,14.04-12.27,15.65967-19.92C480.10986,318,471.4502,308.78,472.25977,300.98ZM256,382.11c-6.45,0-13.60986,9.24-19.75,8.16-6.31006-1.1-9.8999-12.25-15.79-14.39-5.99-2.18-15.88989,4.03-21.33984.88-5.5-3.18-5.05-14.88-9.89014-18.94-4.83984-4.08-16.29-1.61005-20.35986-6.46-4.06006-4.84.33984-15.68-2.84009-21.18-3.15015-5.45-14.76-7.03-16.93994-13.03-2.14014-5.88,5.71-14.55,4.59985-20.86-1.06982-6.14-11.42993-11.6-11.42993-18.05,0-6.44,10.36011-11.91,11.42993-18.04,1.11011-6.32-6.74-14.98-4.59985-20.87005,2.17993-5.99,13.78979-7.58,16.93994-13.03,3.17993-5.49-1.22-16.33,2.84009-21.17,4.06982-4.85,15.52-2.39,20.36987-6.46,4.83008-4.06,4.38013-15.76,9.88013-18.94,5.45-3.15,15.34985,3.06,21.34985.88a9.88826,9.88826,0,0,0,3.6001-2.53c4-4.04,7.26-11,12.17993-11.87,2.45-.43,5.07007.79,7.73,2.4,4.01,2.43,8.14014,5.76,12.02,5.76,6.45,0,13.60986-9.23,19.75-8.16,6.31006,1.11005,9.8999,12.26,15.79,14.4a11.751,11.751,0,0,0,5.58984.28c5.46021-.79,11.78-3.45,15.75-1.16,3.44019,1.99,4.56006,7.33,6.09009,12.03.92017,2.81,1.99,5.38995,3.8,6.91,4.83984,4.07,16.29,1.61,20.35986,6.46,4.06006,4.84-.33984,15.68,2.84009,21.18,3.15015,5.44,14.76,7.03,16.93994,13.02,2.14014,5.89-5.71,14.55-4.59985,20.87005,1.06982,6.13,11.42993,11.6,11.42993,18.04,0,6.45-10.36011,11.91-11.42993,18.05-1.11011,6.31,6.74,14.98,4.59985,20.86-2.17993,6-13.78979,7.58-16.93994,13.03-3.17993,5.5,1.22,16.34-2.84009,21.18-4.06982,4.85-15.52,2.38-20.36987,6.46-4.83008,4.06-4.38013,15.76-9.88013,18.94-5.45,3.15-15.34985-3.06-21.34985-.88-5.88013,2.14-9.47,13.29-15.78,14.39C269.60986,391.35,262.45,382.11,256,382.11Z"/><path fill="#00c27a" d="M233.5 51.99542a9.01355 9.01355 0 0 0-1.27.03455 11.52049 11.52049 0 0 0-4.47461 1.54877A15.43988 15.43988 0 0 1 233.5 51.99542zM230.75 390.27a7.1304 7.1304 0 0 0 2.75-1.16156c-4.72485-3.17194-8.06055-11.41931-13.04-13.2284-5.99-2.18-15.88989 4.03-21.33984.88-5.5-3.18-5.05-14.88-9.89014-18.94-4.83984-4.08-16.29-1.61005-20.35986-6.46-4.06006-4.84.33984-15.68-2.84009-21.18-3.15015-5.45-14.76-7.03-16.93994-13.03-2.14014-5.88 5.71-14.55 4.59985-20.86-1.06982-6.14-11.42993-11.6-11.42993-18.05 0-6.44 10.36011-11.91 11.42993-18.04 1.11011-6.32-6.74-14.98-4.59985-20.87005 2.17993-5.99 13.78979-7.58 16.93994-13.03 3.17993-5.49-1.22-16.33 2.84009-21.17 4.06982-4.85 15.52-2.39 20.36987-6.46 4.83008-4.06 4.38013-15.76 9.88013-18.94 5.45-3.15 15.34985 3.06 21.34985.88a9.88826 9.88826 0 0 0 3.6001-2.53c3.20825-3.24024 5.94214-8.35193 9.43652-10.70038A7.15174 7.15174 0 0 0 230.75 166.21c-6.14014-1.07-13.3 8.16-19.75 8.16-3.87988 0-8.01-3.33-12.02-5.76-2.65991-1.61-5.28-2.83-7.73-2.4-4.91992.87-8.17993 7.83-12.17993 11.87a9.88826 9.88826 0 0 1-3.6001 2.53c-6 2.18-15.8999-4.03-21.34985-.88-5.5 3.18-5.05 14.88-9.88013 18.94-4.84985 4.07-16.3 1.61-20.36987 6.46-4.06006 4.84.33984 15.68-2.84009 21.17-3.15015 5.45-14.76 7.04-16.93994 13.03-2.14014 5.89 5.71 14.55 4.59985 20.87005C107.62012 266.33 97.26 271.8 97.26 278.24c0 6.45 10.36011 11.91 11.42993 18.05 1.11011 6.31-6.74 14.98-4.59985 20.86 2.17993 6 13.78979 7.58 16.93994 13.03 3.17993 5.5-1.22 16.34 2.84009 21.18 4.06982 4.85 15.52 2.38 20.35986 6.46 4.84009 4.06 4.39014 15.76 9.89014 18.94 5.45 3.15 15.34985-3.06 21.33984-.88 5.89014 2.14 9.48 13.29 15.79 14.39 6.14014 1.08 13.30005-8.16 19.75-8.16S224.60986 391.35 230.75 390.27zM472.25977 300.98c.80029-7.64 11.18017-14.88 11.18017-22.74 0-7.85-10.37988-15.09-11.18017-22.74-.80957-7.79 7.85009-17.02 6.25-24.55-1.61963-7.65-13.26954-12.58-15.65967-19.92-2.41016-7.42 4.11963-18.26.98-25.32-3.18018-7.12-15.61011-9.5-19.49-16.19995-3.89014-6.73.23-18.69-4.33008-24.96-3.24-4.45-10.53-5.63-16.3501-7.98a16.20606 16.20606 0 0 1-6.06982-3.82c-5.2-5.77-3.63013-18.33-9.40015-23.53-4.83984-4.36-14.2998-3.04-20.92993-5.21a12.31755 12.31755 0 0 1-3.45-1.69C377.54 97.75 376.48 85.14 369.74 81.24c-6.7-3.87-18.15991 1.49-25.28-1.69-7.06006-3.15-10.73-15.26-18.15991-17.67C318.96 59.5 308.87988 67.13 301.23 65.51c-4.08984-.86005-7.75-4.51-11.5-7.8-3.16992-2.78-6.38989-5.3-9.96-5.68-7.64014-.79-15.91992 8.78-23.77 8.78-5.5498 0-11.314-4.78-16.91553-7.30414A33.51569 33.51569 0 0 1 244.73 57.71c3.75 3.29 7.41016 6.94 11.5 7.8 7.6499 1.62 17.73-6.01 25.07007-3.63C288.73 64.29 292.3999 76.4 299.46 79.55c7.12012 3.18 18.58008-2.18 25.28 1.69 6.74 3.9 7.8 16.51 14.07007 21.08a12.31755 12.31755 0 0 0 3.45 1.69c6.63013 2.17 16.09009.85 20.92993 5.21 5.77 5.2 4.2002 17.76 9.40015 23.53a16.20606 16.20606 0 0 0 6.06982 3.82c5.82007 2.35 13.11011 3.53 16.3501 7.98 4.56006 6.27.43994 18.23 4.33008 24.96 3.87988 6.7 16.30981 9.08 19.49 16.2 3.13965 7.06-3.39014 17.9-.98 25.32 2.39013 7.34 14.04 12.27 15.65967 19.92 1.60009 7.53-7.05957 16.76-6.25 24.55.80029 7.65 11.18017 14.89 11.18017 22.74 0 7.86-10.37988 15.1-11.18017 22.74-.80957 7.8 7.85009 17.02 6.25 24.56-1.61963 7.65-13.26954 12.58-15.65967 19.92-2.41016 7.42 4.11963 18.25.98 25.31-3.18018 7.12-15.61011 9.5-19.49 16.2-3.90015 6.74.23 18.7-4.33008 24.97-4.57007 6.28-17.23 6.03-22.41992 11.8-5.2 5.77-3.63013 18.33-9.40015 23.52-5.77 5.2-18.08984 2.34-24.37988 6.91-6.27 4.56-7.34009 17.17-14.07007 21.07-6.7 3.88-18.15991-1.48-25.28 1.7-7.06006 3.14-10.74 15.26-18.15991 17.67-7.34009 2.38-17.42017-5.26-25.07007-3.64-6.05786 1.28552-11.19971 8.68012-17.032 11.95911C244.76367 500.39557 250.48779 495.68 256 495.68c5.7 0 11.62012 5.04 17.35986 7.49a12.87043 12.87043 0 0 0 6.41016 1.28c7.8-.81 13.91992-11.88 21.46-13.48 7.6499-1.62 17.73 6.02 25.07007 3.64C333.72 492.2 337.3999 480.08 344.46 476.94c7.12012-3.18 18.58008 2.18 25.28-1.7 6.73-3.9 7.8-16.51 14.07007-21.07 6.29-4.57 18.60986-1.71 24.37988-6.91 5.77-5.19 4.2002-17.75 9.40015-23.52 5.18994-5.77 17.84985-5.52 22.41992-11.8 4.56006-6.27.42993-18.23 4.33008-24.97 3.87988-6.7 16.30981-9.08 19.49-16.2 3.13965-7.06-3.39014-17.89-.98-25.31 2.39013-7.34 14.04-12.27 15.65967-19.92C480.10986 318 471.4502 308.78 472.25977 300.98zM228.35986 503.17c-.21679-.09259-.43457-.19537-.65185-.29492a11.57445 11.57445 0 0 0 4.522 1.575 9.03561 9.03561 0 0 0 1.32935.03516A14.30193 14.30193 0 0 1 228.35986 503.17z"/><circle cx="36.845" cy="198.75" r="29.345" fill="#e53950"/><path fill="#ca2e43" d="M40.50806,169.64038a29.33634,29.33634,0,0,1-21.20557,49.61713,29.58422,29.58422,0,0,1-3.66309-.23572,29.33955,29.33955,0,1,0,24.86866-49.38141Z"/><circle cx="136.593" cy="475.155" r="29.345" fill="#e53950"/><path fill="#ca2e43" d="M145.64355,447.23926a29.34416,29.34416,0,0,1-33.10156,44.72,29.34293,29.34293,0,1,0,33.10156-44.72Z"/><circle cx="368.486" cy="475.155" r="29.345" fill="#fed402"/><path fill="#fac600" d="M385.98975,451.60162a29.34757,29.34757,0,0,1-45.57837,32.10682,29.34681,29.34681,0,1,0,45.57837-32.10682Z"/><circle cx="475.155" cy="206.197" r="29.345" fill="#fed402"/><path fill="#fac600" d="M487.90918,179.76245a29.34874,29.34874,0,0,1-36.8501,43.1756,29.34464,29.34464,0,1,0,36.8501-43.1756Z"/><circle cx="475.155" cy="342.454" r="29.345" fill="#e53950"/><circle cx="36.845" cy="348.804" r="29.345" fill="#fed402"/><path fill="#fac600" d="M48.54761,321.89221a29.34632,29.34632,0,0,1-38.40552,39.078,29.34469,29.34469,0,1,0,38.40552-39.078Z"/><path fill="#00c27a" d="M271.81006,83.1,271,85.59,267.92993,95l-.05981.2-4.52,13.89L243.98,168.61c-2.65991-1.61-5.28-2.83-7.73-2.4-4.91992.87-8.17993,7.83-12.17993,11.87l-4.64014-5.88a2.99151,2.99151,0,0,0-3.15991-1.03l-20.33008,5.7a2.99882,2.99882,0,0,1-3.65991-3.82l19.82007-60.89,14.27-43.85,17.22,5.6.76.25L271,82.84Z"/><path fill="#e53950" d="M256.81006,83.1,256,85.59,252.92993,95l-.05981.2-4.52,13.89L222.72,187.84a3.00123,3.00123,0,0,1-5.21.93L204.42993,172.2a2.99151,2.99151,0,0,0-3.15991-1.03l-20.33008,5.7a2.99882,2.99882,0,0,1-3.65991-3.82l19.82007-60.89,14.27-43.85,17.22,5.6.76.25L256,82.84Z"/><path fill="#00c27a" d="M383.81006,102.32C377.54,97.75,376.48,85.14,369.74,81.24c-6.7-3.87-18.15991,1.49-25.28-1.69-7.06006-3.15-10.73-15.26-18.15991-17.67C318.96,59.5,308.87988,67.13,301.23,65.51c-4.08984-.86005-7.75-4.51-11.5-7.8l-31.24,9.5v32.2l13.46021,4.09229L274.07007,110l.05981.2,4.52,13.89,18.48,56.8c5.46021-.79,11.78-3.45,15.75-1.16,3.44019,1.99,4.56006,7.33,6.09009,12.03l3.6001-4.56a2.99151,2.99151,0,0,1,3.15991-1.03l20.33008,5.7a2.99882,2.99882,0,0,0,3.65991-3.82l-12.286-37.745A16.36055,16.36055,0,0,1,357.75019,129.588l12.66973,3.852A13.049,13.049,0,0,0,387.26,120.95V104.01A12.31755,12.31755,0,0,1,383.81006,102.32Z"/><path fill="#e53950" d="M331.06006,176.87,310.73,171.17a2.99151,2.99151,0,0,0-3.15991,1.03L294.49,188.77a3.00123,3.00123,0,0,1-5.21-.93L263.6499,109.09l-4.52-13.89-.05981-.2L256,85.59l-.81006-2.49L256,82.84l26.6499-8.68.76-.25,17.22-5.6,14.27,43.85L334.72,173.05A2.99882,2.99882,0,0,1,331.06006,176.87Z"/><polygon fill="#ca2e43" points="256.81 83.1 252.87 95.2 197.1 112.16 211.37 68.31 256.81 83.1"/><polygon fill="#ca2e43" points="314.9 112.16 259.13 95.2 255.19 83.1 300.63 68.31 314.9 112.16"/><path fill="#ca2e43" d="M283.40991,63.63V82.77a27.399,27.399,0,0,1-19.76,26.32l-4.52-13.89-.05981-.2a26.27292,26.27292,0,0,1-6.14014,0l-.05981.2-4.52,13.89a27.399,27.399,0,0,1-19.76-26.32V63.63a27.40991,27.40991,0,0,1,54.81982,0Z"/><path fill="#e53950" d="M272.28589,74.29717l-111.92415,34.031a13.05122,13.05122,0,0,1-16.84788-12.48678V20.56A13.05122,13.05122,0,0,1,160.36174,8.07317l111.92415,34.031Z"/><path fill="#e53950" d="M239.71411,74.29717l111.92415,34.031a13.05122,13.05122,0,0,0,16.84788-12.48678V20.56A13.05122,13.05122,0,0,0,351.63826,8.07317l-111.92415,34.031Z"/><path fill="#eb5569" d="M283.40991,48.63V67.77a26.93664,26.93664,0,0,1-.76,6.39A27.38457,27.38457,0,0,1,259.07007,95a26.27292,26.27292,0,0,1-6.14014,0A27.38457,27.38457,0,0,1,229.3501,74.16a26.93664,26.93664,0,0,1-.76-6.39V48.63a27.40991,27.40991,0,0,1,54.81982,0Z"/><path fill="#ca2e43" d="M487.90918,316.01866a29.34874,29.34874,0,0,1-36.8501,43.1756,29.34464,29.34464,0,1,0,36.8501-43.1756Z"/><path fill="#282828" d="M480.71828,306.0249a10.97584,10.97584,0,0,1-1.00146-4.26806c.17383-1.65821,2.374-4.71094,4.14062-7.16309,3.31934-4.60547,7.08106-9.8252,7.08106-16.35742,0-6.52539-3.75879-11.74121-7.0752-16.34375-1.76953-2.45508-3.97168-5.51172-4.14551-7.17481-.18457-1.76757,1.30274-5.12988,2.61524-8.09668.68457-1.54687,1.37988-3.12011,1.99072-4.73877a36.84424,36.84424,0,1,0-23.8208-69.48779c-.9668-.59375-1.9375-1.166-2.89648-1.72363-2.6377-1.5332-5.91993-3.44141-6.77539-4.918-.87012-1.50488-.88868-5.31738-.9043-8.37988-.02735-5.63477-.0586-12.02246-3.85059-17.23535-3.80566-5.23731-9.88574-7.23438-15.251-8.99708-2.90235-.95312-6.51368-2.13867-7.666-3.415-1.1582-1.28516-1.96191-5.00684-2.6084-7.99707-1.1914-5.51172-2.542-11.75782-7.34765-16.08887-4.79786-4.31543-11.14551-5.00977-16.74707-5.62207-3.04395-.333-6.833-.74707-8.23145-1.76367-1.3916-1.01368-2.94531-4.48047-4.19336-7.26661-1.93677-4.32128-4.09692-9.11962-8.04687-12.47265v-55.959A20.54992,20.54992,0,0,0,349.4551.89355L278.92629,22.3374a34.80426,34.80426,0,0,0-45.85693.00049L162.542.89355a20.55026,20.55026,0,0,0-26.53027,19.66211V76.51611c-3.9419,3.34912-6.10107,8.14209-8.03711,12.45752-1.25,2.78711-2.80664,6.25489-4.20117,7.26953-1.40723,1.02442-5.19824,1.44043-8.24414,1.77442-5.59668.61328-11.94141,1.30859-16.74317,5.627-4.79882,4.32617-6.14941,10.57227-7.34082,16.084-.64648,2.99023-1.45019,6.71191-2.6084,7.99707-1.15136,1.27734-4.76269,2.46289-7.66406,3.416-5.36621,1.76172-11.44824,3.75879-15.24609,8.98828-3.79785,5.21192-3.82715,11.59766-3.85449,17.23242-.01368,3.06543-.03223,6.87989-.90723,8.39063a10.83555,10.83555,0,0,1-3.25195,2.793,36.83569,36.83569,0,1,0-32.09717,65.35742c.24536,4.56494,2.13159,8.83838,3.84717,12.71973,1.3125,2.96679,2.79882,6.33007,2.61621,8.09277-.17481,1.665-2.377,4.72168-4.14649,7.17676-3.3164,4.60254-7.07519,9.81836-7.07519,16.34375,0,6.53222,3.76172,11.75195,7.08105,16.35742,1.7666,2.45215,3.9668,5.50488,4.13965,7.16016.18457,1.76855-1.30176,5.13086-2.61328,8.09765-.45068,1.01807-.90234,2.05518-1.33691,3.10742a36.83924,36.83924,0,1,0,21.73754,70.22266c1.4253.93457,2.88819,1.78516,4.32691,2.62109,2.63672,1.53321,5.917,3.44043,6.76953,4.91211.873,1.51172.8916,5.32715.90723,8.39258.02734,5.63574.05859,12.02344,3.85449,17.24024,3.80176,5.22558,9.874,7.2207,15.23144,8.98046,2.90625.95508,6.52247,2.14258,7.68164,3.42969,1.15821,1.28418,1.9629,5.00293,2.6084,7.99121,1.19141,5.50879,2.542,11.75293,7.34082,16.07813a18.30782,18.30782,0,0,0,6.10132,3.58105A36.832,36.832,0,1,0,170.2156,490.186c3.30761,4.52,7.074,9.57714,13.16821,11.55322,6.1123,1.98242,12.17383.0332,17.52441-1.6875,3.082-.99121,6.57618-2.11914,8.30274-1.749,1.65039.34961,4.46582,2.86036,6.72754,4.87793,4.23242,3.77442,9.02832,8.05176,15.50879,8.72461,6.36132.6709,11.875-2.49218,16.73828-5.27929,2.82324-1.61719,6.02246-3.4502,7.8125-3.4502s4.98926,1.833,7.8125,3.4502c4.417,2.53222,9.37011,5.37011,15.00586,5.37011a16.69772,16.69772,0,0,0,1.72656-.08984c6.48633-.67383,11.28223-4.95117,15.51465-8.72559,2.26172-2.01757,5.07715-4.52832,6.72461-4.87793,1.73047-.35839,5.22363.75782,8.30566,1.749,5.34961,1.71972,11.41309,3.66992,17.53516,1.68457a20.89715,20.89715,0,0,0,9.07959-6.37012,36.82861,36.82861,0,0,0,63.31982-37.47705c4.291-.66553,8.6565-1.88037,12.18262-5.05713,4.79883-4.32422,6.15137-10.57031,7.34473-16.082.64648-2.98926,1.45214-6.71094,2.61132-7.99707,1.1543-1.28027,4.76661-2.4668,7.66993-3.41992,5.36132-1.76074,11.43847-3.75684,15.24316-8.98535,3.7959-5.21485,3.82617-11.60059,3.85254-17.2334.01465-3.06543.03223-6.87988.90527-8.38867.92578-1.59961,4.38086-3.78614,7.15625-5.543a50.73132,50.73132,0,0,0,9.11279-6.78565,36.84281,36.84281,0,1,0,13.61719-72.37207Zm-5.56494-121.67627a21.84269,21.84269,0,0,1,2.50488,43.54151c-.02734.00293-.05517.00732-.083.01025a21.8433,21.8433,0,1,1-2.42188-43.55176ZM278.92678,94.05518l24.63257,7.48974,21.427,65.82813-14.1582-3.96875a7.50525,7.50525,0,0,0-7.91211,2.57519l-9.1084,11.542-25.13892-77.23584A35.01078,35.01078,0,0,0,278.92678,94.05518Zm60.55273,136.00146c2.5918,4.47949,7.2041,6.832,11.27442,8.9082a29.65313,29.65313,0,0,1,5.00488,2.93848,30.46078,30.46078,0,0,1-1.91016,5.34277c-1.79785,4.25-3.83593,9.06641-2.92968,14.23829.88574,5.06054,4.39355,8.83105,7.48828,12.1582a27.88613,27.88613,0,0,1,3.75976,4.59668,27.88654,27.88654,0,0,1-3.75976,4.59668c-3.09473,3.32617-6.60254,7.09668-7.48828,12.15625-.90625,5.17383,1.13183,9.99023,2.92968,14.24023a30.46085,30.46085,0,0,1,1.91016,5.34278,29.65382,29.65382,0,0,1-5.00488,2.93847c-4.07032,2.07617-8.68262,4.42871-11.27442,8.90723-2.61425,4.51758-2.35351,9.71972-2.123,14.30957a29.94243,29.94243,0,0,1-.04688,5.73926,29.87179,29.87179,0,0,1-5.665,1.04394c-4.55566.56543-9.71875,1.20606-13.70508,4.55567-3.97754,3.33984-5.49707,8.30468-6.83886,12.68554a29.76817,29.76817,0,0,1-2.01465,5.418,27.99806,27.99806,0,0,1-5.63086-.94922c-4.48731-1.02539-9.57324-2.18554-14.48731-.39843-4.84375,1.76367-7.95507,5.88281-10.70117,9.5166a29.35534,29.35534,0,0,1-3.791,4.43652,30.6237,30.6237,0,0,1-4.89063-2.793c-3.89062-2.52051-8.30078-5.37695-13.58691-5.37695s-9.69629,2.85644-13.58692,5.37695a30.62407,30.62407,0,0,1-4.89062,2.793,29.49692,29.49692,0,0,1-3.791-4.43555c-2.74511-3.63476-5.85742-7.75488-10.70117-9.51757-4.917-1.79-10.001-.62891-14.48633.39843a28.91165,28.91165,0,0,1-5.63281.94922,29.74012,29.74012,0,0,1-2.01465-5.418c-1.34082-4.37988-2.86035-9.3457-6.83887-12.68652-3.9873-3.34863-9.14941-3.99024-13.7041-4.55566a29.80064,29.80064,0,0,1-5.665-1.043,29.94331,29.94331,0,0,1-.04687-5.73926c.23047-4.58985.49121-9.793-2.12305-14.31055-2.59179-4.47851-7.2041-6.83105-11.27441-8.90625a29.65342,29.65342,0,0,1-5.00488-2.93847,30.46074,30.46074,0,0,1,1.91015-5.34278c1.79785-4.25,3.83594-9.0664,2.92969-14.23926-.88574-5.06054-4.39356-8.83105-7.48828-12.15722a27.88717,27.88717,0,0,1-3.75977-4.59668,27.88675,27.88675,0,0,1,3.75977-4.59668c3.09472-3.32715,6.60254-7.09766,7.48828-12.15723.90625-5.17285-1.13184-9.98926-2.92969-14.23926a30.46067,30.46067,0,0,1-1.91015-5.34277,29.625,29.625,0,0,1,5.00585-2.93945c4.06934-2.0752,8.68165-4.42774,11.27442-8.90723,2.61328-4.5166,2.35254-9.71973,2.12207-14.30957a29.94449,29.94449,0,0,1,.04687-5.73926,29.82673,29.82673,0,0,1,5.666-1.043c4.55469-.56543,9.7168-1.207,13.70508-4.55664,3.97656-3.33984,5.49609-8.30468,6.83789-12.68457a29.668,29.668,0,0,1,2.01465-5.418,16.64614,16.64614,0,0,1,3.47339.4712l8.71118,11.03857a7.50075,7.50075,0,0,0,13.01953-2.3252l5.67383-17.43164a28.7525,28.7525,0,0,1,3.73242-4.35937,30.69034,30.69034,0,0,1,4.89062,2.793c3.89063,2.52051,8.30078,5.37695,13.58692,5.37695s9.69629-2.85644,13.58691-5.37695a30.7332,30.7332,0,0,1,4.89063-2.793,28.67762,28.67762,0,0,1,3.73242,4.35937l5.67383,17.43164a7.50041,7.50041,0,0,0,13.01953,2.3252l8.71142-11.03906a16.757,16.757,0,0,1,3.47412-.47071,29.75505,29.75505,0,0,1,2.01465,5.417c1.34082,4.38086,2.86035,9.34668,6.83789,12.68554,3.98731,3.35059,9.15039,3.99121,13.70508,4.55664a29.87174,29.87174,0,0,1,5.665,1.04395,29.9321,29.9321,0,0,1,.04688,5.73828C337.126,220.33789,336.86526,225.54,339.47951,230.05664Zm-99.456-71.15527,15.97436-49.07959,15.9751,49.08056c-3.99267.77246-7.53149,3.04981-10.54321,5-1.65918,1.0752-4.43653,2.875-5.39551,2.96778-1.03125-.09278-3.80859-1.89258-5.46777-2.96778C247.55446,161.95215,244.0154,159.67383,240.02346,158.90137ZM236.09084,48.626a19.90723,19.90723,0,1,1,39.81445,0v19.1416a19.90722,19.90722,0,0,1-39.81445,0Zm-3.02075,45.42968a35.01367,35.01367,0,0,0,10.25708,6.2295l-23.18652,71.23877a7.43357,7.43357,0,0,0-.5398,1.6582l-1.41235,4.33935-9.1084-11.542a7.503,7.503,0,0,0-7.91211-2.57519l-14.1582,3.96875,21.42675-65.82764Zm-82.05835-73.5a5.5506,5.5506,0,0,1,7.166-5.31054l65.60473,19.94726a34.715,34.715,0,0,0-2.69165,13.4336v2.07031H194.003a7.5,7.5,0,1,0,0,15h27.08789v2.07129a34.71143,34.71143,0,0,0,2.6919,13.43359l-65.605,19.94727a5.55176,5.55176,0,0,1-7.166-5.31153ZM14.99807,198.74512a21.84473,21.84473,0,1,1,21.84472,21.8457A21.86985,21.86985,0,0,1,14.99807,198.74512ZM36.84279,370.64551A21.84522,21.84522,0,1,1,58.68752,348.7998,21.87006,21.87006,0,0,1,36.84279,370.64551Zm99.748,126.35058a21.84522,21.84522,0,1,1,21.84473-21.84472A21.86985,21.86985,0,0,1,136.59084,496.99609Zm313.376-124.48828c-4.38086,2.77246-9.34571,5.915-12.11719,10.70606-2.87109,4.96093-2.89844,10.73535-2.92285,15.8291-.01367,3.0293-.0332,7.17676-.98047,8.47851-.957,1.31446-4.90918,2.61231-7.79492,3.55957-4.832,1.58692-10.3086,3.38575-14.13379,7.63184-3.83106,4.251-5.05176,9.88965-6.12891,14.86426-.6416,2.96582-1.52051,7.02734-2.72363,8.11133-1.2002,1.081-5.32813,1.5332-8.3418,1.86328-2.0083.21924-4.05737.44629-6.09668.83447a36.62059,36.62059,0,0,0-20.24218-6.08057,7.5,7.5,0,0,0,0,15A21.84522,21.84522,0,1,1,347.158,479.86719a7.49283,7.49283,0,0,0-.24194-1.2583,21.86529,21.86529,0,0,1,2.35547-13.86573,7.50039,7.50039,0,0,0-13.18165-7.16015,36.91766,36.91766,0,0,0-4.45019,17.56836c0,1.11865.05859,2.22363.15674,3.31738-.68408.88916-1.34156,1.78467-1.98682,2.666-1.89941,2.59668-4.26465,5.82714-5.82617,6.33691-1.50586.48926-5.43457-.77637-8.30274-1.69922-4.86328-1.56543-10.37792-3.33789-16.00878-2.14355-5.54688,1.17675-9.82422,4.99121-13.59864,8.35742-2.41113,2.15039-5.41211,4.82715-7.08691,5.001-1.5293.14844-5.11231-1.88281-7.71875-3.376-4.44629-2.54785-9.48633-5.43555-15.26953-5.43555s-10.82324,2.8877-15.26953,5.43555c-2.60547,1.49316-6.18653,3.5166-7.72461,3.375-1.66895-.17285-4.66992-2.84961-7.08106-5-3.77441-3.36621-8.05176-7.18067-13.60156-8.35742-5.63086-1.19336-11.14453.57812-16.00586,2.14355-2.86914.92285-6.79687,2.19043-8.30371,1.69824-1.56934-.50879-3.93457-3.74218-5.835-6.33984-2.44507-3.3418-5.17359-7.02686-8.916-9.53369a36.82452,36.82452,0,0,0-55.67749-27.99756c-.14428-.01563-.28637-.03516-.43091-.05078-3.00488-.3291-7.12109-.78125-8.32324-1.86426-1.2041-1.085-2.08105-5.14258-2.72265-8.10645-1.0752-4.97363-2.29493-10.61132-6.127-14.8623-3.83008-4.25-9.30859-6.0498-14.14258-7.63867-2.88281-.94629-6.831-2.24414-7.7832-3.55371-.94922-1.30469-.96972-5.458-.98535-8.49024-.02441-5.08984-.05371-10.8584-2.91992-15.82617-2.46289-4.25195-6.50049-6.98486-10.38037-9.293A36.81024,36.81024,0,0,0,44.72317,312.8125c1.60009-3.87646,2.94482-8.11133,2.47412-12.61816-.58887-5.62793-3.93653-10.27246-6.88965-14.3711-1.89356-2.627-4.25-5.89648-4.25-7.58691,0-1.6836,2.35351-4.94922,4.24414-7.57422,2.956-4.10156,6.30664-8.751,6.89648-14.39063.59571-5.73535-1.748-11.0371-3.81543-15.71386a55.908,55.908,0,0,1-2.10571-5.24317A36.82038,36.82038,0,0,0,68.2969,179.57812a21.377,21.377,0,0,0,5.85058-6.3125c2.874-4.959,2.90137-10.73632,2.92481-15.833.01464-3.02735.03418-7.17481.98437-8.47852.9541-1.31445,4.9082-2.61328,7.7959-3.56152,4.83008-1.58594,10.30371-3.38281,14.127-7.626,3.833-4.252,5.05176-9.89258,6.127-14.86914.6416-2.96484,1.51953-7.02637,2.71582-8.10547,1.20312-1.08105,5.3291-1.53418,8.34277-1.86426,5.06348-.55566,10.80371-1.18457,15.43457-4.55664a20.1585,20.1585,0,0,0,4.78711-5.10644A20.6399,20.6399,0,0,0,156.502,116.40527,20.75674,20.75674,0,0,0,162.541,115.5l28.38818-8.63135-22.52,69.188a7.5,7.5,0,0,0,9.15625,9.543l10.55371-2.9585c-.61767,1.59717-1.10986,3.19971-1.5664,4.69092-.54981,1.7959-1.4629,4.77637-2.14942,5.58692-.918.542-4.02637.92773-5.89844,1.16015-5.04882.626-11.333,1.40625-15.38086,6.22363-4.03613,4.80665-3.71972,11.1211-3.46484,16.19532.09473,1.89355.25195,5.03613-.12793,6.03711-.67969.80957-3.44043,2.21777-5.10351,3.0664C149.875,227.92285,144.21,230.8125,142.043,236.7627c-2.13477,5.86523.31836,11.666,2.29,16.32714.748,1.76856,1.98926,4.70313,1.96582,5.78516-.36817.97754-2.44238,3.207-3.69238,4.55078-3.4961,3.75781-7.84668,8.4336-7.84668,14.81348,0,6.3789,4.35058,11.05566,7.84668,14.81347,1.25,1.34375,3.32324,3.57227,3.69238,4.54981.02344,1.082-1.21777,4.01758-1.96582,5.78613-1.97168,4.66113-4.42481,10.46192-2.29,16.32715,2.167,5.9502,7.833,8.83984,12.38477,11.16113,1.66406.84766,4.42382,2.25586,5.10351,3.06543.37988,1.001.22266,4.14356.12695,6.03711-.2539,5.07422-.57031,11.38965,3.4668,16.19531,4.0459,4.81739,10.33008,5.59766,15.37891,6.22364,1.87207.23242,4.98047.61914,5.89941,1.16015.68652.81055,1.59863,3.791,2.14844,5.58789,1.49219,4.874,3.34961,10.94043,8.80957,14.09961,5.41992,3.13477,11.57617,1.7295,16.52148.60059,1.8584-.4248,4.94336-1.12988,6-.9248.90723.52929,2.76075,2.98339,3.87793,4.46191,3.08789,4.08789,6.93164,9.17578,13.19434,10.27246a13.48386,13.48386,0,0,0,2.32324.20117c5.13281,0,9.60254-2.89551,13.28809-5.28222,1.65918-1.0752,4.43652-2.875,5.3955-2.96778,1.03125.09278,3.8086,1.89258,5.46778,2.96778,4.23144,2.74023,9.49609,6.14355,15.6123,5.08105,6.26172-1.09668,10.10547-6.18457,13.19336-10.27246,1.11719-1.47852,2.97071-3.93164,3.87891-4.46191,1.05469-.20411,4.14062.5,5.999.9248,4.94531,1.12988,11.09863,2.53711,16.52051-.60059,5.46-3.15918,7.31738-9.22558,8.80957-14.10058.5498-1.79492,1.46289-4.77637,2.14941-5.58692.917-.541,4.02637-.92675,5.89942-1.16015,5.04883-.626,11.332-1.40625,15.3789-6.22364,4.03711-4.80664,3.72071-11.12109,3.46582-16.19433-.09472-1.89356-.252-5.03711.12793-6.03711.67872-.81055,3.44043-2.21875,5.10352-3.06641,4.55273-2.32226,10.21875-5.21093,12.38477-11.16113,2.13476-5.86523-.31836-11.666-2.29-16.32715-.74805-1.76855-1.98926-4.7041-1.96582-5.78613.36914-.97754,2.44238-3.20606,3.69238-4.54981,3.49609-3.75781,7.84668-8.43457,7.84668-14.81347,0-6.37988-4.35059-11.05567-7.84668-14.81348-1.25-1.34375-3.32422-3.57324-3.69238-4.55078-.02344-1.082,1.21777-4.0166,1.96582-5.78516,1.97168-4.66113,4.4248-10.46191,2.29-16.32714-2.166-5.9502-7.832-8.83887-12.38477-11.16114-1.66309-.84765-4.4248-2.25586-5.10352-3.0664-.37988-1-.22265-4.14356-.12695-6.03614.25391-5.07422.57031-11.38964-3.4668-16.19531-4.04589-4.81738-10.3291-5.59766-15.37793-6.22363-1.873-.2334-4.98242-.61914-5.90039-1.16016-.68554-.80957-1.59863-3.792-2.14843-5.58789-.45655-1.49121-.94849-3.09375-1.56592-4.69092l10.55224,2.9585a7.5,7.5,0,0,0,9.15625-9.543l-23.83154-73.21777a7.468,7.468,0,0,0-2.67529-12.86133l-28.86646-8.77686a34.71062,34.71062,0,0,0,2.69165-13.4331V65.69629h27.08789a7.5,7.5,0,0,0,0-15H290.90529V48.626a34.71575,34.71575,0,0,0-2.69189-13.43409l65.606-19.94677a5.55026,5.55026,0,0,1,7.165,5.31054V79.7666a7.44681,7.44681,0,0,0,0,1.74317V95.83691a5.55177,5.55177,0,0,1-7.166,5.31153l-11.43262-3.47559a7.50009,7.50009,0,0,0-4.36328,14.35156L349.4551,115.5a20.75662,20.75662,0,0,0,6.03906.90527,20.64015,20.64015,0,0,0,19.11475-13.13916,20.20508,20.20508,0,0,0,4.79052,5.1167c4.63086,3.36524,10.36622,3.99219,15.42579,4.5459,3.01464.3291,7.14453.78125,8.34179,1.8584,1.20313,1.084,2.08106,5.14551,2.72266,8.11035,1.07519,4.97656,2.29394,10.61719,6.13184,14.875,3.82519,4.23731,9.29589,6.03418,14.123,7.61914,2.88672.94824,6.83985,2.24707,7.79785,3.56641.94922,1.30469.96973,5.457.98536,8.48926.02441,5.08984.05371,10.85839,2.91992,15.8164,2.28027,3.93848,5.91333,6.56934,9.521,8.77246a36.81181,36.81181,0,0,0,20.47657,60.27149c-1.83252,4.23486-3.57227,8.93261-3.04639,13.96875.58887,5.63476,3.93945,10.28418,6.89551,14.38574,1.89062,2.625,4.24414,5.89062,4.24414,7.57422,0,1.69043-2.35645,4.96-4.25,7.58691-2.95313,4.09864-6.30078,8.74317-6.8916,14.3916a20.27628,20.27628,0,0,0,.51855,6.73389A36.81541,36.81541,0,0,0,452.0862,371.1499C451.35842,371.62646,450.63332,372.08594,449.96682,372.50781Zm25.18652-8.21386a21.84473,21.84473,0,1,1,21.84473-21.84473A21.86986,21.86986,0,0,1,475.15334,364.294Zm-90.573,10.21044a7.44794,7.44794,0,1,0,7.5,7.44776A7.4739,7.4739,0,0,0,384.58034,374.50439Zm4.95484-197.65625a7.50018,7.50018,0,1,0-7.5,7.44776A7.47389,7.47389,0,0,0,389.53518,176.84814ZM308.79226,423.3584a7.44794,7.44794,0,1,0,7.5,7.44775A7.474,7.474,0,0,0,308.79226,423.3584ZM416.87038,265.39648a7.44794,7.44794,0,1,0,7.5,7.44776A7.474,7.474,0,0,0,416.87038,265.39648ZM196.34426,423.3584a7.44794,7.44794,0,1,0,7.5,7.44775A7.474,7.474,0,0,0,196.34426,423.3584ZM99.14577,239.37451a7.44794,7.44794,0,1,0,7.5,7.44776A7.474,7.474,0,0,0,99.14577,239.37451Zm17.88745,105.42481a7.44793,7.44793,0,1,0,7.5,7.44775A7.474,7.474,0,0,0,117.03322,344.79932Zm22.5-186.12452a7.50018,7.50018,0,1,0-7.5,7.44776A7.474,7.474,0,0,0,139.53322,158.6748Z"/></svg>